%TF.GenerationSoftware,KiCad,Pcbnew,5.1.5-1.fc31*%
%TF.CreationDate,2020-04-02T16:35:23+02:00*%
%TF.ProjectId,avrisp-mkII-clone,61767269-7370-42d6-9d6b-49492d636c6f,1.0*%
%TF.SameCoordinates,PX54c81a0PY82ce540*%
%TF.FileFunction,Soldermask,Bot*%
%TF.FilePolarity,Negative*%
%FSLAX46Y46*%
G04 Gerber Fmt 4.6, Leading zero omitted, Abs format (unit mm)*
G04 Created by KiCad (PCBNEW 5.1.5-1.fc31) date 2020-04-02 16:35:23*
%MOMM*%
%LPD*%
G04 APERTURE LIST*
%ADD10C,0.150000*%
G04 APERTURE END LIST*
D10*
G36*
X111984549Y3668884D02*
G01*
X112095734Y3646768D01*
X112243850Y3585416D01*
X112272293Y3573635D01*
X112305203Y3560003D01*
X112493720Y3434040D01*
X112654040Y3273720D01*
X112780003Y3085203D01*
X112866768Y2875734D01*
X112911000Y2653364D01*
X112911000Y2426636D01*
X112866768Y2204266D01*
X112780003Y1994797D01*
X112654040Y1806280D01*
X112493720Y1645960D01*
X112305203Y1519997D01*
X112095734Y1433232D01*
X111984549Y1411116D01*
X111873365Y1389000D01*
X111646635Y1389000D01*
X111535451Y1411116D01*
X111424266Y1433232D01*
X111214797Y1519997D01*
X111026280Y1645960D01*
X110865960Y1806280D01*
X110739997Y1994797D01*
X110653232Y2204266D01*
X110609000Y2426636D01*
X110609000Y2653364D01*
X110653232Y2875734D01*
X110739997Y3085203D01*
X110865960Y3273720D01*
X111026280Y3434040D01*
X111214797Y3560003D01*
X111247708Y3573635D01*
X111276150Y3585416D01*
X111424266Y3646768D01*
X111535451Y3668884D01*
X111646635Y3691000D01*
X111873365Y3691000D01*
X111984549Y3668884D01*
G37*
G36*
X2764549Y3668884D02*
G01*
X2875734Y3646768D01*
X3023850Y3585416D01*
X3052293Y3573635D01*
X3085203Y3560003D01*
X3273720Y3434040D01*
X3434040Y3273720D01*
X3560003Y3085203D01*
X3646768Y2875734D01*
X3691000Y2653364D01*
X3691000Y2426636D01*
X3646768Y2204266D01*
X3560003Y1994797D01*
X3434040Y1806280D01*
X3273720Y1645960D01*
X3085203Y1519997D01*
X2875734Y1433232D01*
X2764549Y1411116D01*
X2653365Y1389000D01*
X2426635Y1389000D01*
X2315451Y1411116D01*
X2204266Y1433232D01*
X1994797Y1519997D01*
X1806280Y1645960D01*
X1645960Y1806280D01*
X1519997Y1994797D01*
X1433232Y2204266D01*
X1389000Y2426636D01*
X1389000Y2653364D01*
X1433232Y2875734D01*
X1519997Y3085203D01*
X1645960Y3273720D01*
X1806280Y3434040D01*
X1994797Y3560003D01*
X2027708Y3573635D01*
X2056150Y3585416D01*
X2204266Y3646768D01*
X2315451Y3668884D01*
X2426635Y3691000D01*
X2653365Y3691000D01*
X2764549Y3668884D01*
G37*
G36*
X43636564Y5400611D02*
G01*
X43827833Y5321385D01*
X43827835Y5321384D01*
X43999973Y5206365D01*
X44146365Y5059973D01*
X44261385Y4887833D01*
X44340611Y4696564D01*
X44381000Y4493516D01*
X44381000Y4286484D01*
X44340611Y4083436D01*
X44261385Y3892167D01*
X44261384Y3892165D01*
X44146365Y3720027D01*
X43999973Y3573635D01*
X43827835Y3458616D01*
X43827834Y3458615D01*
X43827833Y3458615D01*
X43636564Y3379389D01*
X43433516Y3339000D01*
X43226484Y3339000D01*
X43023436Y3379389D01*
X42832167Y3458615D01*
X42832166Y3458615D01*
X42832165Y3458616D01*
X42660027Y3573635D01*
X42513635Y3720027D01*
X42398616Y3892165D01*
X42398615Y3892167D01*
X42319389Y4083436D01*
X42279000Y4286484D01*
X42279000Y4493516D01*
X42319389Y4696564D01*
X42398615Y4887833D01*
X42513635Y5059973D01*
X42660027Y5206365D01*
X42832165Y5321384D01*
X42832167Y5321385D01*
X43023436Y5400611D01*
X43226484Y5441000D01*
X43433516Y5441000D01*
X43636564Y5400611D01*
G37*
G36*
X37136564Y5400611D02*
G01*
X37327833Y5321385D01*
X37327835Y5321384D01*
X37499973Y5206365D01*
X37646365Y5059973D01*
X37761385Y4887833D01*
X37840611Y4696564D01*
X37881000Y4493516D01*
X37881000Y4286484D01*
X37840611Y4083436D01*
X37761385Y3892167D01*
X37761384Y3892165D01*
X37646365Y3720027D01*
X37499973Y3573635D01*
X37327835Y3458616D01*
X37327834Y3458615D01*
X37327833Y3458615D01*
X37136564Y3379389D01*
X36933516Y3339000D01*
X36726484Y3339000D01*
X36523436Y3379389D01*
X36332167Y3458615D01*
X36332166Y3458615D01*
X36332165Y3458616D01*
X36160027Y3573635D01*
X36013635Y3720027D01*
X35898616Y3892165D01*
X35898615Y3892167D01*
X35819389Y4083436D01*
X35779000Y4286484D01*
X35779000Y4493516D01*
X35819389Y4696564D01*
X35898615Y4887833D01*
X36013635Y5059973D01*
X36160027Y5206365D01*
X36332165Y5321384D01*
X36332167Y5321385D01*
X36523436Y5400611D01*
X36726484Y5441000D01*
X36933516Y5441000D01*
X37136564Y5400611D01*
G37*
G36*
X63777395Y7264454D02*
G01*
X63950466Y7192766D01*
X63950467Y7192765D01*
X64106227Y7088690D01*
X64238690Y6956227D01*
X64238691Y6956225D01*
X64342766Y6800466D01*
X64414454Y6627395D01*
X64451000Y6443667D01*
X64451000Y6256333D01*
X64414454Y6072605D01*
X64342766Y5899534D01*
X64342765Y5899533D01*
X64238690Y5743773D01*
X64106227Y5611310D01*
X64027818Y5558919D01*
X63950466Y5507234D01*
X63777395Y5435546D01*
X63593667Y5399000D01*
X63406333Y5399000D01*
X63222605Y5435546D01*
X63049534Y5507234D01*
X62972182Y5558919D01*
X62893773Y5611310D01*
X62761310Y5743773D01*
X62657235Y5899533D01*
X62657234Y5899534D01*
X62585546Y6072605D01*
X62549000Y6256333D01*
X62549000Y6443667D01*
X62585546Y6627395D01*
X62657234Y6800466D01*
X62761309Y6956225D01*
X62761310Y6956227D01*
X62893773Y7088690D01*
X63049533Y7192765D01*
X63049534Y7192766D01*
X63222605Y7264454D01*
X63406333Y7301000D01*
X63593667Y7301000D01*
X63777395Y7264454D01*
G37*
G36*
X54291000Y5399000D02*
G01*
X52389000Y5399000D01*
X52389000Y7301000D01*
X54291000Y7301000D01*
X54291000Y5399000D01*
G37*
G36*
X51077395Y7264454D02*
G01*
X51250466Y7192766D01*
X51250467Y7192765D01*
X51406227Y7088690D01*
X51538690Y6956227D01*
X51538691Y6956225D01*
X51642766Y6800466D01*
X51714454Y6627395D01*
X51751000Y6443667D01*
X51751000Y6256333D01*
X51714454Y6072605D01*
X51642766Y5899534D01*
X51642765Y5899533D01*
X51538690Y5743773D01*
X51406227Y5611310D01*
X51327818Y5558919D01*
X51250466Y5507234D01*
X51077395Y5435546D01*
X50893667Y5399000D01*
X50706333Y5399000D01*
X50522605Y5435546D01*
X50349534Y5507234D01*
X50272182Y5558919D01*
X50193773Y5611310D01*
X50061310Y5743773D01*
X49957235Y5899533D01*
X49957234Y5899534D01*
X49885546Y6072605D01*
X49849000Y6256333D01*
X49849000Y6443667D01*
X49885546Y6627395D01*
X49957234Y6800466D01*
X50061309Y6956225D01*
X50061310Y6956227D01*
X50193773Y7088690D01*
X50349533Y7192765D01*
X50349534Y7192766D01*
X50522605Y7264454D01*
X50706333Y7301000D01*
X50893667Y7301000D01*
X51077395Y7264454D01*
G37*
G36*
X61911000Y5399000D02*
G01*
X60009000Y5399000D01*
X60009000Y7301000D01*
X61911000Y7301000D01*
X61911000Y5399000D01*
G37*
G36*
X37136564Y9900611D02*
G01*
X37327833Y9821385D01*
X37327835Y9821384D01*
X37447149Y9741661D01*
X37499973Y9706365D01*
X37646365Y9559973D01*
X37761385Y9387833D01*
X37840611Y9196564D01*
X37881000Y8993516D01*
X37881000Y8786484D01*
X37840611Y8583436D01*
X37761385Y8392167D01*
X37761384Y8392165D01*
X37646365Y8220027D01*
X37499973Y8073635D01*
X37327835Y7958616D01*
X37327834Y7958615D01*
X37327833Y7958615D01*
X37136564Y7879389D01*
X36933516Y7839000D01*
X36726484Y7839000D01*
X36523436Y7879389D01*
X36332167Y7958615D01*
X36332166Y7958615D01*
X36332165Y7958616D01*
X36160027Y8073635D01*
X36013635Y8220027D01*
X35898616Y8392165D01*
X35898615Y8392167D01*
X35819389Y8583436D01*
X35779000Y8786484D01*
X35779000Y8993516D01*
X35819389Y9196564D01*
X35898615Y9387833D01*
X36013635Y9559973D01*
X36160027Y9706365D01*
X36212851Y9741661D01*
X36332165Y9821384D01*
X36332167Y9821385D01*
X36523436Y9900611D01*
X36726484Y9941000D01*
X36933516Y9941000D01*
X37136564Y9900611D01*
G37*
G36*
X43636564Y9900611D02*
G01*
X43827833Y9821385D01*
X43827835Y9821384D01*
X43947149Y9741661D01*
X43999973Y9706365D01*
X44146365Y9559973D01*
X44261385Y9387833D01*
X44340611Y9196564D01*
X44381000Y8993516D01*
X44381000Y8786484D01*
X44340611Y8583436D01*
X44261385Y8392167D01*
X44261384Y8392165D01*
X44146365Y8220027D01*
X43999973Y8073635D01*
X43827835Y7958616D01*
X43827834Y7958615D01*
X43827833Y7958615D01*
X43636564Y7879389D01*
X43433516Y7839000D01*
X43226484Y7839000D01*
X43023436Y7879389D01*
X42832167Y7958615D01*
X42832166Y7958615D01*
X42832165Y7958616D01*
X42660027Y8073635D01*
X42513635Y8220027D01*
X42398616Y8392165D01*
X42398615Y8392167D01*
X42319389Y8583436D01*
X42279000Y8786484D01*
X42279000Y8993516D01*
X42319389Y9196564D01*
X42398615Y9387833D01*
X42513635Y9559973D01*
X42660027Y9706365D01*
X42712851Y9741661D01*
X42832165Y9821384D01*
X42832167Y9821385D01*
X43023436Y9900611D01*
X43226484Y9941000D01*
X43433516Y9941000D01*
X43636564Y9900611D01*
G37*
G36*
X51388674Y10781535D02*
G01*
X51426367Y10770101D01*
X51461103Y10751534D01*
X51491548Y10726548D01*
X51516534Y10696103D01*
X51535101Y10661367D01*
X51546535Y10623674D01*
X51551000Y10578339D01*
X51551000Y9741661D01*
X51546535Y9696326D01*
X51535101Y9658633D01*
X51516534Y9623897D01*
X51491548Y9593452D01*
X51461103Y9568466D01*
X51426367Y9549899D01*
X51388674Y9538465D01*
X51343339Y9534000D01*
X50256661Y9534000D01*
X50211326Y9538465D01*
X50173633Y9549899D01*
X50138897Y9568466D01*
X50108452Y9593452D01*
X50083466Y9623897D01*
X50064899Y9658633D01*
X50053465Y9696326D01*
X50049000Y9741661D01*
X50049000Y10578339D01*
X50053465Y10623674D01*
X50064899Y10661367D01*
X50083466Y10696103D01*
X50108452Y10726548D01*
X50138897Y10751534D01*
X50173633Y10770101D01*
X50211326Y10781535D01*
X50256661Y10786000D01*
X51343339Y10786000D01*
X51388674Y10781535D01*
G37*
G36*
X64088674Y11026535D02*
G01*
X64126367Y11015101D01*
X64161103Y10996534D01*
X64191548Y10971548D01*
X64216534Y10941103D01*
X64235101Y10906367D01*
X64246535Y10868674D01*
X64251000Y10823339D01*
X64251000Y9986661D01*
X64246535Y9941326D01*
X64235101Y9903633D01*
X64216534Y9868897D01*
X64191548Y9838452D01*
X64161103Y9813466D01*
X64126367Y9794899D01*
X64088674Y9783465D01*
X64043339Y9779000D01*
X62956661Y9779000D01*
X62911326Y9783465D01*
X62873633Y9794899D01*
X62838897Y9813466D01*
X62808452Y9838452D01*
X62783466Y9868897D01*
X62764899Y9903633D01*
X62753465Y9941326D01*
X62749000Y9986661D01*
X62749000Y10823339D01*
X62753465Y10868674D01*
X62764899Y10906367D01*
X62783466Y10941103D01*
X62808452Y10971548D01*
X62838897Y10996534D01*
X62873633Y11015101D01*
X62911326Y11026535D01*
X62956661Y11031000D01*
X64043339Y11031000D01*
X64088674Y11026535D01*
G37*
G36*
X51388674Y12831535D02*
G01*
X51426367Y12820101D01*
X51461103Y12801534D01*
X51491548Y12776548D01*
X51516534Y12746103D01*
X51535101Y12711367D01*
X51546535Y12673674D01*
X51551000Y12628339D01*
X51551000Y11791661D01*
X51546535Y11746326D01*
X51535101Y11708633D01*
X51516534Y11673897D01*
X51491548Y11643452D01*
X51461103Y11618466D01*
X51426367Y11599899D01*
X51388674Y11588465D01*
X51343339Y11584000D01*
X50256661Y11584000D01*
X50211326Y11588465D01*
X50173633Y11599899D01*
X50138897Y11618466D01*
X50108452Y11643452D01*
X50083466Y11673897D01*
X50064899Y11708633D01*
X50053465Y11746326D01*
X50049000Y11791661D01*
X50049000Y12628339D01*
X50053465Y12673674D01*
X50064899Y12711367D01*
X50083466Y12746103D01*
X50108452Y12776548D01*
X50138897Y12801534D01*
X50173633Y12820101D01*
X50211326Y12831535D01*
X50256661Y12836000D01*
X51343339Y12836000D01*
X51388674Y12831535D01*
G37*
G36*
X64088674Y13076535D02*
G01*
X64126367Y13065101D01*
X64161103Y13046534D01*
X64191548Y13021548D01*
X64216534Y12991103D01*
X64235101Y12956367D01*
X64246535Y12918674D01*
X64251000Y12873339D01*
X64251000Y12036661D01*
X64246535Y11991326D01*
X64235101Y11953633D01*
X64216534Y11918897D01*
X64191548Y11888452D01*
X64161103Y11863466D01*
X64126367Y11844899D01*
X64088674Y11833465D01*
X64043339Y11829000D01*
X62956661Y11829000D01*
X62911326Y11833465D01*
X62873633Y11844899D01*
X62838897Y11863466D01*
X62808452Y11888452D01*
X62783466Y11918897D01*
X62764899Y11953633D01*
X62753465Y11991326D01*
X62749000Y12036661D01*
X62749000Y12873339D01*
X62753465Y12918674D01*
X62764899Y12956367D01*
X62783466Y12991103D01*
X62808452Y13021548D01*
X62838897Y13046534D01*
X62873633Y13065101D01*
X62911326Y13076535D01*
X62956661Y13081000D01*
X64043339Y13081000D01*
X64088674Y13076535D01*
G37*
G36*
X82816778Y21199453D02*
G01*
X82983224Y21130509D01*
X83133022Y21030417D01*
X83260417Y20903022D01*
X83360509Y20753224D01*
X83429453Y20586778D01*
X83464600Y20410082D01*
X83464600Y20229918D01*
X83429453Y20053222D01*
X83360509Y19886776D01*
X83260417Y19736978D01*
X83133022Y19609583D01*
X82983224Y19509491D01*
X82816778Y19440547D01*
X82640082Y19405400D01*
X82459918Y19405400D01*
X82283222Y19440547D01*
X82116776Y19509491D01*
X81966978Y19609583D01*
X81839583Y19736978D01*
X81739491Y19886776D01*
X81670547Y20053222D01*
X81635400Y20229918D01*
X81635400Y20410082D01*
X81670547Y20586778D01*
X81739491Y20753224D01*
X81839583Y20903022D01*
X81966978Y21030417D01*
X82116776Y21130509D01*
X82283222Y21199453D01*
X82459918Y21234600D01*
X82640082Y21234600D01*
X82816778Y21199453D01*
G37*
G36*
X80276778Y21199453D02*
G01*
X80443224Y21130509D01*
X80593022Y21030417D01*
X80720417Y20903022D01*
X80820509Y20753224D01*
X80889453Y20586778D01*
X80924600Y20410082D01*
X80924600Y20229918D01*
X80889453Y20053222D01*
X80820509Y19886776D01*
X80720417Y19736978D01*
X80593022Y19609583D01*
X80443224Y19509491D01*
X80276778Y19440547D01*
X80100082Y19405400D01*
X79919918Y19405400D01*
X79743222Y19440547D01*
X79576776Y19509491D01*
X79426978Y19609583D01*
X79299583Y19736978D01*
X79199491Y19886776D01*
X79130547Y20053222D01*
X79095400Y20229918D01*
X79095400Y20410082D01*
X79130547Y20586778D01*
X79199491Y20753224D01*
X79299583Y20903022D01*
X79426978Y21030417D01*
X79576776Y21130509D01*
X79743222Y21199453D01*
X79919918Y21234600D01*
X80100082Y21234600D01*
X80276778Y21199453D01*
G37*
G36*
X82816778Y23739453D02*
G01*
X82983224Y23670509D01*
X83133022Y23570417D01*
X83260417Y23443022D01*
X83360509Y23293224D01*
X83429453Y23126778D01*
X83464600Y22950082D01*
X83464600Y22769918D01*
X83429453Y22593222D01*
X83360509Y22426776D01*
X83260417Y22276978D01*
X83133022Y22149583D01*
X82983224Y22049491D01*
X82816778Y21980547D01*
X82640082Y21945400D01*
X82459918Y21945400D01*
X82283222Y21980547D01*
X82116776Y22049491D01*
X81966978Y22149583D01*
X81839583Y22276978D01*
X81739491Y22426776D01*
X81670547Y22593222D01*
X81635400Y22769918D01*
X81635400Y22950082D01*
X81670547Y23126778D01*
X81739491Y23293224D01*
X81839583Y23443022D01*
X81966978Y23570417D01*
X82116776Y23670509D01*
X82283222Y23739453D01*
X82459918Y23774600D01*
X82640082Y23774600D01*
X82816778Y23739453D01*
G37*
G36*
X80276778Y23739453D02*
G01*
X80443224Y23670509D01*
X80593022Y23570417D01*
X80720417Y23443022D01*
X80820509Y23293224D01*
X80889453Y23126778D01*
X80924600Y22950082D01*
X80924600Y22769918D01*
X80889453Y22593222D01*
X80820509Y22426776D01*
X80720417Y22276978D01*
X80593022Y22149583D01*
X80443224Y22049491D01*
X80276778Y21980547D01*
X80100082Y21945400D01*
X79919918Y21945400D01*
X79743222Y21980547D01*
X79576776Y22049491D01*
X79426978Y22149583D01*
X79299583Y22276978D01*
X79199491Y22426776D01*
X79130547Y22593222D01*
X79095400Y22769918D01*
X79095400Y22950082D01*
X79130547Y23126778D01*
X79199491Y23293224D01*
X79299583Y23443022D01*
X79426978Y23570417D01*
X79576776Y23670509D01*
X79743222Y23739453D01*
X79919918Y23774600D01*
X80100082Y23774600D01*
X80276778Y23739453D01*
G37*
G36*
X104406778Y26279453D02*
G01*
X104573224Y26210509D01*
X104723022Y26110417D01*
X104850417Y25983022D01*
X104950509Y25833224D01*
X105019453Y25666778D01*
X105054600Y25490082D01*
X105054600Y25309918D01*
X105019453Y25133222D01*
X104950509Y24966776D01*
X104850417Y24816978D01*
X104723022Y24689583D01*
X104573224Y24589491D01*
X104406778Y24520547D01*
X104230082Y24485400D01*
X104049918Y24485400D01*
X103873222Y24520547D01*
X103706776Y24589491D01*
X103556978Y24689583D01*
X103429583Y24816978D01*
X103329491Y24966776D01*
X103260547Y25133222D01*
X103225400Y25309918D01*
X103225400Y25490082D01*
X103260547Y25666778D01*
X103329491Y25833224D01*
X103429583Y25983022D01*
X103556978Y26110417D01*
X103706776Y26210509D01*
X103873222Y26279453D01*
X104049918Y26314600D01*
X104230082Y26314600D01*
X104406778Y26279453D01*
G37*
G36*
X101866778Y26279453D02*
G01*
X102033224Y26210509D01*
X102183022Y26110417D01*
X102310417Y25983022D01*
X102410509Y25833224D01*
X102479453Y25666778D01*
X102514600Y25490082D01*
X102514600Y25309918D01*
X102479453Y25133222D01*
X102410509Y24966776D01*
X102310417Y24816978D01*
X102183022Y24689583D01*
X102033224Y24589491D01*
X101866778Y24520547D01*
X101690082Y24485400D01*
X101509918Y24485400D01*
X101333222Y24520547D01*
X101166776Y24589491D01*
X101016978Y24689583D01*
X100889583Y24816978D01*
X100789491Y24966776D01*
X100720547Y25133222D01*
X100685400Y25309918D01*
X100685400Y25490082D01*
X100720547Y25666778D01*
X100789491Y25833224D01*
X100889583Y25983022D01*
X101016978Y26110417D01*
X101166776Y26210509D01*
X101333222Y26279453D01*
X101509918Y26314600D01*
X101690082Y26314600D01*
X101866778Y26279453D01*
G37*
G36*
X93611778Y26279453D02*
G01*
X93778224Y26210509D01*
X93928022Y26110417D01*
X94055417Y25983022D01*
X94155509Y25833224D01*
X94224453Y25666778D01*
X94259600Y25490082D01*
X94259600Y25309918D01*
X94224453Y25133222D01*
X94155509Y24966776D01*
X94055417Y24816978D01*
X93928022Y24689583D01*
X93778224Y24589491D01*
X93611778Y24520547D01*
X93435082Y24485400D01*
X93254918Y24485400D01*
X93078222Y24520547D01*
X92911776Y24589491D01*
X92761978Y24689583D01*
X92634583Y24816978D01*
X92534491Y24966776D01*
X92465547Y25133222D01*
X92430400Y25309918D01*
X92430400Y25490082D01*
X92465547Y25666778D01*
X92534491Y25833224D01*
X92634583Y25983022D01*
X92761978Y26110417D01*
X92911776Y26210509D01*
X93078222Y26279453D01*
X93254918Y26314600D01*
X93435082Y26314600D01*
X93611778Y26279453D01*
G37*
G36*
X91071778Y26279453D02*
G01*
X91238224Y26210509D01*
X91388022Y26110417D01*
X91515417Y25983022D01*
X91615509Y25833224D01*
X91684453Y25666778D01*
X91719600Y25490082D01*
X91719600Y25309918D01*
X91684453Y25133222D01*
X91615509Y24966776D01*
X91515417Y24816978D01*
X91388022Y24689583D01*
X91238224Y24589491D01*
X91071778Y24520547D01*
X90895082Y24485400D01*
X90714918Y24485400D01*
X90538222Y24520547D01*
X90371776Y24589491D01*
X90221978Y24689583D01*
X90094583Y24816978D01*
X89994491Y24966776D01*
X89925547Y25133222D01*
X89890400Y25309918D01*
X89890400Y25490082D01*
X89925547Y25666778D01*
X89994491Y25833224D01*
X90094583Y25983022D01*
X90221978Y26110417D01*
X90371776Y26210509D01*
X90538222Y26279453D01*
X90714918Y26314600D01*
X90895082Y26314600D01*
X91071778Y26279453D01*
G37*
G36*
X80276778Y26279453D02*
G01*
X80443224Y26210509D01*
X80593022Y26110417D01*
X80720417Y25983022D01*
X80820509Y25833224D01*
X80889453Y25666778D01*
X80924600Y25490082D01*
X80924600Y25309918D01*
X80889453Y25133222D01*
X80820509Y24966776D01*
X80720417Y24816978D01*
X80593022Y24689583D01*
X80443224Y24589491D01*
X80276778Y24520547D01*
X80100082Y24485400D01*
X79919918Y24485400D01*
X79743222Y24520547D01*
X79576776Y24589491D01*
X79426978Y24689583D01*
X79299583Y24816978D01*
X79199491Y24966776D01*
X79130547Y25133222D01*
X79095400Y25309918D01*
X79095400Y25490082D01*
X79130547Y25666778D01*
X79199491Y25833224D01*
X79299583Y25983022D01*
X79426978Y26110417D01*
X79576776Y26210509D01*
X79743222Y26279453D01*
X79919918Y26314600D01*
X80100082Y26314600D01*
X80276778Y26279453D01*
G37*
G36*
X82816778Y26279453D02*
G01*
X82983224Y26210509D01*
X83133022Y26110417D01*
X83260417Y25983022D01*
X83360509Y25833224D01*
X83429453Y25666778D01*
X83464600Y25490082D01*
X83464600Y25309918D01*
X83429453Y25133222D01*
X83360509Y24966776D01*
X83260417Y24816978D01*
X83133022Y24689583D01*
X82983224Y24589491D01*
X82816778Y24520547D01*
X82640082Y24485400D01*
X82459918Y24485400D01*
X82283222Y24520547D01*
X82116776Y24589491D01*
X81966978Y24689583D01*
X81839583Y24816978D01*
X81739491Y24966776D01*
X81670547Y25133222D01*
X81635400Y25309918D01*
X81635400Y25490082D01*
X81670547Y25666778D01*
X81739491Y25833224D01*
X81839583Y25983022D01*
X81966978Y26110417D01*
X82116776Y26210509D01*
X82283222Y26279453D01*
X82459918Y26314600D01*
X82640082Y26314600D01*
X82816778Y26279453D01*
G37*
G36*
X82816778Y28819453D02*
G01*
X82983224Y28750509D01*
X83133022Y28650417D01*
X83260417Y28523022D01*
X83360509Y28373224D01*
X83429453Y28206778D01*
X83464600Y28030082D01*
X83464600Y27849918D01*
X83429453Y27673222D01*
X83360509Y27506776D01*
X83260417Y27356978D01*
X83133022Y27229583D01*
X82983224Y27129491D01*
X82816778Y27060547D01*
X82640082Y27025400D01*
X82459918Y27025400D01*
X82283222Y27060547D01*
X82116776Y27129491D01*
X81966978Y27229583D01*
X81839583Y27356978D01*
X81739491Y27506776D01*
X81670547Y27673222D01*
X81635400Y27849918D01*
X81635400Y28030082D01*
X81670547Y28206778D01*
X81739491Y28373224D01*
X81839583Y28523022D01*
X81966978Y28650417D01*
X82116776Y28750509D01*
X82283222Y28819453D01*
X82459918Y28854600D01*
X82640082Y28854600D01*
X82816778Y28819453D01*
G37*
G36*
X91071778Y28819453D02*
G01*
X91238224Y28750509D01*
X91388022Y28650417D01*
X91515417Y28523022D01*
X91615509Y28373224D01*
X91684453Y28206778D01*
X91719600Y28030082D01*
X91719600Y27849918D01*
X91684453Y27673222D01*
X91615509Y27506776D01*
X91515417Y27356978D01*
X91388022Y27229583D01*
X91238224Y27129491D01*
X91071778Y27060547D01*
X90895082Y27025400D01*
X90714918Y27025400D01*
X90538222Y27060547D01*
X90371776Y27129491D01*
X90221978Y27229583D01*
X90094583Y27356978D01*
X89994491Y27506776D01*
X89925547Y27673222D01*
X89890400Y27849918D01*
X89890400Y28030082D01*
X89925547Y28206778D01*
X89994491Y28373224D01*
X90094583Y28523022D01*
X90221978Y28650417D01*
X90371776Y28750509D01*
X90538222Y28819453D01*
X90714918Y28854600D01*
X90895082Y28854600D01*
X91071778Y28819453D01*
G37*
G36*
X101866778Y28819453D02*
G01*
X102033224Y28750509D01*
X102183022Y28650417D01*
X102310417Y28523022D01*
X102410509Y28373224D01*
X102479453Y28206778D01*
X102514600Y28030082D01*
X102514600Y27849918D01*
X102479453Y27673222D01*
X102410509Y27506776D01*
X102310417Y27356978D01*
X102183022Y27229583D01*
X102033224Y27129491D01*
X101866778Y27060547D01*
X101690082Y27025400D01*
X101509918Y27025400D01*
X101333222Y27060547D01*
X101166776Y27129491D01*
X101016978Y27229583D01*
X100889583Y27356978D01*
X100789491Y27506776D01*
X100720547Y27673222D01*
X100685400Y27849918D01*
X100685400Y28030082D01*
X100720547Y28206778D01*
X100789491Y28373224D01*
X100889583Y28523022D01*
X101016978Y28650417D01*
X101166776Y28750509D01*
X101333222Y28819453D01*
X101509918Y28854600D01*
X101690082Y28854600D01*
X101866778Y28819453D01*
G37*
G36*
X104406778Y28819453D02*
G01*
X104573224Y28750509D01*
X104723022Y28650417D01*
X104850417Y28523022D01*
X104950509Y28373224D01*
X105019453Y28206778D01*
X105054600Y28030082D01*
X105054600Y27849918D01*
X105019453Y27673222D01*
X104950509Y27506776D01*
X104850417Y27356978D01*
X104723022Y27229583D01*
X104573224Y27129491D01*
X104406778Y27060547D01*
X104230082Y27025400D01*
X104049918Y27025400D01*
X103873222Y27060547D01*
X103706776Y27129491D01*
X103556978Y27229583D01*
X103429583Y27356978D01*
X103329491Y27506776D01*
X103260547Y27673222D01*
X103225400Y27849918D01*
X103225400Y28030082D01*
X103260547Y28206778D01*
X103329491Y28373224D01*
X103429583Y28523022D01*
X103556978Y28650417D01*
X103706776Y28750509D01*
X103873222Y28819453D01*
X104049918Y28854600D01*
X104230082Y28854600D01*
X104406778Y28819453D01*
G37*
G36*
X80276778Y28819453D02*
G01*
X80443224Y28750509D01*
X80593022Y28650417D01*
X80720417Y28523022D01*
X80820509Y28373224D01*
X80889453Y28206778D01*
X80924600Y28030082D01*
X80924600Y27849918D01*
X80889453Y27673222D01*
X80820509Y27506776D01*
X80720417Y27356978D01*
X80593022Y27229583D01*
X80443224Y27129491D01*
X80276778Y27060547D01*
X80100082Y27025400D01*
X79919918Y27025400D01*
X79743222Y27060547D01*
X79576776Y27129491D01*
X79426978Y27229583D01*
X79299583Y27356978D01*
X79199491Y27506776D01*
X79130547Y27673222D01*
X79095400Y27849918D01*
X79095400Y28030082D01*
X79130547Y28206778D01*
X79199491Y28373224D01*
X79299583Y28523022D01*
X79426978Y28650417D01*
X79576776Y28750509D01*
X79743222Y28819453D01*
X79919918Y28854600D01*
X80100082Y28854600D01*
X80276778Y28819453D01*
G37*
G36*
X93611778Y28819453D02*
G01*
X93778224Y28750509D01*
X93928022Y28650417D01*
X94055417Y28523022D01*
X94155509Y28373224D01*
X94224453Y28206778D01*
X94259600Y28030082D01*
X94259600Y27849918D01*
X94224453Y27673222D01*
X94155509Y27506776D01*
X94055417Y27356978D01*
X93928022Y27229583D01*
X93778224Y27129491D01*
X93611778Y27060547D01*
X93435082Y27025400D01*
X93254918Y27025400D01*
X93078222Y27060547D01*
X92911776Y27129491D01*
X92761978Y27229583D01*
X92634583Y27356978D01*
X92534491Y27506776D01*
X92465547Y27673222D01*
X92430400Y27849918D01*
X92430400Y28030082D01*
X92465547Y28206778D01*
X92534491Y28373224D01*
X92634583Y28523022D01*
X92761978Y28650417D01*
X92911776Y28750509D01*
X93078222Y28819453D01*
X93254918Y28854600D01*
X93435082Y28854600D01*
X93611778Y28819453D01*
G37*
G36*
X93611778Y31359453D02*
G01*
X93778224Y31290509D01*
X93928022Y31190417D01*
X94055417Y31063022D01*
X94155509Y30913224D01*
X94224453Y30746778D01*
X94259600Y30570082D01*
X94259600Y30389918D01*
X94224453Y30213222D01*
X94155509Y30046776D01*
X94055417Y29896978D01*
X93928022Y29769583D01*
X93778224Y29669491D01*
X93611778Y29600547D01*
X93435082Y29565400D01*
X93254918Y29565400D01*
X93078222Y29600547D01*
X92911776Y29669491D01*
X92761978Y29769583D01*
X92634583Y29896978D01*
X92534491Y30046776D01*
X92465547Y30213222D01*
X92430400Y30389918D01*
X92430400Y30570082D01*
X92465547Y30746778D01*
X92534491Y30913224D01*
X92634583Y31063022D01*
X92761978Y31190417D01*
X92911776Y31290509D01*
X93078222Y31359453D01*
X93254918Y31394600D01*
X93435082Y31394600D01*
X93611778Y31359453D01*
G37*
G36*
X80924600Y29565400D02*
G01*
X79095400Y29565400D01*
X79095400Y31394600D01*
X80924600Y31394600D01*
X80924600Y29565400D01*
G37*
G36*
X91719600Y29565400D02*
G01*
X89890400Y29565400D01*
X89890400Y31394600D01*
X91719600Y31394600D01*
X91719600Y29565400D01*
G37*
G36*
X104406778Y31359453D02*
G01*
X104573224Y31290509D01*
X104723022Y31190417D01*
X104850417Y31063022D01*
X104950509Y30913224D01*
X105019453Y30746778D01*
X105054600Y30570082D01*
X105054600Y30389918D01*
X105019453Y30213222D01*
X104950509Y30046776D01*
X104850417Y29896978D01*
X104723022Y29769583D01*
X104573224Y29669491D01*
X104406778Y29600547D01*
X104230082Y29565400D01*
X104049918Y29565400D01*
X103873222Y29600547D01*
X103706776Y29669491D01*
X103556978Y29769583D01*
X103429583Y29896978D01*
X103329491Y30046776D01*
X103260547Y30213222D01*
X103225400Y30389918D01*
X103225400Y30570082D01*
X103260547Y30746778D01*
X103329491Y30913224D01*
X103429583Y31063022D01*
X103556978Y31190417D01*
X103706776Y31290509D01*
X103873222Y31359453D01*
X104049918Y31394600D01*
X104230082Y31394600D01*
X104406778Y31359453D01*
G37*
G36*
X82816778Y31359453D02*
G01*
X82983224Y31290509D01*
X83133022Y31190417D01*
X83260417Y31063022D01*
X83360509Y30913224D01*
X83429453Y30746778D01*
X83464600Y30570082D01*
X83464600Y30389918D01*
X83429453Y30213222D01*
X83360509Y30046776D01*
X83260417Y29896978D01*
X83133022Y29769583D01*
X82983224Y29669491D01*
X82816778Y29600547D01*
X82640082Y29565400D01*
X82459918Y29565400D01*
X82283222Y29600547D01*
X82116776Y29669491D01*
X81966978Y29769583D01*
X81839583Y29896978D01*
X81739491Y30046776D01*
X81670547Y30213222D01*
X81635400Y30389918D01*
X81635400Y30570082D01*
X81670547Y30746778D01*
X81739491Y30913224D01*
X81839583Y31063022D01*
X81966978Y31190417D01*
X82116776Y31290509D01*
X82283222Y31359453D01*
X82459918Y31394600D01*
X82640082Y31394600D01*
X82816778Y31359453D01*
G37*
G36*
X102514600Y29565400D02*
G01*
X100685400Y29565400D01*
X100685400Y31394600D01*
X102514600Y31394600D01*
X102514600Y29565400D01*
G37*
G36*
X73291000Y39104000D02*
G01*
X71489000Y39104000D01*
X71489000Y40906000D01*
X73291000Y40906000D01*
X73291000Y39104000D01*
G37*
G36*
X95363512Y43441073D02*
G01*
X95512812Y43411376D01*
X95676784Y43343456D01*
X95824354Y43244853D01*
X95949853Y43119354D01*
X96048456Y42971784D01*
X96116376Y42807812D01*
X96151000Y42633741D01*
X96151000Y42456259D01*
X96116376Y42282188D01*
X96048456Y42118216D01*
X95949853Y41970646D01*
X95824354Y41845147D01*
X95676784Y41746544D01*
X95512812Y41678624D01*
X95363512Y41648927D01*
X95338742Y41644000D01*
X95161258Y41644000D01*
X95136488Y41648927D01*
X94987188Y41678624D01*
X94823216Y41746544D01*
X94675646Y41845147D01*
X94550147Y41970646D01*
X94451544Y42118216D01*
X94383624Y42282188D01*
X94349000Y42456259D01*
X94349000Y42633741D01*
X94383624Y42807812D01*
X94451544Y42971784D01*
X94550147Y43119354D01*
X94675646Y43244853D01*
X94823216Y43343456D01*
X94987188Y43411376D01*
X95136488Y43441073D01*
X95161258Y43446000D01*
X95338742Y43446000D01*
X95363512Y43441073D01*
G37*
G36*
X91071000Y41644000D02*
G01*
X89269000Y41644000D01*
X89269000Y43446000D01*
X91071000Y43446000D01*
X91071000Y41644000D01*
G37*
G36*
X72503512Y43441073D02*
G01*
X72652812Y43411376D01*
X72816784Y43343456D01*
X72964354Y43244853D01*
X73089853Y43119354D01*
X73188456Y42971784D01*
X73256376Y42807812D01*
X73291000Y42633741D01*
X73291000Y42456259D01*
X73256376Y42282188D01*
X73188456Y42118216D01*
X73089853Y41970646D01*
X72964354Y41845147D01*
X72816784Y41746544D01*
X72652812Y41678624D01*
X72503512Y41648927D01*
X72478742Y41644000D01*
X72301258Y41644000D01*
X72276488Y41648927D01*
X72127188Y41678624D01*
X71963216Y41746544D01*
X71815646Y41845147D01*
X71690147Y41970646D01*
X71591544Y42118216D01*
X71523624Y42282188D01*
X71489000Y42456259D01*
X71489000Y42633741D01*
X71523624Y42807812D01*
X71591544Y42971784D01*
X71690147Y43119354D01*
X71815646Y43244853D01*
X71963216Y43343456D01*
X72127188Y43411376D01*
X72276488Y43441073D01*
X72301258Y43446000D01*
X72478742Y43446000D01*
X72503512Y43441073D01*
G37*
G36*
X92823512Y43441073D02*
G01*
X92972812Y43411376D01*
X93136784Y43343456D01*
X93284354Y43244853D01*
X93409853Y43119354D01*
X93508456Y42971784D01*
X93576376Y42807812D01*
X93611000Y42633741D01*
X93611000Y42456259D01*
X93576376Y42282188D01*
X93508456Y42118216D01*
X93409853Y41970646D01*
X93284354Y41845147D01*
X93136784Y41746544D01*
X92972812Y41678624D01*
X92823512Y41648927D01*
X92798742Y41644000D01*
X92621258Y41644000D01*
X92596488Y41648927D01*
X92447188Y41678624D01*
X92283216Y41746544D01*
X92135646Y41845147D01*
X92010147Y41970646D01*
X91911544Y42118216D01*
X91843624Y42282188D01*
X91809000Y42456259D01*
X91809000Y42633741D01*
X91843624Y42807812D01*
X91911544Y42971784D01*
X92010147Y43119354D01*
X92135646Y43244853D01*
X92283216Y43343456D01*
X92447188Y43411376D01*
X92596488Y43441073D01*
X92621258Y43446000D01*
X92798742Y43446000D01*
X92823512Y43441073D01*
G37*
G36*
X9196564Y44770611D02*
G01*
X9387833Y44691385D01*
X9387835Y44691384D01*
X9437471Y44658218D01*
X9559973Y44576365D01*
X9706365Y44429973D01*
X9821385Y44257833D01*
X9900611Y44066564D01*
X9941000Y43863516D01*
X9941000Y43656484D01*
X9900611Y43453436D01*
X9855056Y43343456D01*
X9821384Y43262165D01*
X9706365Y43090027D01*
X9559973Y42943635D01*
X9387835Y42828616D01*
X9387834Y42828615D01*
X9387833Y42828615D01*
X9196564Y42749389D01*
X8993516Y42709000D01*
X8786484Y42709000D01*
X8583436Y42749389D01*
X8392167Y42828615D01*
X8392166Y42828615D01*
X8392165Y42828616D01*
X8220027Y42943635D01*
X8073635Y43090027D01*
X7958616Y43262165D01*
X7924944Y43343456D01*
X7879389Y43453436D01*
X7839000Y43656484D01*
X7839000Y43863516D01*
X7879389Y44066564D01*
X7958615Y44257833D01*
X8073635Y44429973D01*
X8220027Y44576365D01*
X8342529Y44658218D01*
X8392165Y44691384D01*
X8392167Y44691385D01*
X8583436Y44770611D01*
X8786484Y44811000D01*
X8993516Y44811000D01*
X9196564Y44770611D01*
G37*
G36*
X15696564Y44770611D02*
G01*
X15887833Y44691385D01*
X15887835Y44691384D01*
X15937471Y44658218D01*
X16059973Y44576365D01*
X16206365Y44429973D01*
X16321385Y44257833D01*
X16400611Y44066564D01*
X16441000Y43863516D01*
X16441000Y43656484D01*
X16400611Y43453436D01*
X16355056Y43343456D01*
X16321384Y43262165D01*
X16206365Y43090027D01*
X16059973Y42943635D01*
X15887835Y42828616D01*
X15887834Y42828615D01*
X15887833Y42828615D01*
X15696564Y42749389D01*
X15493516Y42709000D01*
X15286484Y42709000D01*
X15083436Y42749389D01*
X14892167Y42828615D01*
X14892166Y42828615D01*
X14892165Y42828616D01*
X14720027Y42943635D01*
X14573635Y43090027D01*
X14458616Y43262165D01*
X14424944Y43343456D01*
X14379389Y43453436D01*
X14339000Y43656484D01*
X14339000Y43863516D01*
X14379389Y44066564D01*
X14458615Y44257833D01*
X14573635Y44429973D01*
X14720027Y44576365D01*
X14842529Y44658218D01*
X14892165Y44691384D01*
X14892167Y44691385D01*
X15083436Y44770611D01*
X15286484Y44811000D01*
X15493516Y44811000D01*
X15696564Y44770611D01*
G37*
G36*
X21808674Y45196535D02*
G01*
X21846367Y45185101D01*
X21881103Y45166534D01*
X21911548Y45141548D01*
X21936534Y45111103D01*
X21955101Y45076367D01*
X21966535Y45038674D01*
X21971000Y44993339D01*
X21971000Y43906661D01*
X21966535Y43861326D01*
X21955101Y43823633D01*
X21936534Y43788897D01*
X21911548Y43758452D01*
X21881103Y43733466D01*
X21846367Y43714899D01*
X21808674Y43703465D01*
X21763339Y43699000D01*
X20926661Y43699000D01*
X20881326Y43703465D01*
X20843633Y43714899D01*
X20808897Y43733466D01*
X20778452Y43758452D01*
X20753466Y43788897D01*
X20734899Y43823633D01*
X20723465Y43861326D01*
X20719000Y43906661D01*
X20719000Y44993339D01*
X20723465Y45038674D01*
X20734899Y45076367D01*
X20753466Y45111103D01*
X20778452Y45141548D01*
X20808897Y45166534D01*
X20843633Y45185101D01*
X20881326Y45196535D01*
X20926661Y45201000D01*
X21763339Y45201000D01*
X21808674Y45196535D01*
G37*
G36*
X19758674Y45196535D02*
G01*
X19796367Y45185101D01*
X19831103Y45166534D01*
X19861548Y45141548D01*
X19886534Y45111103D01*
X19905101Y45076367D01*
X19916535Y45038674D01*
X19921000Y44993339D01*
X19921000Y43906661D01*
X19916535Y43861326D01*
X19905101Y43823633D01*
X19886534Y43788897D01*
X19861548Y43758452D01*
X19831103Y43733466D01*
X19796367Y43714899D01*
X19758674Y43703465D01*
X19713339Y43699000D01*
X18876661Y43699000D01*
X18831326Y43703465D01*
X18793633Y43714899D01*
X18758897Y43733466D01*
X18728452Y43758452D01*
X18703466Y43788897D01*
X18684899Y43823633D01*
X18673465Y43861326D01*
X18669000Y43906661D01*
X18669000Y44993339D01*
X18673465Y45038674D01*
X18684899Y45076367D01*
X18703466Y45111103D01*
X18728452Y45141548D01*
X18758897Y45166534D01*
X18793633Y45185101D01*
X18831326Y45196535D01*
X18876661Y45201000D01*
X19713339Y45201000D01*
X19758674Y45196535D01*
G37*
G36*
X72503512Y45981073D02*
G01*
X72652812Y45951376D01*
X72816784Y45883456D01*
X72964354Y45784853D01*
X73089853Y45659354D01*
X73188456Y45511784D01*
X73256376Y45347812D01*
X73285578Y45201000D01*
X73288741Y45185101D01*
X73291000Y45173741D01*
X73291000Y44996259D01*
X73256376Y44822188D01*
X73188456Y44658216D01*
X73089853Y44510646D01*
X72964354Y44385147D01*
X72816784Y44286544D01*
X72652812Y44218624D01*
X72503512Y44188927D01*
X72478742Y44184000D01*
X72301258Y44184000D01*
X72276488Y44188927D01*
X72127188Y44218624D01*
X71963216Y44286544D01*
X71815646Y44385147D01*
X71690147Y44510646D01*
X71591544Y44658216D01*
X71523624Y44822188D01*
X71489000Y44996259D01*
X71489000Y45173741D01*
X71491260Y45185101D01*
X71494422Y45201000D01*
X71523624Y45347812D01*
X71591544Y45511784D01*
X71690147Y45659354D01*
X71815646Y45784853D01*
X71963216Y45883456D01*
X72127188Y45951376D01*
X72276488Y45981073D01*
X72301258Y45986000D01*
X72478742Y45986000D01*
X72503512Y45981073D01*
G37*
G36*
X15696564Y49270611D02*
G01*
X15887833Y49191385D01*
X15887835Y49191384D01*
X16059973Y49076365D01*
X16206365Y48929973D01*
X16321385Y48757833D01*
X16400611Y48566564D01*
X16441000Y48363516D01*
X16441000Y48156484D01*
X16400611Y47953436D01*
X16321385Y47762167D01*
X16321384Y47762165D01*
X16206365Y47590027D01*
X16059973Y47443635D01*
X15887835Y47328616D01*
X15887834Y47328615D01*
X15887833Y47328615D01*
X15696564Y47249389D01*
X15493516Y47209000D01*
X15286484Y47209000D01*
X15083436Y47249389D01*
X14892167Y47328615D01*
X14892166Y47328615D01*
X14892165Y47328616D01*
X14720027Y47443635D01*
X14573635Y47590027D01*
X14458616Y47762165D01*
X14458615Y47762167D01*
X14379389Y47953436D01*
X14339000Y48156484D01*
X14339000Y48363516D01*
X14379389Y48566564D01*
X14458615Y48757833D01*
X14573635Y48929973D01*
X14720027Y49076365D01*
X14892165Y49191384D01*
X14892167Y49191385D01*
X15083436Y49270611D01*
X15286484Y49311000D01*
X15493516Y49311000D01*
X15696564Y49270611D01*
G37*
G36*
X9196564Y49270611D02*
G01*
X9387833Y49191385D01*
X9387835Y49191384D01*
X9559973Y49076365D01*
X9706365Y48929973D01*
X9821385Y48757833D01*
X9900611Y48566564D01*
X9941000Y48363516D01*
X9941000Y48156484D01*
X9900611Y47953436D01*
X9821385Y47762167D01*
X9821384Y47762165D01*
X9706365Y47590027D01*
X9559973Y47443635D01*
X9387835Y47328616D01*
X9387834Y47328615D01*
X9387833Y47328615D01*
X9196564Y47249389D01*
X8993516Y47209000D01*
X8786484Y47209000D01*
X8583436Y47249389D01*
X8392167Y47328615D01*
X8392166Y47328615D01*
X8392165Y47328616D01*
X8220027Y47443635D01*
X8073635Y47590027D01*
X7958616Y47762165D01*
X7958615Y47762167D01*
X7879389Y47953436D01*
X7839000Y48156484D01*
X7839000Y48363516D01*
X7879389Y48566564D01*
X7958615Y48757833D01*
X8073635Y48929973D01*
X8220027Y49076365D01*
X8392165Y49191384D01*
X8392167Y49191385D01*
X8583436Y49270611D01*
X8786484Y49311000D01*
X8993516Y49311000D01*
X9196564Y49270611D01*
G37*
G36*
X21808674Y49006535D02*
G01*
X21846367Y48995101D01*
X21881103Y48976534D01*
X21911548Y48951548D01*
X21936534Y48921103D01*
X21955101Y48886367D01*
X21966535Y48848674D01*
X21971000Y48803339D01*
X21971000Y47716661D01*
X21966535Y47671326D01*
X21955101Y47633633D01*
X21936534Y47598897D01*
X21911548Y47568452D01*
X21881103Y47543466D01*
X21846367Y47524899D01*
X21808674Y47513465D01*
X21763339Y47509000D01*
X20926661Y47509000D01*
X20881326Y47513465D01*
X20843633Y47524899D01*
X20808897Y47543466D01*
X20778452Y47568452D01*
X20753466Y47598897D01*
X20734899Y47633633D01*
X20723465Y47671326D01*
X20719000Y47716661D01*
X20719000Y48803339D01*
X20723465Y48848674D01*
X20734899Y48886367D01*
X20753466Y48921103D01*
X20778452Y48951548D01*
X20808897Y48976534D01*
X20843633Y48995101D01*
X20881326Y49006535D01*
X20926661Y49011000D01*
X21763339Y49011000D01*
X21808674Y49006535D01*
G37*
G36*
X19758674Y49006535D02*
G01*
X19796367Y48995101D01*
X19831103Y48976534D01*
X19861548Y48951548D01*
X19886534Y48921103D01*
X19905101Y48886367D01*
X19916535Y48848674D01*
X19921000Y48803339D01*
X19921000Y47716661D01*
X19916535Y47671326D01*
X19905101Y47633633D01*
X19886534Y47598897D01*
X19861548Y47568452D01*
X19831103Y47543466D01*
X19796367Y47524899D01*
X19758674Y47513465D01*
X19713339Y47509000D01*
X18876661Y47509000D01*
X18831326Y47513465D01*
X18793633Y47524899D01*
X18758897Y47543466D01*
X18728452Y47568452D01*
X18703466Y47598897D01*
X18684899Y47633633D01*
X18673465Y47671326D01*
X18669000Y47716661D01*
X18669000Y48803339D01*
X18673465Y48848674D01*
X18684899Y48886367D01*
X18703466Y48921103D01*
X18728452Y48951548D01*
X18758897Y48976534D01*
X18793633Y48995101D01*
X18831326Y49006535D01*
X18876661Y49011000D01*
X19713339Y49011000D01*
X19758674Y49006535D01*
G37*
G36*
X111984549Y51928884D02*
G01*
X112095734Y51906768D01*
X112305203Y51820003D01*
X112493720Y51694040D01*
X112654040Y51533720D01*
X112780003Y51345203D01*
X112866768Y51135734D01*
X112911000Y50913364D01*
X112911000Y50686636D01*
X112866768Y50464266D01*
X112780003Y50254797D01*
X112654040Y50066280D01*
X112493720Y49905960D01*
X112305203Y49779997D01*
X112095734Y49693232D01*
X111984549Y49671116D01*
X111873365Y49649000D01*
X111646635Y49649000D01*
X111535451Y49671116D01*
X111424266Y49693232D01*
X111214797Y49779997D01*
X111026280Y49905960D01*
X110865960Y50066280D01*
X110739997Y50254797D01*
X110653232Y50464266D01*
X110609000Y50686636D01*
X110609000Y50913364D01*
X110653232Y51135734D01*
X110739997Y51345203D01*
X110865960Y51533720D01*
X111026280Y51694040D01*
X111214797Y51820003D01*
X111424266Y51906768D01*
X111535451Y51928884D01*
X111646635Y51951000D01*
X111873365Y51951000D01*
X111984549Y51928884D01*
G37*
G36*
X2764549Y51928884D02*
G01*
X2875734Y51906768D01*
X3085203Y51820003D01*
X3273720Y51694040D01*
X3434040Y51533720D01*
X3560003Y51345203D01*
X3646768Y51135734D01*
X3691000Y50913364D01*
X3691000Y50686636D01*
X3646768Y50464266D01*
X3560003Y50254797D01*
X3434040Y50066280D01*
X3273720Y49905960D01*
X3085203Y49779997D01*
X2875734Y49693232D01*
X2764549Y49671116D01*
X2653365Y49649000D01*
X2426635Y49649000D01*
X2315451Y49671116D01*
X2204266Y49693232D01*
X1994797Y49779997D01*
X1806280Y49905960D01*
X1645960Y50066280D01*
X1519997Y50254797D01*
X1433232Y50464266D01*
X1389000Y50686636D01*
X1389000Y50913364D01*
X1433232Y51135734D01*
X1519997Y51345203D01*
X1645960Y51533720D01*
X1806280Y51694040D01*
X1994797Y51820003D01*
X2204266Y51906768D01*
X2315451Y51928884D01*
X2426635Y51951000D01*
X2653365Y51951000D01*
X2764549Y51928884D01*
G37*
M02*
