%TF.GenerationSoftware,KiCad,Pcbnew,5.1.5-1.fc31*%
%TF.CreationDate,2020-04-02T16:35:23+02:00*%
%TF.ProjectId,avrisp-mkII-clone,61767269-7370-42d6-9d6b-49492d636c6f,1.0*%
%TF.SameCoordinates,PX54c81a0PY82ce540*%
%TF.FileFunction,Copper,L1,Top*%
%TF.FilePolarity,Positive*%
%FSLAX46Y46*%
G04 Gerber Fmt 4.6, Leading zero omitted, Abs format (unit mm)*
G04 Created by KiCad (PCBNEW 5.1.5-1.fc31) date 2020-04-02 16:35:23*
%MOMM*%
%LPD*%
G04 APERTURE LIST*
%TA.AperFunction,ComponentPad*%
%ADD10C,2.000000*%
%TD*%
%TA.AperFunction,SMDPad,CuDef*%
%ADD11R,1.200000X0.900000*%
%TD*%
%TA.AperFunction,SMDPad,CuDef*%
%ADD12C,0.150000*%
%TD*%
%TA.AperFunction,ComponentPad*%
%ADD13O,1.727200X1.727200*%
%TD*%
%TA.AperFunction,ComponentPad*%
%ADD14R,1.727200X1.727200*%
%TD*%
%TA.AperFunction,ComponentPad*%
%ADD15R,1.800000X1.800000*%
%TD*%
%TA.AperFunction,ComponentPad*%
%ADD16C,1.800000*%
%TD*%
%TA.AperFunction,SMDPad,CuDef*%
%ADD17R,1.380000X0.450000*%
%TD*%
%TA.AperFunction,SMDPad,CuDef*%
%ADD18R,1.550000X1.425000*%
%TD*%
%TA.AperFunction,SMDPad,CuDef*%
%ADD19R,1.300000X1.650000*%
%TD*%
%TA.AperFunction,SMDPad,CuDef*%
%ADD20R,1.900000X1.800000*%
%TD*%
%TA.AperFunction,SMDPad,CuDef*%
%ADD21R,1.900000X1.000000*%
%TD*%
%TA.AperFunction,ComponentPad*%
%ADD22R,1.700000X1.700000*%
%TD*%
%TA.AperFunction,ComponentPad*%
%ADD23O,1.700000X1.700000*%
%TD*%
%TA.AperFunction,SMDPad,CuDef*%
%ADD24R,2.000000X3.800000*%
%TD*%
%TA.AperFunction,SMDPad,CuDef*%
%ADD25R,2.000000X1.500000*%
%TD*%
%TA.AperFunction,SMDPad,CuDef*%
%ADD26R,1.450000X0.450000*%
%TD*%
%TA.AperFunction,SMDPad,CuDef*%
%ADD27R,7.875000X2.000000*%
%TD*%
%TA.AperFunction,ViaPad*%
%ADD28C,0.800000*%
%TD*%
%TA.AperFunction,Conductor*%
%ADD29C,0.400000*%
%TD*%
%TA.AperFunction,Conductor*%
%ADD30C,0.254000*%
%TD*%
G04 APERTURE END LIST*
D10*
%TO.P,SW1,2*%
%TO.N,Net-(C1-Pad2)*%
X8890000Y43760000D03*
%TO.P,SW1,1*%
%TO.N,GND*%
X8890000Y48260000D03*
%TO.P,SW1,2*%
%TO.N,Net-(C1-Pad2)*%
X15390000Y43760000D03*
%TO.P,SW1,1*%
%TO.N,GND*%
X15390000Y48260000D03*
%TD*%
D11*
%TO.P,D1,1*%
%TO.N,+5V*%
X15875000Y35180000D03*
%TO.P,D1,2*%
%TO.N,Net-(C1-Pad2)*%
X15875000Y38480000D03*
%TD*%
%TA.AperFunction,SMDPad,CuDef*%
D12*
%TO.P,C9,2*%
%TO.N,GND*%
G36*
X41054505Y50043796D02*
G01*
X41078773Y50040196D01*
X41102572Y50034235D01*
X41125671Y50025970D01*
X41147850Y50015480D01*
X41168893Y50002868D01*
X41188599Y49988253D01*
X41206777Y49971777D01*
X41223253Y49953599D01*
X41237868Y49933893D01*
X41250480Y49912850D01*
X41260970Y49890671D01*
X41269235Y49867572D01*
X41275196Y49843773D01*
X41278796Y49819505D01*
X41280000Y49795001D01*
X41280000Y48044999D01*
X41278796Y48020495D01*
X41275196Y47996227D01*
X41269235Y47972428D01*
X41260970Y47949329D01*
X41250480Y47927150D01*
X41237868Y47906107D01*
X41223253Y47886401D01*
X41206777Y47868223D01*
X41188599Y47851747D01*
X41168893Y47837132D01*
X41147850Y47824520D01*
X41125671Y47814030D01*
X41102572Y47805765D01*
X41078773Y47799804D01*
X41054505Y47796204D01*
X41030001Y47795000D01*
X38979999Y47795000D01*
X38955495Y47796204D01*
X38931227Y47799804D01*
X38907428Y47805765D01*
X38884329Y47814030D01*
X38862150Y47824520D01*
X38841107Y47837132D01*
X38821401Y47851747D01*
X38803223Y47868223D01*
X38786747Y47886401D01*
X38772132Y47906107D01*
X38759520Y47927150D01*
X38749030Y47949329D01*
X38740765Y47972428D01*
X38734804Y47996227D01*
X38731204Y48020495D01*
X38730000Y48044999D01*
X38730000Y49795001D01*
X38731204Y49819505D01*
X38734804Y49843773D01*
X38740765Y49867572D01*
X38749030Y49890671D01*
X38759520Y49912850D01*
X38772132Y49933893D01*
X38786747Y49953599D01*
X38803223Y49971777D01*
X38821401Y49988253D01*
X38841107Y50002868D01*
X38862150Y50015480D01*
X38884329Y50025970D01*
X38907428Y50034235D01*
X38931227Y50040196D01*
X38955495Y50043796D01*
X38979999Y50045000D01*
X41030001Y50045000D01*
X41054505Y50043796D01*
G37*
%TD.AperFunction*%
%TA.AperFunction,SMDPad,CuDef*%
%TO.P,C9,1*%
%TO.N,Net-(C9-Pad1)*%
G36*
X41054505Y43643796D02*
G01*
X41078773Y43640196D01*
X41102572Y43634235D01*
X41125671Y43625970D01*
X41147850Y43615480D01*
X41168893Y43602868D01*
X41188599Y43588253D01*
X41206777Y43571777D01*
X41223253Y43553599D01*
X41237868Y43533893D01*
X41250480Y43512850D01*
X41260970Y43490671D01*
X41269235Y43467572D01*
X41275196Y43443773D01*
X41278796Y43419505D01*
X41280000Y43395001D01*
X41280000Y41644999D01*
X41278796Y41620495D01*
X41275196Y41596227D01*
X41269235Y41572428D01*
X41260970Y41549329D01*
X41250480Y41527150D01*
X41237868Y41506107D01*
X41223253Y41486401D01*
X41206777Y41468223D01*
X41188599Y41451747D01*
X41168893Y41437132D01*
X41147850Y41424520D01*
X41125671Y41414030D01*
X41102572Y41405765D01*
X41078773Y41399804D01*
X41054505Y41396204D01*
X41030001Y41395000D01*
X38979999Y41395000D01*
X38955495Y41396204D01*
X38931227Y41399804D01*
X38907428Y41405765D01*
X38884329Y41414030D01*
X38862150Y41424520D01*
X38841107Y41437132D01*
X38821401Y41451747D01*
X38803223Y41468223D01*
X38786747Y41486401D01*
X38772132Y41506107D01*
X38759520Y41527150D01*
X38749030Y41549329D01*
X38740765Y41572428D01*
X38734804Y41596227D01*
X38731204Y41620495D01*
X38730000Y41644999D01*
X38730000Y43395001D01*
X38731204Y43419505D01*
X38734804Y43443773D01*
X38740765Y43467572D01*
X38749030Y43490671D01*
X38759520Y43512850D01*
X38772132Y43533893D01*
X38786747Y43553599D01*
X38803223Y43571777D01*
X38821401Y43588253D01*
X38841107Y43602868D01*
X38862150Y43615480D01*
X38884329Y43625970D01*
X38907428Y43634235D01*
X38931227Y43640196D01*
X38955495Y43643796D01*
X38979999Y43645000D01*
X41030001Y43645000D01*
X41054505Y43643796D01*
G37*
%TD.AperFunction*%
%TD*%
%TA.AperFunction,SMDPad,CuDef*%
%TO.P,C8,2*%
%TO.N,GND*%
G36*
X60739505Y50043796D02*
G01*
X60763773Y50040196D01*
X60787572Y50034235D01*
X60810671Y50025970D01*
X60832850Y50015480D01*
X60853893Y50002868D01*
X60873599Y49988253D01*
X60891777Y49971777D01*
X60908253Y49953599D01*
X60922868Y49933893D01*
X60935480Y49912850D01*
X60945970Y49890671D01*
X60954235Y49867572D01*
X60960196Y49843773D01*
X60963796Y49819505D01*
X60965000Y49795001D01*
X60965000Y48044999D01*
X60963796Y48020495D01*
X60960196Y47996227D01*
X60954235Y47972428D01*
X60945970Y47949329D01*
X60935480Y47927150D01*
X60922868Y47906107D01*
X60908253Y47886401D01*
X60891777Y47868223D01*
X60873599Y47851747D01*
X60853893Y47837132D01*
X60832850Y47824520D01*
X60810671Y47814030D01*
X60787572Y47805765D01*
X60763773Y47799804D01*
X60739505Y47796204D01*
X60715001Y47795000D01*
X58664999Y47795000D01*
X58640495Y47796204D01*
X58616227Y47799804D01*
X58592428Y47805765D01*
X58569329Y47814030D01*
X58547150Y47824520D01*
X58526107Y47837132D01*
X58506401Y47851747D01*
X58488223Y47868223D01*
X58471747Y47886401D01*
X58457132Y47906107D01*
X58444520Y47927150D01*
X58434030Y47949329D01*
X58425765Y47972428D01*
X58419804Y47996227D01*
X58416204Y48020495D01*
X58415000Y48044999D01*
X58415000Y49795001D01*
X58416204Y49819505D01*
X58419804Y49843773D01*
X58425765Y49867572D01*
X58434030Y49890671D01*
X58444520Y49912850D01*
X58457132Y49933893D01*
X58471747Y49953599D01*
X58488223Y49971777D01*
X58506401Y49988253D01*
X58526107Y50002868D01*
X58547150Y50015480D01*
X58569329Y50025970D01*
X58592428Y50034235D01*
X58616227Y50040196D01*
X58640495Y50043796D01*
X58664999Y50045000D01*
X60715001Y50045000D01*
X60739505Y50043796D01*
G37*
%TD.AperFunction*%
%TA.AperFunction,SMDPad,CuDef*%
%TO.P,C8,1*%
%TO.N,Net-(C8-Pad1)*%
G36*
X60739505Y43643796D02*
G01*
X60763773Y43640196D01*
X60787572Y43634235D01*
X60810671Y43625970D01*
X60832850Y43615480D01*
X60853893Y43602868D01*
X60873599Y43588253D01*
X60891777Y43571777D01*
X60908253Y43553599D01*
X60922868Y43533893D01*
X60935480Y43512850D01*
X60945970Y43490671D01*
X60954235Y43467572D01*
X60960196Y43443773D01*
X60963796Y43419505D01*
X60965000Y43395001D01*
X60965000Y41644999D01*
X60963796Y41620495D01*
X60960196Y41596227D01*
X60954235Y41572428D01*
X60945970Y41549329D01*
X60935480Y41527150D01*
X60922868Y41506107D01*
X60908253Y41486401D01*
X60891777Y41468223D01*
X60873599Y41451747D01*
X60853893Y41437132D01*
X60832850Y41424520D01*
X60810671Y41414030D01*
X60787572Y41405765D01*
X60763773Y41399804D01*
X60739505Y41396204D01*
X60715001Y41395000D01*
X58664999Y41395000D01*
X58640495Y41396204D01*
X58616227Y41399804D01*
X58592428Y41405765D01*
X58569329Y41414030D01*
X58547150Y41424520D01*
X58526107Y41437132D01*
X58506401Y41451747D01*
X58488223Y41468223D01*
X58471747Y41486401D01*
X58457132Y41506107D01*
X58444520Y41527150D01*
X58434030Y41549329D01*
X58425765Y41572428D01*
X58419804Y41596227D01*
X58416204Y41620495D01*
X58415000Y41644999D01*
X58415000Y43395001D01*
X58416204Y43419505D01*
X58419804Y43443773D01*
X58425765Y43467572D01*
X58434030Y43490671D01*
X58444520Y43512850D01*
X58457132Y43533893D01*
X58471747Y43553599D01*
X58488223Y43571777D01*
X58506401Y43588253D01*
X58526107Y43602868D01*
X58547150Y43615480D01*
X58569329Y43625970D01*
X58592428Y43634235D01*
X58616227Y43640196D01*
X58640495Y43643796D01*
X58664999Y43645000D01*
X60715001Y43645000D01*
X60739505Y43643796D01*
G37*
%TD.AperFunction*%
%TD*%
%TA.AperFunction,SMDPad,CuDef*%
%TO.P,C6,2*%
%TO.N,GND*%
G36*
X6129505Y30943796D02*
G01*
X6153773Y30940196D01*
X6177572Y30934235D01*
X6200671Y30925970D01*
X6222850Y30915480D01*
X6243893Y30902868D01*
X6263599Y30888253D01*
X6281777Y30871777D01*
X6298253Y30853599D01*
X6312868Y30833893D01*
X6325480Y30812850D01*
X6335970Y30790671D01*
X6344235Y30767572D01*
X6350196Y30743773D01*
X6353796Y30719505D01*
X6355000Y30695001D01*
X6355000Y28944999D01*
X6353796Y28920495D01*
X6350196Y28896227D01*
X6344235Y28872428D01*
X6335970Y28849329D01*
X6325480Y28827150D01*
X6312868Y28806107D01*
X6298253Y28786401D01*
X6281777Y28768223D01*
X6263599Y28751747D01*
X6243893Y28737132D01*
X6222850Y28724520D01*
X6200671Y28714030D01*
X6177572Y28705765D01*
X6153773Y28699804D01*
X6129505Y28696204D01*
X6105001Y28695000D01*
X4054999Y28695000D01*
X4030495Y28696204D01*
X4006227Y28699804D01*
X3982428Y28705765D01*
X3959329Y28714030D01*
X3937150Y28724520D01*
X3916107Y28737132D01*
X3896401Y28751747D01*
X3878223Y28768223D01*
X3861747Y28786401D01*
X3847132Y28806107D01*
X3834520Y28827150D01*
X3824030Y28849329D01*
X3815765Y28872428D01*
X3809804Y28896227D01*
X3806204Y28920495D01*
X3805000Y28944999D01*
X3805000Y30695001D01*
X3806204Y30719505D01*
X3809804Y30743773D01*
X3815765Y30767572D01*
X3824030Y30790671D01*
X3834520Y30812850D01*
X3847132Y30833893D01*
X3861747Y30853599D01*
X3878223Y30871777D01*
X3896401Y30888253D01*
X3916107Y30902868D01*
X3937150Y30915480D01*
X3959329Y30925970D01*
X3982428Y30934235D01*
X4006227Y30940196D01*
X4030495Y30943796D01*
X4054999Y30945000D01*
X6105001Y30945000D01*
X6129505Y30943796D01*
G37*
%TD.AperFunction*%
%TA.AperFunction,SMDPad,CuDef*%
%TO.P,C6,1*%
%TO.N,+5V*%
G36*
X6129505Y37343796D02*
G01*
X6153773Y37340196D01*
X6177572Y37334235D01*
X6200671Y37325970D01*
X6222850Y37315480D01*
X6243893Y37302868D01*
X6263599Y37288253D01*
X6281777Y37271777D01*
X6298253Y37253599D01*
X6312868Y37233893D01*
X6325480Y37212850D01*
X6335970Y37190671D01*
X6344235Y37167572D01*
X6350196Y37143773D01*
X6353796Y37119505D01*
X6355000Y37095001D01*
X6355000Y35344999D01*
X6353796Y35320495D01*
X6350196Y35296227D01*
X6344235Y35272428D01*
X6335970Y35249329D01*
X6325480Y35227150D01*
X6312868Y35206107D01*
X6298253Y35186401D01*
X6281777Y35168223D01*
X6263599Y35151747D01*
X6243893Y35137132D01*
X6222850Y35124520D01*
X6200671Y35114030D01*
X6177572Y35105765D01*
X6153773Y35099804D01*
X6129505Y35096204D01*
X6105001Y35095000D01*
X4054999Y35095000D01*
X4030495Y35096204D01*
X4006227Y35099804D01*
X3982428Y35105765D01*
X3959329Y35114030D01*
X3937150Y35124520D01*
X3916107Y35137132D01*
X3896401Y35151747D01*
X3878223Y35168223D01*
X3861747Y35186401D01*
X3847132Y35206107D01*
X3834520Y35227150D01*
X3824030Y35249329D01*
X3815765Y35272428D01*
X3809804Y35296227D01*
X3806204Y35320495D01*
X3805000Y35344999D01*
X3805000Y37095001D01*
X3806204Y37119505D01*
X3809804Y37143773D01*
X3815765Y37167572D01*
X3824030Y37190671D01*
X3834520Y37212850D01*
X3847132Y37233893D01*
X3861747Y37253599D01*
X3878223Y37271777D01*
X3896401Y37288253D01*
X3916107Y37302868D01*
X3937150Y37315480D01*
X3959329Y37325970D01*
X3982428Y37334235D01*
X4006227Y37340196D01*
X4030495Y37343796D01*
X4054999Y37345000D01*
X6105001Y37345000D01*
X6129505Y37343796D01*
G37*
%TD.AperFunction*%
%TD*%
D13*
%TO.P,J3,6*%
%TO.N,GND*%
X104140000Y25400000D03*
%TO.P,J3,5*%
%TO.N,/RESET*%
X101600000Y25400000D03*
%TO.P,J3,4*%
%TO.N,Net-(J3-Pad4)*%
X104140000Y27940000D03*
%TO.P,J3,3*%
%TO.N,/CLK*%
X101600000Y27940000D03*
%TO.P,J3,2*%
%TO.N,VSS*%
X104140000Y30480000D03*
D14*
%TO.P,J3,1*%
%TO.N,/DATA*%
X101600000Y30480000D03*
%TD*%
D13*
%TO.P,J2,6*%
%TO.N,GND*%
X93345000Y25400000D03*
%TO.P,J2,5*%
%TO.N,/CLK*%
X90805000Y25400000D03*
%TO.P,J2,4*%
%TO.N,Net-(J2-Pad4)*%
X93345000Y27940000D03*
%TO.P,J2,3*%
%TO.N,Net-(J2-Pad3)*%
X90805000Y27940000D03*
%TO.P,J2,2*%
%TO.N,VSS*%
X93345000Y30480000D03*
D14*
%TO.P,J2,1*%
%TO.N,/DATA*%
X90805000Y30480000D03*
%TD*%
%TA.AperFunction,SMDPad,CuDef*%
D12*
%TO.P,C2,1*%
%TO.N,Net-(C2-Pad1)*%
G36*
X17619505Y6043796D02*
G01*
X17643773Y6040196D01*
X17667572Y6034235D01*
X17690671Y6025970D01*
X17712850Y6015480D01*
X17733893Y6002868D01*
X17753599Y5988253D01*
X17771777Y5971777D01*
X17788253Y5953599D01*
X17802868Y5933893D01*
X17815480Y5912850D01*
X17825970Y5890671D01*
X17834235Y5867572D01*
X17840196Y5843773D01*
X17843796Y5819505D01*
X17845000Y5795001D01*
X17845000Y5144999D01*
X17843796Y5120495D01*
X17840196Y5096227D01*
X17834235Y5072428D01*
X17825970Y5049329D01*
X17815480Y5027150D01*
X17802868Y5006107D01*
X17788253Y4986401D01*
X17771777Y4968223D01*
X17753599Y4951747D01*
X17733893Y4937132D01*
X17712850Y4924520D01*
X17690671Y4914030D01*
X17667572Y4905765D01*
X17643773Y4899804D01*
X17619505Y4896204D01*
X17595001Y4895000D01*
X16694999Y4895000D01*
X16670495Y4896204D01*
X16646227Y4899804D01*
X16622428Y4905765D01*
X16599329Y4914030D01*
X16577150Y4924520D01*
X16556107Y4937132D01*
X16536401Y4951747D01*
X16518223Y4968223D01*
X16501747Y4986401D01*
X16487132Y5006107D01*
X16474520Y5027150D01*
X16464030Y5049329D01*
X16455765Y5072428D01*
X16449804Y5096227D01*
X16446204Y5120495D01*
X16445000Y5144999D01*
X16445000Y5795001D01*
X16446204Y5819505D01*
X16449804Y5843773D01*
X16455765Y5867572D01*
X16464030Y5890671D01*
X16474520Y5912850D01*
X16487132Y5933893D01*
X16501747Y5953599D01*
X16518223Y5971777D01*
X16536401Y5988253D01*
X16556107Y6002868D01*
X16577150Y6015480D01*
X16599329Y6025970D01*
X16622428Y6034235D01*
X16646227Y6040196D01*
X16670495Y6043796D01*
X16694999Y6045000D01*
X17595001Y6045000D01*
X17619505Y6043796D01*
G37*
%TD.AperFunction*%
%TA.AperFunction,SMDPad,CuDef*%
%TO.P,C2,2*%
%TO.N,GND*%
G36*
X17619505Y3993796D02*
G01*
X17643773Y3990196D01*
X17667572Y3984235D01*
X17690671Y3975970D01*
X17712850Y3965480D01*
X17733893Y3952868D01*
X17753599Y3938253D01*
X17771777Y3921777D01*
X17788253Y3903599D01*
X17802868Y3883893D01*
X17815480Y3862850D01*
X17825970Y3840671D01*
X17834235Y3817572D01*
X17840196Y3793773D01*
X17843796Y3769505D01*
X17845000Y3745001D01*
X17845000Y3094999D01*
X17843796Y3070495D01*
X17840196Y3046227D01*
X17834235Y3022428D01*
X17825970Y2999329D01*
X17815480Y2977150D01*
X17802868Y2956107D01*
X17788253Y2936401D01*
X17771777Y2918223D01*
X17753599Y2901747D01*
X17733893Y2887132D01*
X17712850Y2874520D01*
X17690671Y2864030D01*
X17667572Y2855765D01*
X17643773Y2849804D01*
X17619505Y2846204D01*
X17595001Y2845000D01*
X16694999Y2845000D01*
X16670495Y2846204D01*
X16646227Y2849804D01*
X16622428Y2855765D01*
X16599329Y2864030D01*
X16577150Y2874520D01*
X16556107Y2887132D01*
X16536401Y2901747D01*
X16518223Y2918223D01*
X16501747Y2936401D01*
X16487132Y2956107D01*
X16474520Y2977150D01*
X16464030Y2999329D01*
X16455765Y3022428D01*
X16449804Y3046227D01*
X16446204Y3070495D01*
X16445000Y3094999D01*
X16445000Y3745001D01*
X16446204Y3769505D01*
X16449804Y3793773D01*
X16455765Y3817572D01*
X16464030Y3840671D01*
X16474520Y3862850D01*
X16487132Y3883893D01*
X16501747Y3903599D01*
X16518223Y3921777D01*
X16536401Y3938253D01*
X16556107Y3952868D01*
X16577150Y3965480D01*
X16599329Y3975970D01*
X16622428Y3984235D01*
X16646227Y3990196D01*
X16670495Y3993796D01*
X16694999Y3995000D01*
X17595001Y3995000D01*
X17619505Y3993796D01*
G37*
%TD.AperFunction*%
%TD*%
%TA.AperFunction,SMDPad,CuDef*%
%TO.P,C3,1*%
%TO.N,Net-(C3-Pad1)*%
G36*
X22699505Y6043796D02*
G01*
X22723773Y6040196D01*
X22747572Y6034235D01*
X22770671Y6025970D01*
X22792850Y6015480D01*
X22813893Y6002868D01*
X22833599Y5988253D01*
X22851777Y5971777D01*
X22868253Y5953599D01*
X22882868Y5933893D01*
X22895480Y5912850D01*
X22905970Y5890671D01*
X22914235Y5867572D01*
X22920196Y5843773D01*
X22923796Y5819505D01*
X22925000Y5795001D01*
X22925000Y5144999D01*
X22923796Y5120495D01*
X22920196Y5096227D01*
X22914235Y5072428D01*
X22905970Y5049329D01*
X22895480Y5027150D01*
X22882868Y5006107D01*
X22868253Y4986401D01*
X22851777Y4968223D01*
X22833599Y4951747D01*
X22813893Y4937132D01*
X22792850Y4924520D01*
X22770671Y4914030D01*
X22747572Y4905765D01*
X22723773Y4899804D01*
X22699505Y4896204D01*
X22675001Y4895000D01*
X21774999Y4895000D01*
X21750495Y4896204D01*
X21726227Y4899804D01*
X21702428Y4905765D01*
X21679329Y4914030D01*
X21657150Y4924520D01*
X21636107Y4937132D01*
X21616401Y4951747D01*
X21598223Y4968223D01*
X21581747Y4986401D01*
X21567132Y5006107D01*
X21554520Y5027150D01*
X21544030Y5049329D01*
X21535765Y5072428D01*
X21529804Y5096227D01*
X21526204Y5120495D01*
X21525000Y5144999D01*
X21525000Y5795001D01*
X21526204Y5819505D01*
X21529804Y5843773D01*
X21535765Y5867572D01*
X21544030Y5890671D01*
X21554520Y5912850D01*
X21567132Y5933893D01*
X21581747Y5953599D01*
X21598223Y5971777D01*
X21616401Y5988253D01*
X21636107Y6002868D01*
X21657150Y6015480D01*
X21679329Y6025970D01*
X21702428Y6034235D01*
X21726227Y6040196D01*
X21750495Y6043796D01*
X21774999Y6045000D01*
X22675001Y6045000D01*
X22699505Y6043796D01*
G37*
%TD.AperFunction*%
%TA.AperFunction,SMDPad,CuDef*%
%TO.P,C3,2*%
%TO.N,GND*%
G36*
X22699505Y3993796D02*
G01*
X22723773Y3990196D01*
X22747572Y3984235D01*
X22770671Y3975970D01*
X22792850Y3965480D01*
X22813893Y3952868D01*
X22833599Y3938253D01*
X22851777Y3921777D01*
X22868253Y3903599D01*
X22882868Y3883893D01*
X22895480Y3862850D01*
X22905970Y3840671D01*
X22914235Y3817572D01*
X22920196Y3793773D01*
X22923796Y3769505D01*
X22925000Y3745001D01*
X22925000Y3094999D01*
X22923796Y3070495D01*
X22920196Y3046227D01*
X22914235Y3022428D01*
X22905970Y2999329D01*
X22895480Y2977150D01*
X22882868Y2956107D01*
X22868253Y2936401D01*
X22851777Y2918223D01*
X22833599Y2901747D01*
X22813893Y2887132D01*
X22792850Y2874520D01*
X22770671Y2864030D01*
X22747572Y2855765D01*
X22723773Y2849804D01*
X22699505Y2846204D01*
X22675001Y2845000D01*
X21774999Y2845000D01*
X21750495Y2846204D01*
X21726227Y2849804D01*
X21702428Y2855765D01*
X21679329Y2864030D01*
X21657150Y2874520D01*
X21636107Y2887132D01*
X21616401Y2901747D01*
X21598223Y2918223D01*
X21581747Y2936401D01*
X21567132Y2956107D01*
X21554520Y2977150D01*
X21544030Y2999329D01*
X21535765Y3022428D01*
X21529804Y3046227D01*
X21526204Y3070495D01*
X21525000Y3094999D01*
X21525000Y3745001D01*
X21526204Y3769505D01*
X21529804Y3793773D01*
X21535765Y3817572D01*
X21544030Y3840671D01*
X21554520Y3862850D01*
X21567132Y3883893D01*
X21581747Y3903599D01*
X21598223Y3921777D01*
X21616401Y3938253D01*
X21636107Y3952868D01*
X21657150Y3965480D01*
X21679329Y3975970D01*
X21702428Y3984235D01*
X21726227Y3990196D01*
X21750495Y3993796D01*
X21774999Y3995000D01*
X22675001Y3995000D01*
X22699505Y3993796D01*
G37*
%TD.AperFunction*%
%TD*%
%TA.AperFunction,SMDPad,CuDef*%
%TO.P,C4,2*%
%TO.N,GND*%
G36*
X20279505Y36258796D02*
G01*
X20303773Y36255196D01*
X20327572Y36249235D01*
X20350671Y36240970D01*
X20372850Y36230480D01*
X20393893Y36217868D01*
X20413599Y36203253D01*
X20431777Y36186777D01*
X20448253Y36168599D01*
X20462868Y36148893D01*
X20475480Y36127850D01*
X20485970Y36105671D01*
X20494235Y36082572D01*
X20500196Y36058773D01*
X20503796Y36034505D01*
X20505000Y36010001D01*
X20505000Y35109999D01*
X20503796Y35085495D01*
X20500196Y35061227D01*
X20494235Y35037428D01*
X20485970Y35014329D01*
X20475480Y34992150D01*
X20462868Y34971107D01*
X20448253Y34951401D01*
X20431777Y34933223D01*
X20413599Y34916747D01*
X20393893Y34902132D01*
X20372850Y34889520D01*
X20350671Y34879030D01*
X20327572Y34870765D01*
X20303773Y34864804D01*
X20279505Y34861204D01*
X20255001Y34860000D01*
X19604999Y34860000D01*
X19580495Y34861204D01*
X19556227Y34864804D01*
X19532428Y34870765D01*
X19509329Y34879030D01*
X19487150Y34889520D01*
X19466107Y34902132D01*
X19446401Y34916747D01*
X19428223Y34933223D01*
X19411747Y34951401D01*
X19397132Y34971107D01*
X19384520Y34992150D01*
X19374030Y35014329D01*
X19365765Y35037428D01*
X19359804Y35061227D01*
X19356204Y35085495D01*
X19355000Y35109999D01*
X19355000Y36010001D01*
X19356204Y36034505D01*
X19359804Y36058773D01*
X19365765Y36082572D01*
X19374030Y36105671D01*
X19384520Y36127850D01*
X19397132Y36148893D01*
X19411747Y36168599D01*
X19428223Y36186777D01*
X19446401Y36203253D01*
X19466107Y36217868D01*
X19487150Y36230480D01*
X19509329Y36240970D01*
X19532428Y36249235D01*
X19556227Y36255196D01*
X19580495Y36258796D01*
X19604999Y36260000D01*
X20255001Y36260000D01*
X20279505Y36258796D01*
G37*
%TD.AperFunction*%
%TA.AperFunction,SMDPad,CuDef*%
%TO.P,C4,1*%
%TO.N,Net-(C4-Pad1)*%
G36*
X22329505Y36258796D02*
G01*
X22353773Y36255196D01*
X22377572Y36249235D01*
X22400671Y36240970D01*
X22422850Y36230480D01*
X22443893Y36217868D01*
X22463599Y36203253D01*
X22481777Y36186777D01*
X22498253Y36168599D01*
X22512868Y36148893D01*
X22525480Y36127850D01*
X22535970Y36105671D01*
X22544235Y36082572D01*
X22550196Y36058773D01*
X22553796Y36034505D01*
X22555000Y36010001D01*
X22555000Y35109999D01*
X22553796Y35085495D01*
X22550196Y35061227D01*
X22544235Y35037428D01*
X22535970Y35014329D01*
X22525480Y34992150D01*
X22512868Y34971107D01*
X22498253Y34951401D01*
X22481777Y34933223D01*
X22463599Y34916747D01*
X22443893Y34902132D01*
X22422850Y34889520D01*
X22400671Y34879030D01*
X22377572Y34870765D01*
X22353773Y34864804D01*
X22329505Y34861204D01*
X22305001Y34860000D01*
X21654999Y34860000D01*
X21630495Y34861204D01*
X21606227Y34864804D01*
X21582428Y34870765D01*
X21559329Y34879030D01*
X21537150Y34889520D01*
X21516107Y34902132D01*
X21496401Y34916747D01*
X21478223Y34933223D01*
X21461747Y34951401D01*
X21447132Y34971107D01*
X21434520Y34992150D01*
X21424030Y35014329D01*
X21415765Y35037428D01*
X21409804Y35061227D01*
X21406204Y35085495D01*
X21405000Y35109999D01*
X21405000Y36010001D01*
X21406204Y36034505D01*
X21409804Y36058773D01*
X21415765Y36082572D01*
X21424030Y36105671D01*
X21434520Y36127850D01*
X21447132Y36148893D01*
X21461747Y36168599D01*
X21478223Y36186777D01*
X21496401Y36203253D01*
X21516107Y36217868D01*
X21537150Y36230480D01*
X21559329Y36240970D01*
X21582428Y36249235D01*
X21606227Y36255196D01*
X21630495Y36258796D01*
X21654999Y36260000D01*
X22305001Y36260000D01*
X22329505Y36258796D01*
G37*
%TD.AperFunction*%
%TD*%
%TA.AperFunction,SMDPad,CuDef*%
%TO.P,C5,1*%
%TO.N,+5V*%
G36*
X28434505Y36258796D02*
G01*
X28458773Y36255196D01*
X28482572Y36249235D01*
X28505671Y36240970D01*
X28527850Y36230480D01*
X28548893Y36217868D01*
X28568599Y36203253D01*
X28586777Y36186777D01*
X28603253Y36168599D01*
X28617868Y36148893D01*
X28630480Y36127850D01*
X28640970Y36105671D01*
X28649235Y36082572D01*
X28655196Y36058773D01*
X28658796Y36034505D01*
X28660000Y36010001D01*
X28660000Y35109999D01*
X28658796Y35085495D01*
X28655196Y35061227D01*
X28649235Y35037428D01*
X28640970Y35014329D01*
X28630480Y34992150D01*
X28617868Y34971107D01*
X28603253Y34951401D01*
X28586777Y34933223D01*
X28568599Y34916747D01*
X28548893Y34902132D01*
X28527850Y34889520D01*
X28505671Y34879030D01*
X28482572Y34870765D01*
X28458773Y34864804D01*
X28434505Y34861204D01*
X28410001Y34860000D01*
X27759999Y34860000D01*
X27735495Y34861204D01*
X27711227Y34864804D01*
X27687428Y34870765D01*
X27664329Y34879030D01*
X27642150Y34889520D01*
X27621107Y34902132D01*
X27601401Y34916747D01*
X27583223Y34933223D01*
X27566747Y34951401D01*
X27552132Y34971107D01*
X27539520Y34992150D01*
X27529030Y35014329D01*
X27520765Y35037428D01*
X27514804Y35061227D01*
X27511204Y35085495D01*
X27510000Y35109999D01*
X27510000Y36010001D01*
X27511204Y36034505D01*
X27514804Y36058773D01*
X27520765Y36082572D01*
X27529030Y36105671D01*
X27539520Y36127850D01*
X27552132Y36148893D01*
X27566747Y36168599D01*
X27583223Y36186777D01*
X27601401Y36203253D01*
X27621107Y36217868D01*
X27642150Y36230480D01*
X27664329Y36240970D01*
X27687428Y36249235D01*
X27711227Y36255196D01*
X27735495Y36258796D01*
X27759999Y36260000D01*
X28410001Y36260000D01*
X28434505Y36258796D01*
G37*
%TD.AperFunction*%
%TA.AperFunction,SMDPad,CuDef*%
%TO.P,C5,2*%
%TO.N,GND*%
G36*
X26384505Y36258796D02*
G01*
X26408773Y36255196D01*
X26432572Y36249235D01*
X26455671Y36240970D01*
X26477850Y36230480D01*
X26498893Y36217868D01*
X26518599Y36203253D01*
X26536777Y36186777D01*
X26553253Y36168599D01*
X26567868Y36148893D01*
X26580480Y36127850D01*
X26590970Y36105671D01*
X26599235Y36082572D01*
X26605196Y36058773D01*
X26608796Y36034505D01*
X26610000Y36010001D01*
X26610000Y35109999D01*
X26608796Y35085495D01*
X26605196Y35061227D01*
X26599235Y35037428D01*
X26590970Y35014329D01*
X26580480Y34992150D01*
X26567868Y34971107D01*
X26553253Y34951401D01*
X26536777Y34933223D01*
X26518599Y34916747D01*
X26498893Y34902132D01*
X26477850Y34889520D01*
X26455671Y34879030D01*
X26432572Y34870765D01*
X26408773Y34864804D01*
X26384505Y34861204D01*
X26360001Y34860000D01*
X25709999Y34860000D01*
X25685495Y34861204D01*
X25661227Y34864804D01*
X25637428Y34870765D01*
X25614329Y34879030D01*
X25592150Y34889520D01*
X25571107Y34902132D01*
X25551401Y34916747D01*
X25533223Y34933223D01*
X25516747Y34951401D01*
X25502132Y34971107D01*
X25489520Y34992150D01*
X25479030Y35014329D01*
X25470765Y35037428D01*
X25464804Y35061227D01*
X25461204Y35085495D01*
X25460000Y35109999D01*
X25460000Y36010001D01*
X25461204Y36034505D01*
X25464804Y36058773D01*
X25470765Y36082572D01*
X25479030Y36105671D01*
X25489520Y36127850D01*
X25502132Y36148893D01*
X25516747Y36168599D01*
X25533223Y36186777D01*
X25551401Y36203253D01*
X25571107Y36217868D01*
X25592150Y36230480D01*
X25614329Y36240970D01*
X25637428Y36249235D01*
X25661227Y36255196D01*
X25685495Y36258796D01*
X25709999Y36260000D01*
X26360001Y36260000D01*
X26384505Y36258796D01*
G37*
%TD.AperFunction*%
%TD*%
%TA.AperFunction,SMDPad,CuDef*%
%TO.P,C7,2*%
%TO.N,+5V*%
G36*
X59649505Y21018796D02*
G01*
X59673773Y21015196D01*
X59697572Y21009235D01*
X59720671Y21000970D01*
X59742850Y20990480D01*
X59763893Y20977868D01*
X59783599Y20963253D01*
X59801777Y20946777D01*
X59818253Y20928599D01*
X59832868Y20908893D01*
X59845480Y20887850D01*
X59855970Y20865671D01*
X59864235Y20842572D01*
X59870196Y20818773D01*
X59873796Y20794505D01*
X59875000Y20770001D01*
X59875000Y19869999D01*
X59873796Y19845495D01*
X59870196Y19821227D01*
X59864235Y19797428D01*
X59855970Y19774329D01*
X59845480Y19752150D01*
X59832868Y19731107D01*
X59818253Y19711401D01*
X59801777Y19693223D01*
X59783599Y19676747D01*
X59763893Y19662132D01*
X59742850Y19649520D01*
X59720671Y19639030D01*
X59697572Y19630765D01*
X59673773Y19624804D01*
X59649505Y19621204D01*
X59625001Y19620000D01*
X58974999Y19620000D01*
X58950495Y19621204D01*
X58926227Y19624804D01*
X58902428Y19630765D01*
X58879329Y19639030D01*
X58857150Y19649520D01*
X58836107Y19662132D01*
X58816401Y19676747D01*
X58798223Y19693223D01*
X58781747Y19711401D01*
X58767132Y19731107D01*
X58754520Y19752150D01*
X58744030Y19774329D01*
X58735765Y19797428D01*
X58729804Y19821227D01*
X58726204Y19845495D01*
X58725000Y19869999D01*
X58725000Y20770001D01*
X58726204Y20794505D01*
X58729804Y20818773D01*
X58735765Y20842572D01*
X58744030Y20865671D01*
X58754520Y20887850D01*
X58767132Y20908893D01*
X58781747Y20928599D01*
X58798223Y20946777D01*
X58816401Y20963253D01*
X58836107Y20977868D01*
X58857150Y20990480D01*
X58879329Y21000970D01*
X58902428Y21009235D01*
X58926227Y21015196D01*
X58950495Y21018796D01*
X58974999Y21020000D01*
X59625001Y21020000D01*
X59649505Y21018796D01*
G37*
%TD.AperFunction*%
%TA.AperFunction,SMDPad,CuDef*%
%TO.P,C7,1*%
%TO.N,GND*%
G36*
X61699505Y21018796D02*
G01*
X61723773Y21015196D01*
X61747572Y21009235D01*
X61770671Y21000970D01*
X61792850Y20990480D01*
X61813893Y20977868D01*
X61833599Y20963253D01*
X61851777Y20946777D01*
X61868253Y20928599D01*
X61882868Y20908893D01*
X61895480Y20887850D01*
X61905970Y20865671D01*
X61914235Y20842572D01*
X61920196Y20818773D01*
X61923796Y20794505D01*
X61925000Y20770001D01*
X61925000Y19869999D01*
X61923796Y19845495D01*
X61920196Y19821227D01*
X61914235Y19797428D01*
X61905970Y19774329D01*
X61895480Y19752150D01*
X61882868Y19731107D01*
X61868253Y19711401D01*
X61851777Y19693223D01*
X61833599Y19676747D01*
X61813893Y19662132D01*
X61792850Y19649520D01*
X61770671Y19639030D01*
X61747572Y19630765D01*
X61723773Y19624804D01*
X61699505Y19621204D01*
X61675001Y19620000D01*
X61024999Y19620000D01*
X61000495Y19621204D01*
X60976227Y19624804D01*
X60952428Y19630765D01*
X60929329Y19639030D01*
X60907150Y19649520D01*
X60886107Y19662132D01*
X60866401Y19676747D01*
X60848223Y19693223D01*
X60831747Y19711401D01*
X60817132Y19731107D01*
X60804520Y19752150D01*
X60794030Y19774329D01*
X60785765Y19797428D01*
X60779804Y19821227D01*
X60776204Y19845495D01*
X60775000Y19869999D01*
X60775000Y20770001D01*
X60776204Y20794505D01*
X60779804Y20818773D01*
X60785765Y20842572D01*
X60794030Y20865671D01*
X60804520Y20887850D01*
X60817132Y20908893D01*
X60831747Y20928599D01*
X60848223Y20946777D01*
X60866401Y20963253D01*
X60886107Y20977868D01*
X60907150Y20990480D01*
X60929329Y21000970D01*
X60952428Y21009235D01*
X60976227Y21015196D01*
X61000495Y21018796D01*
X61024999Y21020000D01*
X61675001Y21020000D01*
X61699505Y21018796D01*
G37*
%TD.AperFunction*%
%TD*%
%TA.AperFunction,SMDPad,CuDef*%
%TO.P,C10,1*%
%TO.N,GND*%
G36*
X59894505Y33083796D02*
G01*
X59918773Y33080196D01*
X59942572Y33074235D01*
X59965671Y33065970D01*
X59987850Y33055480D01*
X60008893Y33042868D01*
X60028599Y33028253D01*
X60046777Y33011777D01*
X60063253Y32993599D01*
X60077868Y32973893D01*
X60090480Y32952850D01*
X60100970Y32930671D01*
X60109235Y32907572D01*
X60115196Y32883773D01*
X60118796Y32859505D01*
X60120000Y32835001D01*
X60120000Y31934999D01*
X60118796Y31910495D01*
X60115196Y31886227D01*
X60109235Y31862428D01*
X60100970Y31839329D01*
X60090480Y31817150D01*
X60077868Y31796107D01*
X60063253Y31776401D01*
X60046777Y31758223D01*
X60028599Y31741747D01*
X60008893Y31727132D01*
X59987850Y31714520D01*
X59965671Y31704030D01*
X59942572Y31695765D01*
X59918773Y31689804D01*
X59894505Y31686204D01*
X59870001Y31685000D01*
X59219999Y31685000D01*
X59195495Y31686204D01*
X59171227Y31689804D01*
X59147428Y31695765D01*
X59124329Y31704030D01*
X59102150Y31714520D01*
X59081107Y31727132D01*
X59061401Y31741747D01*
X59043223Y31758223D01*
X59026747Y31776401D01*
X59012132Y31796107D01*
X58999520Y31817150D01*
X58989030Y31839329D01*
X58980765Y31862428D01*
X58974804Y31886227D01*
X58971204Y31910495D01*
X58970000Y31934999D01*
X58970000Y32835001D01*
X58971204Y32859505D01*
X58974804Y32883773D01*
X58980765Y32907572D01*
X58989030Y32930671D01*
X58999520Y32952850D01*
X59012132Y32973893D01*
X59026747Y32993599D01*
X59043223Y33011777D01*
X59061401Y33028253D01*
X59081107Y33042868D01*
X59102150Y33055480D01*
X59124329Y33065970D01*
X59147428Y33074235D01*
X59171227Y33080196D01*
X59195495Y33083796D01*
X59219999Y33085000D01*
X59870001Y33085000D01*
X59894505Y33083796D01*
G37*
%TD.AperFunction*%
%TA.AperFunction,SMDPad,CuDef*%
%TO.P,C10,2*%
%TO.N,Net-(C10-Pad2)*%
G36*
X61944505Y33083796D02*
G01*
X61968773Y33080196D01*
X61992572Y33074235D01*
X62015671Y33065970D01*
X62037850Y33055480D01*
X62058893Y33042868D01*
X62078599Y33028253D01*
X62096777Y33011777D01*
X62113253Y32993599D01*
X62127868Y32973893D01*
X62140480Y32952850D01*
X62150970Y32930671D01*
X62159235Y32907572D01*
X62165196Y32883773D01*
X62168796Y32859505D01*
X62170000Y32835001D01*
X62170000Y31934999D01*
X62168796Y31910495D01*
X62165196Y31886227D01*
X62159235Y31862428D01*
X62150970Y31839329D01*
X62140480Y31817150D01*
X62127868Y31796107D01*
X62113253Y31776401D01*
X62096777Y31758223D01*
X62078599Y31741747D01*
X62058893Y31727132D01*
X62037850Y31714520D01*
X62015671Y31704030D01*
X61992572Y31695765D01*
X61968773Y31689804D01*
X61944505Y31686204D01*
X61920001Y31685000D01*
X61269999Y31685000D01*
X61245495Y31686204D01*
X61221227Y31689804D01*
X61197428Y31695765D01*
X61174329Y31704030D01*
X61152150Y31714520D01*
X61131107Y31727132D01*
X61111401Y31741747D01*
X61093223Y31758223D01*
X61076747Y31776401D01*
X61062132Y31796107D01*
X61049520Y31817150D01*
X61039030Y31839329D01*
X61030765Y31862428D01*
X61024804Y31886227D01*
X61021204Y31910495D01*
X61020000Y31934999D01*
X61020000Y32835001D01*
X61021204Y32859505D01*
X61024804Y32883773D01*
X61030765Y32907572D01*
X61039030Y32930671D01*
X61049520Y32952850D01*
X61062132Y32973893D01*
X61076747Y32993599D01*
X61093223Y33011777D01*
X61111401Y33028253D01*
X61131107Y33042868D01*
X61152150Y33055480D01*
X61174329Y33065970D01*
X61197428Y33074235D01*
X61221227Y33080196D01*
X61245495Y33083796D01*
X61269999Y33085000D01*
X61920001Y33085000D01*
X61944505Y33083796D01*
G37*
%TD.AperFunction*%
%TD*%
D15*
%TO.P,D2,1*%
%TO.N,GND*%
X60960000Y6350000D03*
D16*
%TO.P,D2,2*%
%TO.N,Net-(D2-Pad2)*%
X63500000Y6350000D03*
%TD*%
%TO.P,D3,2*%
%TO.N,Net-(D3-Pad2)*%
X50800000Y6350000D03*
D15*
%TO.P,D3,1*%
%TO.N,GND*%
X53340000Y6350000D03*
%TD*%
%TA.AperFunction,SMDPad,CuDef*%
D12*
%TO.P,FB1,1*%
%TO.N,Net-(C8-Pad1)*%
G36*
X32454504Y43418796D02*
G01*
X32478773Y43415196D01*
X32502571Y43409235D01*
X32525671Y43400970D01*
X32547849Y43390480D01*
X32568893Y43377867D01*
X32588598Y43363253D01*
X32606777Y43346777D01*
X32623253Y43328598D01*
X32637867Y43308893D01*
X32650480Y43287849D01*
X32660970Y43265671D01*
X32669235Y43242571D01*
X32675196Y43218773D01*
X32678796Y43194504D01*
X32680000Y43170000D01*
X32680000Y41920000D01*
X32678796Y41895496D01*
X32675196Y41871227D01*
X32669235Y41847429D01*
X32660970Y41824329D01*
X32650480Y41802151D01*
X32637867Y41781107D01*
X32623253Y41761402D01*
X32606777Y41743223D01*
X32588598Y41726747D01*
X32568893Y41712133D01*
X32547849Y41699520D01*
X32525671Y41689030D01*
X32502571Y41680765D01*
X32478773Y41674804D01*
X32454504Y41671204D01*
X32430000Y41670000D01*
X31505000Y41670000D01*
X31480496Y41671204D01*
X31456227Y41674804D01*
X31432429Y41680765D01*
X31409329Y41689030D01*
X31387151Y41699520D01*
X31366107Y41712133D01*
X31346402Y41726747D01*
X31328223Y41743223D01*
X31311747Y41761402D01*
X31297133Y41781107D01*
X31284520Y41802151D01*
X31274030Y41824329D01*
X31265765Y41847429D01*
X31259804Y41871227D01*
X31256204Y41895496D01*
X31255000Y41920000D01*
X31255000Y43170000D01*
X31256204Y43194504D01*
X31259804Y43218773D01*
X31265765Y43242571D01*
X31274030Y43265671D01*
X31284520Y43287849D01*
X31297133Y43308893D01*
X31311747Y43328598D01*
X31328223Y43346777D01*
X31346402Y43363253D01*
X31366107Y43377867D01*
X31387151Y43390480D01*
X31409329Y43400970D01*
X31432429Y43409235D01*
X31456227Y43415196D01*
X31480496Y43418796D01*
X31505000Y43420000D01*
X32430000Y43420000D01*
X32454504Y43418796D01*
G37*
%TD.AperFunction*%
%TA.AperFunction,SMDPad,CuDef*%
%TO.P,FB1,2*%
%TO.N,+5V*%
G36*
X29479504Y43418796D02*
G01*
X29503773Y43415196D01*
X29527571Y43409235D01*
X29550671Y43400970D01*
X29572849Y43390480D01*
X29593893Y43377867D01*
X29613598Y43363253D01*
X29631777Y43346777D01*
X29648253Y43328598D01*
X29662867Y43308893D01*
X29675480Y43287849D01*
X29685970Y43265671D01*
X29694235Y43242571D01*
X29700196Y43218773D01*
X29703796Y43194504D01*
X29705000Y43170000D01*
X29705000Y41920000D01*
X29703796Y41895496D01*
X29700196Y41871227D01*
X29694235Y41847429D01*
X29685970Y41824329D01*
X29675480Y41802151D01*
X29662867Y41781107D01*
X29648253Y41761402D01*
X29631777Y41743223D01*
X29613598Y41726747D01*
X29593893Y41712133D01*
X29572849Y41699520D01*
X29550671Y41689030D01*
X29527571Y41680765D01*
X29503773Y41674804D01*
X29479504Y41671204D01*
X29455000Y41670000D01*
X28530000Y41670000D01*
X28505496Y41671204D01*
X28481227Y41674804D01*
X28457429Y41680765D01*
X28434329Y41689030D01*
X28412151Y41699520D01*
X28391107Y41712133D01*
X28371402Y41726747D01*
X28353223Y41743223D01*
X28336747Y41761402D01*
X28322133Y41781107D01*
X28309520Y41802151D01*
X28299030Y41824329D01*
X28290765Y41847429D01*
X28284804Y41871227D01*
X28281204Y41895496D01*
X28280000Y41920000D01*
X28280000Y43170000D01*
X28281204Y43194504D01*
X28284804Y43218773D01*
X28290765Y43242571D01*
X28299030Y43265671D01*
X28309520Y43287849D01*
X28322133Y43308893D01*
X28336747Y43328598D01*
X28353223Y43346777D01*
X28371402Y43363253D01*
X28391107Y43377867D01*
X28412151Y43390480D01*
X28434329Y43400970D01*
X28457429Y43409235D01*
X28481227Y43415196D01*
X28505496Y43418796D01*
X28530000Y43420000D01*
X29455000Y43420000D01*
X29479504Y43418796D01*
G37*
%TD.AperFunction*%
%TD*%
D17*
%TO.P,J1,1*%
%TO.N,+5V*%
X4000000Y19080000D03*
%TO.P,J1,2*%
%TO.N,Net-(J1-Pad2)*%
X4000000Y18430000D03*
%TO.P,J1,3*%
%TO.N,Net-(J1-Pad3)*%
X4000000Y17780000D03*
%TO.P,J1,4*%
%TO.N,Net-(J1-Pad4)*%
X4000000Y17130000D03*
%TO.P,J1,5*%
%TO.N,GND*%
X4000000Y16480000D03*
D18*
%TO.P,J1,6*%
X3915000Y20267500D03*
X3915000Y15292500D03*
D19*
X1340000Y21155000D03*
X1340000Y14405000D03*
D20*
X1340000Y18930000D03*
D21*
X1340000Y16230000D03*
%TD*%
D22*
%TO.P,JP1,1*%
%TO.N,Net-(C8-Pad1)*%
X72390000Y40005000D03*
D23*
%TO.P,JP1,2*%
%TO.N,Net-(C10-Pad2)*%
X72390000Y42545000D03*
%TO.P,JP1,3*%
%TO.N,Net-(C9-Pad1)*%
X72390000Y45085000D03*
%TD*%
%TO.P,JP2,3*%
%TO.N,Net-(JP2-Pad3)*%
X95250000Y42545000D03*
%TO.P,JP2,2*%
%TO.N,VSS*%
X92710000Y42545000D03*
D22*
%TO.P,JP2,1*%
%TO.N,Net-(C10-Pad2)*%
X90170000Y42545000D03*
%TD*%
%TA.AperFunction,SMDPad,CuDef*%
D12*
%TO.P,R2,1*%
%TO.N,+5V*%
G36*
X47584505Y24828796D02*
G01*
X47608773Y24825196D01*
X47632572Y24819235D01*
X47655671Y24810970D01*
X47677850Y24800480D01*
X47698893Y24787868D01*
X47718599Y24773253D01*
X47736777Y24756777D01*
X47753253Y24738599D01*
X47767868Y24718893D01*
X47780480Y24697850D01*
X47790970Y24675671D01*
X47799235Y24652572D01*
X47805196Y24628773D01*
X47808796Y24604505D01*
X47810000Y24580001D01*
X47810000Y23679999D01*
X47808796Y23655495D01*
X47805196Y23631227D01*
X47799235Y23607428D01*
X47790970Y23584329D01*
X47780480Y23562150D01*
X47767868Y23541107D01*
X47753253Y23521401D01*
X47736777Y23503223D01*
X47718599Y23486747D01*
X47698893Y23472132D01*
X47677850Y23459520D01*
X47655671Y23449030D01*
X47632572Y23440765D01*
X47608773Y23434804D01*
X47584505Y23431204D01*
X47560001Y23430000D01*
X46909999Y23430000D01*
X46885495Y23431204D01*
X46861227Y23434804D01*
X46837428Y23440765D01*
X46814329Y23449030D01*
X46792150Y23459520D01*
X46771107Y23472132D01*
X46751401Y23486747D01*
X46733223Y23503223D01*
X46716747Y23521401D01*
X46702132Y23541107D01*
X46689520Y23562150D01*
X46679030Y23584329D01*
X46670765Y23607428D01*
X46664804Y23631227D01*
X46661204Y23655495D01*
X46660000Y23679999D01*
X46660000Y24580001D01*
X46661204Y24604505D01*
X46664804Y24628773D01*
X46670765Y24652572D01*
X46679030Y24675671D01*
X46689520Y24697850D01*
X46702132Y24718893D01*
X46716747Y24738599D01*
X46733223Y24756777D01*
X46751401Y24773253D01*
X46771107Y24787868D01*
X46792150Y24800480D01*
X46814329Y24810970D01*
X46837428Y24819235D01*
X46861227Y24825196D01*
X46885495Y24828796D01*
X46909999Y24830000D01*
X47560001Y24830000D01*
X47584505Y24828796D01*
G37*
%TD.AperFunction*%
%TA.AperFunction,SMDPad,CuDef*%
%TO.P,R2,2*%
%TO.N,Net-(R2-Pad2)*%
G36*
X49634505Y24828796D02*
G01*
X49658773Y24825196D01*
X49682572Y24819235D01*
X49705671Y24810970D01*
X49727850Y24800480D01*
X49748893Y24787868D01*
X49768599Y24773253D01*
X49786777Y24756777D01*
X49803253Y24738599D01*
X49817868Y24718893D01*
X49830480Y24697850D01*
X49840970Y24675671D01*
X49849235Y24652572D01*
X49855196Y24628773D01*
X49858796Y24604505D01*
X49860000Y24580001D01*
X49860000Y23679999D01*
X49858796Y23655495D01*
X49855196Y23631227D01*
X49849235Y23607428D01*
X49840970Y23584329D01*
X49830480Y23562150D01*
X49817868Y23541107D01*
X49803253Y23521401D01*
X49786777Y23503223D01*
X49768599Y23486747D01*
X49748893Y23472132D01*
X49727850Y23459520D01*
X49705671Y23449030D01*
X49682572Y23440765D01*
X49658773Y23434804D01*
X49634505Y23431204D01*
X49610001Y23430000D01*
X48959999Y23430000D01*
X48935495Y23431204D01*
X48911227Y23434804D01*
X48887428Y23440765D01*
X48864329Y23449030D01*
X48842150Y23459520D01*
X48821107Y23472132D01*
X48801401Y23486747D01*
X48783223Y23503223D01*
X48766747Y23521401D01*
X48752132Y23541107D01*
X48739520Y23562150D01*
X48729030Y23584329D01*
X48720765Y23607428D01*
X48714804Y23631227D01*
X48711204Y23655495D01*
X48710000Y23679999D01*
X48710000Y24580001D01*
X48711204Y24604505D01*
X48714804Y24628773D01*
X48720765Y24652572D01*
X48729030Y24675671D01*
X48739520Y24697850D01*
X48752132Y24718893D01*
X48766747Y24738599D01*
X48783223Y24756777D01*
X48801401Y24773253D01*
X48821107Y24787868D01*
X48842150Y24800480D01*
X48864329Y24810970D01*
X48887428Y24819235D01*
X48911227Y24825196D01*
X48935495Y24828796D01*
X48959999Y24830000D01*
X49610001Y24830000D01*
X49634505Y24828796D01*
G37*
%TD.AperFunction*%
%TD*%
%TA.AperFunction,SMDPad,CuDef*%
%TO.P,R5,1*%
%TO.N,+5V*%
G36*
X47584505Y34988796D02*
G01*
X47608773Y34985196D01*
X47632572Y34979235D01*
X47655671Y34970970D01*
X47677850Y34960480D01*
X47698893Y34947868D01*
X47718599Y34933253D01*
X47736777Y34916777D01*
X47753253Y34898599D01*
X47767868Y34878893D01*
X47780480Y34857850D01*
X47790970Y34835671D01*
X47799235Y34812572D01*
X47805196Y34788773D01*
X47808796Y34764505D01*
X47810000Y34740001D01*
X47810000Y33839999D01*
X47808796Y33815495D01*
X47805196Y33791227D01*
X47799235Y33767428D01*
X47790970Y33744329D01*
X47780480Y33722150D01*
X47767868Y33701107D01*
X47753253Y33681401D01*
X47736777Y33663223D01*
X47718599Y33646747D01*
X47698893Y33632132D01*
X47677850Y33619520D01*
X47655671Y33609030D01*
X47632572Y33600765D01*
X47608773Y33594804D01*
X47584505Y33591204D01*
X47560001Y33590000D01*
X46909999Y33590000D01*
X46885495Y33591204D01*
X46861227Y33594804D01*
X46837428Y33600765D01*
X46814329Y33609030D01*
X46792150Y33619520D01*
X46771107Y33632132D01*
X46751401Y33646747D01*
X46733223Y33663223D01*
X46716747Y33681401D01*
X46702132Y33701107D01*
X46689520Y33722150D01*
X46679030Y33744329D01*
X46670765Y33767428D01*
X46664804Y33791227D01*
X46661204Y33815495D01*
X46660000Y33839999D01*
X46660000Y34740001D01*
X46661204Y34764505D01*
X46664804Y34788773D01*
X46670765Y34812572D01*
X46679030Y34835671D01*
X46689520Y34857850D01*
X46702132Y34878893D01*
X46716747Y34898599D01*
X46733223Y34916777D01*
X46751401Y34933253D01*
X46771107Y34947868D01*
X46792150Y34960480D01*
X46814329Y34970970D01*
X46837428Y34979235D01*
X46861227Y34985196D01*
X46885495Y34988796D01*
X46909999Y34990000D01*
X47560001Y34990000D01*
X47584505Y34988796D01*
G37*
%TD.AperFunction*%
%TA.AperFunction,SMDPad,CuDef*%
%TO.P,R5,2*%
%TO.N,Net-(R5-Pad2)*%
G36*
X49634505Y34988796D02*
G01*
X49658773Y34985196D01*
X49682572Y34979235D01*
X49705671Y34970970D01*
X49727850Y34960480D01*
X49748893Y34947868D01*
X49768599Y34933253D01*
X49786777Y34916777D01*
X49803253Y34898599D01*
X49817868Y34878893D01*
X49830480Y34857850D01*
X49840970Y34835671D01*
X49849235Y34812572D01*
X49855196Y34788773D01*
X49858796Y34764505D01*
X49860000Y34740001D01*
X49860000Y33839999D01*
X49858796Y33815495D01*
X49855196Y33791227D01*
X49849235Y33767428D01*
X49840970Y33744329D01*
X49830480Y33722150D01*
X49817868Y33701107D01*
X49803253Y33681401D01*
X49786777Y33663223D01*
X49768599Y33646747D01*
X49748893Y33632132D01*
X49727850Y33619520D01*
X49705671Y33609030D01*
X49682572Y33600765D01*
X49658773Y33594804D01*
X49634505Y33591204D01*
X49610001Y33590000D01*
X48959999Y33590000D01*
X48935495Y33591204D01*
X48911227Y33594804D01*
X48887428Y33600765D01*
X48864329Y33609030D01*
X48842150Y33619520D01*
X48821107Y33632132D01*
X48801401Y33646747D01*
X48783223Y33663223D01*
X48766747Y33681401D01*
X48752132Y33701107D01*
X48739520Y33722150D01*
X48729030Y33744329D01*
X48720765Y33767428D01*
X48714804Y33791227D01*
X48711204Y33815495D01*
X48710000Y33839999D01*
X48710000Y34740001D01*
X48711204Y34764505D01*
X48714804Y34788773D01*
X48720765Y34812572D01*
X48729030Y34835671D01*
X48739520Y34857850D01*
X48752132Y34878893D01*
X48766747Y34898599D01*
X48783223Y34916777D01*
X48801401Y34933253D01*
X48821107Y34947868D01*
X48842150Y34960480D01*
X48864329Y34970970D01*
X48887428Y34979235D01*
X48911227Y34985196D01*
X48935495Y34988796D01*
X48959999Y34990000D01*
X49610001Y34990000D01*
X49634505Y34988796D01*
G37*
%TD.AperFunction*%
%TD*%
%TA.AperFunction,SMDPad,CuDef*%
%TO.P,R6,2*%
%TO.N,Net-(R6-Pad2)*%
G36*
X47584505Y16573796D02*
G01*
X47608773Y16570196D01*
X47632572Y16564235D01*
X47655671Y16555970D01*
X47677850Y16545480D01*
X47698893Y16532868D01*
X47718599Y16518253D01*
X47736777Y16501777D01*
X47753253Y16483599D01*
X47767868Y16463893D01*
X47780480Y16442850D01*
X47790970Y16420671D01*
X47799235Y16397572D01*
X47805196Y16373773D01*
X47808796Y16349505D01*
X47810000Y16325001D01*
X47810000Y15424999D01*
X47808796Y15400495D01*
X47805196Y15376227D01*
X47799235Y15352428D01*
X47790970Y15329329D01*
X47780480Y15307150D01*
X47767868Y15286107D01*
X47753253Y15266401D01*
X47736777Y15248223D01*
X47718599Y15231747D01*
X47698893Y15217132D01*
X47677850Y15204520D01*
X47655671Y15194030D01*
X47632572Y15185765D01*
X47608773Y15179804D01*
X47584505Y15176204D01*
X47560001Y15175000D01*
X46909999Y15175000D01*
X46885495Y15176204D01*
X46861227Y15179804D01*
X46837428Y15185765D01*
X46814329Y15194030D01*
X46792150Y15204520D01*
X46771107Y15217132D01*
X46751401Y15231747D01*
X46733223Y15248223D01*
X46716747Y15266401D01*
X46702132Y15286107D01*
X46689520Y15307150D01*
X46679030Y15329329D01*
X46670765Y15352428D01*
X46664804Y15376227D01*
X46661204Y15400495D01*
X46660000Y15424999D01*
X46660000Y16325001D01*
X46661204Y16349505D01*
X46664804Y16373773D01*
X46670765Y16397572D01*
X46679030Y16420671D01*
X46689520Y16442850D01*
X46702132Y16463893D01*
X46716747Y16483599D01*
X46733223Y16501777D01*
X46751401Y16518253D01*
X46771107Y16532868D01*
X46792150Y16545480D01*
X46814329Y16555970D01*
X46837428Y16564235D01*
X46861227Y16570196D01*
X46885495Y16573796D01*
X46909999Y16575000D01*
X47560001Y16575000D01*
X47584505Y16573796D01*
G37*
%TD.AperFunction*%
%TA.AperFunction,SMDPad,CuDef*%
%TO.P,R6,1*%
%TO.N,Net-(R6-Pad1)*%
G36*
X49634505Y16573796D02*
G01*
X49658773Y16570196D01*
X49682572Y16564235D01*
X49705671Y16555970D01*
X49727850Y16545480D01*
X49748893Y16532868D01*
X49768599Y16518253D01*
X49786777Y16501777D01*
X49803253Y16483599D01*
X49817868Y16463893D01*
X49830480Y16442850D01*
X49840970Y16420671D01*
X49849235Y16397572D01*
X49855196Y16373773D01*
X49858796Y16349505D01*
X49860000Y16325001D01*
X49860000Y15424999D01*
X49858796Y15400495D01*
X49855196Y15376227D01*
X49849235Y15352428D01*
X49840970Y15329329D01*
X49830480Y15307150D01*
X49817868Y15286107D01*
X49803253Y15266401D01*
X49786777Y15248223D01*
X49768599Y15231747D01*
X49748893Y15217132D01*
X49727850Y15204520D01*
X49705671Y15194030D01*
X49682572Y15185765D01*
X49658773Y15179804D01*
X49634505Y15176204D01*
X49610001Y15175000D01*
X48959999Y15175000D01*
X48935495Y15176204D01*
X48911227Y15179804D01*
X48887428Y15185765D01*
X48864329Y15194030D01*
X48842150Y15204520D01*
X48821107Y15217132D01*
X48801401Y15231747D01*
X48783223Y15248223D01*
X48766747Y15266401D01*
X48752132Y15286107D01*
X48739520Y15307150D01*
X48729030Y15329329D01*
X48720765Y15352428D01*
X48714804Y15376227D01*
X48711204Y15400495D01*
X48710000Y15424999D01*
X48710000Y16325001D01*
X48711204Y16349505D01*
X48714804Y16373773D01*
X48720765Y16397572D01*
X48729030Y16420671D01*
X48739520Y16442850D01*
X48752132Y16463893D01*
X48766747Y16483599D01*
X48783223Y16501777D01*
X48801401Y16518253D01*
X48821107Y16532868D01*
X48842150Y16545480D01*
X48864329Y16555970D01*
X48887428Y16564235D01*
X48911227Y16570196D01*
X48935495Y16573796D01*
X48959999Y16575000D01*
X49610001Y16575000D01*
X49634505Y16573796D01*
G37*
%TD.AperFunction*%
%TD*%
%TA.AperFunction,SMDPad,CuDef*%
%TO.P,R7,2*%
%TO.N,Net-(R7-Pad2)*%
G36*
X47584505Y20383796D02*
G01*
X47608773Y20380196D01*
X47632572Y20374235D01*
X47655671Y20365970D01*
X47677850Y20355480D01*
X47698893Y20342868D01*
X47718599Y20328253D01*
X47736777Y20311777D01*
X47753253Y20293599D01*
X47767868Y20273893D01*
X47780480Y20252850D01*
X47790970Y20230671D01*
X47799235Y20207572D01*
X47805196Y20183773D01*
X47808796Y20159505D01*
X47810000Y20135001D01*
X47810000Y19234999D01*
X47808796Y19210495D01*
X47805196Y19186227D01*
X47799235Y19162428D01*
X47790970Y19139329D01*
X47780480Y19117150D01*
X47767868Y19096107D01*
X47753253Y19076401D01*
X47736777Y19058223D01*
X47718599Y19041747D01*
X47698893Y19027132D01*
X47677850Y19014520D01*
X47655671Y19004030D01*
X47632572Y18995765D01*
X47608773Y18989804D01*
X47584505Y18986204D01*
X47560001Y18985000D01*
X46909999Y18985000D01*
X46885495Y18986204D01*
X46861227Y18989804D01*
X46837428Y18995765D01*
X46814329Y19004030D01*
X46792150Y19014520D01*
X46771107Y19027132D01*
X46751401Y19041747D01*
X46733223Y19058223D01*
X46716747Y19076401D01*
X46702132Y19096107D01*
X46689520Y19117150D01*
X46679030Y19139329D01*
X46670765Y19162428D01*
X46664804Y19186227D01*
X46661204Y19210495D01*
X46660000Y19234999D01*
X46660000Y20135001D01*
X46661204Y20159505D01*
X46664804Y20183773D01*
X46670765Y20207572D01*
X46679030Y20230671D01*
X46689520Y20252850D01*
X46702132Y20273893D01*
X46716747Y20293599D01*
X46733223Y20311777D01*
X46751401Y20328253D01*
X46771107Y20342868D01*
X46792150Y20355480D01*
X46814329Y20365970D01*
X46837428Y20374235D01*
X46861227Y20380196D01*
X46885495Y20383796D01*
X46909999Y20385000D01*
X47560001Y20385000D01*
X47584505Y20383796D01*
G37*
%TD.AperFunction*%
%TA.AperFunction,SMDPad,CuDef*%
%TO.P,R7,1*%
%TO.N,Net-(R6-Pad1)*%
G36*
X49634505Y20383796D02*
G01*
X49658773Y20380196D01*
X49682572Y20374235D01*
X49705671Y20365970D01*
X49727850Y20355480D01*
X49748893Y20342868D01*
X49768599Y20328253D01*
X49786777Y20311777D01*
X49803253Y20293599D01*
X49817868Y20273893D01*
X49830480Y20252850D01*
X49840970Y20230671D01*
X49849235Y20207572D01*
X49855196Y20183773D01*
X49858796Y20159505D01*
X49860000Y20135001D01*
X49860000Y19234999D01*
X49858796Y19210495D01*
X49855196Y19186227D01*
X49849235Y19162428D01*
X49840970Y19139329D01*
X49830480Y19117150D01*
X49817868Y19096107D01*
X49803253Y19076401D01*
X49786777Y19058223D01*
X49768599Y19041747D01*
X49748893Y19027132D01*
X49727850Y19014520D01*
X49705671Y19004030D01*
X49682572Y18995765D01*
X49658773Y18989804D01*
X49634505Y18986204D01*
X49610001Y18985000D01*
X48959999Y18985000D01*
X48935495Y18986204D01*
X48911227Y18989804D01*
X48887428Y18995765D01*
X48864329Y19004030D01*
X48842150Y19014520D01*
X48821107Y19027132D01*
X48801401Y19041747D01*
X48783223Y19058223D01*
X48766747Y19076401D01*
X48752132Y19096107D01*
X48739520Y19117150D01*
X48729030Y19139329D01*
X48720765Y19162428D01*
X48714804Y19186227D01*
X48711204Y19210495D01*
X48710000Y19234999D01*
X48710000Y20135001D01*
X48711204Y20159505D01*
X48714804Y20183773D01*
X48720765Y20207572D01*
X48729030Y20230671D01*
X48739520Y20252850D01*
X48752132Y20273893D01*
X48766747Y20293599D01*
X48783223Y20311777D01*
X48801401Y20328253D01*
X48821107Y20342868D01*
X48842150Y20355480D01*
X48864329Y20365970D01*
X48887428Y20374235D01*
X48911227Y20380196D01*
X48935495Y20383796D01*
X48959999Y20385000D01*
X49610001Y20385000D01*
X49634505Y20383796D01*
G37*
%TD.AperFunction*%
%TD*%
D10*
%TO.P,SW2,1*%
%TO.N,GND*%
X43330000Y8890000D03*
%TO.P,SW2,2*%
%TO.N,Net-(R2-Pad2)*%
X43330000Y4390000D03*
%TO.P,SW2,1*%
%TO.N,GND*%
X36830000Y8890000D03*
%TO.P,SW2,2*%
%TO.N,Net-(R2-Pad2)*%
X36830000Y4390000D03*
%TD*%
%TA.AperFunction,SMDPad,CuDef*%
D12*
%TO.P,U1,1*%
%TO.N,Net-(C2-Pad1)*%
G36*
X22583666Y22979555D02*
G01*
X22194757Y23368464D01*
X23326128Y24499835D01*
X23715037Y24110926D01*
X22583666Y22979555D01*
G37*
%TD.AperFunction*%
%TA.AperFunction,SMDPad,CuDef*%
%TO.P,U1,2*%
%TO.N,Net-(C3-Pad1)*%
G36*
X23149352Y22413870D02*
G01*
X22760443Y22802779D01*
X23891814Y23934150D01*
X24280723Y23545241D01*
X23149352Y22413870D01*
G37*
%TD.AperFunction*%
%TA.AperFunction,SMDPad,CuDef*%
%TO.P,U1,3*%
%TO.N,GND*%
G36*
X23715037Y21848184D02*
G01*
X23326128Y22237093D01*
X24457499Y23368464D01*
X24846408Y22979555D01*
X23715037Y21848184D01*
G37*
%TD.AperFunction*%
%TA.AperFunction,SMDPad,CuDef*%
%TO.P,U1,4*%
%TO.N,+5V*%
G36*
X24280722Y21282499D02*
G01*
X23891813Y21671408D01*
X25023184Y22802779D01*
X25412093Y22413870D01*
X24280722Y21282499D01*
G37*
%TD.AperFunction*%
%TA.AperFunction,SMDPad,CuDef*%
%TO.P,U1,5*%
%TO.N,Net-(U1-Pad5)*%
G36*
X24846408Y20716813D02*
G01*
X24457499Y21105722D01*
X25588870Y22237093D01*
X25977779Y21848184D01*
X24846408Y20716813D01*
G37*
%TD.AperFunction*%
%TA.AperFunction,SMDPad,CuDef*%
%TO.P,U1,6*%
%TO.N,Net-(U1-Pad6)*%
G36*
X25412093Y20151128D02*
G01*
X25023184Y20540037D01*
X26154555Y21671408D01*
X26543464Y21282499D01*
X25412093Y20151128D01*
G37*
%TD.AperFunction*%
%TA.AperFunction,SMDPad,CuDef*%
%TO.P,U1,7*%
%TO.N,Net-(U1-Pad7)*%
G36*
X25977779Y19585443D02*
G01*
X25588870Y19974352D01*
X26720241Y21105723D01*
X27109150Y20716814D01*
X25977779Y19585443D01*
G37*
%TD.AperFunction*%
%TA.AperFunction,SMDPad,CuDef*%
%TO.P,U1,8*%
%TO.N,Net-(U1-Pad8)*%
G36*
X26543464Y19019757D02*
G01*
X26154555Y19408666D01*
X27285926Y20540037D01*
X27674835Y20151128D01*
X26543464Y19019757D01*
G37*
%TD.AperFunction*%
%TA.AperFunction,SMDPad,CuDef*%
%TO.P,U1,9*%
%TO.N,Net-(R6-Pad2)*%
G36*
X29725445Y19408666D02*
G01*
X29336536Y19019757D01*
X28205165Y20151128D01*
X28594074Y20540037D01*
X29725445Y19408666D01*
G37*
%TD.AperFunction*%
%TA.AperFunction,SMDPad,CuDef*%
%TO.P,U1,10*%
%TO.N,Net-(R7-Pad2)*%
G36*
X30291130Y19974352D02*
G01*
X29902221Y19585443D01*
X28770850Y20716814D01*
X29159759Y21105723D01*
X30291130Y19974352D01*
G37*
%TD.AperFunction*%
%TA.AperFunction,SMDPad,CuDef*%
%TO.P,U1,11*%
%TO.N,Net-(U1-Pad11)*%
G36*
X30856816Y20540037D02*
G01*
X30467907Y20151128D01*
X29336536Y21282499D01*
X29725445Y21671408D01*
X30856816Y20540037D01*
G37*
%TD.AperFunction*%
%TA.AperFunction,SMDPad,CuDef*%
%TO.P,U1,12*%
%TO.N,Net-(U1-Pad12)*%
G36*
X31422501Y21105722D02*
G01*
X31033592Y20716813D01*
X29902221Y21848184D01*
X30291130Y22237093D01*
X31422501Y21105722D01*
G37*
%TD.AperFunction*%
%TA.AperFunction,SMDPad,CuDef*%
%TO.P,U1,13*%
%TO.N,Net-(R2-Pad2)*%
G36*
X31988187Y21671408D02*
G01*
X31599278Y21282499D01*
X30467907Y22413870D01*
X30856816Y22802779D01*
X31988187Y21671408D01*
G37*
%TD.AperFunction*%
%TA.AperFunction,SMDPad,CuDef*%
%TO.P,U1,14*%
%TO.N,Net-(U1-Pad14)*%
G36*
X32553872Y22237093D02*
G01*
X32164963Y21848184D01*
X31033592Y22979555D01*
X31422501Y23368464D01*
X32553872Y22237093D01*
G37*
%TD.AperFunction*%
%TA.AperFunction,SMDPad,CuDef*%
%TO.P,U1,15*%
%TO.N,Net-(U1-Pad15)*%
G36*
X33119557Y22802779D02*
G01*
X32730648Y22413870D01*
X31599277Y23545241D01*
X31988186Y23934150D01*
X33119557Y22802779D01*
G37*
%TD.AperFunction*%
%TA.AperFunction,SMDPad,CuDef*%
%TO.P,U1,16*%
%TO.N,Net-(U1-Pad16)*%
G36*
X33685243Y23368464D02*
G01*
X33296334Y22979555D01*
X32164963Y24110926D01*
X32553872Y24499835D01*
X33685243Y23368464D01*
G37*
%TD.AperFunction*%
%TA.AperFunction,SMDPad,CuDef*%
%TO.P,U1,17*%
%TO.N,Net-(U1-Pad17)*%
G36*
X32553872Y25030165D02*
G01*
X32164963Y25419074D01*
X33296334Y26550445D01*
X33685243Y26161536D01*
X32553872Y25030165D01*
G37*
%TD.AperFunction*%
%TA.AperFunction,SMDPad,CuDef*%
%TO.P,U1,18*%
%TO.N,Net-(R5-Pad2)*%
G36*
X31988186Y25595850D02*
G01*
X31599277Y25984759D01*
X32730648Y27116130D01*
X33119557Y26727221D01*
X31988186Y25595850D01*
G37*
%TD.AperFunction*%
%TA.AperFunction,SMDPad,CuDef*%
%TO.P,U1,19*%
%TO.N,Net-(U1-Pad19)*%
G36*
X31422501Y26161536D02*
G01*
X31033592Y26550445D01*
X32164963Y27681816D01*
X32553872Y27292907D01*
X31422501Y26161536D01*
G37*
%TD.AperFunction*%
%TA.AperFunction,SMDPad,CuDef*%
%TO.P,U1,20*%
%TO.N,Net-(R4-Pad1)*%
G36*
X30856816Y26727221D02*
G01*
X30467907Y27116130D01*
X31599278Y28247501D01*
X31988187Y27858592D01*
X30856816Y26727221D01*
G37*
%TD.AperFunction*%
%TA.AperFunction,SMDPad,CuDef*%
%TO.P,U1,21*%
%TO.N,Net-(R3-Pad1)*%
G36*
X30291130Y27292907D02*
G01*
X29902221Y27681816D01*
X31033592Y28813187D01*
X31422501Y28424278D01*
X30291130Y27292907D01*
G37*
%TD.AperFunction*%
%TA.AperFunction,SMDPad,CuDef*%
%TO.P,U1,22*%
%TO.N,Net-(U1-Pad22)*%
G36*
X29725445Y27858592D02*
G01*
X29336536Y28247501D01*
X30467907Y29378872D01*
X30856816Y28989963D01*
X29725445Y27858592D01*
G37*
%TD.AperFunction*%
%TA.AperFunction,SMDPad,CuDef*%
%TO.P,U1,23*%
%TO.N,Net-(U1-Pad23)*%
G36*
X29159759Y28424277D02*
G01*
X28770850Y28813186D01*
X29902221Y29944557D01*
X30291130Y29555648D01*
X29159759Y28424277D01*
G37*
%TD.AperFunction*%
%TA.AperFunction,SMDPad,CuDef*%
%TO.P,U1,24*%
%TO.N,Net-(C1-Pad2)*%
G36*
X28594074Y28989963D02*
G01*
X28205165Y29378872D01*
X29336536Y30510243D01*
X29725445Y30121334D01*
X28594074Y28989963D01*
G37*
%TD.AperFunction*%
%TA.AperFunction,SMDPad,CuDef*%
%TO.P,U1,25*%
%TO.N,Net-(U1-Pad25)*%
G36*
X27674835Y29378872D02*
G01*
X27285926Y28989963D01*
X26154555Y30121334D01*
X26543464Y30510243D01*
X27674835Y29378872D01*
G37*
%TD.AperFunction*%
%TA.AperFunction,SMDPad,CuDef*%
%TO.P,U1,26*%
%TO.N,Net-(U1-Pad26)*%
G36*
X27109150Y28813186D02*
G01*
X26720241Y28424277D01*
X25588870Y29555648D01*
X25977779Y29944557D01*
X27109150Y28813186D01*
G37*
%TD.AperFunction*%
%TA.AperFunction,SMDPad,CuDef*%
%TO.P,U1,27*%
%TO.N,Net-(C4-Pad1)*%
G36*
X26543464Y28247501D02*
G01*
X26154555Y27858592D01*
X25023184Y28989963D01*
X25412093Y29378872D01*
X26543464Y28247501D01*
G37*
%TD.AperFunction*%
%TA.AperFunction,SMDPad,CuDef*%
%TO.P,U1,28*%
%TO.N,GND*%
G36*
X25977779Y27681816D02*
G01*
X25588870Y27292907D01*
X24457499Y28424278D01*
X24846408Y28813187D01*
X25977779Y27681816D01*
G37*
%TD.AperFunction*%
%TA.AperFunction,SMDPad,CuDef*%
%TO.P,U1,29*%
%TO.N,Net-(J1-Pad3)*%
G36*
X25412093Y27116130D02*
G01*
X25023184Y26727221D01*
X23891813Y27858592D01*
X24280722Y28247501D01*
X25412093Y27116130D01*
G37*
%TD.AperFunction*%
%TA.AperFunction,SMDPad,CuDef*%
%TO.P,U1,30*%
%TO.N,Net-(J1-Pad2)*%
G36*
X24846408Y26550445D02*
G01*
X24457499Y26161536D01*
X23326128Y27292907D01*
X23715037Y27681816D01*
X24846408Y26550445D01*
G37*
%TD.AperFunction*%
%TA.AperFunction,SMDPad,CuDef*%
%TO.P,U1,31*%
%TO.N,+5V*%
G36*
X24280723Y25984759D02*
G01*
X23891814Y25595850D01*
X22760443Y26727221D01*
X23149352Y27116130D01*
X24280723Y25984759D01*
G37*
%TD.AperFunction*%
%TA.AperFunction,SMDPad,CuDef*%
%TO.P,U1,32*%
G36*
X23715037Y25419074D02*
G01*
X23326128Y25030165D01*
X22194757Y26161536D01*
X22583666Y26550445D01*
X23715037Y25419074D01*
G37*
%TD.AperFunction*%
%TD*%
D24*
%TO.P,U2,4*%
%TO.N,N/C*%
X53188000Y42418000D03*
D25*
%TO.P,U2,2*%
%TO.N,Net-(C9-Pad1)*%
X46888000Y42418000D03*
%TO.P,U2,3*%
%TO.N,Net-(C8-Pad1)*%
X46888000Y40118000D03*
%TO.P,U2,1*%
%TO.N,GND*%
X46888000Y44718000D03*
%TD*%
D26*
%TO.P,U3,1*%
%TO.N,Net-(U3-Pad1)*%
X63275000Y23110000D03*
%TO.P,U3,2*%
%TO.N,Net-(C10-Pad2)*%
X63275000Y23760000D03*
%TO.P,U3,3*%
%TO.N,Net-(U3-Pad3)*%
X63275000Y24410000D03*
%TO.P,U3,4*%
%TO.N,/CLK*%
X63275000Y25060000D03*
%TO.P,U3,5*%
%TO.N,/DATA*%
X63275000Y25710000D03*
%TO.P,U3,6*%
%TO.N,/RESET*%
X63275000Y26360000D03*
%TO.P,U3,7*%
%TO.N,/MISO*%
X63275000Y27010000D03*
%TO.P,U3,8*%
%TO.N,/MOSI*%
X63275000Y27660000D03*
%TO.P,U3,9*%
%TO.N,/SCK*%
X63275000Y28310000D03*
%TO.P,U3,10*%
%TO.N,Net-(C10-Pad2)*%
X63275000Y28960000D03*
%TO.P,U3,11*%
%TO.N,GND*%
X57375000Y28960000D03*
%TO.P,U3,12*%
%TO.N,Net-(U1-Pad15)*%
X57375000Y28310000D03*
%TO.P,U3,13*%
%TO.N,Net-(U1-Pad16)*%
X57375000Y27660000D03*
%TO.P,U3,14*%
%TO.N,Net-(U1-Pad17)*%
X57375000Y27010000D03*
%TO.P,U3,15*%
%TO.N,Net-(R5-Pad2)*%
X57375000Y26360000D03*
%TO.P,U3,16*%
%TO.N,Net-(R6-Pad1)*%
X57375000Y25710000D03*
%TO.P,U3,17*%
%TO.N,Net-(U1-Pad11)*%
X57375000Y25060000D03*
%TO.P,U3,18*%
%TO.N,+5V*%
X57375000Y24410000D03*
%TO.P,U3,19*%
X57375000Y23760000D03*
%TO.P,U3,20*%
X57375000Y23110000D03*
%TD*%
D14*
%TO.P,U4,1*%
%TO.N,/MISO*%
X80010000Y30480000D03*
D13*
%TO.P,U4,2*%
%TO.N,VSS*%
X82550000Y30480000D03*
%TO.P,U4,3*%
%TO.N,Net-(U4-Pad3)*%
X80010000Y27940000D03*
%TO.P,U4,4*%
%TO.N,Net-(U4-Pad4)*%
X82550000Y27940000D03*
%TO.P,U4,5*%
%TO.N,/RESET*%
X80010000Y25400000D03*
%TO.P,U4,6*%
%TO.N,Net-(U4-Pad6)*%
X82550000Y25400000D03*
%TO.P,U4,7*%
%TO.N,/SCK*%
X80010000Y22860000D03*
%TO.P,U4,8*%
%TO.N,Net-(U4-Pad8)*%
X82550000Y22860000D03*
%TO.P,U4,9*%
%TO.N,/MOSI*%
X80010000Y20320000D03*
%TO.P,U4,10*%
%TO.N,GND*%
X82550000Y20320000D03*
%TD*%
D27*
%TO.P,Y1,1*%
%TO.N,Net-(C2-Pad1)*%
X13747500Y10795000D03*
%TO.P,Y1,2*%
%TO.N,Net-(C3-Pad1)*%
X25622500Y10795000D03*
%TD*%
D28*
%TO.N,GND*%
X55889700Y29082400D03*
%TO.N,+5V*%
X17711700Y35288800D03*
X27728600Y34206500D03*
X22132800Y27295700D03*
%TO.N,Net-(J1-Pad2)*%
X8439500Y18580700D03*
X25188500Y25819500D03*
%TO.N,/DATA*%
X75881400Y25535600D03*
%TO.N,Net-(R2-Pad2)*%
X39072600Y19857900D03*
X37296100Y21440500D03*
%TO.N,Net-(R3-Pad1)*%
X35973800Y29551000D03*
%TO.N,Net-(R4-Pad1)*%
X33078300Y28229600D03*
%TO.N,/MOSI*%
X65975200Y27667200D03*
%TO.N,/SCK*%
X68672700Y28467500D03*
%TD*%
D29*
%TO.N,Net-(C1-Pad2)*%
X28965300Y29750100D02*
X29814000Y30598800D01*
X29814000Y30598800D02*
X26922200Y33490600D01*
X26922200Y33490600D02*
X26922200Y34590800D01*
X26922200Y34590800D02*
X27060000Y34728600D01*
X27060000Y34728600D02*
X27060000Y36301900D01*
X27060000Y36301900D02*
X24881900Y38480000D01*
X24881900Y38480000D02*
X15875000Y38480000D01*
X15390000Y43760000D02*
X15390000Y39815300D01*
X15390000Y39815300D02*
X15875000Y39330300D01*
X15875000Y38480000D02*
X15875000Y39330300D01*
X15390000Y43760000D02*
X8890000Y43760000D01*
%TO.N,GND*%
X60960000Y6350000D02*
X60960000Y7650300D01*
X60960000Y7650300D02*
X61350000Y8040300D01*
X61350000Y8040300D02*
X61350000Y20320000D01*
X55889700Y29082400D02*
X56127300Y29082400D01*
X56127300Y29082400D02*
X56249700Y28960000D01*
X57375000Y28960000D02*
X56249700Y28960000D01*
X61350000Y20320000D02*
X61350000Y30580000D01*
X61350000Y30580000D02*
X59545000Y32385000D01*
X24086300Y22608300D02*
X23175500Y21697500D01*
X23175500Y21697500D02*
X23175500Y20313000D01*
X23175500Y20313000D02*
X29986400Y13502100D01*
X29986400Y13502100D02*
X29986400Y8890000D01*
X29986400Y8890000D02*
X27695000Y8890000D01*
X27695000Y8890000D02*
X22225000Y3420000D01*
X36830000Y8890000D02*
X29986400Y8890000D01*
X43330000Y8890000D02*
X36830000Y8890000D01*
X15390000Y48260000D02*
X39345000Y48260000D01*
X39345000Y48260000D02*
X40005000Y48920000D01*
X8890000Y48260000D02*
X15390000Y48260000D01*
X20473600Y35560000D02*
X20473600Y32797000D01*
X20473600Y32797000D02*
X25217600Y28053000D01*
X26035000Y35560000D02*
X24901800Y36693200D01*
X24901800Y36693200D02*
X21335000Y36693200D01*
X21335000Y36693200D02*
X20473600Y35831800D01*
X20473600Y35831800D02*
X20473600Y35560000D01*
X20473600Y35560000D02*
X19930000Y35560000D01*
X22225000Y3420000D02*
X17145000Y3420000D01*
X43330000Y8890000D02*
X50800000Y8890000D01*
X50800000Y8890000D02*
X53340000Y6350000D01*
X7449800Y37777500D02*
X8768400Y36458900D01*
X8768400Y36458900D02*
X19031100Y36458900D01*
X19031100Y36458900D02*
X19930000Y35560000D01*
X5080000Y29820000D02*
X3353500Y31546500D01*
X3353500Y31546500D02*
X3353500Y37393500D01*
X3353500Y37393500D02*
X3737500Y37777500D01*
X3737500Y37777500D02*
X7449800Y37777500D01*
X8890000Y48260000D02*
X7449800Y46819800D01*
X7449800Y46819800D02*
X7449800Y37777500D01*
X46888000Y45868300D02*
X43056700Y45868300D01*
X43056700Y45868300D02*
X40005000Y48920000D01*
X59690000Y48920000D02*
X56638300Y45868300D01*
X56638300Y45868300D02*
X46888000Y45868300D01*
X2565000Y21155000D02*
X2565000Y27305000D01*
X2565000Y27305000D02*
X5080000Y29820000D01*
X2739700Y20267500D02*
X2739700Y20980300D01*
X2739700Y20980300D02*
X2565000Y21155000D01*
X2390300Y21155000D02*
X2565000Y21155000D01*
X17145000Y3420000D02*
X15231100Y3420000D01*
X15231100Y3420000D02*
X3915000Y14736100D01*
X46888000Y44718000D02*
X46888000Y45868300D01*
X1340000Y14405000D02*
X2390300Y14405000D01*
X3915000Y14736100D02*
X2721400Y14736100D01*
X2721400Y14736100D02*
X2390300Y14405000D01*
X3915000Y15292500D02*
X3915000Y14736100D01*
X1614600Y16504600D02*
X1340000Y16230000D01*
X3915000Y15292500D02*
X3915000Y16405300D01*
X3454900Y16480000D02*
X3529600Y16405300D01*
X3529600Y16405300D02*
X3915000Y16405300D01*
X3454900Y16480000D02*
X2909700Y16480000D01*
X4000000Y16480000D02*
X3454900Y16480000D01*
X2909700Y16480000D02*
X2885100Y16504600D01*
X2885100Y16504600D02*
X1614600Y16504600D01*
X1340000Y17629700D02*
X1614600Y17355100D01*
X1614600Y17355100D02*
X1614600Y16504600D01*
X3915000Y20267500D02*
X2739700Y20267500D01*
X1340000Y18279900D02*
X2739700Y19679600D01*
X2739700Y19679600D02*
X2739700Y20267500D01*
X1340000Y18279900D02*
X1340000Y17629700D01*
X1340000Y18930000D02*
X1340000Y18279900D01*
X1340000Y21155000D02*
X2390300Y21155000D01*
%TO.N,Net-(C2-Pad1)*%
X22954900Y23739700D02*
X18085300Y18870100D01*
X18085300Y18870100D02*
X18085300Y10795000D01*
X13747500Y10795000D02*
X18085300Y10795000D01*
X18085300Y10795000D02*
X18085300Y6410300D01*
X18085300Y6410300D02*
X17145000Y5470000D01*
%TO.N,Net-(C3-Pad1)*%
X22671800Y22325200D02*
X22572600Y22226000D01*
X22572600Y22226000D02*
X22572600Y13302700D01*
X22572600Y13302700D02*
X25080300Y10795000D01*
X23520600Y23174000D02*
X22671800Y22325200D01*
X22225000Y5470000D02*
X25080300Y8325300D01*
X25080300Y8325300D02*
X25080300Y10795000D01*
X25622500Y10795000D02*
X25080300Y10795000D01*
%TO.N,Net-(C4-Pad1)*%
X25783300Y28618700D02*
X21980000Y32422000D01*
X21980000Y32422000D02*
X21980000Y35560000D01*
%TO.N,+5V*%
X15875000Y35180000D02*
X16875300Y35180000D01*
X17711700Y35288800D02*
X16984100Y35288800D01*
X16984100Y35288800D02*
X16875300Y35180000D01*
X56812400Y23110000D02*
X59300000Y20622400D01*
X59300000Y20622400D02*
X59300000Y20320000D01*
X56812400Y23110000D02*
X56249700Y23110000D01*
X57375000Y23110000D02*
X56812400Y23110000D01*
X56249700Y23110000D02*
X56249700Y23760000D01*
X24652000Y22042600D02*
X25500800Y22891400D01*
X23992500Y25130500D02*
X25262700Y23860300D01*
X25262700Y23860300D02*
X25262700Y23129400D01*
X25262700Y23129400D02*
X25500800Y22891400D01*
X23992500Y25130500D02*
X23803600Y24941600D01*
X24369300Y25507300D02*
X23992500Y25130500D01*
X48260000Y23019000D02*
X48260000Y15146200D01*
X48260000Y15146200D02*
X47882600Y14768800D01*
X47882600Y14768800D02*
X30228300Y14768800D01*
X30228300Y14768800D02*
X23803300Y21193900D01*
X47235000Y24130000D02*
X48260000Y23105000D01*
X48260000Y23105000D02*
X48260000Y23019000D01*
X56249700Y23760000D02*
X55508700Y23019000D01*
X55508700Y23019000D02*
X48260000Y23019000D01*
X24652000Y22042600D02*
X23803300Y21193900D01*
X28085000Y35560000D02*
X28085000Y34562900D01*
X28085000Y34562900D02*
X27728600Y34206500D01*
X28992500Y36467500D02*
X45057500Y36467500D01*
X45057500Y36467500D02*
X47235000Y34290000D01*
X28992500Y36467500D02*
X28085000Y35560000D01*
X28992500Y42545000D02*
X28992500Y36467500D01*
X56399800Y24410000D02*
X56249700Y24259900D01*
X56249700Y24259900D02*
X56249700Y23760000D01*
X57375000Y24410000D02*
X56399800Y24410000D01*
X22132800Y27295700D02*
X22580900Y27295700D01*
X22580900Y27295700D02*
X23520600Y26356000D01*
X6970300Y34329700D02*
X6970300Y20960000D01*
X6970300Y20960000D02*
X5090300Y19080000D01*
X22954900Y25790300D02*
X23803600Y24941600D01*
X6970300Y34329700D02*
X15875000Y34329700D01*
X5080000Y36220000D02*
X6970300Y34329700D01*
X4000000Y19080000D02*
X5090300Y19080000D01*
X15875000Y35180000D02*
X15875000Y34329700D01*
X23520600Y26356000D02*
X24369300Y25507300D01*
X57375000Y23760000D02*
X56249700Y23760000D01*
%TO.N,Net-(C8-Pad1)*%
X46888000Y40118000D02*
X48288300Y40118000D01*
X48288300Y40118000D02*
X48288700Y40117600D01*
X48288700Y40117600D02*
X57287600Y40117600D01*
X57287600Y40117600D02*
X59690000Y42520000D01*
X31967500Y42545000D02*
X34394500Y40118000D01*
X34394500Y40118000D02*
X46888000Y40118000D01*
X72390000Y40005000D02*
X71139700Y40005000D01*
X71139700Y40005000D02*
X68624700Y42520000D01*
X68624700Y42520000D02*
X59690000Y42520000D01*
%TO.N,Net-(C9-Pad1)*%
X46888000Y42418000D02*
X48288300Y42418000D01*
X48288300Y42418000D02*
X50955300Y45085000D01*
X50955300Y45085000D02*
X72390000Y45085000D01*
X40005000Y42520000D02*
X40107000Y42418000D01*
X40107000Y42418000D02*
X46888000Y42418000D01*
%TO.N,Net-(C10-Pad2)*%
X75060400Y41124900D02*
X73640300Y42545000D01*
X90170000Y41294700D02*
X90000200Y41124900D01*
X90000200Y41124900D02*
X75060400Y41124900D01*
X75060400Y41124900D02*
X75060400Y40402400D01*
X75060400Y40402400D02*
X65925600Y31267600D01*
X65925600Y31267600D02*
X62712400Y31267600D01*
X62712400Y31267600D02*
X61595000Y32385000D01*
X62712400Y28960000D02*
X62712400Y31267600D01*
X62712400Y28960000D02*
X62149700Y28960000D01*
X63275000Y28960000D02*
X62712400Y28960000D01*
X63275000Y23760000D02*
X62149700Y23760000D01*
X62149700Y23760000D02*
X62149700Y28960000D01*
X72390000Y42545000D02*
X73640300Y42545000D01*
X90170000Y42545000D02*
X90170000Y41294700D01*
%TO.N,Net-(J1-Pad2)*%
X5090300Y18430000D02*
X8288800Y18430000D01*
X8288800Y18430000D02*
X8439500Y18580700D01*
X24086300Y26921700D02*
X25188500Y25819500D01*
X4000000Y18430000D02*
X5090300Y18430000D01*
%TO.N,Net-(J1-Pad3)*%
X24652000Y27487400D02*
X23803300Y28336200D01*
X23803300Y28336200D02*
X23603100Y28136000D01*
X23603100Y28136000D02*
X21437200Y28136000D01*
X21437200Y28136000D02*
X11081200Y17780000D01*
X11081200Y17780000D02*
X4000000Y17780000D01*
%TO.N,/CLK*%
X63275000Y25060000D02*
X63276300Y25058700D01*
X63276300Y25058700D02*
X64968300Y25058700D01*
X64968300Y25058700D02*
X65897000Y24130000D01*
X65897000Y24130000D02*
X88271100Y24130000D01*
X88271100Y24130000D02*
X89541100Y25400000D01*
X90805000Y25400000D02*
X89541100Y25400000D01*
%TO.N,VSS*%
X104140000Y30480000D02*
X102876100Y30480000D01*
X93345000Y30480000D02*
X94608900Y30480000D01*
X94608900Y30480000D02*
X95872900Y29216000D01*
X95872900Y29216000D02*
X102690900Y29216000D01*
X102690900Y29216000D02*
X102876100Y29401200D01*
X102876100Y29401200D02*
X102876100Y30480000D01*
%TO.N,/DATA*%
X63275000Y25710000D02*
X64434400Y25710000D01*
X64434400Y25710000D02*
X64485300Y25659100D01*
X64485300Y25659100D02*
X75757900Y25659100D01*
X75757900Y25659100D02*
X75881400Y25535600D01*
X101600000Y30480000D02*
X100336100Y30480000D01*
X90805000Y30480000D02*
X92068900Y30480000D01*
X92068900Y30480000D02*
X92068900Y31033000D01*
X92068900Y31033000D02*
X92779800Y31743900D01*
X92779800Y31743900D02*
X99072200Y31743900D01*
X99072200Y31743900D02*
X100336100Y30480000D01*
%TO.N,/RESET*%
X63275000Y26360000D02*
X64633300Y26360000D01*
X64633300Y26360000D02*
X64733900Y26259400D01*
X64733900Y26259400D02*
X66674800Y26259400D01*
X66674800Y26259400D02*
X66775400Y26360000D01*
X66775400Y26360000D02*
X77786100Y26360000D01*
X77786100Y26360000D02*
X78746100Y25400000D01*
X80010000Y25400000D02*
X81273900Y25400000D01*
X80010000Y25400000D02*
X78746100Y25400000D01*
X100336100Y25400000D02*
X99066100Y26670000D01*
X99066100Y26670000D02*
X82020200Y26670000D01*
X82020200Y26670000D02*
X81273900Y25923700D01*
X81273900Y25923700D02*
X81273900Y25400000D01*
X101600000Y25400000D02*
X100336100Y25400000D01*
%TO.N,Net-(R2-Pad2)*%
X39072600Y19857900D02*
X40427800Y19857900D01*
X40427800Y19857900D02*
X45801200Y25231300D01*
X45801200Y25231300D02*
X47836100Y25231300D01*
X47836100Y25231300D02*
X48937400Y24130000D01*
X48937400Y24130000D02*
X49285000Y24130000D01*
X32076800Y21193900D02*
X32323400Y21440500D01*
X32323400Y21440500D02*
X37296100Y21440500D01*
X31228000Y22042600D02*
X32076800Y21193900D01*
%TO.N,Net-(R3-Pad1)*%
X35973800Y29551000D02*
X35759500Y29336700D01*
X35759500Y29336700D02*
X34173100Y29336700D01*
X34173100Y29336700D02*
X33866300Y29029900D01*
X33866300Y29029900D02*
X32746900Y29029900D01*
X32746900Y29029900D02*
X32692400Y28975400D01*
X32692400Y28975400D02*
X31857400Y28975400D01*
X31857400Y28975400D02*
X31783700Y28901700D01*
X31783700Y28901700D02*
X31511200Y28901700D01*
X31511200Y28901700D02*
X31511200Y28901800D01*
X30662400Y28053000D02*
X31511200Y28901800D01*
%TO.N,Net-(R4-Pad1)*%
X31228000Y27487400D02*
X32076800Y28336200D01*
X32076800Y28336200D02*
X32183300Y28229600D01*
X32183300Y28229600D02*
X33078300Y28229600D01*
%TO.N,Net-(R5-Pad2)*%
X49285000Y34290000D02*
X43855600Y28860600D01*
X43855600Y28860600D02*
X41417100Y28860600D01*
X41417100Y28860600D02*
X40941200Y28384700D01*
X40941200Y28384700D02*
X34388100Y28384700D01*
X34388100Y28384700D02*
X32359400Y26356000D01*
X58500300Y26360000D02*
X58898100Y26360000D01*
X58898100Y26360000D02*
X59700900Y27162800D01*
X59700900Y27162800D02*
X59700900Y29850500D01*
X59700900Y29850500D02*
X55261400Y34290000D01*
X55261400Y34290000D02*
X49285000Y34290000D01*
X57375000Y26360000D02*
X58500300Y26360000D01*
%TO.N,Net-(R6-Pad2)*%
X47235000Y15875000D02*
X32870200Y15875000D01*
X32870200Y15875000D02*
X28965300Y19779900D01*
%TO.N,Net-(R6-Pad1)*%
X49766600Y19203400D02*
X49285000Y19685000D01*
X58500300Y25710000D02*
X60325000Y23885300D01*
X60325000Y23885300D02*
X60325000Y19591200D01*
X60325000Y19591200D02*
X59937200Y19203400D01*
X59937200Y19203400D02*
X49766600Y19203400D01*
X49766600Y19203400D02*
X49766600Y16356600D01*
X49766600Y16356600D02*
X49285000Y15875000D01*
X57375000Y25710000D02*
X58500300Y25710000D01*
%TO.N,Net-(R7-Pad2)*%
X30379800Y19496800D02*
X30819000Y19057600D01*
X30819000Y19057600D02*
X46607600Y19057600D01*
X46607600Y19057600D02*
X47235000Y19685000D01*
X29531000Y20345600D02*
X30379800Y19496800D01*
%TO.N,Net-(U1-Pad11)*%
X57375000Y25060000D02*
X53249900Y25060000D01*
X53249900Y25060000D02*
X53078600Y25231300D01*
X53078600Y25231300D02*
X48760200Y25231300D01*
X48760200Y25231300D02*
X48159900Y25831600D01*
X48159900Y25831600D02*
X45552600Y25831600D01*
X45552600Y25831600D02*
X45252400Y25531400D01*
X45252400Y25531400D02*
X45083600Y25531400D01*
X45083600Y25531400D02*
X44783500Y25231300D01*
X44783500Y25231300D02*
X43774200Y25231300D01*
X43774200Y25231300D02*
X39201100Y20658200D01*
X39201100Y20658200D02*
X38741200Y20658200D01*
X38741200Y20658200D02*
X38385100Y20302100D01*
X38385100Y20302100D02*
X31185000Y20302100D01*
X31185000Y20302100D02*
X30945500Y20062600D01*
X30096700Y20911300D02*
X30945500Y20062600D01*
%TO.N,Net-(U1-Pad15)*%
X57375000Y28310000D02*
X56249700Y28310000D01*
X33208200Y22325200D02*
X37728500Y22325200D01*
X37728500Y22325200D02*
X42463000Y27059700D01*
X42463000Y27059700D02*
X54999400Y27059700D01*
X54999400Y27059700D02*
X56249700Y28310000D01*
X32359400Y23174000D02*
X33208200Y22325200D01*
%TO.N,Net-(U1-Pad16)*%
X58500300Y27660000D02*
X58500300Y29353300D01*
X58500300Y29353300D02*
X57970900Y29882700D01*
X57970900Y29882700D02*
X55014400Y29882700D01*
X55014400Y29882700D02*
X52791700Y27660000D01*
X52791700Y27660000D02*
X41914500Y27660000D01*
X41914500Y27660000D02*
X37994200Y23739700D01*
X37994200Y23739700D02*
X32925100Y23739700D01*
X57375000Y27660000D02*
X58500300Y27660000D01*
%TO.N,Net-(U1-Pad17)*%
X58500300Y27010000D02*
X58699200Y27010000D01*
X58699200Y27010000D02*
X59100600Y27411400D01*
X59100600Y27411400D02*
X59100600Y29601900D01*
X59100600Y29601900D02*
X58219500Y30483000D01*
X58219500Y30483000D02*
X49324500Y30483000D01*
X49324500Y30483000D02*
X47101800Y28260300D01*
X47101800Y28260300D02*
X41665700Y28260300D01*
X41665700Y28260300D02*
X40044400Y26639000D01*
X40044400Y26639000D02*
X33773800Y26639000D01*
X32925100Y25790300D02*
X33773800Y26639000D01*
X57375000Y27010000D02*
X58500300Y27010000D01*
%TO.N,/MISO*%
X80010000Y30480000D02*
X78746100Y30480000D01*
X78746100Y30480000D02*
X75370100Y27104000D01*
X75370100Y27104000D02*
X66670300Y27104000D01*
X66670300Y27104000D02*
X66433100Y26866800D01*
X66433100Y26866800D02*
X65643700Y26866800D01*
X65643700Y26866800D02*
X65500500Y27010000D01*
X65500500Y27010000D02*
X63275000Y27010000D01*
%TO.N,/MOSI*%
X64400300Y27660000D02*
X64407500Y27667200D01*
X64407500Y27667200D02*
X65975200Y27667200D01*
X63275000Y27660000D02*
X64400300Y27660000D01*
%TO.N,/SCK*%
X68672700Y28467500D02*
X64989700Y28467500D01*
X64989700Y28467500D02*
X64832200Y28310000D01*
X64832200Y28310000D02*
X63275000Y28310000D01*
%TD*%
D30*
%TO.N,GND*%
G36*
X110483367Y51977027D02*
G01*
X110412337Y51905998D01*
X110222463Y51621831D01*
X110091675Y51306081D01*
X110025000Y50970883D01*
X110025000Y50629117D01*
X110091675Y50293919D01*
X110222463Y49978169D01*
X110412337Y49694002D01*
X110654002Y49452337D01*
X110938169Y49262463D01*
X111253919Y49131675D01*
X111589117Y49065000D01*
X111930883Y49065000D01*
X112266081Y49131675D01*
X112581831Y49262463D01*
X112865998Y49452337D01*
X112937028Y49523366D01*
X113640000Y48820394D01*
X113640001Y4519607D01*
X112937028Y3816633D01*
X112865998Y3887663D01*
X112581831Y4077537D01*
X112266081Y4208325D01*
X111930883Y4275000D01*
X111589117Y4275000D01*
X111253919Y4208325D01*
X110938169Y4077537D01*
X110654002Y3887663D01*
X110412337Y3645998D01*
X110222463Y3361831D01*
X110091675Y3046081D01*
X110025000Y2710883D01*
X110025000Y2369117D01*
X110091675Y2033919D01*
X110222463Y1718169D01*
X110412337Y1434002D01*
X110483367Y1362972D01*
X109780394Y660000D01*
X4519606Y660000D01*
X3816634Y1362972D01*
X3887663Y1434002D01*
X4077537Y1718169D01*
X4208325Y2033919D01*
X4275000Y2369117D01*
X4275000Y2710883D01*
X4248323Y2845000D01*
X15806928Y2845000D01*
X15819188Y2720518D01*
X15855498Y2600820D01*
X15914463Y2490506D01*
X15993815Y2393815D01*
X16090506Y2314463D01*
X16200820Y2255498D01*
X16320518Y2219188D01*
X16445000Y2206928D01*
X16859250Y2210000D01*
X17018000Y2368750D01*
X17018000Y3293000D01*
X17272000Y3293000D01*
X17272000Y2368750D01*
X17430750Y2210000D01*
X17845000Y2206928D01*
X17969482Y2219188D01*
X18089180Y2255498D01*
X18199494Y2314463D01*
X18296185Y2393815D01*
X18375537Y2490506D01*
X18434502Y2600820D01*
X18470812Y2720518D01*
X18483072Y2845000D01*
X20886928Y2845000D01*
X20899188Y2720518D01*
X20935498Y2600820D01*
X20994463Y2490506D01*
X21073815Y2393815D01*
X21170506Y2314463D01*
X21280820Y2255498D01*
X21400518Y2219188D01*
X21525000Y2206928D01*
X21939250Y2210000D01*
X22098000Y2368750D01*
X22098000Y3293000D01*
X22352000Y3293000D01*
X22352000Y2368750D01*
X22510750Y2210000D01*
X22925000Y2206928D01*
X23049482Y2219188D01*
X23169180Y2255498D01*
X23279494Y2314463D01*
X23376185Y2393815D01*
X23455537Y2490506D01*
X23514502Y2600820D01*
X23550812Y2720518D01*
X23563072Y2845000D01*
X23560000Y3134250D01*
X23401250Y3293000D01*
X22352000Y3293000D01*
X22098000Y3293000D01*
X21048750Y3293000D01*
X20890000Y3134250D01*
X20886928Y2845000D01*
X18483072Y2845000D01*
X18480000Y3134250D01*
X18321250Y3293000D01*
X17272000Y3293000D01*
X17018000Y3293000D01*
X15968750Y3293000D01*
X15810000Y3134250D01*
X15806928Y2845000D01*
X4248323Y2845000D01*
X4208325Y3046081D01*
X4077537Y3361831D01*
X3887663Y3645998D01*
X3645998Y3887663D01*
X3361831Y4077537D01*
X3046081Y4208325D01*
X2710883Y4275000D01*
X2369117Y4275000D01*
X2033919Y4208325D01*
X1718169Y4077537D01*
X1434002Y3887663D01*
X1362973Y3816633D01*
X660000Y4519606D01*
X660000Y12944883D01*
X690000Y12941928D01*
X1054250Y12945000D01*
X1213000Y13103750D01*
X1213000Y14278000D01*
X1193000Y14278000D01*
X1193000Y14532000D01*
X1213000Y14532000D01*
X1213000Y16103000D01*
X1193000Y16103000D01*
X1193000Y16357000D01*
X1213000Y16357000D01*
X1213000Y17206250D01*
X1054250Y17365000D01*
X660000Y17366823D01*
X660000Y17393177D01*
X1054250Y17395000D01*
X1213000Y17553750D01*
X1213000Y18803000D01*
X1193000Y18803000D01*
X1193000Y19057000D01*
X1213000Y19057000D01*
X1213000Y21028000D01*
X1193000Y21028000D01*
X1193000Y21282000D01*
X1213000Y21282000D01*
X1213000Y22456250D01*
X1467000Y22456250D01*
X1467000Y21282000D01*
X1487000Y21282000D01*
X1487000Y21028000D01*
X1467000Y21028000D01*
X1467000Y19057000D01*
X1487000Y19057000D01*
X1487000Y18803000D01*
X1467000Y18803000D01*
X1467000Y17553750D01*
X1625750Y17395000D01*
X2290000Y17391928D01*
X2414482Y17404188D01*
X2534180Y17440498D01*
X2644494Y17499463D01*
X2674937Y17524447D01*
X2681777Y17455000D01*
X2671928Y17355000D01*
X2671928Y17238023D01*
X2644494Y17260537D01*
X2534180Y17319502D01*
X2414482Y17355812D01*
X2290000Y17368072D01*
X1625750Y17365000D01*
X1467000Y17206250D01*
X1467000Y16357000D01*
X1487000Y16357000D01*
X1487000Y16103000D01*
X1467000Y16103000D01*
X1467000Y14532000D01*
X1487000Y14532000D01*
X1487000Y14278000D01*
X1467000Y14278000D01*
X1467000Y13103750D01*
X1625750Y12945000D01*
X1990000Y12941928D01*
X2114482Y12954188D01*
X2234180Y12990498D01*
X2344494Y13049463D01*
X2441185Y13128815D01*
X2520537Y13225506D01*
X2579502Y13335820D01*
X2615812Y13455518D01*
X2628072Y13580000D01*
X2625000Y14119250D01*
X2466252Y14277998D01*
X2581405Y14277998D01*
X2609463Y14225506D01*
X2688815Y14128815D01*
X2785506Y14049463D01*
X2895820Y13990498D01*
X3015518Y13954188D01*
X3140000Y13941928D01*
X3629250Y13945000D01*
X3788000Y14103750D01*
X3788000Y15165500D01*
X4042000Y15165500D01*
X4042000Y14103750D01*
X4200750Y13945000D01*
X4690000Y13941928D01*
X4814482Y13954188D01*
X4934180Y13990498D01*
X5044494Y14049463D01*
X5141185Y14128815D01*
X5220537Y14225506D01*
X5279502Y14335820D01*
X5315812Y14455518D01*
X5328072Y14580000D01*
X5325000Y15006750D01*
X5166250Y15165500D01*
X4042000Y15165500D01*
X3788000Y15165500D01*
X3768000Y15165500D01*
X3768000Y15419500D01*
X3788000Y15419500D01*
X3788000Y15439500D01*
X4042000Y15439500D01*
X4042000Y15419500D01*
X5166250Y15419500D01*
X5325000Y15578250D01*
X5328072Y16005000D01*
X5315812Y16129482D01*
X5315022Y16132086D01*
X5325000Y16223250D01*
X5257032Y16291218D01*
X5220537Y16359494D01*
X5142158Y16455000D01*
X5220537Y16550506D01*
X5279502Y16660820D01*
X5292753Y16704503D01*
X5325000Y16736750D01*
X5317895Y16801666D01*
X5328072Y16905000D01*
X5328072Y16945000D01*
X11040182Y16945000D01*
X11081200Y16940960D01*
X11122218Y16945000D01*
X11122219Y16945000D01*
X11244889Y16957082D01*
X11402287Y17004828D01*
X11547346Y17082364D01*
X11674491Y17186709D01*
X11700646Y17218579D01*
X21244401Y26762332D01*
X21328863Y26635926D01*
X21473026Y26491763D01*
X21604674Y26403799D01*
X21568945Y26286018D01*
X21556685Y26161536D01*
X21568945Y26037054D01*
X21605255Y25917356D01*
X21664220Y25807042D01*
X21743572Y25710351D01*
X22688923Y24765000D01*
X21743572Y23819649D01*
X21664220Y23722958D01*
X21605255Y23612644D01*
X21587088Y23552756D01*
X17523879Y19489546D01*
X17492009Y19463391D01*
X17387665Y19336246D01*
X17387664Y19336245D01*
X17310128Y19191186D01*
X17262382Y19033788D01*
X17246260Y18870100D01*
X17250300Y18829081D01*
X17250301Y12433072D01*
X9810000Y12433072D01*
X9685518Y12420812D01*
X9565820Y12384502D01*
X9455506Y12325537D01*
X9358815Y12246185D01*
X9279463Y12149494D01*
X9220498Y12039180D01*
X9184188Y11919482D01*
X9171928Y11795000D01*
X9171928Y9795000D01*
X9184188Y9670518D01*
X9220498Y9550820D01*
X9279463Y9440506D01*
X9358815Y9343815D01*
X9455506Y9264463D01*
X9565820Y9205498D01*
X9685518Y9169188D01*
X9810000Y9156928D01*
X17250300Y9156928D01*
X17250301Y6756169D01*
X17177204Y6683072D01*
X16694999Y6683072D01*
X16521745Y6666008D01*
X16355149Y6615472D01*
X16201613Y6533405D01*
X16067038Y6422962D01*
X15956595Y6288387D01*
X15874528Y6134851D01*
X15823992Y5968255D01*
X15806928Y5795001D01*
X15806928Y5144999D01*
X15823992Y4971745D01*
X15874528Y4805149D01*
X15956595Y4651613D01*
X16067038Y4517038D01*
X16073594Y4511658D01*
X15993815Y4446185D01*
X15914463Y4349494D01*
X15855498Y4239180D01*
X15819188Y4119482D01*
X15806928Y3995000D01*
X15810000Y3705750D01*
X15968750Y3547000D01*
X17018000Y3547000D01*
X17018000Y3567000D01*
X17272000Y3567000D01*
X17272000Y3547000D01*
X18321250Y3547000D01*
X18480000Y3705750D01*
X18483072Y3995000D01*
X18470812Y4119482D01*
X18434502Y4239180D01*
X18375537Y4349494D01*
X18296185Y4446185D01*
X18216406Y4511658D01*
X18222962Y4517038D01*
X18333405Y4651613D01*
X18415472Y4805149D01*
X18466008Y4971745D01*
X18483072Y5144999D01*
X18483072Y5627204D01*
X18646726Y5790858D01*
X18678591Y5817009D01*
X18782936Y5944154D01*
X18860472Y6089213D01*
X18908218Y6246611D01*
X18920300Y6369281D01*
X18924340Y6410299D01*
X18920300Y6451318D01*
X18920300Y10753981D01*
X18924340Y10795000D01*
X18920300Y10836019D01*
X18920300Y18524233D01*
X21737600Y21341532D01*
X21737601Y13343729D01*
X21733560Y13302700D01*
X21749682Y13139012D01*
X21797428Y12981614D01*
X21797429Y12981613D01*
X21874965Y12836554D01*
X21979310Y12709409D01*
X22011174Y12683259D01*
X22261361Y12433072D01*
X21685000Y12433072D01*
X21560518Y12420812D01*
X21440820Y12384502D01*
X21330506Y12325537D01*
X21233815Y12246185D01*
X21154463Y12149494D01*
X21095498Y12039180D01*
X21059188Y11919482D01*
X21046928Y11795000D01*
X21046928Y9795000D01*
X21059188Y9670518D01*
X21095498Y9550820D01*
X21154463Y9440506D01*
X21233815Y9343815D01*
X21330506Y9264463D01*
X21440820Y9205498D01*
X21560518Y9169188D01*
X21685000Y9156928D01*
X24245300Y9156928D01*
X24245300Y8671168D01*
X22257205Y6683072D01*
X21774999Y6683072D01*
X21601745Y6666008D01*
X21435149Y6615472D01*
X21281613Y6533405D01*
X21147038Y6422962D01*
X21036595Y6288387D01*
X20954528Y6134851D01*
X20903992Y5968255D01*
X20886928Y5795001D01*
X20886928Y5144999D01*
X20903992Y4971745D01*
X20954528Y4805149D01*
X21036595Y4651613D01*
X21147038Y4517038D01*
X21153594Y4511658D01*
X21073815Y4446185D01*
X20994463Y4349494D01*
X20935498Y4239180D01*
X20899188Y4119482D01*
X20886928Y3995000D01*
X20890000Y3705750D01*
X21048750Y3547000D01*
X22098000Y3547000D01*
X22098000Y3567000D01*
X22352000Y3567000D01*
X22352000Y3547000D01*
X23401250Y3547000D01*
X23560000Y3705750D01*
X23563072Y3995000D01*
X23550812Y4119482D01*
X23514502Y4239180D01*
X23455537Y4349494D01*
X23376185Y4446185D01*
X23296406Y4511658D01*
X23302962Y4517038D01*
X23330861Y4551033D01*
X35195000Y4551033D01*
X35195000Y4228967D01*
X35257832Y3913088D01*
X35381082Y3615537D01*
X35560013Y3347748D01*
X35787748Y3120013D01*
X36055537Y2941082D01*
X36353088Y2817832D01*
X36668967Y2755000D01*
X36991033Y2755000D01*
X37306912Y2817832D01*
X37604463Y2941082D01*
X37872252Y3120013D01*
X38099987Y3347748D01*
X38278918Y3615537D01*
X38402168Y3913088D01*
X38465000Y4228967D01*
X38465000Y4551033D01*
X41695000Y4551033D01*
X41695000Y4228967D01*
X41757832Y3913088D01*
X41881082Y3615537D01*
X42060013Y3347748D01*
X42287748Y3120013D01*
X42555537Y2941082D01*
X42853088Y2817832D01*
X43168967Y2755000D01*
X43491033Y2755000D01*
X43806912Y2817832D01*
X44104463Y2941082D01*
X44372252Y3120013D01*
X44599987Y3347748D01*
X44778918Y3615537D01*
X44902168Y3913088D01*
X44965000Y4228967D01*
X44965000Y4551033D01*
X44902168Y4866912D01*
X44778918Y5164463D01*
X44599987Y5432252D01*
X44372252Y5659987D01*
X44104463Y5838918D01*
X43806912Y5962168D01*
X43491033Y6025000D01*
X43168967Y6025000D01*
X42853088Y5962168D01*
X42555537Y5838918D01*
X42287748Y5659987D01*
X42060013Y5432252D01*
X41881082Y5164463D01*
X41757832Y4866912D01*
X41695000Y4551033D01*
X38465000Y4551033D01*
X38402168Y4866912D01*
X38278918Y5164463D01*
X38099987Y5432252D01*
X37872252Y5659987D01*
X37604463Y5838918D01*
X37306912Y5962168D01*
X36991033Y6025000D01*
X36668967Y6025000D01*
X36353088Y5962168D01*
X36055537Y5838918D01*
X35787748Y5659987D01*
X35560013Y5432252D01*
X35381082Y5164463D01*
X35257832Y4866912D01*
X35195000Y4551033D01*
X23330861Y4551033D01*
X23413405Y4651613D01*
X23495472Y4805149D01*
X23546008Y4971745D01*
X23563072Y5144999D01*
X23563072Y5627205D01*
X24437051Y6501184D01*
X49265000Y6501184D01*
X49265000Y6198816D01*
X49323989Y5902257D01*
X49439701Y5622905D01*
X49607688Y5371495D01*
X49821495Y5157688D01*
X50072905Y4989701D01*
X50352257Y4873989D01*
X50648816Y4815000D01*
X50951184Y4815000D01*
X51247743Y4873989D01*
X51527095Y4989701D01*
X51778505Y5157688D01*
X51844944Y5224127D01*
X51850498Y5205820D01*
X51909463Y5095506D01*
X51988815Y4998815D01*
X52085506Y4919463D01*
X52195820Y4860498D01*
X52315518Y4824188D01*
X52440000Y4811928D01*
X53054250Y4815000D01*
X53213000Y4973750D01*
X53213000Y6223000D01*
X53467000Y6223000D01*
X53467000Y4973750D01*
X53625750Y4815000D01*
X54240000Y4811928D01*
X54364482Y4824188D01*
X54484180Y4860498D01*
X54594494Y4919463D01*
X54691185Y4998815D01*
X54770537Y5095506D01*
X54829502Y5205820D01*
X54865812Y5325518D01*
X54878072Y5450000D01*
X59421928Y5450000D01*
X59434188Y5325518D01*
X59470498Y5205820D01*
X59529463Y5095506D01*
X59608815Y4998815D01*
X59705506Y4919463D01*
X59815820Y4860498D01*
X59935518Y4824188D01*
X60060000Y4811928D01*
X60674250Y4815000D01*
X60833000Y4973750D01*
X60833000Y6223000D01*
X59583750Y6223000D01*
X59425000Y6064250D01*
X59421928Y5450000D01*
X54878072Y5450000D01*
X54875000Y6064250D01*
X54716250Y6223000D01*
X53467000Y6223000D01*
X53213000Y6223000D01*
X53193000Y6223000D01*
X53193000Y6477000D01*
X53213000Y6477000D01*
X53213000Y7726250D01*
X53467000Y7726250D01*
X53467000Y6477000D01*
X54716250Y6477000D01*
X54875000Y6635750D01*
X54878072Y7250000D01*
X59421928Y7250000D01*
X59425000Y6635750D01*
X59583750Y6477000D01*
X60833000Y6477000D01*
X60833000Y7726250D01*
X61087000Y7726250D01*
X61087000Y6477000D01*
X61107000Y6477000D01*
X61107000Y6223000D01*
X61087000Y6223000D01*
X61087000Y4973750D01*
X61245750Y4815000D01*
X61860000Y4811928D01*
X61984482Y4824188D01*
X62104180Y4860498D01*
X62214494Y4919463D01*
X62311185Y4998815D01*
X62390537Y5095506D01*
X62449502Y5205820D01*
X62455056Y5224127D01*
X62521495Y5157688D01*
X62772905Y4989701D01*
X63052257Y4873989D01*
X63348816Y4815000D01*
X63651184Y4815000D01*
X63947743Y4873989D01*
X64227095Y4989701D01*
X64478505Y5157688D01*
X64692312Y5371495D01*
X64860299Y5622905D01*
X64976011Y5902257D01*
X65035000Y6198816D01*
X65035000Y6501184D01*
X64976011Y6797743D01*
X64860299Y7077095D01*
X64692312Y7328505D01*
X64478505Y7542312D01*
X64227095Y7710299D01*
X63947743Y7826011D01*
X63651184Y7885000D01*
X63348816Y7885000D01*
X63052257Y7826011D01*
X62772905Y7710299D01*
X62521495Y7542312D01*
X62455056Y7475873D01*
X62449502Y7494180D01*
X62390537Y7604494D01*
X62311185Y7701185D01*
X62214494Y7780537D01*
X62104180Y7839502D01*
X61984482Y7875812D01*
X61860000Y7888072D01*
X61245750Y7885000D01*
X61087000Y7726250D01*
X60833000Y7726250D01*
X60674250Y7885000D01*
X60060000Y7888072D01*
X59935518Y7875812D01*
X59815820Y7839502D01*
X59705506Y7780537D01*
X59608815Y7701185D01*
X59529463Y7604494D01*
X59470498Y7494180D01*
X59434188Y7374482D01*
X59421928Y7250000D01*
X54878072Y7250000D01*
X54865812Y7374482D01*
X54829502Y7494180D01*
X54770537Y7604494D01*
X54691185Y7701185D01*
X54594494Y7780537D01*
X54484180Y7839502D01*
X54364482Y7875812D01*
X54240000Y7888072D01*
X53625750Y7885000D01*
X53467000Y7726250D01*
X53213000Y7726250D01*
X53054250Y7885000D01*
X52440000Y7888072D01*
X52315518Y7875812D01*
X52195820Y7839502D01*
X52085506Y7780537D01*
X51988815Y7701185D01*
X51909463Y7604494D01*
X51850498Y7494180D01*
X51844944Y7475873D01*
X51778505Y7542312D01*
X51527095Y7710299D01*
X51247743Y7826011D01*
X50951184Y7885000D01*
X50648816Y7885000D01*
X50352257Y7826011D01*
X50072905Y7710299D01*
X49821495Y7542312D01*
X49607688Y7328505D01*
X49439701Y7077095D01*
X49323989Y6797743D01*
X49265000Y6501184D01*
X24437051Y6501184D01*
X25641728Y7705860D01*
X25673591Y7732009D01*
X25692120Y7754587D01*
X35874192Y7754587D01*
X35969956Y7490186D01*
X36259571Y7349296D01*
X36571108Y7267616D01*
X36892595Y7248282D01*
X37211675Y7292039D01*
X37516088Y7397205D01*
X37690044Y7490186D01*
X37785808Y7754587D01*
X42374192Y7754587D01*
X42469956Y7490186D01*
X42759571Y7349296D01*
X43071108Y7267616D01*
X43392595Y7248282D01*
X43711675Y7292039D01*
X44016088Y7397205D01*
X44190044Y7490186D01*
X44285808Y7754587D01*
X43330000Y8710395D01*
X42374192Y7754587D01*
X37785808Y7754587D01*
X36830000Y8710395D01*
X35874192Y7754587D01*
X25692120Y7754587D01*
X25777936Y7859154D01*
X25855472Y8004213D01*
X25903218Y8161611D01*
X25915300Y8284281D01*
X25915300Y8284282D01*
X25919340Y8325300D01*
X25915300Y8366318D01*
X25915300Y8827405D01*
X35188282Y8827405D01*
X35232039Y8508325D01*
X35337205Y8203912D01*
X35430186Y8029956D01*
X35694587Y7934192D01*
X36650395Y8890000D01*
X37009605Y8890000D01*
X37965413Y7934192D01*
X38229814Y8029956D01*
X38370704Y8319571D01*
X38452384Y8631108D01*
X38464189Y8827405D01*
X41688282Y8827405D01*
X41732039Y8508325D01*
X41837205Y8203912D01*
X41930186Y8029956D01*
X42194587Y7934192D01*
X43150395Y8890000D01*
X43509605Y8890000D01*
X44465413Y7934192D01*
X44729814Y8029956D01*
X44870704Y8319571D01*
X44952384Y8631108D01*
X44971718Y8952595D01*
X44927961Y9271675D01*
X44822795Y9576088D01*
X44729814Y9750044D01*
X44465413Y9845808D01*
X43509605Y8890000D01*
X43150395Y8890000D01*
X42194587Y9845808D01*
X41930186Y9750044D01*
X41789296Y9460429D01*
X41707616Y9148892D01*
X41688282Y8827405D01*
X38464189Y8827405D01*
X38471718Y8952595D01*
X38427961Y9271675D01*
X38322795Y9576088D01*
X38229814Y9750044D01*
X37965413Y9845808D01*
X37009605Y8890000D01*
X36650395Y8890000D01*
X35694587Y9845808D01*
X35430186Y9750044D01*
X35289296Y9460429D01*
X35207616Y9148892D01*
X35188282Y8827405D01*
X25915300Y8827405D01*
X25915300Y9156928D01*
X29560000Y9156928D01*
X29684482Y9169188D01*
X29804180Y9205498D01*
X29914494Y9264463D01*
X30011185Y9343815D01*
X30090537Y9440506D01*
X30149502Y9550820D01*
X30185812Y9670518D01*
X30198072Y9795000D01*
X30198072Y10025413D01*
X35874192Y10025413D01*
X36830000Y9069605D01*
X37785808Y10025413D01*
X42374192Y10025413D01*
X43330000Y9069605D01*
X44285808Y10025413D01*
X44190044Y10289814D01*
X43900429Y10430704D01*
X43588892Y10512384D01*
X43267405Y10531718D01*
X42948325Y10487961D01*
X42643912Y10382795D01*
X42469956Y10289814D01*
X42374192Y10025413D01*
X37785808Y10025413D01*
X37690044Y10289814D01*
X37400429Y10430704D01*
X37088892Y10512384D01*
X36767405Y10531718D01*
X36448325Y10487961D01*
X36143912Y10382795D01*
X35969956Y10289814D01*
X35874192Y10025413D01*
X30198072Y10025413D01*
X30198072Y11795000D01*
X30185812Y11919482D01*
X30149502Y12039180D01*
X30090537Y12149494D01*
X30011185Y12246185D01*
X29914494Y12325537D01*
X29804180Y12384502D01*
X29684482Y12420812D01*
X29560000Y12433072D01*
X24623096Y12433072D01*
X23407600Y13648567D01*
X23407600Y20408729D01*
X29608859Y14207373D01*
X29635009Y14175509D01*
X29762154Y14071164D01*
X29907213Y13993628D01*
X30064611Y13945882D01*
X30176584Y13934854D01*
X30228293Y13929760D01*
X30269314Y13933800D01*
X47841582Y13933800D01*
X47882600Y13929760D01*
X47923618Y13933800D01*
X47923619Y13933800D01*
X48046289Y13945882D01*
X48203687Y13993628D01*
X48348746Y14071164D01*
X48475891Y14175509D01*
X48502046Y14207379D01*
X48821421Y14526754D01*
X48847339Y14548024D01*
X48959999Y14536928D01*
X49610001Y14536928D01*
X49783255Y14553992D01*
X49949851Y14604528D01*
X50103387Y14686595D01*
X50237962Y14797038D01*
X50348405Y14931613D01*
X50430472Y15085149D01*
X50481008Y15251745D01*
X50498072Y15424999D01*
X50498072Y15953756D01*
X50541772Y16035513D01*
X50589518Y16192911D01*
X50601600Y16315581D01*
X50601600Y16315583D01*
X50605640Y16356599D01*
X50601600Y16397615D01*
X50601600Y18368400D01*
X59896182Y18368400D01*
X59937200Y18364360D01*
X59978218Y18368400D01*
X59978219Y18368400D01*
X60100889Y18380482D01*
X60258287Y18428228D01*
X60403346Y18505764D01*
X60530491Y18610109D01*
X60556646Y18641979D01*
X60886421Y18971754D01*
X60900441Y18983260D01*
X61064250Y18985000D01*
X61223000Y19143750D01*
X61223000Y20193000D01*
X61477000Y20193000D01*
X61477000Y19143750D01*
X61635750Y18985000D01*
X61925000Y18981928D01*
X62049482Y18994188D01*
X62169180Y19030498D01*
X62279494Y19089463D01*
X62376185Y19168815D01*
X62455537Y19265506D01*
X62514502Y19375820D01*
X62550812Y19495518D01*
X62563072Y19620000D01*
X62560000Y20034250D01*
X62401250Y20193000D01*
X61477000Y20193000D01*
X61223000Y20193000D01*
X61203000Y20193000D01*
X61203000Y20447000D01*
X61223000Y20447000D01*
X61223000Y21496250D01*
X61477000Y21496250D01*
X61477000Y20447000D01*
X62401250Y20447000D01*
X62560000Y20605750D01*
X62563072Y21020000D01*
X62550812Y21144482D01*
X62514502Y21264180D01*
X62455537Y21374494D01*
X62376185Y21471185D01*
X62279494Y21550537D01*
X62169180Y21609502D01*
X62049482Y21645812D01*
X61925000Y21658072D01*
X61635750Y21655000D01*
X61477000Y21496250D01*
X61223000Y21496250D01*
X61160000Y21559250D01*
X61160000Y23844293D01*
X61164039Y23885301D01*
X61160000Y23926309D01*
X61160000Y23926319D01*
X61147918Y24048989D01*
X61100172Y24206387D01*
X61022636Y24351446D01*
X60918291Y24478591D01*
X60886428Y24504740D01*
X59555067Y25836100D01*
X60262333Y26543364D01*
X60294191Y26569509D01*
X60321463Y26602739D01*
X60398536Y26696654D01*
X60476072Y26841713D01*
X60483682Y26866801D01*
X60523818Y26999111D01*
X60535900Y27121781D01*
X60535900Y27121782D01*
X60539940Y27162800D01*
X60535900Y27203818D01*
X60535900Y29809482D01*
X60539940Y29850501D01*
X60523818Y30014189D01*
X60476072Y30171587D01*
X60398536Y30316646D01*
X60385606Y30332401D01*
X60294191Y30443791D01*
X60262327Y30469941D01*
X59672002Y31060266D01*
X59672002Y31208748D01*
X59830750Y31050000D01*
X60120000Y31046928D01*
X60244482Y31059188D01*
X60364180Y31095498D01*
X60474494Y31154463D01*
X60571185Y31233815D01*
X60636658Y31313594D01*
X60642038Y31307038D01*
X60776613Y31196595D01*
X60930149Y31114528D01*
X61096745Y31063992D01*
X61269999Y31046928D01*
X61752204Y31046928D01*
X61877401Y30921731D01*
X61877400Y29749971D01*
X61828613Y29735172D01*
X61683554Y29657636D01*
X61556409Y29553291D01*
X61452064Y29426146D01*
X61374528Y29281087D01*
X61326782Y29123689D01*
X61310660Y28960000D01*
X61314701Y28918971D01*
X61314700Y23801019D01*
X61310660Y23760000D01*
X61326782Y23596311D01*
X61374528Y23438913D01*
X61452064Y23293854D01*
X61545086Y23180506D01*
X61556409Y23166709D01*
X61683554Y23062364D01*
X61828613Y22984828D01*
X61911928Y22959555D01*
X61911928Y22885000D01*
X61924188Y22760518D01*
X61960498Y22640820D01*
X62019463Y22530506D01*
X62098815Y22433815D01*
X62195506Y22354463D01*
X62305820Y22295498D01*
X62425518Y22259188D01*
X62550000Y22246928D01*
X64000000Y22246928D01*
X64124482Y22259188D01*
X64244180Y22295498D01*
X64354494Y22354463D01*
X64451185Y22433815D01*
X64530537Y22530506D01*
X64589502Y22640820D01*
X64625812Y22760518D01*
X64638072Y22885000D01*
X64638072Y23335000D01*
X64628223Y23435000D01*
X64638072Y23535000D01*
X64638072Y23985000D01*
X64628223Y24085000D01*
X64638072Y24185000D01*
X64638072Y24208061D01*
X65277558Y23568574D01*
X65303709Y23536709D01*
X65397811Y23459482D01*
X65430854Y23432364D01*
X65575913Y23354828D01*
X65733311Y23307082D01*
X65896999Y23290960D01*
X65938018Y23295000D01*
X78568567Y23295000D01*
X78511400Y23007599D01*
X78511400Y22712401D01*
X78568990Y22422875D01*
X78681958Y22150147D01*
X78845961Y21904698D01*
X79054698Y21695961D01*
X79213281Y21590000D01*
X79054698Y21484039D01*
X78845961Y21275302D01*
X78681958Y21029853D01*
X78568990Y20757125D01*
X78511400Y20467599D01*
X78511400Y20172401D01*
X78568990Y19882875D01*
X78681958Y19610147D01*
X78845961Y19364698D01*
X79054698Y19155961D01*
X79300147Y18991958D01*
X79572875Y18878990D01*
X79862401Y18821400D01*
X80157599Y18821400D01*
X80447125Y18878990D01*
X80719853Y18991958D01*
X80965302Y19155961D01*
X81174039Y19364698D01*
X81281692Y19525813D01*
X81443146Y19309707D01*
X81661512Y19113183D01*
X81914022Y18963036D01*
X82190973Y18865037D01*
X82423000Y18985536D01*
X82423000Y20193000D01*
X82677000Y20193000D01*
X82677000Y18985536D01*
X82909027Y18865037D01*
X83185978Y18963036D01*
X83438488Y19113183D01*
X83656854Y19309707D01*
X83832684Y19545056D01*
X83959222Y19810186D01*
X84004958Y19960974D01*
X83883817Y20193000D01*
X82677000Y20193000D01*
X82423000Y20193000D01*
X82403000Y20193000D01*
X82403000Y20447000D01*
X82423000Y20447000D01*
X82423000Y20467000D01*
X82677000Y20467000D01*
X82677000Y20447000D01*
X83883817Y20447000D01*
X84004958Y20679026D01*
X83959222Y20829814D01*
X83832684Y21094944D01*
X83656854Y21330293D01*
X83438488Y21526817D01*
X83339897Y21585441D01*
X83505302Y21695961D01*
X83714039Y21904698D01*
X83878042Y22150147D01*
X83991010Y22422875D01*
X84048600Y22712401D01*
X84048600Y23007599D01*
X83991433Y23295000D01*
X88230082Y23295000D01*
X88271100Y23290960D01*
X88312118Y23295000D01*
X88312119Y23295000D01*
X88434789Y23307082D01*
X88592187Y23354828D01*
X88737246Y23432364D01*
X88864391Y23536709D01*
X88890546Y23568579D01*
X89703813Y24381846D01*
X89849698Y24235961D01*
X90095147Y24071958D01*
X90367875Y23958990D01*
X90657401Y23901400D01*
X90952599Y23901400D01*
X91242125Y23958990D01*
X91514853Y24071958D01*
X91760302Y24235961D01*
X91969039Y24444698D01*
X92076692Y24605813D01*
X92238146Y24389707D01*
X92456512Y24193183D01*
X92709022Y24043036D01*
X92985973Y23945037D01*
X93218000Y24065536D01*
X93218000Y25273000D01*
X93472000Y25273000D01*
X93472000Y24065536D01*
X93704027Y23945037D01*
X93980978Y24043036D01*
X94233488Y24193183D01*
X94451854Y24389707D01*
X94627684Y24625056D01*
X94754222Y24890186D01*
X94799958Y25040974D01*
X94678817Y25273000D01*
X93472000Y25273000D01*
X93218000Y25273000D01*
X93198000Y25273000D01*
X93198000Y25527000D01*
X93218000Y25527000D01*
X93218000Y25547000D01*
X93472000Y25547000D01*
X93472000Y25527000D01*
X94678817Y25527000D01*
X94799958Y25759026D01*
X94776914Y25835000D01*
X98720233Y25835000D01*
X99716658Y24838574D01*
X99742809Y24806709D01*
X99869954Y24702364D01*
X100015013Y24624828D01*
X100172411Y24577082D01*
X100295081Y24565000D01*
X100295083Y24565000D01*
X100336099Y24560960D01*
X100356908Y24563010D01*
X100435961Y24444698D01*
X100644698Y24235961D01*
X100890147Y24071958D01*
X101162875Y23958990D01*
X101452401Y23901400D01*
X101747599Y23901400D01*
X102037125Y23958990D01*
X102309853Y24071958D01*
X102555302Y24235961D01*
X102764039Y24444698D01*
X102871692Y24605813D01*
X103033146Y24389707D01*
X103251512Y24193183D01*
X103504022Y24043036D01*
X103780973Y23945037D01*
X104013000Y24065536D01*
X104013000Y25273000D01*
X104267000Y25273000D01*
X104267000Y24065536D01*
X104499027Y23945037D01*
X104775978Y24043036D01*
X105028488Y24193183D01*
X105246854Y24389707D01*
X105422684Y24625056D01*
X105549222Y24890186D01*
X105594958Y25040974D01*
X105473817Y25273000D01*
X104267000Y25273000D01*
X104013000Y25273000D01*
X103993000Y25273000D01*
X103993000Y25527000D01*
X104013000Y25527000D01*
X104013000Y25547000D01*
X104267000Y25547000D01*
X104267000Y25527000D01*
X105473817Y25527000D01*
X105594958Y25759026D01*
X105549222Y25909814D01*
X105422684Y26174944D01*
X105246854Y26410293D01*
X105028488Y26606817D01*
X104929897Y26665441D01*
X105095302Y26775961D01*
X105304039Y26984698D01*
X105468042Y27230147D01*
X105581010Y27502875D01*
X105638600Y27792401D01*
X105638600Y28087599D01*
X105581010Y28377125D01*
X105468042Y28649853D01*
X105304039Y28895302D01*
X105095302Y29104039D01*
X104936719Y29210000D01*
X105095302Y29315961D01*
X105304039Y29524698D01*
X105468042Y29770147D01*
X105581010Y30042875D01*
X105638600Y30332401D01*
X105638600Y30627599D01*
X105581010Y30917125D01*
X105468042Y31189853D01*
X105304039Y31435302D01*
X105095302Y31644039D01*
X104849853Y31808042D01*
X104577125Y31921010D01*
X104287599Y31978600D01*
X103992401Y31978600D01*
X103702875Y31921010D01*
X103430147Y31808042D01*
X103184698Y31644039D01*
X103070636Y31529977D01*
X103053102Y31587780D01*
X102994137Y31698094D01*
X102914785Y31794785D01*
X102818094Y31874137D01*
X102707780Y31933102D01*
X102588082Y31969412D01*
X102463600Y31981672D01*
X100736400Y31981672D01*
X100611918Y31969412D01*
X100492220Y31933102D01*
X100381906Y31874137D01*
X100285215Y31794785D01*
X100247788Y31749180D01*
X99691645Y32305322D01*
X99665491Y32337191D01*
X99538346Y32441536D01*
X99393287Y32519072D01*
X99235889Y32566818D01*
X99113219Y32578900D01*
X99113218Y32578900D01*
X99072200Y32582940D01*
X99031182Y32578900D01*
X92820807Y32578900D01*
X92779799Y32582939D01*
X92738791Y32578900D01*
X92738781Y32578900D01*
X92616111Y32566818D01*
X92458713Y32519072D01*
X92313654Y32441536D01*
X92186509Y32337191D01*
X92160358Y32305326D01*
X91817145Y31962113D01*
X91793082Y31969412D01*
X91668600Y31981672D01*
X89941400Y31981672D01*
X89816918Y31969412D01*
X89697220Y31933102D01*
X89586906Y31874137D01*
X89490215Y31794785D01*
X89410863Y31698094D01*
X89351898Y31587780D01*
X89315588Y31468082D01*
X89303328Y31343600D01*
X89303328Y29616400D01*
X89315588Y29491918D01*
X89351898Y29372220D01*
X89410863Y29261906D01*
X89490215Y29165215D01*
X89586906Y29085863D01*
X89697220Y29026898D01*
X89755023Y29009364D01*
X89640961Y28895302D01*
X89476958Y28649853D01*
X89363990Y28377125D01*
X89306400Y28087599D01*
X89306400Y27792401D01*
X89363567Y27505000D01*
X83991433Y27505000D01*
X84048600Y27792401D01*
X84048600Y28087599D01*
X83991010Y28377125D01*
X83878042Y28649853D01*
X83714039Y28895302D01*
X83505302Y29104039D01*
X83346719Y29210000D01*
X83505302Y29315961D01*
X83714039Y29524698D01*
X83878042Y29770147D01*
X83991010Y30042875D01*
X84048600Y30332401D01*
X84048600Y30627599D01*
X83991010Y30917125D01*
X83878042Y31189853D01*
X83714039Y31435302D01*
X83505302Y31644039D01*
X83259853Y31808042D01*
X82987125Y31921010D01*
X82697599Y31978600D01*
X82402401Y31978600D01*
X82112875Y31921010D01*
X81840147Y31808042D01*
X81594698Y31644039D01*
X81480636Y31529977D01*
X81463102Y31587780D01*
X81404137Y31698094D01*
X81324785Y31794785D01*
X81228094Y31874137D01*
X81117780Y31933102D01*
X80998082Y31969412D01*
X80873600Y31981672D01*
X79146400Y31981672D01*
X79021918Y31969412D01*
X78902220Y31933102D01*
X78791906Y31874137D01*
X78695215Y31794785D01*
X78615863Y31698094D01*
X78556898Y31587780D01*
X78520588Y31468082D01*
X78508328Y31343600D01*
X78508328Y31280445D01*
X78425013Y31255172D01*
X78279954Y31177636D01*
X78152809Y31073291D01*
X78126659Y31041427D01*
X75024233Y27939000D01*
X69564351Y27939000D01*
X69589905Y27977244D01*
X69667926Y28165602D01*
X69707700Y28365561D01*
X69707700Y28569439D01*
X69667926Y28769398D01*
X69589905Y28957756D01*
X69476637Y29127274D01*
X69332474Y29271437D01*
X69162956Y29384705D01*
X68974598Y29462726D01*
X68774639Y29502500D01*
X68570761Y29502500D01*
X68370802Y29462726D01*
X68182444Y29384705D01*
X68059415Y29302500D01*
X65030718Y29302500D01*
X64989700Y29306540D01*
X64948682Y29302500D01*
X64948681Y29302500D01*
X64826011Y29290418D01*
X64668613Y29242672D01*
X64634203Y29224280D01*
X64625812Y29309482D01*
X64589502Y29429180D01*
X64530537Y29539494D01*
X64451185Y29636185D01*
X64354494Y29715537D01*
X64244180Y29774502D01*
X64124482Y29810812D01*
X64000000Y29823072D01*
X63547400Y29823072D01*
X63547400Y30432600D01*
X65884582Y30432600D01*
X65925600Y30428560D01*
X65966618Y30432600D01*
X65966619Y30432600D01*
X66089289Y30444682D01*
X66246687Y30492428D01*
X66391746Y30569964D01*
X66518891Y30674309D01*
X66545046Y30706179D01*
X75621827Y39782959D01*
X75653691Y39809109D01*
X75758036Y39936254D01*
X75835572Y40081313D01*
X75883318Y40238711D01*
X75887511Y40281287D01*
X75888360Y40289900D01*
X89959182Y40289900D01*
X90000200Y40285860D01*
X90041218Y40289900D01*
X90041219Y40289900D01*
X90163889Y40301982D01*
X90321287Y40349728D01*
X90466346Y40427264D01*
X90593491Y40531609D01*
X90619646Y40563479D01*
X90731421Y40675254D01*
X90763291Y40701409D01*
X90867636Y40828554D01*
X90945172Y40973613D01*
X90970445Y41056928D01*
X91020000Y41056928D01*
X91144482Y41069188D01*
X91264180Y41105498D01*
X91374494Y41164463D01*
X91471185Y41243815D01*
X91550537Y41340506D01*
X91609502Y41450820D01*
X91631513Y41523380D01*
X91763368Y41391525D01*
X92006589Y41229010D01*
X92276842Y41117068D01*
X92563740Y41060000D01*
X92856260Y41060000D01*
X93143158Y41117068D01*
X93413411Y41229010D01*
X93656632Y41391525D01*
X93863475Y41598368D01*
X93980000Y41772760D01*
X94096525Y41598368D01*
X94303368Y41391525D01*
X94546589Y41229010D01*
X94816842Y41117068D01*
X95103740Y41060000D01*
X95396260Y41060000D01*
X95683158Y41117068D01*
X95953411Y41229010D01*
X96196632Y41391525D01*
X96403475Y41598368D01*
X96565990Y41841589D01*
X96677932Y42111842D01*
X96735000Y42398740D01*
X96735000Y42691260D01*
X96677932Y42978158D01*
X96565990Y43248411D01*
X96403475Y43491632D01*
X96196632Y43698475D01*
X95953411Y43860990D01*
X95683158Y43972932D01*
X95396260Y44030000D01*
X95103740Y44030000D01*
X94816842Y43972932D01*
X94546589Y43860990D01*
X94303368Y43698475D01*
X94096525Y43491632D01*
X93980000Y43317240D01*
X93863475Y43491632D01*
X93656632Y43698475D01*
X93413411Y43860990D01*
X93143158Y43972932D01*
X92856260Y44030000D01*
X92563740Y44030000D01*
X92276842Y43972932D01*
X92006589Y43860990D01*
X91763368Y43698475D01*
X91631513Y43566620D01*
X91609502Y43639180D01*
X91550537Y43749494D01*
X91471185Y43846185D01*
X91374494Y43925537D01*
X91264180Y43984502D01*
X91144482Y44020812D01*
X91020000Y44033072D01*
X89320000Y44033072D01*
X89195518Y44020812D01*
X89075820Y43984502D01*
X88965506Y43925537D01*
X88868815Y43846185D01*
X88789463Y43749494D01*
X88730498Y43639180D01*
X88694188Y43519482D01*
X88681928Y43395000D01*
X88681928Y41959900D01*
X75406269Y41959900D01*
X74259746Y43106422D01*
X74233591Y43138291D01*
X74106446Y43242636D01*
X73961387Y43320172D01*
X73803989Y43367918D01*
X73681319Y43380000D01*
X73681318Y43380000D01*
X73640300Y43384040D01*
X73616905Y43381736D01*
X73543475Y43491632D01*
X73336632Y43698475D01*
X73162240Y43815000D01*
X73336632Y43931525D01*
X73543475Y44138368D01*
X73705990Y44381589D01*
X73817932Y44651842D01*
X73875000Y44938740D01*
X73875000Y45231260D01*
X73817932Y45518158D01*
X73705990Y45788411D01*
X73543475Y46031632D01*
X73336632Y46238475D01*
X73093411Y46400990D01*
X72823158Y46512932D01*
X72536260Y46570000D01*
X72243740Y46570000D01*
X71956842Y46512932D01*
X71686589Y46400990D01*
X71443368Y46238475D01*
X71236525Y46031632D01*
X71161935Y45920000D01*
X50996318Y45920000D01*
X50955300Y45924040D01*
X50914282Y45920000D01*
X50914281Y45920000D01*
X50791611Y45907918D01*
X50634213Y45860172D01*
X50489154Y45782636D01*
X50362009Y45678291D01*
X50335863Y45646432D01*
X48505478Y43816046D01*
X48513812Y43843518D01*
X48526072Y43968000D01*
X48523000Y44432250D01*
X48364250Y44591000D01*
X47015000Y44591000D01*
X47015000Y44571000D01*
X46761000Y44571000D01*
X46761000Y44591000D01*
X45411750Y44591000D01*
X45253000Y44432250D01*
X45249928Y43968000D01*
X45262188Y43843518D01*
X45298498Y43723820D01*
X45357463Y43613506D01*
X45394809Y43568000D01*
X45357463Y43522494D01*
X45298498Y43412180D01*
X45262188Y43292482D01*
X45258299Y43253000D01*
X41918072Y43253000D01*
X41918072Y43395001D01*
X41901008Y43568255D01*
X41850472Y43734851D01*
X41768405Y43888387D01*
X41657962Y44022962D01*
X41523387Y44133405D01*
X41369851Y44215472D01*
X41203255Y44266008D01*
X41030001Y44283072D01*
X38979999Y44283072D01*
X38806745Y44266008D01*
X38640149Y44215472D01*
X38486613Y44133405D01*
X38352038Y44022962D01*
X38241595Y43888387D01*
X38159528Y43734851D01*
X38108992Y43568255D01*
X38091928Y43395001D01*
X38091928Y41644999D01*
X38108992Y41471745D01*
X38159528Y41305149D01*
X38241595Y41151613D01*
X38352038Y41017038D01*
X38430068Y40953000D01*
X34740368Y40953000D01*
X33318072Y42375295D01*
X33318072Y43170000D01*
X33301008Y43343254D01*
X33250472Y43509850D01*
X33168405Y43663386D01*
X33057962Y43797962D01*
X32923386Y43908405D01*
X32769850Y43990472D01*
X32603254Y44041008D01*
X32430000Y44058072D01*
X31505000Y44058072D01*
X31331746Y44041008D01*
X31165150Y43990472D01*
X31011614Y43908405D01*
X30877038Y43797962D01*
X30766595Y43663386D01*
X30684528Y43509850D01*
X30633992Y43343254D01*
X30616928Y43170000D01*
X30616928Y41920000D01*
X30633992Y41746746D01*
X30684528Y41580150D01*
X30766595Y41426614D01*
X30877038Y41292038D01*
X31011614Y41181595D01*
X31165150Y41099528D01*
X31331746Y41048992D01*
X31505000Y41031928D01*
X32299705Y41031928D01*
X33775059Y39556573D01*
X33801209Y39524709D01*
X33928354Y39420364D01*
X34073413Y39342828D01*
X34230811Y39295082D01*
X34353481Y39283000D01*
X34353491Y39283000D01*
X34394499Y39278961D01*
X34435507Y39283000D01*
X45258299Y39283000D01*
X45262188Y39243518D01*
X45298498Y39123820D01*
X45357463Y39013506D01*
X45436815Y38916815D01*
X45533506Y38837463D01*
X45643820Y38778498D01*
X45763518Y38742188D01*
X45888000Y38729928D01*
X47888000Y38729928D01*
X48012482Y38742188D01*
X48132180Y38778498D01*
X48242494Y38837463D01*
X48339185Y38916815D01*
X48418537Y39013506D01*
X48477502Y39123820D01*
X48513812Y39243518D01*
X48517661Y39282600D01*
X57246582Y39282600D01*
X57287600Y39278560D01*
X57328618Y39282600D01*
X57328619Y39282600D01*
X57451289Y39294682D01*
X57608687Y39342428D01*
X57753746Y39419964D01*
X57880891Y39524309D01*
X57907046Y39556179D01*
X59107796Y40756928D01*
X60715001Y40756928D01*
X60888255Y40773992D01*
X61054851Y40824528D01*
X61208387Y40906595D01*
X61342962Y41017038D01*
X61453405Y41151613D01*
X61535472Y41305149D01*
X61586008Y41471745D01*
X61603072Y41644999D01*
X61603072Y41685000D01*
X68278833Y41685000D01*
X70520259Y39443573D01*
X70546409Y39411709D01*
X70673554Y39307364D01*
X70818613Y39229828D01*
X70901928Y39204555D01*
X70901928Y39155000D01*
X70914188Y39030518D01*
X70950498Y38910820D01*
X71009463Y38800506D01*
X71088815Y38703815D01*
X71185506Y38624463D01*
X71295820Y38565498D01*
X71415518Y38529188D01*
X71540000Y38516928D01*
X71994060Y38516928D01*
X65579733Y32102600D01*
X63058268Y32102600D01*
X62808072Y32352796D01*
X62808072Y32835001D01*
X62791008Y33008255D01*
X62740472Y33174851D01*
X62658405Y33328387D01*
X62547962Y33462962D01*
X62413387Y33573405D01*
X62259851Y33655472D01*
X62093255Y33706008D01*
X61920001Y33723072D01*
X61269999Y33723072D01*
X61096745Y33706008D01*
X60930149Y33655472D01*
X60776613Y33573405D01*
X60642038Y33462962D01*
X60636658Y33456406D01*
X60571185Y33536185D01*
X60474494Y33615537D01*
X60364180Y33674502D01*
X60244482Y33710812D01*
X60120000Y33723072D01*
X59830750Y33720000D01*
X59672000Y33561250D01*
X59672000Y32512000D01*
X59692000Y32512000D01*
X59692000Y32258000D01*
X59672000Y32258000D01*
X59672000Y32238000D01*
X59418000Y32238000D01*
X59418000Y32258000D01*
X59398000Y32258000D01*
X59398000Y32512000D01*
X59418000Y32512000D01*
X59418000Y33561250D01*
X59259250Y33720000D01*
X58970000Y33723072D01*
X58845518Y33710812D01*
X58725820Y33674502D01*
X58615506Y33615537D01*
X58518815Y33536185D01*
X58439463Y33439494D01*
X58380498Y33329180D01*
X58344188Y33209482D01*
X58331928Y33085000D01*
X58335000Y32670750D01*
X58493748Y32512002D01*
X58335000Y32512002D01*
X58335000Y32397268D01*
X55880846Y34851421D01*
X55854691Y34883291D01*
X55727546Y34987636D01*
X55582487Y35065172D01*
X55425089Y35112918D01*
X55302419Y35125000D01*
X55302418Y35125000D01*
X55261400Y35129040D01*
X55220382Y35125000D01*
X50406339Y35125000D01*
X50348405Y35233387D01*
X50237962Y35367962D01*
X50103387Y35478405D01*
X49949851Y35560472D01*
X49783255Y35611008D01*
X49610001Y35628072D01*
X48959999Y35628072D01*
X48786745Y35611008D01*
X48620149Y35560472D01*
X48466613Y35478405D01*
X48332038Y35367962D01*
X48260000Y35280184D01*
X48187962Y35367962D01*
X48053387Y35478405D01*
X47899851Y35560472D01*
X47733255Y35611008D01*
X47560001Y35628072D01*
X47077796Y35628072D01*
X45676946Y37028921D01*
X45650791Y37060791D01*
X45523646Y37165136D01*
X45378587Y37242672D01*
X45221189Y37290418D01*
X45098519Y37302500D01*
X45098518Y37302500D01*
X45057500Y37306540D01*
X45016482Y37302500D01*
X29827500Y37302500D01*
X29827500Y41116980D01*
X29948386Y41181595D01*
X30082962Y41292038D01*
X30193405Y41426614D01*
X30275472Y41580150D01*
X30326008Y41746746D01*
X30343072Y41920000D01*
X30343072Y43170000D01*
X30326008Y43343254D01*
X30275472Y43509850D01*
X30193405Y43663386D01*
X30082962Y43797962D01*
X29948386Y43908405D01*
X29794850Y43990472D01*
X29628254Y44041008D01*
X29455000Y44058072D01*
X28530000Y44058072D01*
X28356746Y44041008D01*
X28190150Y43990472D01*
X28036614Y43908405D01*
X27902038Y43797962D01*
X27791595Y43663386D01*
X27709528Y43509850D01*
X27658992Y43343254D01*
X27641928Y43170000D01*
X27641928Y41920000D01*
X27658992Y41746746D01*
X27709528Y41580150D01*
X27791595Y41426614D01*
X27902038Y41292038D01*
X28036614Y41181595D01*
X28157500Y41116980D01*
X28157501Y36898072D01*
X27759999Y36898072D01*
X27659084Y36888133D01*
X27653291Y36895191D01*
X27621432Y36921337D01*
X25501346Y39041421D01*
X25475191Y39073291D01*
X25348046Y39177636D01*
X25202987Y39255172D01*
X25045589Y39302918D01*
X24922919Y39315000D01*
X24922918Y39315000D01*
X24881900Y39319040D01*
X24840882Y39315000D01*
X16980501Y39315000D01*
X16926185Y39381185D01*
X16829494Y39460537D01*
X16719180Y39519502D01*
X16687240Y39529191D01*
X16650172Y39651387D01*
X16572636Y39796446D01*
X16468291Y39923591D01*
X16436426Y39949742D01*
X16225000Y40161168D01*
X16225000Y42351532D01*
X16432252Y42490013D01*
X16659987Y42717748D01*
X16838918Y42985537D01*
X16962168Y43283088D01*
X17025000Y43598967D01*
X17025000Y43921033D01*
X16962168Y44236912D01*
X16838918Y44534463D01*
X16659987Y44802252D01*
X16432252Y45029987D01*
X16164463Y45208918D01*
X15866912Y45332168D01*
X15551033Y45395000D01*
X15228967Y45395000D01*
X14913088Y45332168D01*
X14615537Y45208918D01*
X14347748Y45029987D01*
X14120013Y44802252D01*
X13981532Y44595000D01*
X10298468Y44595000D01*
X10159987Y44802252D01*
X9932252Y45029987D01*
X9664463Y45208918D01*
X9366912Y45332168D01*
X9051033Y45395000D01*
X8728967Y45395000D01*
X8413088Y45332168D01*
X8115537Y45208918D01*
X7847748Y45029987D01*
X7620013Y44802252D01*
X7441082Y44534463D01*
X7317832Y44236912D01*
X7255000Y43921033D01*
X7255000Y43598967D01*
X7317832Y43283088D01*
X7441082Y42985537D01*
X7620013Y42717748D01*
X7847748Y42490013D01*
X8115537Y42311082D01*
X8413088Y42187832D01*
X8728967Y42125000D01*
X9051033Y42125000D01*
X9366912Y42187832D01*
X9664463Y42311082D01*
X9932252Y42490013D01*
X10159987Y42717748D01*
X10298468Y42925000D01*
X13981532Y42925000D01*
X14120013Y42717748D01*
X14347748Y42490013D01*
X14555000Y42351531D01*
X14555001Y39856328D01*
X14550960Y39815300D01*
X14567082Y39651612D01*
X14614828Y39494214D01*
X14692364Y39349155D01*
X14697885Y39342428D01*
X14744946Y39285083D01*
X14744463Y39284494D01*
X14685498Y39174180D01*
X14649188Y39054482D01*
X14636928Y38930000D01*
X14636928Y38030000D01*
X14649188Y37905518D01*
X14685498Y37785820D01*
X14744463Y37675506D01*
X14823815Y37578815D01*
X14920506Y37499463D01*
X15030820Y37440498D01*
X15150518Y37404188D01*
X15275000Y37391928D01*
X16475000Y37391928D01*
X16599482Y37404188D01*
X16719180Y37440498D01*
X16829494Y37499463D01*
X16926185Y37578815D01*
X16980501Y37645000D01*
X24536033Y37645000D01*
X25304599Y36876433D01*
X25215820Y36849502D01*
X25105506Y36790537D01*
X25008815Y36711185D01*
X24929463Y36614494D01*
X24870498Y36504180D01*
X24834188Y36384482D01*
X24821928Y36260000D01*
X24825000Y35845750D01*
X24983750Y35687000D01*
X25908000Y35687000D01*
X25908000Y35707000D01*
X26162000Y35707000D01*
X26162000Y35687000D01*
X26182000Y35687000D01*
X26182000Y35433000D01*
X26162000Y35433000D01*
X26162000Y34939897D01*
X26147028Y34911886D01*
X26099282Y34754488D01*
X26083160Y34590800D01*
X26087201Y34549772D01*
X26087200Y33531619D01*
X26083160Y33490600D01*
X26087200Y33449582D01*
X26099282Y33326912D01*
X26147028Y33169514D01*
X26224564Y33024455D01*
X26328909Y32897309D01*
X26360779Y32871154D01*
X28577927Y30654004D01*
X27940000Y30016077D01*
X26994649Y30961428D01*
X26897958Y31040780D01*
X26787644Y31099745D01*
X26667946Y31136055D01*
X26543464Y31148315D01*
X26418982Y31136055D01*
X26299284Y31099745D01*
X26188970Y31040780D01*
X26092279Y30961428D01*
X25703370Y30572519D01*
X25624018Y30475828D01*
X25623762Y30475349D01*
X25623285Y30475094D01*
X25526594Y30395742D01*
X25356860Y30226008D01*
X22815000Y32767867D01*
X22815000Y34385229D01*
X22932962Y34482038D01*
X23043405Y34616613D01*
X23125472Y34770149D01*
X23152727Y34860000D01*
X24821928Y34860000D01*
X24834188Y34735518D01*
X24870498Y34615820D01*
X24929463Y34505506D01*
X25008815Y34408815D01*
X25105506Y34329463D01*
X25215820Y34270498D01*
X25335518Y34234188D01*
X25460000Y34221928D01*
X25749250Y34225000D01*
X25908000Y34383750D01*
X25908000Y35433000D01*
X24983750Y35433000D01*
X24825000Y35274250D01*
X24821928Y34860000D01*
X23152727Y34860000D01*
X23176008Y34936745D01*
X23193072Y35109999D01*
X23193072Y36010001D01*
X23176008Y36183255D01*
X23125472Y36349851D01*
X23043405Y36503387D01*
X22932962Y36637962D01*
X22798387Y36748405D01*
X22644851Y36830472D01*
X22478255Y36881008D01*
X22305001Y36898072D01*
X21654999Y36898072D01*
X21481745Y36881008D01*
X21315149Y36830472D01*
X21161613Y36748405D01*
X21027038Y36637962D01*
X21021658Y36631406D01*
X20956185Y36711185D01*
X20859494Y36790537D01*
X20749180Y36849502D01*
X20629482Y36885812D01*
X20505000Y36898072D01*
X20215750Y36895000D01*
X20057000Y36736250D01*
X20057000Y35687000D01*
X20077000Y35687000D01*
X20077000Y35433000D01*
X20057000Y35433000D01*
X20057000Y34383750D01*
X20215750Y34225000D01*
X20505000Y34221928D01*
X20629482Y34234188D01*
X20749180Y34270498D01*
X20859494Y34329463D01*
X20956185Y34408815D01*
X21021658Y34488594D01*
X21027038Y34482038D01*
X21145001Y34385228D01*
X21145000Y32463019D01*
X21140960Y32422000D01*
X21145000Y32380982D01*
X21157082Y32258312D01*
X21204828Y32100914D01*
X21282364Y31955855D01*
X21386709Y31828709D01*
X21418579Y31802554D01*
X24103392Y29117741D01*
X24041757Y29136437D01*
X23967036Y29159108D01*
X23967014Y29159110D01*
X23966988Y29159118D01*
X23881576Y29167530D01*
X23803349Y29175240D01*
X23803324Y29175238D01*
X23803300Y29175240D01*
X23715574Y29166600D01*
X23639661Y29159127D01*
X23639641Y29159121D01*
X23639612Y29159118D01*
X23555061Y29133470D01*
X23482260Y29111391D01*
X23482238Y29111379D01*
X23482214Y29111372D01*
X23409932Y29072736D01*
X23337196Y29033863D01*
X23337176Y29033847D01*
X23337156Y29033836D01*
X23265950Y28975400D01*
X23260588Y28971000D01*
X21478218Y28971000D01*
X21437200Y28975040D01*
X21396182Y28971000D01*
X21396181Y28971000D01*
X21273511Y28958918D01*
X21170556Y28927687D01*
X21116113Y28911172D01*
X20971054Y28833636D01*
X20892780Y28769398D01*
X20843909Y28729291D01*
X20817763Y28697432D01*
X10735333Y18615000D01*
X9474500Y18615000D01*
X9474500Y18682639D01*
X9434726Y18882598D01*
X9356705Y19070956D01*
X9243437Y19240474D01*
X9099274Y19384637D01*
X8929756Y19497905D01*
X8741398Y19575926D01*
X8541439Y19615700D01*
X8337561Y19615700D01*
X8137602Y19575926D01*
X7949244Y19497905D01*
X7779726Y19384637D01*
X7660089Y19265000D01*
X6456167Y19265000D01*
X7531727Y20340559D01*
X7563591Y20366709D01*
X7667936Y20493854D01*
X7745472Y20638913D01*
X7793218Y20796311D01*
X7805300Y20918981D01*
X7805300Y20918991D01*
X7809339Y20959999D01*
X7805300Y21001007D01*
X7805300Y33494700D01*
X15833982Y33494700D01*
X15875000Y33490660D01*
X16038689Y33506782D01*
X16196087Y33554528D01*
X16341146Y33632064D01*
X16468291Y33736409D01*
X16572636Y33863554D01*
X16650172Y34008613D01*
X16687240Y34130809D01*
X16719180Y34140498D01*
X16829494Y34199463D01*
X16926185Y34278815D01*
X16986146Y34351877D01*
X17038989Y34357082D01*
X17179413Y34399679D01*
X17221444Y34371595D01*
X17409802Y34293574D01*
X17609761Y34253800D01*
X17813639Y34253800D01*
X18013598Y34293574D01*
X18201956Y34371595D01*
X18371474Y34484863D01*
X18515637Y34629026D01*
X18628905Y34798544D01*
X18706926Y34986902D01*
X18718293Y35044048D01*
X18716928Y34860000D01*
X18729188Y34735518D01*
X18765498Y34615820D01*
X18824463Y34505506D01*
X18903815Y34408815D01*
X19000506Y34329463D01*
X19110820Y34270498D01*
X19230518Y34234188D01*
X19355000Y34221928D01*
X19644250Y34225000D01*
X19803000Y34383750D01*
X19803000Y35433000D01*
X18878750Y35433000D01*
X18746700Y35300950D01*
X18746700Y35390739D01*
X18706926Y35590698D01*
X18628905Y35779056D01*
X18515637Y35948574D01*
X18371474Y36092737D01*
X18201956Y36206005D01*
X18071602Y36260000D01*
X18716928Y36260000D01*
X18720000Y35845750D01*
X18878750Y35687000D01*
X19803000Y35687000D01*
X19803000Y36736250D01*
X19644250Y36895000D01*
X19355000Y36898072D01*
X19230518Y36885812D01*
X19110820Y36849502D01*
X19000506Y36790537D01*
X18903815Y36711185D01*
X18824463Y36614494D01*
X18765498Y36504180D01*
X18729188Y36384482D01*
X18716928Y36260000D01*
X18071602Y36260000D01*
X18013598Y36284026D01*
X17813639Y36323800D01*
X17609761Y36323800D01*
X17409802Y36284026D01*
X17221444Y36206005D01*
X17098415Y36123800D01*
X17025107Y36123800D01*
X16984099Y36127839D01*
X16943091Y36123800D01*
X16943081Y36123800D01*
X16881633Y36117748D01*
X16829494Y36160537D01*
X16719180Y36219502D01*
X16599482Y36255812D01*
X16475000Y36268072D01*
X15275000Y36268072D01*
X15150518Y36255812D01*
X15030820Y36219502D01*
X14920506Y36160537D01*
X14823815Y36081185D01*
X14744463Y35984494D01*
X14685498Y35874180D01*
X14649188Y35754482D01*
X14636928Y35630000D01*
X14636928Y35164700D01*
X7316169Y35164700D01*
X6993072Y35487796D01*
X6993072Y37095001D01*
X6976008Y37268255D01*
X6925472Y37434851D01*
X6843405Y37588387D01*
X6732962Y37722962D01*
X6598387Y37833405D01*
X6444851Y37915472D01*
X6278255Y37966008D01*
X6105001Y37983072D01*
X4054999Y37983072D01*
X3881745Y37966008D01*
X3715149Y37915472D01*
X3561613Y37833405D01*
X3427038Y37722962D01*
X3316595Y37588387D01*
X3234528Y37434851D01*
X3183992Y37268255D01*
X3166928Y37095001D01*
X3166928Y35344999D01*
X3183992Y35171745D01*
X3234528Y35005149D01*
X3316595Y34851613D01*
X3427038Y34717038D01*
X3561613Y34606595D01*
X3715149Y34524528D01*
X3881745Y34473992D01*
X4054999Y34456928D01*
X5662204Y34456928D01*
X6135300Y33983831D01*
X6135300Y31582390D01*
X5365750Y31580000D01*
X5207000Y31421250D01*
X5207000Y29947000D01*
X5227000Y29947000D01*
X5227000Y29693000D01*
X5207000Y29693000D01*
X5207000Y28218750D01*
X5365750Y28060000D01*
X6135300Y28057610D01*
X6135301Y21305869D01*
X5223935Y20394502D01*
X5166252Y20394502D01*
X5325000Y20553250D01*
X5328072Y20980000D01*
X5315812Y21104482D01*
X5279502Y21224180D01*
X5220537Y21334494D01*
X5141185Y21431185D01*
X5044494Y21510537D01*
X4934180Y21569502D01*
X4814482Y21605812D01*
X4690000Y21618072D01*
X4200750Y21615000D01*
X4042000Y21456250D01*
X4042000Y20394500D01*
X4062000Y20394500D01*
X4062000Y20140500D01*
X4042000Y20140500D01*
X4042000Y20120500D01*
X3788000Y20120500D01*
X3788000Y20140500D01*
X3768000Y20140500D01*
X3768000Y20394500D01*
X3788000Y20394500D01*
X3788000Y21456250D01*
X3629250Y21615000D01*
X3140000Y21618072D01*
X3015518Y21605812D01*
X2895820Y21569502D01*
X2785506Y21510537D01*
X2688815Y21431185D01*
X2609463Y21334494D01*
X2581405Y21282002D01*
X2466252Y21282002D01*
X2625000Y21440750D01*
X2628072Y21980000D01*
X2615812Y22104482D01*
X2579502Y22224180D01*
X2520537Y22334494D01*
X2441185Y22431185D01*
X2344494Y22510537D01*
X2234180Y22569502D01*
X2114482Y22605812D01*
X1990000Y22618072D01*
X1625750Y22615000D01*
X1467000Y22456250D01*
X1213000Y22456250D01*
X1054250Y22615000D01*
X690000Y22618072D01*
X660000Y22615117D01*
X660000Y28695000D01*
X3166928Y28695000D01*
X3179188Y28570518D01*
X3215498Y28450820D01*
X3274463Y28340506D01*
X3353815Y28243815D01*
X3450506Y28164463D01*
X3560820Y28105498D01*
X3680518Y28069188D01*
X3805000Y28056928D01*
X4794250Y28060000D01*
X4953000Y28218750D01*
X4953000Y29693000D01*
X3328750Y29693000D01*
X3170000Y29534250D01*
X3166928Y28695000D01*
X660000Y28695000D01*
X660000Y30945000D01*
X3166928Y30945000D01*
X3170000Y30105750D01*
X3328750Y29947000D01*
X4953000Y29947000D01*
X4953000Y31421250D01*
X4794250Y31580000D01*
X3805000Y31583072D01*
X3680518Y31570812D01*
X3560820Y31534502D01*
X3450506Y31475537D01*
X3353815Y31396185D01*
X3274463Y31299494D01*
X3215498Y31189180D01*
X3179188Y31069482D01*
X3166928Y30945000D01*
X660000Y30945000D01*
X660000Y45468000D01*
X45249928Y45468000D01*
X45253000Y45003750D01*
X45411750Y44845000D01*
X46761000Y44845000D01*
X46761000Y45944250D01*
X47015000Y45944250D01*
X47015000Y44845000D01*
X48364250Y44845000D01*
X48523000Y45003750D01*
X48526072Y45468000D01*
X48513812Y45592482D01*
X48477502Y45712180D01*
X48418537Y45822494D01*
X48339185Y45919185D01*
X48242494Y45998537D01*
X48132180Y46057502D01*
X48012482Y46093812D01*
X47888000Y46106072D01*
X47173750Y46103000D01*
X47015000Y45944250D01*
X46761000Y45944250D01*
X46602250Y46103000D01*
X45888000Y46106072D01*
X45763518Y46093812D01*
X45643820Y46057502D01*
X45533506Y45998537D01*
X45436815Y45919185D01*
X45357463Y45822494D01*
X45298498Y45712180D01*
X45262188Y45592482D01*
X45249928Y45468000D01*
X660000Y45468000D01*
X660000Y47124587D01*
X7934192Y47124587D01*
X8029956Y46860186D01*
X8319571Y46719296D01*
X8631108Y46637616D01*
X8952595Y46618282D01*
X9271675Y46662039D01*
X9576088Y46767205D01*
X9750044Y46860186D01*
X9845808Y47124587D01*
X14434192Y47124587D01*
X14529956Y46860186D01*
X14819571Y46719296D01*
X15131108Y46637616D01*
X15452595Y46618282D01*
X15771675Y46662039D01*
X16076088Y46767205D01*
X16250044Y46860186D01*
X16345808Y47124587D01*
X15390000Y48080395D01*
X14434192Y47124587D01*
X9845808Y47124587D01*
X8890000Y48080395D01*
X7934192Y47124587D01*
X660000Y47124587D01*
X660000Y48197405D01*
X7248282Y48197405D01*
X7292039Y47878325D01*
X7397205Y47573912D01*
X7490186Y47399956D01*
X7754587Y47304192D01*
X8710395Y48260000D01*
X9069605Y48260000D01*
X10025413Y47304192D01*
X10289814Y47399956D01*
X10430704Y47689571D01*
X10512384Y48001108D01*
X10524189Y48197405D01*
X13748282Y48197405D01*
X13792039Y47878325D01*
X13897205Y47573912D01*
X13990186Y47399956D01*
X14254587Y47304192D01*
X15210395Y48260000D01*
X15569605Y48260000D01*
X16525413Y47304192D01*
X16789814Y47399956D01*
X16930704Y47689571D01*
X16958345Y47795000D01*
X38091928Y47795000D01*
X38104188Y47670518D01*
X38140498Y47550820D01*
X38199463Y47440506D01*
X38278815Y47343815D01*
X38375506Y47264463D01*
X38485820Y47205498D01*
X38605518Y47169188D01*
X38730000Y47156928D01*
X39719250Y47160000D01*
X39878000Y47318750D01*
X39878000Y48793000D01*
X40132000Y48793000D01*
X40132000Y47318750D01*
X40290750Y47160000D01*
X41280000Y47156928D01*
X41404482Y47169188D01*
X41524180Y47205498D01*
X41634494Y47264463D01*
X41731185Y47343815D01*
X41810537Y47440506D01*
X41869502Y47550820D01*
X41905812Y47670518D01*
X41918072Y47795000D01*
X57776928Y47795000D01*
X57789188Y47670518D01*
X57825498Y47550820D01*
X57884463Y47440506D01*
X57963815Y47343815D01*
X58060506Y47264463D01*
X58170820Y47205498D01*
X58290518Y47169188D01*
X58415000Y47156928D01*
X59404250Y47160000D01*
X59563000Y47318750D01*
X59563000Y48793000D01*
X59817000Y48793000D01*
X59817000Y47318750D01*
X59975750Y47160000D01*
X60965000Y47156928D01*
X61089482Y47169188D01*
X61209180Y47205498D01*
X61319494Y47264463D01*
X61416185Y47343815D01*
X61495537Y47440506D01*
X61554502Y47550820D01*
X61590812Y47670518D01*
X61603072Y47795000D01*
X61600000Y48634250D01*
X61441250Y48793000D01*
X59817000Y48793000D01*
X59563000Y48793000D01*
X57938750Y48793000D01*
X57780000Y48634250D01*
X57776928Y47795000D01*
X41918072Y47795000D01*
X41915000Y48634250D01*
X41756250Y48793000D01*
X40132000Y48793000D01*
X39878000Y48793000D01*
X38253750Y48793000D01*
X38095000Y48634250D01*
X38091928Y47795000D01*
X16958345Y47795000D01*
X17012384Y48001108D01*
X17031718Y48322595D01*
X16987961Y48641675D01*
X16882795Y48946088D01*
X16789814Y49120044D01*
X16525413Y49215808D01*
X15569605Y48260000D01*
X15210395Y48260000D01*
X14254587Y49215808D01*
X13990186Y49120044D01*
X13849296Y48830429D01*
X13767616Y48518892D01*
X13748282Y48197405D01*
X10524189Y48197405D01*
X10531718Y48322595D01*
X10487961Y48641675D01*
X10382795Y48946088D01*
X10289814Y49120044D01*
X10025413Y49215808D01*
X9069605Y48260000D01*
X8710395Y48260000D01*
X7754587Y49215808D01*
X7490186Y49120044D01*
X7349296Y48830429D01*
X7267616Y48518892D01*
X7248282Y48197405D01*
X660000Y48197405D01*
X660000Y48820394D01*
X1362973Y49523366D01*
X1434002Y49452337D01*
X1718169Y49262463D01*
X2033919Y49131675D01*
X2369117Y49065000D01*
X2710883Y49065000D01*
X3046081Y49131675D01*
X3361831Y49262463D01*
X3560805Y49395413D01*
X7934192Y49395413D01*
X8890000Y48439605D01*
X9845808Y49395413D01*
X14434192Y49395413D01*
X15390000Y48439605D01*
X16345808Y49395413D01*
X16250044Y49659814D01*
X15960429Y49800704D01*
X15648892Y49882384D01*
X15327405Y49901718D01*
X15008325Y49857961D01*
X14703912Y49752795D01*
X14529956Y49659814D01*
X14434192Y49395413D01*
X9845808Y49395413D01*
X9750044Y49659814D01*
X9460429Y49800704D01*
X9148892Y49882384D01*
X8827405Y49901718D01*
X8508325Y49857961D01*
X8203912Y49752795D01*
X8029956Y49659814D01*
X7934192Y49395413D01*
X3560805Y49395413D01*
X3645998Y49452337D01*
X3887663Y49694002D01*
X4077537Y49978169D01*
X4105219Y50045000D01*
X38091928Y50045000D01*
X38095000Y49205750D01*
X38253750Y49047000D01*
X39878000Y49047000D01*
X39878000Y50521250D01*
X40132000Y50521250D01*
X40132000Y49047000D01*
X41756250Y49047000D01*
X41915000Y49205750D01*
X41918072Y50045000D01*
X57776928Y50045000D01*
X57780000Y49205750D01*
X57938750Y49047000D01*
X59563000Y49047000D01*
X59563000Y50521250D01*
X59817000Y50521250D01*
X59817000Y49047000D01*
X61441250Y49047000D01*
X61600000Y49205750D01*
X61603072Y50045000D01*
X61590812Y50169482D01*
X61554502Y50289180D01*
X61495537Y50399494D01*
X61416185Y50496185D01*
X61319494Y50575537D01*
X61209180Y50634502D01*
X61089482Y50670812D01*
X60965000Y50683072D01*
X59975750Y50680000D01*
X59817000Y50521250D01*
X59563000Y50521250D01*
X59404250Y50680000D01*
X58415000Y50683072D01*
X58290518Y50670812D01*
X58170820Y50634502D01*
X58060506Y50575537D01*
X57963815Y50496185D01*
X57884463Y50399494D01*
X57825498Y50289180D01*
X57789188Y50169482D01*
X57776928Y50045000D01*
X41918072Y50045000D01*
X41905812Y50169482D01*
X41869502Y50289180D01*
X41810537Y50399494D01*
X41731185Y50496185D01*
X41634494Y50575537D01*
X41524180Y50634502D01*
X41404482Y50670812D01*
X41280000Y50683072D01*
X40290750Y50680000D01*
X40132000Y50521250D01*
X39878000Y50521250D01*
X39719250Y50680000D01*
X38730000Y50683072D01*
X38605518Y50670812D01*
X38485820Y50634502D01*
X38375506Y50575537D01*
X38278815Y50496185D01*
X38199463Y50399494D01*
X38140498Y50289180D01*
X38104188Y50169482D01*
X38091928Y50045000D01*
X4105219Y50045000D01*
X4208325Y50293919D01*
X4275000Y50629117D01*
X4275000Y50970883D01*
X4208325Y51306081D01*
X4077537Y51621831D01*
X3887663Y51905998D01*
X3816634Y51977027D01*
X4519606Y52680000D01*
X109780394Y52680000D01*
X110483367Y51977027D01*
G37*
X110483367Y51977027D02*
X110412337Y51905998D01*
X110222463Y51621831D01*
X110091675Y51306081D01*
X110025000Y50970883D01*
X110025000Y50629117D01*
X110091675Y50293919D01*
X110222463Y49978169D01*
X110412337Y49694002D01*
X110654002Y49452337D01*
X110938169Y49262463D01*
X111253919Y49131675D01*
X111589117Y49065000D01*
X111930883Y49065000D01*
X112266081Y49131675D01*
X112581831Y49262463D01*
X112865998Y49452337D01*
X112937028Y49523366D01*
X113640000Y48820394D01*
X113640001Y4519607D01*
X112937028Y3816633D01*
X112865998Y3887663D01*
X112581831Y4077537D01*
X112266081Y4208325D01*
X111930883Y4275000D01*
X111589117Y4275000D01*
X111253919Y4208325D01*
X110938169Y4077537D01*
X110654002Y3887663D01*
X110412337Y3645998D01*
X110222463Y3361831D01*
X110091675Y3046081D01*
X110025000Y2710883D01*
X110025000Y2369117D01*
X110091675Y2033919D01*
X110222463Y1718169D01*
X110412337Y1434002D01*
X110483367Y1362972D01*
X109780394Y660000D01*
X4519606Y660000D01*
X3816634Y1362972D01*
X3887663Y1434002D01*
X4077537Y1718169D01*
X4208325Y2033919D01*
X4275000Y2369117D01*
X4275000Y2710883D01*
X4248323Y2845000D01*
X15806928Y2845000D01*
X15819188Y2720518D01*
X15855498Y2600820D01*
X15914463Y2490506D01*
X15993815Y2393815D01*
X16090506Y2314463D01*
X16200820Y2255498D01*
X16320518Y2219188D01*
X16445000Y2206928D01*
X16859250Y2210000D01*
X17018000Y2368750D01*
X17018000Y3293000D01*
X17272000Y3293000D01*
X17272000Y2368750D01*
X17430750Y2210000D01*
X17845000Y2206928D01*
X17969482Y2219188D01*
X18089180Y2255498D01*
X18199494Y2314463D01*
X18296185Y2393815D01*
X18375537Y2490506D01*
X18434502Y2600820D01*
X18470812Y2720518D01*
X18483072Y2845000D01*
X20886928Y2845000D01*
X20899188Y2720518D01*
X20935498Y2600820D01*
X20994463Y2490506D01*
X21073815Y2393815D01*
X21170506Y2314463D01*
X21280820Y2255498D01*
X21400518Y2219188D01*
X21525000Y2206928D01*
X21939250Y2210000D01*
X22098000Y2368750D01*
X22098000Y3293000D01*
X22352000Y3293000D01*
X22352000Y2368750D01*
X22510750Y2210000D01*
X22925000Y2206928D01*
X23049482Y2219188D01*
X23169180Y2255498D01*
X23279494Y2314463D01*
X23376185Y2393815D01*
X23455537Y2490506D01*
X23514502Y2600820D01*
X23550812Y2720518D01*
X23563072Y2845000D01*
X23560000Y3134250D01*
X23401250Y3293000D01*
X22352000Y3293000D01*
X22098000Y3293000D01*
X21048750Y3293000D01*
X20890000Y3134250D01*
X20886928Y2845000D01*
X18483072Y2845000D01*
X18480000Y3134250D01*
X18321250Y3293000D01*
X17272000Y3293000D01*
X17018000Y3293000D01*
X15968750Y3293000D01*
X15810000Y3134250D01*
X15806928Y2845000D01*
X4248323Y2845000D01*
X4208325Y3046081D01*
X4077537Y3361831D01*
X3887663Y3645998D01*
X3645998Y3887663D01*
X3361831Y4077537D01*
X3046081Y4208325D01*
X2710883Y4275000D01*
X2369117Y4275000D01*
X2033919Y4208325D01*
X1718169Y4077537D01*
X1434002Y3887663D01*
X1362973Y3816633D01*
X660000Y4519606D01*
X660000Y12944883D01*
X690000Y12941928D01*
X1054250Y12945000D01*
X1213000Y13103750D01*
X1213000Y14278000D01*
X1193000Y14278000D01*
X1193000Y14532000D01*
X1213000Y14532000D01*
X1213000Y16103000D01*
X1193000Y16103000D01*
X1193000Y16357000D01*
X1213000Y16357000D01*
X1213000Y17206250D01*
X1054250Y17365000D01*
X660000Y17366823D01*
X660000Y17393177D01*
X1054250Y17395000D01*
X1213000Y17553750D01*
X1213000Y18803000D01*
X1193000Y18803000D01*
X1193000Y19057000D01*
X1213000Y19057000D01*
X1213000Y21028000D01*
X1193000Y21028000D01*
X1193000Y21282000D01*
X1213000Y21282000D01*
X1213000Y22456250D01*
X1467000Y22456250D01*
X1467000Y21282000D01*
X1487000Y21282000D01*
X1487000Y21028000D01*
X1467000Y21028000D01*
X1467000Y19057000D01*
X1487000Y19057000D01*
X1487000Y18803000D01*
X1467000Y18803000D01*
X1467000Y17553750D01*
X1625750Y17395000D01*
X2290000Y17391928D01*
X2414482Y17404188D01*
X2534180Y17440498D01*
X2644494Y17499463D01*
X2674937Y17524447D01*
X2681777Y17455000D01*
X2671928Y17355000D01*
X2671928Y17238023D01*
X2644494Y17260537D01*
X2534180Y17319502D01*
X2414482Y17355812D01*
X2290000Y17368072D01*
X1625750Y17365000D01*
X1467000Y17206250D01*
X1467000Y16357000D01*
X1487000Y16357000D01*
X1487000Y16103000D01*
X1467000Y16103000D01*
X1467000Y14532000D01*
X1487000Y14532000D01*
X1487000Y14278000D01*
X1467000Y14278000D01*
X1467000Y13103750D01*
X1625750Y12945000D01*
X1990000Y12941928D01*
X2114482Y12954188D01*
X2234180Y12990498D01*
X2344494Y13049463D01*
X2441185Y13128815D01*
X2520537Y13225506D01*
X2579502Y13335820D01*
X2615812Y13455518D01*
X2628072Y13580000D01*
X2625000Y14119250D01*
X2466252Y14277998D01*
X2581405Y14277998D01*
X2609463Y14225506D01*
X2688815Y14128815D01*
X2785506Y14049463D01*
X2895820Y13990498D01*
X3015518Y13954188D01*
X3140000Y13941928D01*
X3629250Y13945000D01*
X3788000Y14103750D01*
X3788000Y15165500D01*
X4042000Y15165500D01*
X4042000Y14103750D01*
X4200750Y13945000D01*
X4690000Y13941928D01*
X4814482Y13954188D01*
X4934180Y13990498D01*
X5044494Y14049463D01*
X5141185Y14128815D01*
X5220537Y14225506D01*
X5279502Y14335820D01*
X5315812Y14455518D01*
X5328072Y14580000D01*
X5325000Y15006750D01*
X5166250Y15165500D01*
X4042000Y15165500D01*
X3788000Y15165500D01*
X3768000Y15165500D01*
X3768000Y15419500D01*
X3788000Y15419500D01*
X3788000Y15439500D01*
X4042000Y15439500D01*
X4042000Y15419500D01*
X5166250Y15419500D01*
X5325000Y15578250D01*
X5328072Y16005000D01*
X5315812Y16129482D01*
X5315022Y16132086D01*
X5325000Y16223250D01*
X5257032Y16291218D01*
X5220537Y16359494D01*
X5142158Y16455000D01*
X5220537Y16550506D01*
X5279502Y16660820D01*
X5292753Y16704503D01*
X5325000Y16736750D01*
X5317895Y16801666D01*
X5328072Y16905000D01*
X5328072Y16945000D01*
X11040182Y16945000D01*
X11081200Y16940960D01*
X11122218Y16945000D01*
X11122219Y16945000D01*
X11244889Y16957082D01*
X11402287Y17004828D01*
X11547346Y17082364D01*
X11674491Y17186709D01*
X11700646Y17218579D01*
X21244401Y26762332D01*
X21328863Y26635926D01*
X21473026Y26491763D01*
X21604674Y26403799D01*
X21568945Y26286018D01*
X21556685Y26161536D01*
X21568945Y26037054D01*
X21605255Y25917356D01*
X21664220Y25807042D01*
X21743572Y25710351D01*
X22688923Y24765000D01*
X21743572Y23819649D01*
X21664220Y23722958D01*
X21605255Y23612644D01*
X21587088Y23552756D01*
X17523879Y19489546D01*
X17492009Y19463391D01*
X17387665Y19336246D01*
X17387664Y19336245D01*
X17310128Y19191186D01*
X17262382Y19033788D01*
X17246260Y18870100D01*
X17250300Y18829081D01*
X17250301Y12433072D01*
X9810000Y12433072D01*
X9685518Y12420812D01*
X9565820Y12384502D01*
X9455506Y12325537D01*
X9358815Y12246185D01*
X9279463Y12149494D01*
X9220498Y12039180D01*
X9184188Y11919482D01*
X9171928Y11795000D01*
X9171928Y9795000D01*
X9184188Y9670518D01*
X9220498Y9550820D01*
X9279463Y9440506D01*
X9358815Y9343815D01*
X9455506Y9264463D01*
X9565820Y9205498D01*
X9685518Y9169188D01*
X9810000Y9156928D01*
X17250300Y9156928D01*
X17250301Y6756169D01*
X17177204Y6683072D01*
X16694999Y6683072D01*
X16521745Y6666008D01*
X16355149Y6615472D01*
X16201613Y6533405D01*
X16067038Y6422962D01*
X15956595Y6288387D01*
X15874528Y6134851D01*
X15823992Y5968255D01*
X15806928Y5795001D01*
X15806928Y5144999D01*
X15823992Y4971745D01*
X15874528Y4805149D01*
X15956595Y4651613D01*
X16067038Y4517038D01*
X16073594Y4511658D01*
X15993815Y4446185D01*
X15914463Y4349494D01*
X15855498Y4239180D01*
X15819188Y4119482D01*
X15806928Y3995000D01*
X15810000Y3705750D01*
X15968750Y3547000D01*
X17018000Y3547000D01*
X17018000Y3567000D01*
X17272000Y3567000D01*
X17272000Y3547000D01*
X18321250Y3547000D01*
X18480000Y3705750D01*
X18483072Y3995000D01*
X18470812Y4119482D01*
X18434502Y4239180D01*
X18375537Y4349494D01*
X18296185Y4446185D01*
X18216406Y4511658D01*
X18222962Y4517038D01*
X18333405Y4651613D01*
X18415472Y4805149D01*
X18466008Y4971745D01*
X18483072Y5144999D01*
X18483072Y5627204D01*
X18646726Y5790858D01*
X18678591Y5817009D01*
X18782936Y5944154D01*
X18860472Y6089213D01*
X18908218Y6246611D01*
X18920300Y6369281D01*
X18924340Y6410299D01*
X18920300Y6451318D01*
X18920300Y10753981D01*
X18924340Y10795000D01*
X18920300Y10836019D01*
X18920300Y18524233D01*
X21737600Y21341532D01*
X21737601Y13343729D01*
X21733560Y13302700D01*
X21749682Y13139012D01*
X21797428Y12981614D01*
X21797429Y12981613D01*
X21874965Y12836554D01*
X21979310Y12709409D01*
X22011174Y12683259D01*
X22261361Y12433072D01*
X21685000Y12433072D01*
X21560518Y12420812D01*
X21440820Y12384502D01*
X21330506Y12325537D01*
X21233815Y12246185D01*
X21154463Y12149494D01*
X21095498Y12039180D01*
X21059188Y11919482D01*
X21046928Y11795000D01*
X21046928Y9795000D01*
X21059188Y9670518D01*
X21095498Y9550820D01*
X21154463Y9440506D01*
X21233815Y9343815D01*
X21330506Y9264463D01*
X21440820Y9205498D01*
X21560518Y9169188D01*
X21685000Y9156928D01*
X24245300Y9156928D01*
X24245300Y8671168D01*
X22257205Y6683072D01*
X21774999Y6683072D01*
X21601745Y6666008D01*
X21435149Y6615472D01*
X21281613Y6533405D01*
X21147038Y6422962D01*
X21036595Y6288387D01*
X20954528Y6134851D01*
X20903992Y5968255D01*
X20886928Y5795001D01*
X20886928Y5144999D01*
X20903992Y4971745D01*
X20954528Y4805149D01*
X21036595Y4651613D01*
X21147038Y4517038D01*
X21153594Y4511658D01*
X21073815Y4446185D01*
X20994463Y4349494D01*
X20935498Y4239180D01*
X20899188Y4119482D01*
X20886928Y3995000D01*
X20890000Y3705750D01*
X21048750Y3547000D01*
X22098000Y3547000D01*
X22098000Y3567000D01*
X22352000Y3567000D01*
X22352000Y3547000D01*
X23401250Y3547000D01*
X23560000Y3705750D01*
X23563072Y3995000D01*
X23550812Y4119482D01*
X23514502Y4239180D01*
X23455537Y4349494D01*
X23376185Y4446185D01*
X23296406Y4511658D01*
X23302962Y4517038D01*
X23330861Y4551033D01*
X35195000Y4551033D01*
X35195000Y4228967D01*
X35257832Y3913088D01*
X35381082Y3615537D01*
X35560013Y3347748D01*
X35787748Y3120013D01*
X36055537Y2941082D01*
X36353088Y2817832D01*
X36668967Y2755000D01*
X36991033Y2755000D01*
X37306912Y2817832D01*
X37604463Y2941082D01*
X37872252Y3120013D01*
X38099987Y3347748D01*
X38278918Y3615537D01*
X38402168Y3913088D01*
X38465000Y4228967D01*
X38465000Y4551033D01*
X41695000Y4551033D01*
X41695000Y4228967D01*
X41757832Y3913088D01*
X41881082Y3615537D01*
X42060013Y3347748D01*
X42287748Y3120013D01*
X42555537Y2941082D01*
X42853088Y2817832D01*
X43168967Y2755000D01*
X43491033Y2755000D01*
X43806912Y2817832D01*
X44104463Y2941082D01*
X44372252Y3120013D01*
X44599987Y3347748D01*
X44778918Y3615537D01*
X44902168Y3913088D01*
X44965000Y4228967D01*
X44965000Y4551033D01*
X44902168Y4866912D01*
X44778918Y5164463D01*
X44599987Y5432252D01*
X44372252Y5659987D01*
X44104463Y5838918D01*
X43806912Y5962168D01*
X43491033Y6025000D01*
X43168967Y6025000D01*
X42853088Y5962168D01*
X42555537Y5838918D01*
X42287748Y5659987D01*
X42060013Y5432252D01*
X41881082Y5164463D01*
X41757832Y4866912D01*
X41695000Y4551033D01*
X38465000Y4551033D01*
X38402168Y4866912D01*
X38278918Y5164463D01*
X38099987Y5432252D01*
X37872252Y5659987D01*
X37604463Y5838918D01*
X37306912Y5962168D01*
X36991033Y6025000D01*
X36668967Y6025000D01*
X36353088Y5962168D01*
X36055537Y5838918D01*
X35787748Y5659987D01*
X35560013Y5432252D01*
X35381082Y5164463D01*
X35257832Y4866912D01*
X35195000Y4551033D01*
X23330861Y4551033D01*
X23413405Y4651613D01*
X23495472Y4805149D01*
X23546008Y4971745D01*
X23563072Y5144999D01*
X23563072Y5627205D01*
X24437051Y6501184D01*
X49265000Y6501184D01*
X49265000Y6198816D01*
X49323989Y5902257D01*
X49439701Y5622905D01*
X49607688Y5371495D01*
X49821495Y5157688D01*
X50072905Y4989701D01*
X50352257Y4873989D01*
X50648816Y4815000D01*
X50951184Y4815000D01*
X51247743Y4873989D01*
X51527095Y4989701D01*
X51778505Y5157688D01*
X51844944Y5224127D01*
X51850498Y5205820D01*
X51909463Y5095506D01*
X51988815Y4998815D01*
X52085506Y4919463D01*
X52195820Y4860498D01*
X52315518Y4824188D01*
X52440000Y4811928D01*
X53054250Y4815000D01*
X53213000Y4973750D01*
X53213000Y6223000D01*
X53467000Y6223000D01*
X53467000Y4973750D01*
X53625750Y4815000D01*
X54240000Y4811928D01*
X54364482Y4824188D01*
X54484180Y4860498D01*
X54594494Y4919463D01*
X54691185Y4998815D01*
X54770537Y5095506D01*
X54829502Y5205820D01*
X54865812Y5325518D01*
X54878072Y5450000D01*
X59421928Y5450000D01*
X59434188Y5325518D01*
X59470498Y5205820D01*
X59529463Y5095506D01*
X59608815Y4998815D01*
X59705506Y4919463D01*
X59815820Y4860498D01*
X59935518Y4824188D01*
X60060000Y4811928D01*
X60674250Y4815000D01*
X60833000Y4973750D01*
X60833000Y6223000D01*
X59583750Y6223000D01*
X59425000Y6064250D01*
X59421928Y5450000D01*
X54878072Y5450000D01*
X54875000Y6064250D01*
X54716250Y6223000D01*
X53467000Y6223000D01*
X53213000Y6223000D01*
X53193000Y6223000D01*
X53193000Y6477000D01*
X53213000Y6477000D01*
X53213000Y7726250D01*
X53467000Y7726250D01*
X53467000Y6477000D01*
X54716250Y6477000D01*
X54875000Y6635750D01*
X54878072Y7250000D01*
X59421928Y7250000D01*
X59425000Y6635750D01*
X59583750Y6477000D01*
X60833000Y6477000D01*
X60833000Y7726250D01*
X61087000Y7726250D01*
X61087000Y6477000D01*
X61107000Y6477000D01*
X61107000Y6223000D01*
X61087000Y6223000D01*
X61087000Y4973750D01*
X61245750Y4815000D01*
X61860000Y4811928D01*
X61984482Y4824188D01*
X62104180Y4860498D01*
X62214494Y4919463D01*
X62311185Y4998815D01*
X62390537Y5095506D01*
X62449502Y5205820D01*
X62455056Y5224127D01*
X62521495Y5157688D01*
X62772905Y4989701D01*
X63052257Y4873989D01*
X63348816Y4815000D01*
X63651184Y4815000D01*
X63947743Y4873989D01*
X64227095Y4989701D01*
X64478505Y5157688D01*
X64692312Y5371495D01*
X64860299Y5622905D01*
X64976011Y5902257D01*
X65035000Y6198816D01*
X65035000Y6501184D01*
X64976011Y6797743D01*
X64860299Y7077095D01*
X64692312Y7328505D01*
X64478505Y7542312D01*
X64227095Y7710299D01*
X63947743Y7826011D01*
X63651184Y7885000D01*
X63348816Y7885000D01*
X63052257Y7826011D01*
X62772905Y7710299D01*
X62521495Y7542312D01*
X62455056Y7475873D01*
X62449502Y7494180D01*
X62390537Y7604494D01*
X62311185Y7701185D01*
X62214494Y7780537D01*
X62104180Y7839502D01*
X61984482Y7875812D01*
X61860000Y7888072D01*
X61245750Y7885000D01*
X61087000Y7726250D01*
X60833000Y7726250D01*
X60674250Y7885000D01*
X60060000Y7888072D01*
X59935518Y7875812D01*
X59815820Y7839502D01*
X59705506Y7780537D01*
X59608815Y7701185D01*
X59529463Y7604494D01*
X59470498Y7494180D01*
X59434188Y7374482D01*
X59421928Y7250000D01*
X54878072Y7250000D01*
X54865812Y7374482D01*
X54829502Y7494180D01*
X54770537Y7604494D01*
X54691185Y7701185D01*
X54594494Y7780537D01*
X54484180Y7839502D01*
X54364482Y7875812D01*
X54240000Y7888072D01*
X53625750Y7885000D01*
X53467000Y7726250D01*
X53213000Y7726250D01*
X53054250Y7885000D01*
X52440000Y7888072D01*
X52315518Y7875812D01*
X52195820Y7839502D01*
X52085506Y7780537D01*
X51988815Y7701185D01*
X51909463Y7604494D01*
X51850498Y7494180D01*
X51844944Y7475873D01*
X51778505Y7542312D01*
X51527095Y7710299D01*
X51247743Y7826011D01*
X50951184Y7885000D01*
X50648816Y7885000D01*
X50352257Y7826011D01*
X50072905Y7710299D01*
X49821495Y7542312D01*
X49607688Y7328505D01*
X49439701Y7077095D01*
X49323989Y6797743D01*
X49265000Y6501184D01*
X24437051Y6501184D01*
X25641728Y7705860D01*
X25673591Y7732009D01*
X25692120Y7754587D01*
X35874192Y7754587D01*
X35969956Y7490186D01*
X36259571Y7349296D01*
X36571108Y7267616D01*
X36892595Y7248282D01*
X37211675Y7292039D01*
X37516088Y7397205D01*
X37690044Y7490186D01*
X37785808Y7754587D01*
X42374192Y7754587D01*
X42469956Y7490186D01*
X42759571Y7349296D01*
X43071108Y7267616D01*
X43392595Y7248282D01*
X43711675Y7292039D01*
X44016088Y7397205D01*
X44190044Y7490186D01*
X44285808Y7754587D01*
X43330000Y8710395D01*
X42374192Y7754587D01*
X37785808Y7754587D01*
X36830000Y8710395D01*
X35874192Y7754587D01*
X25692120Y7754587D01*
X25777936Y7859154D01*
X25855472Y8004213D01*
X25903218Y8161611D01*
X25915300Y8284281D01*
X25915300Y8284282D01*
X25919340Y8325300D01*
X25915300Y8366318D01*
X25915300Y8827405D01*
X35188282Y8827405D01*
X35232039Y8508325D01*
X35337205Y8203912D01*
X35430186Y8029956D01*
X35694587Y7934192D01*
X36650395Y8890000D01*
X37009605Y8890000D01*
X37965413Y7934192D01*
X38229814Y8029956D01*
X38370704Y8319571D01*
X38452384Y8631108D01*
X38464189Y8827405D01*
X41688282Y8827405D01*
X41732039Y8508325D01*
X41837205Y8203912D01*
X41930186Y8029956D01*
X42194587Y7934192D01*
X43150395Y8890000D01*
X43509605Y8890000D01*
X44465413Y7934192D01*
X44729814Y8029956D01*
X44870704Y8319571D01*
X44952384Y8631108D01*
X44971718Y8952595D01*
X44927961Y9271675D01*
X44822795Y9576088D01*
X44729814Y9750044D01*
X44465413Y9845808D01*
X43509605Y8890000D01*
X43150395Y8890000D01*
X42194587Y9845808D01*
X41930186Y9750044D01*
X41789296Y9460429D01*
X41707616Y9148892D01*
X41688282Y8827405D01*
X38464189Y8827405D01*
X38471718Y8952595D01*
X38427961Y9271675D01*
X38322795Y9576088D01*
X38229814Y9750044D01*
X37965413Y9845808D01*
X37009605Y8890000D01*
X36650395Y8890000D01*
X35694587Y9845808D01*
X35430186Y9750044D01*
X35289296Y9460429D01*
X35207616Y9148892D01*
X35188282Y8827405D01*
X25915300Y8827405D01*
X25915300Y9156928D01*
X29560000Y9156928D01*
X29684482Y9169188D01*
X29804180Y9205498D01*
X29914494Y9264463D01*
X30011185Y9343815D01*
X30090537Y9440506D01*
X30149502Y9550820D01*
X30185812Y9670518D01*
X30198072Y9795000D01*
X30198072Y10025413D01*
X35874192Y10025413D01*
X36830000Y9069605D01*
X37785808Y10025413D01*
X42374192Y10025413D01*
X43330000Y9069605D01*
X44285808Y10025413D01*
X44190044Y10289814D01*
X43900429Y10430704D01*
X43588892Y10512384D01*
X43267405Y10531718D01*
X42948325Y10487961D01*
X42643912Y10382795D01*
X42469956Y10289814D01*
X42374192Y10025413D01*
X37785808Y10025413D01*
X37690044Y10289814D01*
X37400429Y10430704D01*
X37088892Y10512384D01*
X36767405Y10531718D01*
X36448325Y10487961D01*
X36143912Y10382795D01*
X35969956Y10289814D01*
X35874192Y10025413D01*
X30198072Y10025413D01*
X30198072Y11795000D01*
X30185812Y11919482D01*
X30149502Y12039180D01*
X30090537Y12149494D01*
X30011185Y12246185D01*
X29914494Y12325537D01*
X29804180Y12384502D01*
X29684482Y12420812D01*
X29560000Y12433072D01*
X24623096Y12433072D01*
X23407600Y13648567D01*
X23407600Y20408729D01*
X29608859Y14207373D01*
X29635009Y14175509D01*
X29762154Y14071164D01*
X29907213Y13993628D01*
X30064611Y13945882D01*
X30176584Y13934854D01*
X30228293Y13929760D01*
X30269314Y13933800D01*
X47841582Y13933800D01*
X47882600Y13929760D01*
X47923618Y13933800D01*
X47923619Y13933800D01*
X48046289Y13945882D01*
X48203687Y13993628D01*
X48348746Y14071164D01*
X48475891Y14175509D01*
X48502046Y14207379D01*
X48821421Y14526754D01*
X48847339Y14548024D01*
X48959999Y14536928D01*
X49610001Y14536928D01*
X49783255Y14553992D01*
X49949851Y14604528D01*
X50103387Y14686595D01*
X50237962Y14797038D01*
X50348405Y14931613D01*
X50430472Y15085149D01*
X50481008Y15251745D01*
X50498072Y15424999D01*
X50498072Y15953756D01*
X50541772Y16035513D01*
X50589518Y16192911D01*
X50601600Y16315581D01*
X50601600Y16315583D01*
X50605640Y16356599D01*
X50601600Y16397615D01*
X50601600Y18368400D01*
X59896182Y18368400D01*
X59937200Y18364360D01*
X59978218Y18368400D01*
X59978219Y18368400D01*
X60100889Y18380482D01*
X60258287Y18428228D01*
X60403346Y18505764D01*
X60530491Y18610109D01*
X60556646Y18641979D01*
X60886421Y18971754D01*
X60900441Y18983260D01*
X61064250Y18985000D01*
X61223000Y19143750D01*
X61223000Y20193000D01*
X61477000Y20193000D01*
X61477000Y19143750D01*
X61635750Y18985000D01*
X61925000Y18981928D01*
X62049482Y18994188D01*
X62169180Y19030498D01*
X62279494Y19089463D01*
X62376185Y19168815D01*
X62455537Y19265506D01*
X62514502Y19375820D01*
X62550812Y19495518D01*
X62563072Y19620000D01*
X62560000Y20034250D01*
X62401250Y20193000D01*
X61477000Y20193000D01*
X61223000Y20193000D01*
X61203000Y20193000D01*
X61203000Y20447000D01*
X61223000Y20447000D01*
X61223000Y21496250D01*
X61477000Y21496250D01*
X61477000Y20447000D01*
X62401250Y20447000D01*
X62560000Y20605750D01*
X62563072Y21020000D01*
X62550812Y21144482D01*
X62514502Y21264180D01*
X62455537Y21374494D01*
X62376185Y21471185D01*
X62279494Y21550537D01*
X62169180Y21609502D01*
X62049482Y21645812D01*
X61925000Y21658072D01*
X61635750Y21655000D01*
X61477000Y21496250D01*
X61223000Y21496250D01*
X61160000Y21559250D01*
X61160000Y23844293D01*
X61164039Y23885301D01*
X61160000Y23926309D01*
X61160000Y23926319D01*
X61147918Y24048989D01*
X61100172Y24206387D01*
X61022636Y24351446D01*
X60918291Y24478591D01*
X60886428Y24504740D01*
X59555067Y25836100D01*
X60262333Y26543364D01*
X60294191Y26569509D01*
X60321463Y26602739D01*
X60398536Y26696654D01*
X60476072Y26841713D01*
X60483682Y26866801D01*
X60523818Y26999111D01*
X60535900Y27121781D01*
X60535900Y27121782D01*
X60539940Y27162800D01*
X60535900Y27203818D01*
X60535900Y29809482D01*
X60539940Y29850501D01*
X60523818Y30014189D01*
X60476072Y30171587D01*
X60398536Y30316646D01*
X60385606Y30332401D01*
X60294191Y30443791D01*
X60262327Y30469941D01*
X59672002Y31060266D01*
X59672002Y31208748D01*
X59830750Y31050000D01*
X60120000Y31046928D01*
X60244482Y31059188D01*
X60364180Y31095498D01*
X60474494Y31154463D01*
X60571185Y31233815D01*
X60636658Y31313594D01*
X60642038Y31307038D01*
X60776613Y31196595D01*
X60930149Y31114528D01*
X61096745Y31063992D01*
X61269999Y31046928D01*
X61752204Y31046928D01*
X61877401Y30921731D01*
X61877400Y29749971D01*
X61828613Y29735172D01*
X61683554Y29657636D01*
X61556409Y29553291D01*
X61452064Y29426146D01*
X61374528Y29281087D01*
X61326782Y29123689D01*
X61310660Y28960000D01*
X61314701Y28918971D01*
X61314700Y23801019D01*
X61310660Y23760000D01*
X61326782Y23596311D01*
X61374528Y23438913D01*
X61452064Y23293854D01*
X61545086Y23180506D01*
X61556409Y23166709D01*
X61683554Y23062364D01*
X61828613Y22984828D01*
X61911928Y22959555D01*
X61911928Y22885000D01*
X61924188Y22760518D01*
X61960498Y22640820D01*
X62019463Y22530506D01*
X62098815Y22433815D01*
X62195506Y22354463D01*
X62305820Y22295498D01*
X62425518Y22259188D01*
X62550000Y22246928D01*
X64000000Y22246928D01*
X64124482Y22259188D01*
X64244180Y22295498D01*
X64354494Y22354463D01*
X64451185Y22433815D01*
X64530537Y22530506D01*
X64589502Y22640820D01*
X64625812Y22760518D01*
X64638072Y22885000D01*
X64638072Y23335000D01*
X64628223Y23435000D01*
X64638072Y23535000D01*
X64638072Y23985000D01*
X64628223Y24085000D01*
X64638072Y24185000D01*
X64638072Y24208061D01*
X65277558Y23568574D01*
X65303709Y23536709D01*
X65397811Y23459482D01*
X65430854Y23432364D01*
X65575913Y23354828D01*
X65733311Y23307082D01*
X65896999Y23290960D01*
X65938018Y23295000D01*
X78568567Y23295000D01*
X78511400Y23007599D01*
X78511400Y22712401D01*
X78568990Y22422875D01*
X78681958Y22150147D01*
X78845961Y21904698D01*
X79054698Y21695961D01*
X79213281Y21590000D01*
X79054698Y21484039D01*
X78845961Y21275302D01*
X78681958Y21029853D01*
X78568990Y20757125D01*
X78511400Y20467599D01*
X78511400Y20172401D01*
X78568990Y19882875D01*
X78681958Y19610147D01*
X78845961Y19364698D01*
X79054698Y19155961D01*
X79300147Y18991958D01*
X79572875Y18878990D01*
X79862401Y18821400D01*
X80157599Y18821400D01*
X80447125Y18878990D01*
X80719853Y18991958D01*
X80965302Y19155961D01*
X81174039Y19364698D01*
X81281692Y19525813D01*
X81443146Y19309707D01*
X81661512Y19113183D01*
X81914022Y18963036D01*
X82190973Y18865037D01*
X82423000Y18985536D01*
X82423000Y20193000D01*
X82677000Y20193000D01*
X82677000Y18985536D01*
X82909027Y18865037D01*
X83185978Y18963036D01*
X83438488Y19113183D01*
X83656854Y19309707D01*
X83832684Y19545056D01*
X83959222Y19810186D01*
X84004958Y19960974D01*
X83883817Y20193000D01*
X82677000Y20193000D01*
X82423000Y20193000D01*
X82403000Y20193000D01*
X82403000Y20447000D01*
X82423000Y20447000D01*
X82423000Y20467000D01*
X82677000Y20467000D01*
X82677000Y20447000D01*
X83883817Y20447000D01*
X84004958Y20679026D01*
X83959222Y20829814D01*
X83832684Y21094944D01*
X83656854Y21330293D01*
X83438488Y21526817D01*
X83339897Y21585441D01*
X83505302Y21695961D01*
X83714039Y21904698D01*
X83878042Y22150147D01*
X83991010Y22422875D01*
X84048600Y22712401D01*
X84048600Y23007599D01*
X83991433Y23295000D01*
X88230082Y23295000D01*
X88271100Y23290960D01*
X88312118Y23295000D01*
X88312119Y23295000D01*
X88434789Y23307082D01*
X88592187Y23354828D01*
X88737246Y23432364D01*
X88864391Y23536709D01*
X88890546Y23568579D01*
X89703813Y24381846D01*
X89849698Y24235961D01*
X90095147Y24071958D01*
X90367875Y23958990D01*
X90657401Y23901400D01*
X90952599Y23901400D01*
X91242125Y23958990D01*
X91514853Y24071958D01*
X91760302Y24235961D01*
X91969039Y24444698D01*
X92076692Y24605813D01*
X92238146Y24389707D01*
X92456512Y24193183D01*
X92709022Y24043036D01*
X92985973Y23945037D01*
X93218000Y24065536D01*
X93218000Y25273000D01*
X93472000Y25273000D01*
X93472000Y24065536D01*
X93704027Y23945037D01*
X93980978Y24043036D01*
X94233488Y24193183D01*
X94451854Y24389707D01*
X94627684Y24625056D01*
X94754222Y24890186D01*
X94799958Y25040974D01*
X94678817Y25273000D01*
X93472000Y25273000D01*
X93218000Y25273000D01*
X93198000Y25273000D01*
X93198000Y25527000D01*
X93218000Y25527000D01*
X93218000Y25547000D01*
X93472000Y25547000D01*
X93472000Y25527000D01*
X94678817Y25527000D01*
X94799958Y25759026D01*
X94776914Y25835000D01*
X98720233Y25835000D01*
X99716658Y24838574D01*
X99742809Y24806709D01*
X99869954Y24702364D01*
X100015013Y24624828D01*
X100172411Y24577082D01*
X100295081Y24565000D01*
X100295083Y24565000D01*
X100336099Y24560960D01*
X100356908Y24563010D01*
X100435961Y24444698D01*
X100644698Y24235961D01*
X100890147Y24071958D01*
X101162875Y23958990D01*
X101452401Y23901400D01*
X101747599Y23901400D01*
X102037125Y23958990D01*
X102309853Y24071958D01*
X102555302Y24235961D01*
X102764039Y24444698D01*
X102871692Y24605813D01*
X103033146Y24389707D01*
X103251512Y24193183D01*
X103504022Y24043036D01*
X103780973Y23945037D01*
X104013000Y24065536D01*
X104013000Y25273000D01*
X104267000Y25273000D01*
X104267000Y24065536D01*
X104499027Y23945037D01*
X104775978Y24043036D01*
X105028488Y24193183D01*
X105246854Y24389707D01*
X105422684Y24625056D01*
X105549222Y24890186D01*
X105594958Y25040974D01*
X105473817Y25273000D01*
X104267000Y25273000D01*
X104013000Y25273000D01*
X103993000Y25273000D01*
X103993000Y25527000D01*
X104013000Y25527000D01*
X104013000Y25547000D01*
X104267000Y25547000D01*
X104267000Y25527000D01*
X105473817Y25527000D01*
X105594958Y25759026D01*
X105549222Y25909814D01*
X105422684Y26174944D01*
X105246854Y26410293D01*
X105028488Y26606817D01*
X104929897Y26665441D01*
X105095302Y26775961D01*
X105304039Y26984698D01*
X105468042Y27230147D01*
X105581010Y27502875D01*
X105638600Y27792401D01*
X105638600Y28087599D01*
X105581010Y28377125D01*
X105468042Y28649853D01*
X105304039Y28895302D01*
X105095302Y29104039D01*
X104936719Y29210000D01*
X105095302Y29315961D01*
X105304039Y29524698D01*
X105468042Y29770147D01*
X105581010Y30042875D01*
X105638600Y30332401D01*
X105638600Y30627599D01*
X105581010Y30917125D01*
X105468042Y31189853D01*
X105304039Y31435302D01*
X105095302Y31644039D01*
X104849853Y31808042D01*
X104577125Y31921010D01*
X104287599Y31978600D01*
X103992401Y31978600D01*
X103702875Y31921010D01*
X103430147Y31808042D01*
X103184698Y31644039D01*
X103070636Y31529977D01*
X103053102Y31587780D01*
X102994137Y31698094D01*
X102914785Y31794785D01*
X102818094Y31874137D01*
X102707780Y31933102D01*
X102588082Y31969412D01*
X102463600Y31981672D01*
X100736400Y31981672D01*
X100611918Y31969412D01*
X100492220Y31933102D01*
X100381906Y31874137D01*
X100285215Y31794785D01*
X100247788Y31749180D01*
X99691645Y32305322D01*
X99665491Y32337191D01*
X99538346Y32441536D01*
X99393287Y32519072D01*
X99235889Y32566818D01*
X99113219Y32578900D01*
X99113218Y32578900D01*
X99072200Y32582940D01*
X99031182Y32578900D01*
X92820807Y32578900D01*
X92779799Y32582939D01*
X92738791Y32578900D01*
X92738781Y32578900D01*
X92616111Y32566818D01*
X92458713Y32519072D01*
X92313654Y32441536D01*
X92186509Y32337191D01*
X92160358Y32305326D01*
X91817145Y31962113D01*
X91793082Y31969412D01*
X91668600Y31981672D01*
X89941400Y31981672D01*
X89816918Y31969412D01*
X89697220Y31933102D01*
X89586906Y31874137D01*
X89490215Y31794785D01*
X89410863Y31698094D01*
X89351898Y31587780D01*
X89315588Y31468082D01*
X89303328Y31343600D01*
X89303328Y29616400D01*
X89315588Y29491918D01*
X89351898Y29372220D01*
X89410863Y29261906D01*
X89490215Y29165215D01*
X89586906Y29085863D01*
X89697220Y29026898D01*
X89755023Y29009364D01*
X89640961Y28895302D01*
X89476958Y28649853D01*
X89363990Y28377125D01*
X89306400Y28087599D01*
X89306400Y27792401D01*
X89363567Y27505000D01*
X83991433Y27505000D01*
X84048600Y27792401D01*
X84048600Y28087599D01*
X83991010Y28377125D01*
X83878042Y28649853D01*
X83714039Y28895302D01*
X83505302Y29104039D01*
X83346719Y29210000D01*
X83505302Y29315961D01*
X83714039Y29524698D01*
X83878042Y29770147D01*
X83991010Y30042875D01*
X84048600Y30332401D01*
X84048600Y30627599D01*
X83991010Y30917125D01*
X83878042Y31189853D01*
X83714039Y31435302D01*
X83505302Y31644039D01*
X83259853Y31808042D01*
X82987125Y31921010D01*
X82697599Y31978600D01*
X82402401Y31978600D01*
X82112875Y31921010D01*
X81840147Y31808042D01*
X81594698Y31644039D01*
X81480636Y31529977D01*
X81463102Y31587780D01*
X81404137Y31698094D01*
X81324785Y31794785D01*
X81228094Y31874137D01*
X81117780Y31933102D01*
X80998082Y31969412D01*
X80873600Y31981672D01*
X79146400Y31981672D01*
X79021918Y31969412D01*
X78902220Y31933102D01*
X78791906Y31874137D01*
X78695215Y31794785D01*
X78615863Y31698094D01*
X78556898Y31587780D01*
X78520588Y31468082D01*
X78508328Y31343600D01*
X78508328Y31280445D01*
X78425013Y31255172D01*
X78279954Y31177636D01*
X78152809Y31073291D01*
X78126659Y31041427D01*
X75024233Y27939000D01*
X69564351Y27939000D01*
X69589905Y27977244D01*
X69667926Y28165602D01*
X69707700Y28365561D01*
X69707700Y28569439D01*
X69667926Y28769398D01*
X69589905Y28957756D01*
X69476637Y29127274D01*
X69332474Y29271437D01*
X69162956Y29384705D01*
X68974598Y29462726D01*
X68774639Y29502500D01*
X68570761Y29502500D01*
X68370802Y29462726D01*
X68182444Y29384705D01*
X68059415Y29302500D01*
X65030718Y29302500D01*
X64989700Y29306540D01*
X64948682Y29302500D01*
X64948681Y29302500D01*
X64826011Y29290418D01*
X64668613Y29242672D01*
X64634203Y29224280D01*
X64625812Y29309482D01*
X64589502Y29429180D01*
X64530537Y29539494D01*
X64451185Y29636185D01*
X64354494Y29715537D01*
X64244180Y29774502D01*
X64124482Y29810812D01*
X64000000Y29823072D01*
X63547400Y29823072D01*
X63547400Y30432600D01*
X65884582Y30432600D01*
X65925600Y30428560D01*
X65966618Y30432600D01*
X65966619Y30432600D01*
X66089289Y30444682D01*
X66246687Y30492428D01*
X66391746Y30569964D01*
X66518891Y30674309D01*
X66545046Y30706179D01*
X75621827Y39782959D01*
X75653691Y39809109D01*
X75758036Y39936254D01*
X75835572Y40081313D01*
X75883318Y40238711D01*
X75887511Y40281287D01*
X75888360Y40289900D01*
X89959182Y40289900D01*
X90000200Y40285860D01*
X90041218Y40289900D01*
X90041219Y40289900D01*
X90163889Y40301982D01*
X90321287Y40349728D01*
X90466346Y40427264D01*
X90593491Y40531609D01*
X90619646Y40563479D01*
X90731421Y40675254D01*
X90763291Y40701409D01*
X90867636Y40828554D01*
X90945172Y40973613D01*
X90970445Y41056928D01*
X91020000Y41056928D01*
X91144482Y41069188D01*
X91264180Y41105498D01*
X91374494Y41164463D01*
X91471185Y41243815D01*
X91550537Y41340506D01*
X91609502Y41450820D01*
X91631513Y41523380D01*
X91763368Y41391525D01*
X92006589Y41229010D01*
X92276842Y41117068D01*
X92563740Y41060000D01*
X92856260Y41060000D01*
X93143158Y41117068D01*
X93413411Y41229010D01*
X93656632Y41391525D01*
X93863475Y41598368D01*
X93980000Y41772760D01*
X94096525Y41598368D01*
X94303368Y41391525D01*
X94546589Y41229010D01*
X94816842Y41117068D01*
X95103740Y41060000D01*
X95396260Y41060000D01*
X95683158Y41117068D01*
X95953411Y41229010D01*
X96196632Y41391525D01*
X96403475Y41598368D01*
X96565990Y41841589D01*
X96677932Y42111842D01*
X96735000Y42398740D01*
X96735000Y42691260D01*
X96677932Y42978158D01*
X96565990Y43248411D01*
X96403475Y43491632D01*
X96196632Y43698475D01*
X95953411Y43860990D01*
X95683158Y43972932D01*
X95396260Y44030000D01*
X95103740Y44030000D01*
X94816842Y43972932D01*
X94546589Y43860990D01*
X94303368Y43698475D01*
X94096525Y43491632D01*
X93980000Y43317240D01*
X93863475Y43491632D01*
X93656632Y43698475D01*
X93413411Y43860990D01*
X93143158Y43972932D01*
X92856260Y44030000D01*
X92563740Y44030000D01*
X92276842Y43972932D01*
X92006589Y43860990D01*
X91763368Y43698475D01*
X91631513Y43566620D01*
X91609502Y43639180D01*
X91550537Y43749494D01*
X91471185Y43846185D01*
X91374494Y43925537D01*
X91264180Y43984502D01*
X91144482Y44020812D01*
X91020000Y44033072D01*
X89320000Y44033072D01*
X89195518Y44020812D01*
X89075820Y43984502D01*
X88965506Y43925537D01*
X88868815Y43846185D01*
X88789463Y43749494D01*
X88730498Y43639180D01*
X88694188Y43519482D01*
X88681928Y43395000D01*
X88681928Y41959900D01*
X75406269Y41959900D01*
X74259746Y43106422D01*
X74233591Y43138291D01*
X74106446Y43242636D01*
X73961387Y43320172D01*
X73803989Y43367918D01*
X73681319Y43380000D01*
X73681318Y43380000D01*
X73640300Y43384040D01*
X73616905Y43381736D01*
X73543475Y43491632D01*
X73336632Y43698475D01*
X73162240Y43815000D01*
X73336632Y43931525D01*
X73543475Y44138368D01*
X73705990Y44381589D01*
X73817932Y44651842D01*
X73875000Y44938740D01*
X73875000Y45231260D01*
X73817932Y45518158D01*
X73705990Y45788411D01*
X73543475Y46031632D01*
X73336632Y46238475D01*
X73093411Y46400990D01*
X72823158Y46512932D01*
X72536260Y46570000D01*
X72243740Y46570000D01*
X71956842Y46512932D01*
X71686589Y46400990D01*
X71443368Y46238475D01*
X71236525Y46031632D01*
X71161935Y45920000D01*
X50996318Y45920000D01*
X50955300Y45924040D01*
X50914282Y45920000D01*
X50914281Y45920000D01*
X50791611Y45907918D01*
X50634213Y45860172D01*
X50489154Y45782636D01*
X50362009Y45678291D01*
X50335863Y45646432D01*
X48505478Y43816046D01*
X48513812Y43843518D01*
X48526072Y43968000D01*
X48523000Y44432250D01*
X48364250Y44591000D01*
X47015000Y44591000D01*
X47015000Y44571000D01*
X46761000Y44571000D01*
X46761000Y44591000D01*
X45411750Y44591000D01*
X45253000Y44432250D01*
X45249928Y43968000D01*
X45262188Y43843518D01*
X45298498Y43723820D01*
X45357463Y43613506D01*
X45394809Y43568000D01*
X45357463Y43522494D01*
X45298498Y43412180D01*
X45262188Y43292482D01*
X45258299Y43253000D01*
X41918072Y43253000D01*
X41918072Y43395001D01*
X41901008Y43568255D01*
X41850472Y43734851D01*
X41768405Y43888387D01*
X41657962Y44022962D01*
X41523387Y44133405D01*
X41369851Y44215472D01*
X41203255Y44266008D01*
X41030001Y44283072D01*
X38979999Y44283072D01*
X38806745Y44266008D01*
X38640149Y44215472D01*
X38486613Y44133405D01*
X38352038Y44022962D01*
X38241595Y43888387D01*
X38159528Y43734851D01*
X38108992Y43568255D01*
X38091928Y43395001D01*
X38091928Y41644999D01*
X38108992Y41471745D01*
X38159528Y41305149D01*
X38241595Y41151613D01*
X38352038Y41017038D01*
X38430068Y40953000D01*
X34740368Y40953000D01*
X33318072Y42375295D01*
X33318072Y43170000D01*
X33301008Y43343254D01*
X33250472Y43509850D01*
X33168405Y43663386D01*
X33057962Y43797962D01*
X32923386Y43908405D01*
X32769850Y43990472D01*
X32603254Y44041008D01*
X32430000Y44058072D01*
X31505000Y44058072D01*
X31331746Y44041008D01*
X31165150Y43990472D01*
X31011614Y43908405D01*
X30877038Y43797962D01*
X30766595Y43663386D01*
X30684528Y43509850D01*
X30633992Y43343254D01*
X30616928Y43170000D01*
X30616928Y41920000D01*
X30633992Y41746746D01*
X30684528Y41580150D01*
X30766595Y41426614D01*
X30877038Y41292038D01*
X31011614Y41181595D01*
X31165150Y41099528D01*
X31331746Y41048992D01*
X31505000Y41031928D01*
X32299705Y41031928D01*
X33775059Y39556573D01*
X33801209Y39524709D01*
X33928354Y39420364D01*
X34073413Y39342828D01*
X34230811Y39295082D01*
X34353481Y39283000D01*
X34353491Y39283000D01*
X34394499Y39278961D01*
X34435507Y39283000D01*
X45258299Y39283000D01*
X45262188Y39243518D01*
X45298498Y39123820D01*
X45357463Y39013506D01*
X45436815Y38916815D01*
X45533506Y38837463D01*
X45643820Y38778498D01*
X45763518Y38742188D01*
X45888000Y38729928D01*
X47888000Y38729928D01*
X48012482Y38742188D01*
X48132180Y38778498D01*
X48242494Y38837463D01*
X48339185Y38916815D01*
X48418537Y39013506D01*
X48477502Y39123820D01*
X48513812Y39243518D01*
X48517661Y39282600D01*
X57246582Y39282600D01*
X57287600Y39278560D01*
X57328618Y39282600D01*
X57328619Y39282600D01*
X57451289Y39294682D01*
X57608687Y39342428D01*
X57753746Y39419964D01*
X57880891Y39524309D01*
X57907046Y39556179D01*
X59107796Y40756928D01*
X60715001Y40756928D01*
X60888255Y40773992D01*
X61054851Y40824528D01*
X61208387Y40906595D01*
X61342962Y41017038D01*
X61453405Y41151613D01*
X61535472Y41305149D01*
X61586008Y41471745D01*
X61603072Y41644999D01*
X61603072Y41685000D01*
X68278833Y41685000D01*
X70520259Y39443573D01*
X70546409Y39411709D01*
X70673554Y39307364D01*
X70818613Y39229828D01*
X70901928Y39204555D01*
X70901928Y39155000D01*
X70914188Y39030518D01*
X70950498Y38910820D01*
X71009463Y38800506D01*
X71088815Y38703815D01*
X71185506Y38624463D01*
X71295820Y38565498D01*
X71415518Y38529188D01*
X71540000Y38516928D01*
X71994060Y38516928D01*
X65579733Y32102600D01*
X63058268Y32102600D01*
X62808072Y32352796D01*
X62808072Y32835001D01*
X62791008Y33008255D01*
X62740472Y33174851D01*
X62658405Y33328387D01*
X62547962Y33462962D01*
X62413387Y33573405D01*
X62259851Y33655472D01*
X62093255Y33706008D01*
X61920001Y33723072D01*
X61269999Y33723072D01*
X61096745Y33706008D01*
X60930149Y33655472D01*
X60776613Y33573405D01*
X60642038Y33462962D01*
X60636658Y33456406D01*
X60571185Y33536185D01*
X60474494Y33615537D01*
X60364180Y33674502D01*
X60244482Y33710812D01*
X60120000Y33723072D01*
X59830750Y33720000D01*
X59672000Y33561250D01*
X59672000Y32512000D01*
X59692000Y32512000D01*
X59692000Y32258000D01*
X59672000Y32258000D01*
X59672000Y32238000D01*
X59418000Y32238000D01*
X59418000Y32258000D01*
X59398000Y32258000D01*
X59398000Y32512000D01*
X59418000Y32512000D01*
X59418000Y33561250D01*
X59259250Y33720000D01*
X58970000Y33723072D01*
X58845518Y33710812D01*
X58725820Y33674502D01*
X58615506Y33615537D01*
X58518815Y33536185D01*
X58439463Y33439494D01*
X58380498Y33329180D01*
X58344188Y33209482D01*
X58331928Y33085000D01*
X58335000Y32670750D01*
X58493748Y32512002D01*
X58335000Y32512002D01*
X58335000Y32397268D01*
X55880846Y34851421D01*
X55854691Y34883291D01*
X55727546Y34987636D01*
X55582487Y35065172D01*
X55425089Y35112918D01*
X55302419Y35125000D01*
X55302418Y35125000D01*
X55261400Y35129040D01*
X55220382Y35125000D01*
X50406339Y35125000D01*
X50348405Y35233387D01*
X50237962Y35367962D01*
X50103387Y35478405D01*
X49949851Y35560472D01*
X49783255Y35611008D01*
X49610001Y35628072D01*
X48959999Y35628072D01*
X48786745Y35611008D01*
X48620149Y35560472D01*
X48466613Y35478405D01*
X48332038Y35367962D01*
X48260000Y35280184D01*
X48187962Y35367962D01*
X48053387Y35478405D01*
X47899851Y35560472D01*
X47733255Y35611008D01*
X47560001Y35628072D01*
X47077796Y35628072D01*
X45676946Y37028921D01*
X45650791Y37060791D01*
X45523646Y37165136D01*
X45378587Y37242672D01*
X45221189Y37290418D01*
X45098519Y37302500D01*
X45098518Y37302500D01*
X45057500Y37306540D01*
X45016482Y37302500D01*
X29827500Y37302500D01*
X29827500Y41116980D01*
X29948386Y41181595D01*
X30082962Y41292038D01*
X30193405Y41426614D01*
X30275472Y41580150D01*
X30326008Y41746746D01*
X30343072Y41920000D01*
X30343072Y43170000D01*
X30326008Y43343254D01*
X30275472Y43509850D01*
X30193405Y43663386D01*
X30082962Y43797962D01*
X29948386Y43908405D01*
X29794850Y43990472D01*
X29628254Y44041008D01*
X29455000Y44058072D01*
X28530000Y44058072D01*
X28356746Y44041008D01*
X28190150Y43990472D01*
X28036614Y43908405D01*
X27902038Y43797962D01*
X27791595Y43663386D01*
X27709528Y43509850D01*
X27658992Y43343254D01*
X27641928Y43170000D01*
X27641928Y41920000D01*
X27658992Y41746746D01*
X27709528Y41580150D01*
X27791595Y41426614D01*
X27902038Y41292038D01*
X28036614Y41181595D01*
X28157500Y41116980D01*
X28157501Y36898072D01*
X27759999Y36898072D01*
X27659084Y36888133D01*
X27653291Y36895191D01*
X27621432Y36921337D01*
X25501346Y39041421D01*
X25475191Y39073291D01*
X25348046Y39177636D01*
X25202987Y39255172D01*
X25045589Y39302918D01*
X24922919Y39315000D01*
X24922918Y39315000D01*
X24881900Y39319040D01*
X24840882Y39315000D01*
X16980501Y39315000D01*
X16926185Y39381185D01*
X16829494Y39460537D01*
X16719180Y39519502D01*
X16687240Y39529191D01*
X16650172Y39651387D01*
X16572636Y39796446D01*
X16468291Y39923591D01*
X16436426Y39949742D01*
X16225000Y40161168D01*
X16225000Y42351532D01*
X16432252Y42490013D01*
X16659987Y42717748D01*
X16838918Y42985537D01*
X16962168Y43283088D01*
X17025000Y43598967D01*
X17025000Y43921033D01*
X16962168Y44236912D01*
X16838918Y44534463D01*
X16659987Y44802252D01*
X16432252Y45029987D01*
X16164463Y45208918D01*
X15866912Y45332168D01*
X15551033Y45395000D01*
X15228967Y45395000D01*
X14913088Y45332168D01*
X14615537Y45208918D01*
X14347748Y45029987D01*
X14120013Y44802252D01*
X13981532Y44595000D01*
X10298468Y44595000D01*
X10159987Y44802252D01*
X9932252Y45029987D01*
X9664463Y45208918D01*
X9366912Y45332168D01*
X9051033Y45395000D01*
X8728967Y45395000D01*
X8413088Y45332168D01*
X8115537Y45208918D01*
X7847748Y45029987D01*
X7620013Y44802252D01*
X7441082Y44534463D01*
X7317832Y44236912D01*
X7255000Y43921033D01*
X7255000Y43598967D01*
X7317832Y43283088D01*
X7441082Y42985537D01*
X7620013Y42717748D01*
X7847748Y42490013D01*
X8115537Y42311082D01*
X8413088Y42187832D01*
X8728967Y42125000D01*
X9051033Y42125000D01*
X9366912Y42187832D01*
X9664463Y42311082D01*
X9932252Y42490013D01*
X10159987Y42717748D01*
X10298468Y42925000D01*
X13981532Y42925000D01*
X14120013Y42717748D01*
X14347748Y42490013D01*
X14555000Y42351531D01*
X14555001Y39856328D01*
X14550960Y39815300D01*
X14567082Y39651612D01*
X14614828Y39494214D01*
X14692364Y39349155D01*
X14697885Y39342428D01*
X14744946Y39285083D01*
X14744463Y39284494D01*
X14685498Y39174180D01*
X14649188Y39054482D01*
X14636928Y38930000D01*
X14636928Y38030000D01*
X14649188Y37905518D01*
X14685498Y37785820D01*
X14744463Y37675506D01*
X14823815Y37578815D01*
X14920506Y37499463D01*
X15030820Y37440498D01*
X15150518Y37404188D01*
X15275000Y37391928D01*
X16475000Y37391928D01*
X16599482Y37404188D01*
X16719180Y37440498D01*
X16829494Y37499463D01*
X16926185Y37578815D01*
X16980501Y37645000D01*
X24536033Y37645000D01*
X25304599Y36876433D01*
X25215820Y36849502D01*
X25105506Y36790537D01*
X25008815Y36711185D01*
X24929463Y36614494D01*
X24870498Y36504180D01*
X24834188Y36384482D01*
X24821928Y36260000D01*
X24825000Y35845750D01*
X24983750Y35687000D01*
X25908000Y35687000D01*
X25908000Y35707000D01*
X26162000Y35707000D01*
X26162000Y35687000D01*
X26182000Y35687000D01*
X26182000Y35433000D01*
X26162000Y35433000D01*
X26162000Y34939897D01*
X26147028Y34911886D01*
X26099282Y34754488D01*
X26083160Y34590800D01*
X26087201Y34549772D01*
X26087200Y33531619D01*
X26083160Y33490600D01*
X26087200Y33449582D01*
X26099282Y33326912D01*
X26147028Y33169514D01*
X26224564Y33024455D01*
X26328909Y32897309D01*
X26360779Y32871154D01*
X28577927Y30654004D01*
X27940000Y30016077D01*
X26994649Y30961428D01*
X26897958Y31040780D01*
X26787644Y31099745D01*
X26667946Y31136055D01*
X26543464Y31148315D01*
X26418982Y31136055D01*
X26299284Y31099745D01*
X26188970Y31040780D01*
X26092279Y30961428D01*
X25703370Y30572519D01*
X25624018Y30475828D01*
X25623762Y30475349D01*
X25623285Y30475094D01*
X25526594Y30395742D01*
X25356860Y30226008D01*
X22815000Y32767867D01*
X22815000Y34385229D01*
X22932962Y34482038D01*
X23043405Y34616613D01*
X23125472Y34770149D01*
X23152727Y34860000D01*
X24821928Y34860000D01*
X24834188Y34735518D01*
X24870498Y34615820D01*
X24929463Y34505506D01*
X25008815Y34408815D01*
X25105506Y34329463D01*
X25215820Y34270498D01*
X25335518Y34234188D01*
X25460000Y34221928D01*
X25749250Y34225000D01*
X25908000Y34383750D01*
X25908000Y35433000D01*
X24983750Y35433000D01*
X24825000Y35274250D01*
X24821928Y34860000D01*
X23152727Y34860000D01*
X23176008Y34936745D01*
X23193072Y35109999D01*
X23193072Y36010001D01*
X23176008Y36183255D01*
X23125472Y36349851D01*
X23043405Y36503387D01*
X22932962Y36637962D01*
X22798387Y36748405D01*
X22644851Y36830472D01*
X22478255Y36881008D01*
X22305001Y36898072D01*
X21654999Y36898072D01*
X21481745Y36881008D01*
X21315149Y36830472D01*
X21161613Y36748405D01*
X21027038Y36637962D01*
X21021658Y36631406D01*
X20956185Y36711185D01*
X20859494Y36790537D01*
X20749180Y36849502D01*
X20629482Y36885812D01*
X20505000Y36898072D01*
X20215750Y36895000D01*
X20057000Y36736250D01*
X20057000Y35687000D01*
X20077000Y35687000D01*
X20077000Y35433000D01*
X20057000Y35433000D01*
X20057000Y34383750D01*
X20215750Y34225000D01*
X20505000Y34221928D01*
X20629482Y34234188D01*
X20749180Y34270498D01*
X20859494Y34329463D01*
X20956185Y34408815D01*
X21021658Y34488594D01*
X21027038Y34482038D01*
X21145001Y34385228D01*
X21145000Y32463019D01*
X21140960Y32422000D01*
X21145000Y32380982D01*
X21157082Y32258312D01*
X21204828Y32100914D01*
X21282364Y31955855D01*
X21386709Y31828709D01*
X21418579Y31802554D01*
X24103392Y29117741D01*
X24041757Y29136437D01*
X23967036Y29159108D01*
X23967014Y29159110D01*
X23966988Y29159118D01*
X23881576Y29167530D01*
X23803349Y29175240D01*
X23803324Y29175238D01*
X23803300Y29175240D01*
X23715574Y29166600D01*
X23639661Y29159127D01*
X23639641Y29159121D01*
X23639612Y29159118D01*
X23555061Y29133470D01*
X23482260Y29111391D01*
X23482238Y29111379D01*
X23482214Y29111372D01*
X23409932Y29072736D01*
X23337196Y29033863D01*
X23337176Y29033847D01*
X23337156Y29033836D01*
X23265950Y28975400D01*
X23260588Y28971000D01*
X21478218Y28971000D01*
X21437200Y28975040D01*
X21396182Y28971000D01*
X21396181Y28971000D01*
X21273511Y28958918D01*
X21170556Y28927687D01*
X21116113Y28911172D01*
X20971054Y28833636D01*
X20892780Y28769398D01*
X20843909Y28729291D01*
X20817763Y28697432D01*
X10735333Y18615000D01*
X9474500Y18615000D01*
X9474500Y18682639D01*
X9434726Y18882598D01*
X9356705Y19070956D01*
X9243437Y19240474D01*
X9099274Y19384637D01*
X8929756Y19497905D01*
X8741398Y19575926D01*
X8541439Y19615700D01*
X8337561Y19615700D01*
X8137602Y19575926D01*
X7949244Y19497905D01*
X7779726Y19384637D01*
X7660089Y19265000D01*
X6456167Y19265000D01*
X7531727Y20340559D01*
X7563591Y20366709D01*
X7667936Y20493854D01*
X7745472Y20638913D01*
X7793218Y20796311D01*
X7805300Y20918981D01*
X7805300Y20918991D01*
X7809339Y20959999D01*
X7805300Y21001007D01*
X7805300Y33494700D01*
X15833982Y33494700D01*
X15875000Y33490660D01*
X16038689Y33506782D01*
X16196087Y33554528D01*
X16341146Y33632064D01*
X16468291Y33736409D01*
X16572636Y33863554D01*
X16650172Y34008613D01*
X16687240Y34130809D01*
X16719180Y34140498D01*
X16829494Y34199463D01*
X16926185Y34278815D01*
X16986146Y34351877D01*
X17038989Y34357082D01*
X17179413Y34399679D01*
X17221444Y34371595D01*
X17409802Y34293574D01*
X17609761Y34253800D01*
X17813639Y34253800D01*
X18013598Y34293574D01*
X18201956Y34371595D01*
X18371474Y34484863D01*
X18515637Y34629026D01*
X18628905Y34798544D01*
X18706926Y34986902D01*
X18718293Y35044048D01*
X18716928Y34860000D01*
X18729188Y34735518D01*
X18765498Y34615820D01*
X18824463Y34505506D01*
X18903815Y34408815D01*
X19000506Y34329463D01*
X19110820Y34270498D01*
X19230518Y34234188D01*
X19355000Y34221928D01*
X19644250Y34225000D01*
X19803000Y34383750D01*
X19803000Y35433000D01*
X18878750Y35433000D01*
X18746700Y35300950D01*
X18746700Y35390739D01*
X18706926Y35590698D01*
X18628905Y35779056D01*
X18515637Y35948574D01*
X18371474Y36092737D01*
X18201956Y36206005D01*
X18071602Y36260000D01*
X18716928Y36260000D01*
X18720000Y35845750D01*
X18878750Y35687000D01*
X19803000Y35687000D01*
X19803000Y36736250D01*
X19644250Y36895000D01*
X19355000Y36898072D01*
X19230518Y36885812D01*
X19110820Y36849502D01*
X19000506Y36790537D01*
X18903815Y36711185D01*
X18824463Y36614494D01*
X18765498Y36504180D01*
X18729188Y36384482D01*
X18716928Y36260000D01*
X18071602Y36260000D01*
X18013598Y36284026D01*
X17813639Y36323800D01*
X17609761Y36323800D01*
X17409802Y36284026D01*
X17221444Y36206005D01*
X17098415Y36123800D01*
X17025107Y36123800D01*
X16984099Y36127839D01*
X16943091Y36123800D01*
X16943081Y36123800D01*
X16881633Y36117748D01*
X16829494Y36160537D01*
X16719180Y36219502D01*
X16599482Y36255812D01*
X16475000Y36268072D01*
X15275000Y36268072D01*
X15150518Y36255812D01*
X15030820Y36219502D01*
X14920506Y36160537D01*
X14823815Y36081185D01*
X14744463Y35984494D01*
X14685498Y35874180D01*
X14649188Y35754482D01*
X14636928Y35630000D01*
X14636928Y35164700D01*
X7316169Y35164700D01*
X6993072Y35487796D01*
X6993072Y37095001D01*
X6976008Y37268255D01*
X6925472Y37434851D01*
X6843405Y37588387D01*
X6732962Y37722962D01*
X6598387Y37833405D01*
X6444851Y37915472D01*
X6278255Y37966008D01*
X6105001Y37983072D01*
X4054999Y37983072D01*
X3881745Y37966008D01*
X3715149Y37915472D01*
X3561613Y37833405D01*
X3427038Y37722962D01*
X3316595Y37588387D01*
X3234528Y37434851D01*
X3183992Y37268255D01*
X3166928Y37095001D01*
X3166928Y35344999D01*
X3183992Y35171745D01*
X3234528Y35005149D01*
X3316595Y34851613D01*
X3427038Y34717038D01*
X3561613Y34606595D01*
X3715149Y34524528D01*
X3881745Y34473992D01*
X4054999Y34456928D01*
X5662204Y34456928D01*
X6135300Y33983831D01*
X6135300Y31582390D01*
X5365750Y31580000D01*
X5207000Y31421250D01*
X5207000Y29947000D01*
X5227000Y29947000D01*
X5227000Y29693000D01*
X5207000Y29693000D01*
X5207000Y28218750D01*
X5365750Y28060000D01*
X6135300Y28057610D01*
X6135301Y21305869D01*
X5223935Y20394502D01*
X5166252Y20394502D01*
X5325000Y20553250D01*
X5328072Y20980000D01*
X5315812Y21104482D01*
X5279502Y21224180D01*
X5220537Y21334494D01*
X5141185Y21431185D01*
X5044494Y21510537D01*
X4934180Y21569502D01*
X4814482Y21605812D01*
X4690000Y21618072D01*
X4200750Y21615000D01*
X4042000Y21456250D01*
X4042000Y20394500D01*
X4062000Y20394500D01*
X4062000Y20140500D01*
X4042000Y20140500D01*
X4042000Y20120500D01*
X3788000Y20120500D01*
X3788000Y20140500D01*
X3768000Y20140500D01*
X3768000Y20394500D01*
X3788000Y20394500D01*
X3788000Y21456250D01*
X3629250Y21615000D01*
X3140000Y21618072D01*
X3015518Y21605812D01*
X2895820Y21569502D01*
X2785506Y21510537D01*
X2688815Y21431185D01*
X2609463Y21334494D01*
X2581405Y21282002D01*
X2466252Y21282002D01*
X2625000Y21440750D01*
X2628072Y21980000D01*
X2615812Y22104482D01*
X2579502Y22224180D01*
X2520537Y22334494D01*
X2441185Y22431185D01*
X2344494Y22510537D01*
X2234180Y22569502D01*
X2114482Y22605812D01*
X1990000Y22618072D01*
X1625750Y22615000D01*
X1467000Y22456250D01*
X1213000Y22456250D01*
X1054250Y22615000D01*
X690000Y22618072D01*
X660000Y22615117D01*
X660000Y28695000D01*
X3166928Y28695000D01*
X3179188Y28570518D01*
X3215498Y28450820D01*
X3274463Y28340506D01*
X3353815Y28243815D01*
X3450506Y28164463D01*
X3560820Y28105498D01*
X3680518Y28069188D01*
X3805000Y28056928D01*
X4794250Y28060000D01*
X4953000Y28218750D01*
X4953000Y29693000D01*
X3328750Y29693000D01*
X3170000Y29534250D01*
X3166928Y28695000D01*
X660000Y28695000D01*
X660000Y30945000D01*
X3166928Y30945000D01*
X3170000Y30105750D01*
X3328750Y29947000D01*
X4953000Y29947000D01*
X4953000Y31421250D01*
X4794250Y31580000D01*
X3805000Y31583072D01*
X3680518Y31570812D01*
X3560820Y31534502D01*
X3450506Y31475537D01*
X3353815Y31396185D01*
X3274463Y31299494D01*
X3215498Y31189180D01*
X3179188Y31069482D01*
X3166928Y30945000D01*
X660000Y30945000D01*
X660000Y45468000D01*
X45249928Y45468000D01*
X45253000Y45003750D01*
X45411750Y44845000D01*
X46761000Y44845000D01*
X46761000Y45944250D01*
X47015000Y45944250D01*
X47015000Y44845000D01*
X48364250Y44845000D01*
X48523000Y45003750D01*
X48526072Y45468000D01*
X48513812Y45592482D01*
X48477502Y45712180D01*
X48418537Y45822494D01*
X48339185Y45919185D01*
X48242494Y45998537D01*
X48132180Y46057502D01*
X48012482Y46093812D01*
X47888000Y46106072D01*
X47173750Y46103000D01*
X47015000Y45944250D01*
X46761000Y45944250D01*
X46602250Y46103000D01*
X45888000Y46106072D01*
X45763518Y46093812D01*
X45643820Y46057502D01*
X45533506Y45998537D01*
X45436815Y45919185D01*
X45357463Y45822494D01*
X45298498Y45712180D01*
X45262188Y45592482D01*
X45249928Y45468000D01*
X660000Y45468000D01*
X660000Y47124587D01*
X7934192Y47124587D01*
X8029956Y46860186D01*
X8319571Y46719296D01*
X8631108Y46637616D01*
X8952595Y46618282D01*
X9271675Y46662039D01*
X9576088Y46767205D01*
X9750044Y46860186D01*
X9845808Y47124587D01*
X14434192Y47124587D01*
X14529956Y46860186D01*
X14819571Y46719296D01*
X15131108Y46637616D01*
X15452595Y46618282D01*
X15771675Y46662039D01*
X16076088Y46767205D01*
X16250044Y46860186D01*
X16345808Y47124587D01*
X15390000Y48080395D01*
X14434192Y47124587D01*
X9845808Y47124587D01*
X8890000Y48080395D01*
X7934192Y47124587D01*
X660000Y47124587D01*
X660000Y48197405D01*
X7248282Y48197405D01*
X7292039Y47878325D01*
X7397205Y47573912D01*
X7490186Y47399956D01*
X7754587Y47304192D01*
X8710395Y48260000D01*
X9069605Y48260000D01*
X10025413Y47304192D01*
X10289814Y47399956D01*
X10430704Y47689571D01*
X10512384Y48001108D01*
X10524189Y48197405D01*
X13748282Y48197405D01*
X13792039Y47878325D01*
X13897205Y47573912D01*
X13990186Y47399956D01*
X14254587Y47304192D01*
X15210395Y48260000D01*
X15569605Y48260000D01*
X16525413Y47304192D01*
X16789814Y47399956D01*
X16930704Y47689571D01*
X16958345Y47795000D01*
X38091928Y47795000D01*
X38104188Y47670518D01*
X38140498Y47550820D01*
X38199463Y47440506D01*
X38278815Y47343815D01*
X38375506Y47264463D01*
X38485820Y47205498D01*
X38605518Y47169188D01*
X38730000Y47156928D01*
X39719250Y47160000D01*
X39878000Y47318750D01*
X39878000Y48793000D01*
X40132000Y48793000D01*
X40132000Y47318750D01*
X40290750Y47160000D01*
X41280000Y47156928D01*
X41404482Y47169188D01*
X41524180Y47205498D01*
X41634494Y47264463D01*
X41731185Y47343815D01*
X41810537Y47440506D01*
X41869502Y47550820D01*
X41905812Y47670518D01*
X41918072Y47795000D01*
X57776928Y47795000D01*
X57789188Y47670518D01*
X57825498Y47550820D01*
X57884463Y47440506D01*
X57963815Y47343815D01*
X58060506Y47264463D01*
X58170820Y47205498D01*
X58290518Y47169188D01*
X58415000Y47156928D01*
X59404250Y47160000D01*
X59563000Y47318750D01*
X59563000Y48793000D01*
X59817000Y48793000D01*
X59817000Y47318750D01*
X59975750Y47160000D01*
X60965000Y47156928D01*
X61089482Y47169188D01*
X61209180Y47205498D01*
X61319494Y47264463D01*
X61416185Y47343815D01*
X61495537Y47440506D01*
X61554502Y47550820D01*
X61590812Y47670518D01*
X61603072Y47795000D01*
X61600000Y48634250D01*
X61441250Y48793000D01*
X59817000Y48793000D01*
X59563000Y48793000D01*
X57938750Y48793000D01*
X57780000Y48634250D01*
X57776928Y47795000D01*
X41918072Y47795000D01*
X41915000Y48634250D01*
X41756250Y48793000D01*
X40132000Y48793000D01*
X39878000Y48793000D01*
X38253750Y48793000D01*
X38095000Y48634250D01*
X38091928Y47795000D01*
X16958345Y47795000D01*
X17012384Y48001108D01*
X17031718Y48322595D01*
X16987961Y48641675D01*
X16882795Y48946088D01*
X16789814Y49120044D01*
X16525413Y49215808D01*
X15569605Y48260000D01*
X15210395Y48260000D01*
X14254587Y49215808D01*
X13990186Y49120044D01*
X13849296Y48830429D01*
X13767616Y48518892D01*
X13748282Y48197405D01*
X10524189Y48197405D01*
X10531718Y48322595D01*
X10487961Y48641675D01*
X10382795Y48946088D01*
X10289814Y49120044D01*
X10025413Y49215808D01*
X9069605Y48260000D01*
X8710395Y48260000D01*
X7754587Y49215808D01*
X7490186Y49120044D01*
X7349296Y48830429D01*
X7267616Y48518892D01*
X7248282Y48197405D01*
X660000Y48197405D01*
X660000Y48820394D01*
X1362973Y49523366D01*
X1434002Y49452337D01*
X1718169Y49262463D01*
X2033919Y49131675D01*
X2369117Y49065000D01*
X2710883Y49065000D01*
X3046081Y49131675D01*
X3361831Y49262463D01*
X3560805Y49395413D01*
X7934192Y49395413D01*
X8890000Y48439605D01*
X9845808Y49395413D01*
X14434192Y49395413D01*
X15390000Y48439605D01*
X16345808Y49395413D01*
X16250044Y49659814D01*
X15960429Y49800704D01*
X15648892Y49882384D01*
X15327405Y49901718D01*
X15008325Y49857961D01*
X14703912Y49752795D01*
X14529956Y49659814D01*
X14434192Y49395413D01*
X9845808Y49395413D01*
X9750044Y49659814D01*
X9460429Y49800704D01*
X9148892Y49882384D01*
X8827405Y49901718D01*
X8508325Y49857961D01*
X8203912Y49752795D01*
X8029956Y49659814D01*
X7934192Y49395413D01*
X3560805Y49395413D01*
X3645998Y49452337D01*
X3887663Y49694002D01*
X4077537Y49978169D01*
X4105219Y50045000D01*
X38091928Y50045000D01*
X38095000Y49205750D01*
X38253750Y49047000D01*
X39878000Y49047000D01*
X39878000Y50521250D01*
X40132000Y50521250D01*
X40132000Y49047000D01*
X41756250Y49047000D01*
X41915000Y49205750D01*
X41918072Y50045000D01*
X57776928Y50045000D01*
X57780000Y49205750D01*
X57938750Y49047000D01*
X59563000Y49047000D01*
X59563000Y50521250D01*
X59817000Y50521250D01*
X59817000Y49047000D01*
X61441250Y49047000D01*
X61600000Y49205750D01*
X61603072Y50045000D01*
X61590812Y50169482D01*
X61554502Y50289180D01*
X61495537Y50399494D01*
X61416185Y50496185D01*
X61319494Y50575537D01*
X61209180Y50634502D01*
X61089482Y50670812D01*
X60965000Y50683072D01*
X59975750Y50680000D01*
X59817000Y50521250D01*
X59563000Y50521250D01*
X59404250Y50680000D01*
X58415000Y50683072D01*
X58290518Y50670812D01*
X58170820Y50634502D01*
X58060506Y50575537D01*
X57963815Y50496185D01*
X57884463Y50399494D01*
X57825498Y50289180D01*
X57789188Y50169482D01*
X57776928Y50045000D01*
X41918072Y50045000D01*
X41905812Y50169482D01*
X41869502Y50289180D01*
X41810537Y50399494D01*
X41731185Y50496185D01*
X41634494Y50575537D01*
X41524180Y50634502D01*
X41404482Y50670812D01*
X41280000Y50683072D01*
X40290750Y50680000D01*
X40132000Y50521250D01*
X39878000Y50521250D01*
X39719250Y50680000D01*
X38730000Y50683072D01*
X38605518Y50670812D01*
X38485820Y50634502D01*
X38375506Y50575537D01*
X38278815Y50496185D01*
X38199463Y50399494D01*
X38140498Y50289180D01*
X38104188Y50169482D01*
X38091928Y50045000D01*
X4105219Y50045000D01*
X4208325Y50293919D01*
X4275000Y50629117D01*
X4275000Y50970883D01*
X4208325Y51306081D01*
X4077537Y51621831D01*
X3887663Y51905998D01*
X3816634Y51977027D01*
X4519606Y52680000D01*
X109780394Y52680000D01*
X110483367Y51977027D01*
G36*
X55783554Y29007636D02*
G01*
X55656409Y28903291D01*
X55630261Y28871429D01*
X54653533Y27894700D01*
X54207267Y27894700D01*
X55360268Y29047700D01*
X55858508Y29047700D01*
X55783554Y29007636D01*
G37*
X55783554Y29007636D02*
X55656409Y28903291D01*
X55630261Y28871429D01*
X54653533Y27894700D01*
X54207267Y27894700D01*
X55360268Y29047700D01*
X55858508Y29047700D01*
X55783554Y29007636D01*
%TD*%
M02*
