%TF.GenerationSoftware,KiCad,Pcbnew,5.1.5-1.fc31*%
%TF.CreationDate,2020-04-02T16:35:23+02:00*%
%TF.ProjectId,avrisp-mkII-clone,61767269-7370-42d6-9d6b-49492d636c6f,1.0*%
%TF.SameCoordinates,PX54c81a0PY82ce540*%
%TF.FileFunction,Legend,Bot*%
%TF.FilePolarity,Positive*%
%FSLAX46Y46*%
G04 Gerber Fmt 4.6, Leading zero omitted, Abs format (unit mm)*
G04 Created by KiCad (PCBNEW 5.1.5-1.fc31) date 2020-04-02 16:35:23*
%MOMM*%
%LPD*%
G04 APERTURE LIST*
%ADD10C,0.120000*%
%ADD11C,0.150000*%
%ADD12C,2.302000*%
%ADD13C,2.102000*%
%ADD14O,1.829200X1.829200*%
%ADD15R,1.829200X1.829200*%
%ADD16R,1.902000X1.902000*%
%ADD17C,1.902000*%
%ADD18R,1.802000X1.802000*%
%ADD19O,1.802000X1.802000*%
G04 APERTURE END LIST*
D10*
%TO.C,C1*%
X20058748Y48970000D02*
X20581252Y48970000D01*
X20058748Y47550000D02*
X20581252Y47550000D01*
%TO.C,R1*%
X20058748Y43740000D02*
X20581252Y43740000D01*
X20058748Y45160000D02*
X20581252Y45160000D01*
%TO.C,R3*%
X64210000Y11691252D02*
X64210000Y11168748D01*
X62790000Y11691252D02*
X62790000Y11168748D01*
%TO.C,R4*%
X50090000Y11446252D02*
X50090000Y10923748D01*
X51510000Y11446252D02*
X51510000Y10923748D01*
%TO.C,C1*%
D11*
X20486666Y46252858D02*
X20534285Y46205239D01*
X20677142Y46157620D01*
X20772380Y46157620D01*
X20915238Y46205239D01*
X21010476Y46300477D01*
X21058095Y46395715D01*
X21105714Y46586191D01*
X21105714Y46729048D01*
X21058095Y46919524D01*
X21010476Y47014762D01*
X20915238Y47110000D01*
X20772380Y47157620D01*
X20677142Y47157620D01*
X20534285Y47110000D01*
X20486666Y47062381D01*
X19534285Y46157620D02*
X20105714Y46157620D01*
X19820000Y46157620D02*
X19820000Y47157620D01*
X19915238Y47014762D01*
X20010476Y46919524D01*
X20105714Y46871905D01*
%TO.C,R1*%
X20486666Y42347620D02*
X20820000Y42823810D01*
X21058095Y42347620D02*
X21058095Y43347620D01*
X20677142Y43347620D01*
X20581904Y43300000D01*
X20534285Y43252381D01*
X20486666Y43157143D01*
X20486666Y43014286D01*
X20534285Y42919048D01*
X20581904Y42871429D01*
X20677142Y42823810D01*
X21058095Y42823810D01*
X19534285Y42347620D02*
X20105714Y42347620D01*
X19820000Y42347620D02*
X19820000Y43347620D01*
X19915238Y43204762D01*
X20010476Y43109524D01*
X20105714Y43061905D01*
%TO.C,R3*%
X62302380Y11596667D02*
X61826190Y11930000D01*
X62302380Y12168096D02*
X61302380Y12168096D01*
X61302380Y11787143D01*
X61350000Y11691905D01*
X61397619Y11644286D01*
X61492857Y11596667D01*
X61635714Y11596667D01*
X61730952Y11644286D01*
X61778571Y11691905D01*
X61826190Y11787143D01*
X61826190Y12168096D01*
X61302380Y11263334D02*
X61302380Y10644286D01*
X61683333Y10977620D01*
X61683333Y10834762D01*
X61730952Y10739524D01*
X61778571Y10691905D01*
X61873809Y10644286D01*
X62111904Y10644286D01*
X62207142Y10691905D01*
X62254761Y10739524D01*
X62302380Y10834762D01*
X62302380Y11120477D01*
X62254761Y11215715D01*
X62207142Y11263334D01*
%TO.C,R4*%
X49602380Y11351667D02*
X49126190Y11685000D01*
X49602380Y11923096D02*
X48602380Y11923096D01*
X48602380Y11542143D01*
X48650000Y11446905D01*
X48697619Y11399286D01*
X48792857Y11351667D01*
X48935714Y11351667D01*
X49030952Y11399286D01*
X49078571Y11446905D01*
X49126190Y11542143D01*
X49126190Y11923096D01*
X48935714Y10494524D02*
X49602380Y10494524D01*
X48554761Y10732620D02*
X49269047Y10970715D01*
X49269047Y10351667D01*
%TD*%
%LPC*%
D12*
%TO.C,M4*%
X2540000Y2540000D03*
%TD*%
%TO.C,M3*%
X111760000Y2540000D03*
%TD*%
%TO.C,M2*%
X111760000Y50800000D03*
%TD*%
%TO.C,M1*%
X2540000Y50800000D03*
%TD*%
D11*
%TO.C,C1*%
G36*
X21725505Y49009689D02*
G01*
X21751925Y49005770D01*
X21777835Y48999280D01*
X21802983Y48990282D01*
X21827128Y48978862D01*
X21850038Y48965131D01*
X21871492Y48949220D01*
X21891282Y48931282D01*
X21909220Y48911492D01*
X21925131Y48890038D01*
X21938862Y48867128D01*
X21950282Y48842983D01*
X21959280Y48817835D01*
X21965770Y48791925D01*
X21969689Y48765505D01*
X21971000Y48738827D01*
X21971000Y47781173D01*
X21969689Y47754495D01*
X21965770Y47728075D01*
X21959280Y47702165D01*
X21950282Y47677017D01*
X21938862Y47652872D01*
X21925131Y47629962D01*
X21909220Y47608508D01*
X21891282Y47588718D01*
X21871492Y47570780D01*
X21850038Y47554869D01*
X21827128Y47541138D01*
X21802983Y47529718D01*
X21777835Y47520720D01*
X21751925Y47514230D01*
X21725505Y47510311D01*
X21698827Y47509000D01*
X20991173Y47509000D01*
X20964495Y47510311D01*
X20938075Y47514230D01*
X20912165Y47520720D01*
X20887017Y47529718D01*
X20862872Y47541138D01*
X20839962Y47554869D01*
X20818508Y47570780D01*
X20798718Y47588718D01*
X20780780Y47608508D01*
X20764869Y47629962D01*
X20751138Y47652872D01*
X20739718Y47677017D01*
X20730720Y47702165D01*
X20724230Y47728075D01*
X20720311Y47754495D01*
X20719000Y47781173D01*
X20719000Y48738827D01*
X20720311Y48765505D01*
X20724230Y48791925D01*
X20730720Y48817835D01*
X20739718Y48842983D01*
X20751138Y48867128D01*
X20764869Y48890038D01*
X20780780Y48911492D01*
X20798718Y48931282D01*
X20818508Y48949220D01*
X20839962Y48965131D01*
X20862872Y48978862D01*
X20887017Y48990282D01*
X20912165Y48999280D01*
X20938075Y49005770D01*
X20964495Y49009689D01*
X20991173Y49011000D01*
X21698827Y49011000D01*
X21725505Y49009689D01*
G37*
G36*
X19675505Y49009689D02*
G01*
X19701925Y49005770D01*
X19727835Y48999280D01*
X19752983Y48990282D01*
X19777128Y48978862D01*
X19800038Y48965131D01*
X19821492Y48949220D01*
X19841282Y48931282D01*
X19859220Y48911492D01*
X19875131Y48890038D01*
X19888862Y48867128D01*
X19900282Y48842983D01*
X19909280Y48817835D01*
X19915770Y48791925D01*
X19919689Y48765505D01*
X19921000Y48738827D01*
X19921000Y47781173D01*
X19919689Y47754495D01*
X19915770Y47728075D01*
X19909280Y47702165D01*
X19900282Y47677017D01*
X19888862Y47652872D01*
X19875131Y47629962D01*
X19859220Y47608508D01*
X19841282Y47588718D01*
X19821492Y47570780D01*
X19800038Y47554869D01*
X19777128Y47541138D01*
X19752983Y47529718D01*
X19727835Y47520720D01*
X19701925Y47514230D01*
X19675505Y47510311D01*
X19648827Y47509000D01*
X18941173Y47509000D01*
X18914495Y47510311D01*
X18888075Y47514230D01*
X18862165Y47520720D01*
X18837017Y47529718D01*
X18812872Y47541138D01*
X18789962Y47554869D01*
X18768508Y47570780D01*
X18748718Y47588718D01*
X18730780Y47608508D01*
X18714869Y47629962D01*
X18701138Y47652872D01*
X18689718Y47677017D01*
X18680720Y47702165D01*
X18674230Y47728075D01*
X18670311Y47754495D01*
X18669000Y47781173D01*
X18669000Y48738827D01*
X18670311Y48765505D01*
X18674230Y48791925D01*
X18680720Y48817835D01*
X18689718Y48842983D01*
X18701138Y48867128D01*
X18714869Y48890038D01*
X18730780Y48911492D01*
X18748718Y48931282D01*
X18768508Y48949220D01*
X18789962Y48965131D01*
X18812872Y48978862D01*
X18837017Y48990282D01*
X18862165Y48999280D01*
X18888075Y49005770D01*
X18914495Y49009689D01*
X18941173Y49011000D01*
X19648827Y49011000D01*
X19675505Y49009689D01*
G37*
%TD*%
%TO.C,R1*%
G36*
X19675505Y45199689D02*
G01*
X19701925Y45195770D01*
X19727835Y45189280D01*
X19752983Y45180282D01*
X19777128Y45168862D01*
X19800038Y45155131D01*
X19821492Y45139220D01*
X19841282Y45121282D01*
X19859220Y45101492D01*
X19875131Y45080038D01*
X19888862Y45057128D01*
X19900282Y45032983D01*
X19909280Y45007835D01*
X19915770Y44981925D01*
X19919689Y44955505D01*
X19921000Y44928827D01*
X19921000Y43971173D01*
X19919689Y43944495D01*
X19915770Y43918075D01*
X19909280Y43892165D01*
X19900282Y43867017D01*
X19888862Y43842872D01*
X19875131Y43819962D01*
X19859220Y43798508D01*
X19841282Y43778718D01*
X19821492Y43760780D01*
X19800038Y43744869D01*
X19777128Y43731138D01*
X19752983Y43719718D01*
X19727835Y43710720D01*
X19701925Y43704230D01*
X19675505Y43700311D01*
X19648827Y43699000D01*
X18941173Y43699000D01*
X18914495Y43700311D01*
X18888075Y43704230D01*
X18862165Y43710720D01*
X18837017Y43719718D01*
X18812872Y43731138D01*
X18789962Y43744869D01*
X18768508Y43760780D01*
X18748718Y43778718D01*
X18730780Y43798508D01*
X18714869Y43819962D01*
X18701138Y43842872D01*
X18689718Y43867017D01*
X18680720Y43892165D01*
X18674230Y43918075D01*
X18670311Y43944495D01*
X18669000Y43971173D01*
X18669000Y44928827D01*
X18670311Y44955505D01*
X18674230Y44981925D01*
X18680720Y45007835D01*
X18689718Y45032983D01*
X18701138Y45057128D01*
X18714869Y45080038D01*
X18730780Y45101492D01*
X18748718Y45121282D01*
X18768508Y45139220D01*
X18789962Y45155131D01*
X18812872Y45168862D01*
X18837017Y45180282D01*
X18862165Y45189280D01*
X18888075Y45195770D01*
X18914495Y45199689D01*
X18941173Y45201000D01*
X19648827Y45201000D01*
X19675505Y45199689D01*
G37*
G36*
X21725505Y45199689D02*
G01*
X21751925Y45195770D01*
X21777835Y45189280D01*
X21802983Y45180282D01*
X21827128Y45168862D01*
X21850038Y45155131D01*
X21871492Y45139220D01*
X21891282Y45121282D01*
X21909220Y45101492D01*
X21925131Y45080038D01*
X21938862Y45057128D01*
X21950282Y45032983D01*
X21959280Y45007835D01*
X21965770Y44981925D01*
X21969689Y44955505D01*
X21971000Y44928827D01*
X21971000Y43971173D01*
X21969689Y43944495D01*
X21965770Y43918075D01*
X21959280Y43892165D01*
X21950282Y43867017D01*
X21938862Y43842872D01*
X21925131Y43819962D01*
X21909220Y43798508D01*
X21891282Y43778718D01*
X21871492Y43760780D01*
X21850038Y43744869D01*
X21827128Y43731138D01*
X21802983Y43719718D01*
X21777835Y43710720D01*
X21751925Y43704230D01*
X21725505Y43700311D01*
X21698827Y43699000D01*
X20991173Y43699000D01*
X20964495Y43700311D01*
X20938075Y43704230D01*
X20912165Y43710720D01*
X20887017Y43719718D01*
X20862872Y43731138D01*
X20839962Y43744869D01*
X20818508Y43760780D01*
X20798718Y43778718D01*
X20780780Y43798508D01*
X20764869Y43819962D01*
X20751138Y43842872D01*
X20739718Y43867017D01*
X20730720Y43892165D01*
X20724230Y43918075D01*
X20720311Y43944495D01*
X20719000Y43971173D01*
X20719000Y44928827D01*
X20720311Y44955505D01*
X20724230Y44981925D01*
X20730720Y45007835D01*
X20739718Y45032983D01*
X20751138Y45057128D01*
X20764869Y45080038D01*
X20780780Y45101492D01*
X20798718Y45121282D01*
X20818508Y45139220D01*
X20839962Y45155131D01*
X20862872Y45168862D01*
X20887017Y45180282D01*
X20912165Y45189280D01*
X20938075Y45195770D01*
X20964495Y45199689D01*
X20991173Y45201000D01*
X21698827Y45201000D01*
X21725505Y45199689D01*
G37*
%TD*%
D13*
%TO.C,SW1*%
X8890000Y43760000D03*
X8890000Y48260000D03*
X15390000Y43760000D03*
X15390000Y48260000D03*
%TD*%
D14*
%TO.C,J3*%
X104140000Y25400000D03*
X101600000Y25400000D03*
X104140000Y27940000D03*
X101600000Y27940000D03*
X104140000Y30480000D03*
D15*
X101600000Y30480000D03*
%TD*%
D14*
%TO.C,J2*%
X93345000Y25400000D03*
X90805000Y25400000D03*
X93345000Y27940000D03*
X90805000Y27940000D03*
X93345000Y30480000D03*
D15*
X90805000Y30480000D03*
%TD*%
D16*
%TO.C,D2*%
X60960000Y6350000D03*
D17*
X63500000Y6350000D03*
%TD*%
%TO.C,D3*%
X50800000Y6350000D03*
D16*
X53340000Y6350000D03*
%TD*%
D18*
%TO.C,JP1*%
X72390000Y40005000D03*
D19*
X72390000Y42545000D03*
X72390000Y45085000D03*
%TD*%
%TO.C,JP2*%
X95250000Y42545000D03*
X92710000Y42545000D03*
D18*
X90170000Y42545000D03*
%TD*%
D11*
%TO.C,R3*%
G36*
X64005505Y11029689D02*
G01*
X64031925Y11025770D01*
X64057835Y11019280D01*
X64082983Y11010282D01*
X64107128Y10998862D01*
X64130038Y10985131D01*
X64151492Y10969220D01*
X64171282Y10951282D01*
X64189220Y10931492D01*
X64205131Y10910038D01*
X64218862Y10887128D01*
X64230282Y10862983D01*
X64239280Y10837835D01*
X64245770Y10811925D01*
X64249689Y10785505D01*
X64251000Y10758827D01*
X64251000Y10051173D01*
X64249689Y10024495D01*
X64245770Y9998075D01*
X64239280Y9972165D01*
X64230282Y9947017D01*
X64218862Y9922872D01*
X64205131Y9899962D01*
X64189220Y9878508D01*
X64171282Y9858718D01*
X64151492Y9840780D01*
X64130038Y9824869D01*
X64107128Y9811138D01*
X64082983Y9799718D01*
X64057835Y9790720D01*
X64031925Y9784230D01*
X64005505Y9780311D01*
X63978827Y9779000D01*
X63021173Y9779000D01*
X62994495Y9780311D01*
X62968075Y9784230D01*
X62942165Y9790720D01*
X62917017Y9799718D01*
X62892872Y9811138D01*
X62869962Y9824869D01*
X62848508Y9840780D01*
X62828718Y9858718D01*
X62810780Y9878508D01*
X62794869Y9899962D01*
X62781138Y9922872D01*
X62769718Y9947017D01*
X62760720Y9972165D01*
X62754230Y9998075D01*
X62750311Y10024495D01*
X62749000Y10051173D01*
X62749000Y10758827D01*
X62750311Y10785505D01*
X62754230Y10811925D01*
X62760720Y10837835D01*
X62769718Y10862983D01*
X62781138Y10887128D01*
X62794869Y10910038D01*
X62810780Y10931492D01*
X62828718Y10951282D01*
X62848508Y10969220D01*
X62869962Y10985131D01*
X62892872Y10998862D01*
X62917017Y11010282D01*
X62942165Y11019280D01*
X62968075Y11025770D01*
X62994495Y11029689D01*
X63021173Y11031000D01*
X63978827Y11031000D01*
X64005505Y11029689D01*
G37*
G36*
X64005505Y13079689D02*
G01*
X64031925Y13075770D01*
X64057835Y13069280D01*
X64082983Y13060282D01*
X64107128Y13048862D01*
X64130038Y13035131D01*
X64151492Y13019220D01*
X64171282Y13001282D01*
X64189220Y12981492D01*
X64205131Y12960038D01*
X64218862Y12937128D01*
X64230282Y12912983D01*
X64239280Y12887835D01*
X64245770Y12861925D01*
X64249689Y12835505D01*
X64251000Y12808827D01*
X64251000Y12101173D01*
X64249689Y12074495D01*
X64245770Y12048075D01*
X64239280Y12022165D01*
X64230282Y11997017D01*
X64218862Y11972872D01*
X64205131Y11949962D01*
X64189220Y11928508D01*
X64171282Y11908718D01*
X64151492Y11890780D01*
X64130038Y11874869D01*
X64107128Y11861138D01*
X64082983Y11849718D01*
X64057835Y11840720D01*
X64031925Y11834230D01*
X64005505Y11830311D01*
X63978827Y11829000D01*
X63021173Y11829000D01*
X62994495Y11830311D01*
X62968075Y11834230D01*
X62942165Y11840720D01*
X62917017Y11849718D01*
X62892872Y11861138D01*
X62869962Y11874869D01*
X62848508Y11890780D01*
X62828718Y11908718D01*
X62810780Y11928508D01*
X62794869Y11949962D01*
X62781138Y11972872D01*
X62769718Y11997017D01*
X62760720Y12022165D01*
X62754230Y12048075D01*
X62750311Y12074495D01*
X62749000Y12101173D01*
X62749000Y12808827D01*
X62750311Y12835505D01*
X62754230Y12861925D01*
X62760720Y12887835D01*
X62769718Y12912983D01*
X62781138Y12937128D01*
X62794869Y12960038D01*
X62810780Y12981492D01*
X62828718Y13001282D01*
X62848508Y13019220D01*
X62869962Y13035131D01*
X62892872Y13048862D01*
X62917017Y13060282D01*
X62942165Y13069280D01*
X62968075Y13075770D01*
X62994495Y13079689D01*
X63021173Y13081000D01*
X63978827Y13081000D01*
X64005505Y13079689D01*
G37*
%TD*%
%TO.C,R4*%
G36*
X51305505Y12834689D02*
G01*
X51331925Y12830770D01*
X51357835Y12824280D01*
X51382983Y12815282D01*
X51407128Y12803862D01*
X51430038Y12790131D01*
X51451492Y12774220D01*
X51471282Y12756282D01*
X51489220Y12736492D01*
X51505131Y12715038D01*
X51518862Y12692128D01*
X51530282Y12667983D01*
X51539280Y12642835D01*
X51545770Y12616925D01*
X51549689Y12590505D01*
X51551000Y12563827D01*
X51551000Y11856173D01*
X51549689Y11829495D01*
X51545770Y11803075D01*
X51539280Y11777165D01*
X51530282Y11752017D01*
X51518862Y11727872D01*
X51505131Y11704962D01*
X51489220Y11683508D01*
X51471282Y11663718D01*
X51451492Y11645780D01*
X51430038Y11629869D01*
X51407128Y11616138D01*
X51382983Y11604718D01*
X51357835Y11595720D01*
X51331925Y11589230D01*
X51305505Y11585311D01*
X51278827Y11584000D01*
X50321173Y11584000D01*
X50294495Y11585311D01*
X50268075Y11589230D01*
X50242165Y11595720D01*
X50217017Y11604718D01*
X50192872Y11616138D01*
X50169962Y11629869D01*
X50148508Y11645780D01*
X50128718Y11663718D01*
X50110780Y11683508D01*
X50094869Y11704962D01*
X50081138Y11727872D01*
X50069718Y11752017D01*
X50060720Y11777165D01*
X50054230Y11803075D01*
X50050311Y11829495D01*
X50049000Y11856173D01*
X50049000Y12563827D01*
X50050311Y12590505D01*
X50054230Y12616925D01*
X50060720Y12642835D01*
X50069718Y12667983D01*
X50081138Y12692128D01*
X50094869Y12715038D01*
X50110780Y12736492D01*
X50128718Y12756282D01*
X50148508Y12774220D01*
X50169962Y12790131D01*
X50192872Y12803862D01*
X50217017Y12815282D01*
X50242165Y12824280D01*
X50268075Y12830770D01*
X50294495Y12834689D01*
X50321173Y12836000D01*
X51278827Y12836000D01*
X51305505Y12834689D01*
G37*
G36*
X51305505Y10784689D02*
G01*
X51331925Y10780770D01*
X51357835Y10774280D01*
X51382983Y10765282D01*
X51407128Y10753862D01*
X51430038Y10740131D01*
X51451492Y10724220D01*
X51471282Y10706282D01*
X51489220Y10686492D01*
X51505131Y10665038D01*
X51518862Y10642128D01*
X51530282Y10617983D01*
X51539280Y10592835D01*
X51545770Y10566925D01*
X51549689Y10540505D01*
X51551000Y10513827D01*
X51551000Y9806173D01*
X51549689Y9779495D01*
X51545770Y9753075D01*
X51539280Y9727165D01*
X51530282Y9702017D01*
X51518862Y9677872D01*
X51505131Y9654962D01*
X51489220Y9633508D01*
X51471282Y9613718D01*
X51451492Y9595780D01*
X51430038Y9579869D01*
X51407128Y9566138D01*
X51382983Y9554718D01*
X51357835Y9545720D01*
X51331925Y9539230D01*
X51305505Y9535311D01*
X51278827Y9534000D01*
X50321173Y9534000D01*
X50294495Y9535311D01*
X50268075Y9539230D01*
X50242165Y9545720D01*
X50217017Y9554718D01*
X50192872Y9566138D01*
X50169962Y9579869D01*
X50148508Y9595780D01*
X50128718Y9613718D01*
X50110780Y9633508D01*
X50094869Y9654962D01*
X50081138Y9677872D01*
X50069718Y9702017D01*
X50060720Y9727165D01*
X50054230Y9753075D01*
X50050311Y9779495D01*
X50049000Y9806173D01*
X50049000Y10513827D01*
X50050311Y10540505D01*
X50054230Y10566925D01*
X50060720Y10592835D01*
X50069718Y10617983D01*
X50081138Y10642128D01*
X50094869Y10665038D01*
X50110780Y10686492D01*
X50128718Y10706282D01*
X50148508Y10724220D01*
X50169962Y10740131D01*
X50192872Y10753862D01*
X50217017Y10765282D01*
X50242165Y10774280D01*
X50268075Y10780770D01*
X50294495Y10784689D01*
X50321173Y10786000D01*
X51278827Y10786000D01*
X51305505Y10784689D01*
G37*
%TD*%
D13*
%TO.C,SW2*%
X43330000Y8890000D03*
X43330000Y4390000D03*
X36830000Y8890000D03*
X36830000Y4390000D03*
%TD*%
D15*
%TO.C,U4*%
X80010000Y30480000D03*
D14*
X82550000Y30480000D03*
X80010000Y27940000D03*
X82550000Y27940000D03*
X80010000Y25400000D03*
X82550000Y25400000D03*
X80010000Y22860000D03*
X82550000Y22860000D03*
X80010000Y20320000D03*
X82550000Y20320000D03*
%TD*%
M02*
