%TF.GenerationSoftware,KiCad,Pcbnew,5.1.5-1.fc31*%
%TF.CreationDate,2020-04-02T16:35:23+02:00*%
%TF.ProjectId,avrisp-mkII-clone,61767269-7370-42d6-9d6b-49492d636c6f,1.0*%
%TF.SameCoordinates,PX54c81a0PY82ce540*%
%TF.FileFunction,Paste,Bot*%
%TF.FilePolarity,Positive*%
%FSLAX46Y46*%
G04 Gerber Fmt 4.6, Leading zero omitted, Abs format (unit mm)*
G04 Created by KiCad (PCBNEW 5.1.5-1.fc31) date 2020-04-02 16:35:23*
%MOMM*%
%LPD*%
G04 APERTURE LIST*
%ADD10C,0.150000*%
G04 APERTURE END LIST*
D10*
%TO.C,C1*%
G36*
X21694505Y48958796D02*
G01*
X21718773Y48955196D01*
X21742572Y48949235D01*
X21765671Y48940970D01*
X21787850Y48930480D01*
X21808893Y48917868D01*
X21828599Y48903253D01*
X21846777Y48886777D01*
X21863253Y48868599D01*
X21877868Y48848893D01*
X21890480Y48827850D01*
X21900970Y48805671D01*
X21909235Y48782572D01*
X21915196Y48758773D01*
X21918796Y48734505D01*
X21920000Y48710001D01*
X21920000Y47809999D01*
X21918796Y47785495D01*
X21915196Y47761227D01*
X21909235Y47737428D01*
X21900970Y47714329D01*
X21890480Y47692150D01*
X21877868Y47671107D01*
X21863253Y47651401D01*
X21846777Y47633223D01*
X21828599Y47616747D01*
X21808893Y47602132D01*
X21787850Y47589520D01*
X21765671Y47579030D01*
X21742572Y47570765D01*
X21718773Y47564804D01*
X21694505Y47561204D01*
X21670001Y47560000D01*
X21019999Y47560000D01*
X20995495Y47561204D01*
X20971227Y47564804D01*
X20947428Y47570765D01*
X20924329Y47579030D01*
X20902150Y47589520D01*
X20881107Y47602132D01*
X20861401Y47616747D01*
X20843223Y47633223D01*
X20826747Y47651401D01*
X20812132Y47671107D01*
X20799520Y47692150D01*
X20789030Y47714329D01*
X20780765Y47737428D01*
X20774804Y47761227D01*
X20771204Y47785495D01*
X20770000Y47809999D01*
X20770000Y48710001D01*
X20771204Y48734505D01*
X20774804Y48758773D01*
X20780765Y48782572D01*
X20789030Y48805671D01*
X20799520Y48827850D01*
X20812132Y48848893D01*
X20826747Y48868599D01*
X20843223Y48886777D01*
X20861401Y48903253D01*
X20881107Y48917868D01*
X20902150Y48930480D01*
X20924329Y48940970D01*
X20947428Y48949235D01*
X20971227Y48955196D01*
X20995495Y48958796D01*
X21019999Y48960000D01*
X21670001Y48960000D01*
X21694505Y48958796D01*
G37*
G36*
X19644505Y48958796D02*
G01*
X19668773Y48955196D01*
X19692572Y48949235D01*
X19715671Y48940970D01*
X19737850Y48930480D01*
X19758893Y48917868D01*
X19778599Y48903253D01*
X19796777Y48886777D01*
X19813253Y48868599D01*
X19827868Y48848893D01*
X19840480Y48827850D01*
X19850970Y48805671D01*
X19859235Y48782572D01*
X19865196Y48758773D01*
X19868796Y48734505D01*
X19870000Y48710001D01*
X19870000Y47809999D01*
X19868796Y47785495D01*
X19865196Y47761227D01*
X19859235Y47737428D01*
X19850970Y47714329D01*
X19840480Y47692150D01*
X19827868Y47671107D01*
X19813253Y47651401D01*
X19796777Y47633223D01*
X19778599Y47616747D01*
X19758893Y47602132D01*
X19737850Y47589520D01*
X19715671Y47579030D01*
X19692572Y47570765D01*
X19668773Y47564804D01*
X19644505Y47561204D01*
X19620001Y47560000D01*
X18969999Y47560000D01*
X18945495Y47561204D01*
X18921227Y47564804D01*
X18897428Y47570765D01*
X18874329Y47579030D01*
X18852150Y47589520D01*
X18831107Y47602132D01*
X18811401Y47616747D01*
X18793223Y47633223D01*
X18776747Y47651401D01*
X18762132Y47671107D01*
X18749520Y47692150D01*
X18739030Y47714329D01*
X18730765Y47737428D01*
X18724804Y47761227D01*
X18721204Y47785495D01*
X18720000Y47809999D01*
X18720000Y48710001D01*
X18721204Y48734505D01*
X18724804Y48758773D01*
X18730765Y48782572D01*
X18739030Y48805671D01*
X18749520Y48827850D01*
X18762132Y48848893D01*
X18776747Y48868599D01*
X18793223Y48886777D01*
X18811401Y48903253D01*
X18831107Y48917868D01*
X18852150Y48930480D01*
X18874329Y48940970D01*
X18897428Y48949235D01*
X18921227Y48955196D01*
X18945495Y48958796D01*
X18969999Y48960000D01*
X19620001Y48960000D01*
X19644505Y48958796D01*
G37*
%TD*%
%TO.C,R1*%
G36*
X19644505Y45148796D02*
G01*
X19668773Y45145196D01*
X19692572Y45139235D01*
X19715671Y45130970D01*
X19737850Y45120480D01*
X19758893Y45107868D01*
X19778599Y45093253D01*
X19796777Y45076777D01*
X19813253Y45058599D01*
X19827868Y45038893D01*
X19840480Y45017850D01*
X19850970Y44995671D01*
X19859235Y44972572D01*
X19865196Y44948773D01*
X19868796Y44924505D01*
X19870000Y44900001D01*
X19870000Y43999999D01*
X19868796Y43975495D01*
X19865196Y43951227D01*
X19859235Y43927428D01*
X19850970Y43904329D01*
X19840480Y43882150D01*
X19827868Y43861107D01*
X19813253Y43841401D01*
X19796777Y43823223D01*
X19778599Y43806747D01*
X19758893Y43792132D01*
X19737850Y43779520D01*
X19715671Y43769030D01*
X19692572Y43760765D01*
X19668773Y43754804D01*
X19644505Y43751204D01*
X19620001Y43750000D01*
X18969999Y43750000D01*
X18945495Y43751204D01*
X18921227Y43754804D01*
X18897428Y43760765D01*
X18874329Y43769030D01*
X18852150Y43779520D01*
X18831107Y43792132D01*
X18811401Y43806747D01*
X18793223Y43823223D01*
X18776747Y43841401D01*
X18762132Y43861107D01*
X18749520Y43882150D01*
X18739030Y43904329D01*
X18730765Y43927428D01*
X18724804Y43951227D01*
X18721204Y43975495D01*
X18720000Y43999999D01*
X18720000Y44900001D01*
X18721204Y44924505D01*
X18724804Y44948773D01*
X18730765Y44972572D01*
X18739030Y44995671D01*
X18749520Y45017850D01*
X18762132Y45038893D01*
X18776747Y45058599D01*
X18793223Y45076777D01*
X18811401Y45093253D01*
X18831107Y45107868D01*
X18852150Y45120480D01*
X18874329Y45130970D01*
X18897428Y45139235D01*
X18921227Y45145196D01*
X18945495Y45148796D01*
X18969999Y45150000D01*
X19620001Y45150000D01*
X19644505Y45148796D01*
G37*
G36*
X21694505Y45148796D02*
G01*
X21718773Y45145196D01*
X21742572Y45139235D01*
X21765671Y45130970D01*
X21787850Y45120480D01*
X21808893Y45107868D01*
X21828599Y45093253D01*
X21846777Y45076777D01*
X21863253Y45058599D01*
X21877868Y45038893D01*
X21890480Y45017850D01*
X21900970Y44995671D01*
X21909235Y44972572D01*
X21915196Y44948773D01*
X21918796Y44924505D01*
X21920000Y44900001D01*
X21920000Y43999999D01*
X21918796Y43975495D01*
X21915196Y43951227D01*
X21909235Y43927428D01*
X21900970Y43904329D01*
X21890480Y43882150D01*
X21877868Y43861107D01*
X21863253Y43841401D01*
X21846777Y43823223D01*
X21828599Y43806747D01*
X21808893Y43792132D01*
X21787850Y43779520D01*
X21765671Y43769030D01*
X21742572Y43760765D01*
X21718773Y43754804D01*
X21694505Y43751204D01*
X21670001Y43750000D01*
X21019999Y43750000D01*
X20995495Y43751204D01*
X20971227Y43754804D01*
X20947428Y43760765D01*
X20924329Y43769030D01*
X20902150Y43779520D01*
X20881107Y43792132D01*
X20861401Y43806747D01*
X20843223Y43823223D01*
X20826747Y43841401D01*
X20812132Y43861107D01*
X20799520Y43882150D01*
X20789030Y43904329D01*
X20780765Y43927428D01*
X20774804Y43951227D01*
X20771204Y43975495D01*
X20770000Y43999999D01*
X20770000Y44900001D01*
X20771204Y44924505D01*
X20774804Y44948773D01*
X20780765Y44972572D01*
X20789030Y44995671D01*
X20799520Y45017850D01*
X20812132Y45038893D01*
X20826747Y45058599D01*
X20843223Y45076777D01*
X20861401Y45093253D01*
X20881107Y45107868D01*
X20902150Y45120480D01*
X20924329Y45130970D01*
X20947428Y45139235D01*
X20971227Y45145196D01*
X20995495Y45148796D01*
X21019999Y45150000D01*
X21670001Y45150000D01*
X21694505Y45148796D01*
G37*
%TD*%
%TO.C,R3*%
G36*
X63974505Y10978796D02*
G01*
X63998773Y10975196D01*
X64022572Y10969235D01*
X64045671Y10960970D01*
X64067850Y10950480D01*
X64088893Y10937868D01*
X64108599Y10923253D01*
X64126777Y10906777D01*
X64143253Y10888599D01*
X64157868Y10868893D01*
X64170480Y10847850D01*
X64180970Y10825671D01*
X64189235Y10802572D01*
X64195196Y10778773D01*
X64198796Y10754505D01*
X64200000Y10730001D01*
X64200000Y10079999D01*
X64198796Y10055495D01*
X64195196Y10031227D01*
X64189235Y10007428D01*
X64180970Y9984329D01*
X64170480Y9962150D01*
X64157868Y9941107D01*
X64143253Y9921401D01*
X64126777Y9903223D01*
X64108599Y9886747D01*
X64088893Y9872132D01*
X64067850Y9859520D01*
X64045671Y9849030D01*
X64022572Y9840765D01*
X63998773Y9834804D01*
X63974505Y9831204D01*
X63950001Y9830000D01*
X63049999Y9830000D01*
X63025495Y9831204D01*
X63001227Y9834804D01*
X62977428Y9840765D01*
X62954329Y9849030D01*
X62932150Y9859520D01*
X62911107Y9872132D01*
X62891401Y9886747D01*
X62873223Y9903223D01*
X62856747Y9921401D01*
X62842132Y9941107D01*
X62829520Y9962150D01*
X62819030Y9984329D01*
X62810765Y10007428D01*
X62804804Y10031227D01*
X62801204Y10055495D01*
X62800000Y10079999D01*
X62800000Y10730001D01*
X62801204Y10754505D01*
X62804804Y10778773D01*
X62810765Y10802572D01*
X62819030Y10825671D01*
X62829520Y10847850D01*
X62842132Y10868893D01*
X62856747Y10888599D01*
X62873223Y10906777D01*
X62891401Y10923253D01*
X62911107Y10937868D01*
X62932150Y10950480D01*
X62954329Y10960970D01*
X62977428Y10969235D01*
X63001227Y10975196D01*
X63025495Y10978796D01*
X63049999Y10980000D01*
X63950001Y10980000D01*
X63974505Y10978796D01*
G37*
G36*
X63974505Y13028796D02*
G01*
X63998773Y13025196D01*
X64022572Y13019235D01*
X64045671Y13010970D01*
X64067850Y13000480D01*
X64088893Y12987868D01*
X64108599Y12973253D01*
X64126777Y12956777D01*
X64143253Y12938599D01*
X64157868Y12918893D01*
X64170480Y12897850D01*
X64180970Y12875671D01*
X64189235Y12852572D01*
X64195196Y12828773D01*
X64198796Y12804505D01*
X64200000Y12780001D01*
X64200000Y12129999D01*
X64198796Y12105495D01*
X64195196Y12081227D01*
X64189235Y12057428D01*
X64180970Y12034329D01*
X64170480Y12012150D01*
X64157868Y11991107D01*
X64143253Y11971401D01*
X64126777Y11953223D01*
X64108599Y11936747D01*
X64088893Y11922132D01*
X64067850Y11909520D01*
X64045671Y11899030D01*
X64022572Y11890765D01*
X63998773Y11884804D01*
X63974505Y11881204D01*
X63950001Y11880000D01*
X63049999Y11880000D01*
X63025495Y11881204D01*
X63001227Y11884804D01*
X62977428Y11890765D01*
X62954329Y11899030D01*
X62932150Y11909520D01*
X62911107Y11922132D01*
X62891401Y11936747D01*
X62873223Y11953223D01*
X62856747Y11971401D01*
X62842132Y11991107D01*
X62829520Y12012150D01*
X62819030Y12034329D01*
X62810765Y12057428D01*
X62804804Y12081227D01*
X62801204Y12105495D01*
X62800000Y12129999D01*
X62800000Y12780001D01*
X62801204Y12804505D01*
X62804804Y12828773D01*
X62810765Y12852572D01*
X62819030Y12875671D01*
X62829520Y12897850D01*
X62842132Y12918893D01*
X62856747Y12938599D01*
X62873223Y12956777D01*
X62891401Y12973253D01*
X62911107Y12987868D01*
X62932150Y13000480D01*
X62954329Y13010970D01*
X62977428Y13019235D01*
X63001227Y13025196D01*
X63025495Y13028796D01*
X63049999Y13030000D01*
X63950001Y13030000D01*
X63974505Y13028796D01*
G37*
%TD*%
%TO.C,R4*%
G36*
X51274505Y12783796D02*
G01*
X51298773Y12780196D01*
X51322572Y12774235D01*
X51345671Y12765970D01*
X51367850Y12755480D01*
X51388893Y12742868D01*
X51408599Y12728253D01*
X51426777Y12711777D01*
X51443253Y12693599D01*
X51457868Y12673893D01*
X51470480Y12652850D01*
X51480970Y12630671D01*
X51489235Y12607572D01*
X51495196Y12583773D01*
X51498796Y12559505D01*
X51500000Y12535001D01*
X51500000Y11884999D01*
X51498796Y11860495D01*
X51495196Y11836227D01*
X51489235Y11812428D01*
X51480970Y11789329D01*
X51470480Y11767150D01*
X51457868Y11746107D01*
X51443253Y11726401D01*
X51426777Y11708223D01*
X51408599Y11691747D01*
X51388893Y11677132D01*
X51367850Y11664520D01*
X51345671Y11654030D01*
X51322572Y11645765D01*
X51298773Y11639804D01*
X51274505Y11636204D01*
X51250001Y11635000D01*
X50349999Y11635000D01*
X50325495Y11636204D01*
X50301227Y11639804D01*
X50277428Y11645765D01*
X50254329Y11654030D01*
X50232150Y11664520D01*
X50211107Y11677132D01*
X50191401Y11691747D01*
X50173223Y11708223D01*
X50156747Y11726401D01*
X50142132Y11746107D01*
X50129520Y11767150D01*
X50119030Y11789329D01*
X50110765Y11812428D01*
X50104804Y11836227D01*
X50101204Y11860495D01*
X50100000Y11884999D01*
X50100000Y12535001D01*
X50101204Y12559505D01*
X50104804Y12583773D01*
X50110765Y12607572D01*
X50119030Y12630671D01*
X50129520Y12652850D01*
X50142132Y12673893D01*
X50156747Y12693599D01*
X50173223Y12711777D01*
X50191401Y12728253D01*
X50211107Y12742868D01*
X50232150Y12755480D01*
X50254329Y12765970D01*
X50277428Y12774235D01*
X50301227Y12780196D01*
X50325495Y12783796D01*
X50349999Y12785000D01*
X51250001Y12785000D01*
X51274505Y12783796D01*
G37*
G36*
X51274505Y10733796D02*
G01*
X51298773Y10730196D01*
X51322572Y10724235D01*
X51345671Y10715970D01*
X51367850Y10705480D01*
X51388893Y10692868D01*
X51408599Y10678253D01*
X51426777Y10661777D01*
X51443253Y10643599D01*
X51457868Y10623893D01*
X51470480Y10602850D01*
X51480970Y10580671D01*
X51489235Y10557572D01*
X51495196Y10533773D01*
X51498796Y10509505D01*
X51500000Y10485001D01*
X51500000Y9834999D01*
X51498796Y9810495D01*
X51495196Y9786227D01*
X51489235Y9762428D01*
X51480970Y9739329D01*
X51470480Y9717150D01*
X51457868Y9696107D01*
X51443253Y9676401D01*
X51426777Y9658223D01*
X51408599Y9641747D01*
X51388893Y9627132D01*
X51367850Y9614520D01*
X51345671Y9604030D01*
X51322572Y9595765D01*
X51298773Y9589804D01*
X51274505Y9586204D01*
X51250001Y9585000D01*
X50349999Y9585000D01*
X50325495Y9586204D01*
X50301227Y9589804D01*
X50277428Y9595765D01*
X50254329Y9604030D01*
X50232150Y9614520D01*
X50211107Y9627132D01*
X50191401Y9641747D01*
X50173223Y9658223D01*
X50156747Y9676401D01*
X50142132Y9696107D01*
X50129520Y9717150D01*
X50119030Y9739329D01*
X50110765Y9762428D01*
X50104804Y9786227D01*
X50101204Y9810495D01*
X50100000Y9834999D01*
X50100000Y10485001D01*
X50101204Y10509505D01*
X50104804Y10533773D01*
X50110765Y10557572D01*
X50119030Y10580671D01*
X50129520Y10602850D01*
X50142132Y10623893D01*
X50156747Y10643599D01*
X50173223Y10661777D01*
X50191401Y10678253D01*
X50211107Y10692868D01*
X50232150Y10705480D01*
X50254329Y10715970D01*
X50277428Y10724235D01*
X50301227Y10730196D01*
X50325495Y10733796D01*
X50349999Y10735000D01*
X51250001Y10735000D01*
X51274505Y10733796D01*
G37*
%TD*%
M02*
