M48
; DRILL file {KiCad 5.1.5-1.fc31} date czw, 2 kwi 2020, 16:35:28
; FORMAT={-:-/ absolute / metric / decimal}
; #@! TF.CreationDate,2020-04-02T16:35:28+02:00
; #@! TF.GenerationSoftware,Kicad,Pcbnew,5.1.5-1.fc31
; #@! TF.FileFunction,Plated,1,2,PTH
FMAT,2
METRIC
T1C0.400
T2C0.900
T3C1.000
T4C1.016
T5C1.100
%
G90
G05
T1
X8.439Y18.581
X17.712Y35.289
X22.133Y27.296
X25.188Y25.819
X27.729Y34.206
X33.078Y28.23
X35.974Y29.551
X37.296Y21.441
X39.073Y19.858
X55.89Y29.082
X65.975Y27.667
X68.673Y28.467
X75.881Y25.536
T2
X50.8Y6.35
X53.34Y6.35
X60.96Y6.35
X63.5Y6.35
T3
X90.17Y42.545
X92.71Y42.545
X95.25Y42.545
X72.39Y45.085
X72.39Y42.545
X72.39Y40.005
T4
X101.6Y30.48
X101.6Y27.94
X101.6Y25.4
X104.14Y30.48
X104.14Y27.94
X104.14Y25.4
X80.01Y30.48
X80.01Y27.94
X80.01Y25.4
X80.01Y22.86
X80.01Y20.32
X82.55Y30.48
X82.55Y27.94
X82.55Y25.4
X82.55Y22.86
X82.55Y20.32
X90.805Y30.48
X90.805Y27.94
X90.805Y25.4
X93.345Y30.48
X93.345Y27.94
X93.345Y25.4
T5
X36.83Y8.89
X36.83Y4.39
X43.33Y8.89
X43.33Y4.39
X8.89Y48.26
X8.89Y43.76
X15.39Y48.26
X15.39Y43.76
T0
M30
