%TF.GenerationSoftware,KiCad,Pcbnew,5.1.5-1.fc31*%
%TF.CreationDate,2020-04-02T16:35:23+02:00*%
%TF.ProjectId,avrisp-mkII-clone,61767269-7370-42d6-9d6b-49492d636c6f,1.0*%
%TF.SameCoordinates,PX54c81a0PY82ce540*%
%TF.FileFunction,Other,Fab,Top*%
%FSLAX46Y46*%
G04 Gerber Fmt 4.6, Leading zero omitted, Abs format (unit mm)*
G04 Created by KiCad (PCBNEW 5.1.5-1.fc31) date 2020-04-02 16:35:23*
%MOMM*%
%LPD*%
G04 APERTURE LIST*
%ADD10C,0.100000*%
%ADD11C,0.150000*%
%ADD12C,0.080000*%
%ADD13C,0.120000*%
G04 APERTURE END LIST*
D10*
%TO.C,SW1*%
X12140000Y49010000D02*
X15140000Y49010000D01*
X15140000Y49010000D02*
X15140000Y43010000D01*
X15140000Y43010000D02*
X9140000Y43010000D01*
X9140000Y43010000D02*
X9140000Y49010000D01*
X9140000Y49010000D02*
X12140000Y49010000D01*
X14155564Y46010000D02*
G75*
G03X14155564Y46010000I-2015564J0D01*
G01*
%TO.C,D1*%
X15875000Y37080000D02*
X15875000Y37580000D01*
X16275000Y37080000D02*
X15875000Y36480000D01*
X15475000Y37080000D02*
X16275000Y37080000D01*
X15875000Y36480000D02*
X15475000Y37080000D01*
X15875000Y36480000D02*
X16425000Y36480000D01*
X15875000Y36480000D02*
X15325000Y36480000D01*
X15875000Y36080000D02*
X15875000Y36480000D01*
X16775000Y35430000D02*
X14975000Y35430000D01*
X16775000Y38230000D02*
X16775000Y35430000D01*
X14975000Y38230000D02*
X16775000Y38230000D01*
X14975000Y35430000D02*
X14975000Y38230000D01*
%TO.C,C9*%
X42155000Y49370000D02*
X37855000Y49370000D01*
X42155000Y42070000D02*
X42155000Y49370000D01*
X38855000Y42070000D02*
X42155000Y42070000D01*
X37855000Y43070000D02*
X38855000Y42070000D01*
X37855000Y49370000D02*
X37855000Y43070000D01*
%TO.C,C8*%
X61840000Y49370000D02*
X57540000Y49370000D01*
X61840000Y42070000D02*
X61840000Y49370000D01*
X58540000Y42070000D02*
X61840000Y42070000D01*
X57540000Y43070000D02*
X58540000Y42070000D01*
X57540000Y49370000D02*
X57540000Y43070000D01*
%TO.C,C6*%
X2930000Y29370000D02*
X7230000Y29370000D01*
X2930000Y36670000D02*
X2930000Y29370000D01*
X6230000Y36670000D02*
X2930000Y36670000D01*
X7230000Y35670000D02*
X6230000Y36670000D01*
X7230000Y29370000D02*
X7230000Y35670000D01*
%TO.C,J3*%
X98445000Y20300000D02*
X98995000Y20860000D01*
X98445000Y35580000D02*
X98995000Y35040000D01*
X107295000Y20300000D02*
X106745000Y20860000D01*
X107295000Y35580000D02*
X106745000Y35040000D01*
X106745000Y20860000D02*
X98995000Y20860000D01*
X107295000Y20300000D02*
X98445000Y20300000D01*
X106745000Y35040000D02*
X98995000Y35040000D01*
X107295000Y35580000D02*
X98445000Y35580000D01*
X98995000Y25690000D02*
X98445000Y25690000D01*
X98995000Y30190000D02*
X98445000Y30190000D01*
X98995000Y25690000D02*
X98995000Y20860000D01*
X98995000Y35040000D02*
X98995000Y30190000D01*
X98445000Y35580000D02*
X98445000Y20300000D01*
X106745000Y35040000D02*
X106745000Y20860000D01*
X107295000Y35580000D02*
X107295000Y20300000D01*
%TO.C,J2*%
X87650000Y20300000D02*
X88200000Y20860000D01*
X87650000Y35580000D02*
X88200000Y35040000D01*
X96500000Y20300000D02*
X95950000Y20860000D01*
X96500000Y35580000D02*
X95950000Y35040000D01*
X95950000Y20860000D02*
X88200000Y20860000D01*
X96500000Y20300000D02*
X87650000Y20300000D01*
X95950000Y35040000D02*
X88200000Y35040000D01*
X96500000Y35580000D02*
X87650000Y35580000D01*
X88200000Y25690000D02*
X87650000Y25690000D01*
X88200000Y30190000D02*
X87650000Y30190000D01*
X88200000Y25690000D02*
X88200000Y20860000D01*
X88200000Y35040000D02*
X88200000Y30190000D01*
X87650000Y35580000D02*
X87650000Y20300000D01*
X95950000Y35040000D02*
X95950000Y20860000D01*
X96500000Y35580000D02*
X96500000Y20300000D01*
%TO.C,C2*%
X16545000Y5445000D02*
X17745000Y5445000D01*
X17745000Y5445000D02*
X17745000Y3445000D01*
X17745000Y3445000D02*
X16545000Y3445000D01*
X16545000Y3445000D02*
X16545000Y5445000D01*
%TO.C,C3*%
X21625000Y5445000D02*
X22825000Y5445000D01*
X22825000Y5445000D02*
X22825000Y3445000D01*
X22825000Y3445000D02*
X21625000Y3445000D01*
X21625000Y3445000D02*
X21625000Y5445000D01*
%TO.C,C4*%
X19955000Y36160000D02*
X21955000Y36160000D01*
X19955000Y34960000D02*
X19955000Y36160000D01*
X21955000Y34960000D02*
X19955000Y34960000D01*
X21955000Y36160000D02*
X21955000Y34960000D01*
%TO.C,C5*%
X28060000Y36160000D02*
X28060000Y34960000D01*
X28060000Y34960000D02*
X26060000Y34960000D01*
X26060000Y34960000D02*
X26060000Y36160000D01*
X26060000Y36160000D02*
X28060000Y36160000D01*
%TO.C,C7*%
X59325000Y20920000D02*
X61325000Y20920000D01*
X59325000Y19720000D02*
X59325000Y20920000D01*
X61325000Y19720000D02*
X59325000Y19720000D01*
X61325000Y20920000D02*
X61325000Y19720000D01*
%TO.C,C10*%
X59570000Y31785000D02*
X59570000Y32985000D01*
X59570000Y32985000D02*
X61570000Y32985000D01*
X61570000Y32985000D02*
X61570000Y31785000D01*
X61570000Y31785000D02*
X59570000Y31785000D01*
%TO.C,D2*%
X60729445Y5184524D02*
G75*
G03X60730000Y7516190I1500555J1165476D01*
G01*
X63730000Y6350000D02*
G75*
G03X63730000Y6350000I-1500000J0D01*
G01*
X60730000Y7516190D02*
X60730000Y5183810D01*
%TO.C,D3*%
X53570000Y5183810D02*
X53570000Y7516190D01*
X53570000Y6350000D02*
G75*
G03X53570000Y6350000I-1500000J0D01*
G01*
X53570555Y7515476D02*
G75*
G03X53570000Y5183810I-1500555J-1165476D01*
G01*
%TO.C,FB1*%
X32080000Y43345000D02*
X32080000Y41745000D01*
X32080000Y41745000D02*
X28880000Y41745000D01*
X28880000Y41745000D02*
X28880000Y43345000D01*
X28880000Y43345000D02*
X32080000Y43345000D01*
%TO.C,J1*%
X-810000Y14030000D02*
X-810000Y21530000D01*
X4190000Y14030000D02*
X-810000Y14030000D01*
X4190000Y21530000D02*
X4190000Y14030000D01*
X-810000Y21530000D02*
X4190000Y21530000D01*
X-110000Y21030000D02*
X-110000Y14530000D01*
%TO.C,JP1*%
X73025000Y38735000D02*
X71120000Y38735000D01*
X71120000Y38735000D02*
X71120000Y46355000D01*
X71120000Y46355000D02*
X73660000Y46355000D01*
X73660000Y46355000D02*
X73660000Y39370000D01*
X73660000Y39370000D02*
X73025000Y38735000D01*
%TO.C,JP2*%
X89535000Y41275000D02*
X88900000Y41910000D01*
X96520000Y41275000D02*
X89535000Y41275000D01*
X96520000Y43815000D02*
X96520000Y41275000D01*
X88900000Y43815000D02*
X96520000Y43815000D01*
X88900000Y41910000D02*
X88900000Y43815000D01*
%TO.C,R2*%
X47260000Y23530000D02*
X47260000Y24730000D01*
X47260000Y24730000D02*
X49260000Y24730000D01*
X49260000Y24730000D02*
X49260000Y23530000D01*
X49260000Y23530000D02*
X47260000Y23530000D01*
%TO.C,R5*%
X47260000Y33690000D02*
X47260000Y34890000D01*
X47260000Y34890000D02*
X49260000Y34890000D01*
X49260000Y34890000D02*
X49260000Y33690000D01*
X49260000Y33690000D02*
X47260000Y33690000D01*
%TO.C,R6*%
X47260000Y16475000D02*
X49260000Y16475000D01*
X47260000Y15275000D02*
X47260000Y16475000D01*
X49260000Y15275000D02*
X47260000Y15275000D01*
X49260000Y16475000D02*
X49260000Y15275000D01*
%TO.C,R7*%
X47260000Y20285000D02*
X49260000Y20285000D01*
X47260000Y19085000D02*
X47260000Y20285000D01*
X49260000Y19085000D02*
X47260000Y19085000D01*
X49260000Y20285000D02*
X49260000Y19085000D01*
%TO.C,SW2*%
X42095564Y6640000D02*
G75*
G03X42095564Y6640000I-2015564J0D01*
G01*
X37080000Y9640000D02*
X40080000Y9640000D01*
X37080000Y3640000D02*
X37080000Y9640000D01*
X43080000Y3640000D02*
X37080000Y3640000D01*
X43080000Y9640000D02*
X43080000Y3640000D01*
X40080000Y9640000D02*
X43080000Y9640000D01*
D11*
%TO.C,U1*%
X23697359Y25472107D02*
X27940000Y29714747D01*
X27940000Y29714747D02*
X32889747Y24765000D01*
X32889747Y24765000D02*
X27940000Y19815253D01*
X27940000Y19815253D02*
X23697359Y24057893D01*
X23697359Y24057893D02*
X23697359Y25472107D01*
D10*
%TO.C,U2*%
X48188000Y44718000D02*
X49238000Y45768000D01*
X48188000Y44718000D02*
X48188000Y39068000D01*
X49238000Y45768000D02*
X51888000Y45768000D01*
X48188000Y39068000D02*
X51888000Y39068000D01*
X51888000Y45768000D02*
X51888000Y39068000D01*
D11*
%TO.C,U3*%
X61525000Y22785000D02*
X58125000Y22785000D01*
X58125000Y22785000D02*
X58125000Y29285000D01*
X58125000Y29285000D02*
X62525000Y29285000D01*
X62525000Y29285000D02*
X62525000Y23785000D01*
X62525000Y23785000D02*
X61525000Y22785000D01*
D10*
%TO.C,U4*%
X85705000Y35580000D02*
X85705000Y15220000D01*
X85155000Y35040000D02*
X85155000Y15780000D01*
X76855000Y35580000D02*
X76855000Y15220000D01*
X77405000Y35040000D02*
X77405000Y27650000D01*
X77405000Y23150000D02*
X77405000Y15780000D01*
X77405000Y27650000D02*
X76855000Y27650000D01*
X77405000Y23150000D02*
X76855000Y23150000D01*
X85705000Y35580000D02*
X76855000Y35580000D01*
X85155000Y35040000D02*
X77405000Y35040000D01*
X85705000Y15220000D02*
X76855000Y15220000D01*
X85155000Y15780000D02*
X77405000Y15780000D01*
X85705000Y35580000D02*
X85155000Y35040000D01*
X85705000Y15220000D02*
X85155000Y15780000D01*
X76855000Y35580000D02*
X77405000Y35040000D01*
X76855000Y15220000D02*
X77405000Y15780000D01*
%TO.C,Y1*%
X13985000Y13145000D02*
X13985000Y8445000D01*
X13985000Y8445000D02*
X25385000Y8445000D01*
X25385000Y8445000D02*
X25385000Y13145000D01*
X25385000Y13145000D02*
X13985000Y13145000D01*
X16670000Y12910000D02*
X22700000Y12910000D01*
X16670000Y8680000D02*
X22700000Y8680000D01*
X16670000Y8680000D02*
G75*
G02X16670000Y12910000I0J2115000D01*
G01*
X22700000Y8680000D02*
G75*
G03X22700000Y12910000I0J2115000D01*
G01*
%TD*%
%TO.C,M4*%
D11*
X2030476Y2087620D02*
X2030476Y3087620D01*
X2363809Y2373334D01*
X2697142Y3087620D01*
X2697142Y2087620D01*
X3601904Y2754286D02*
X3601904Y2087620D01*
X3363809Y3135239D02*
X3125714Y2420953D01*
X3744761Y2420953D01*
%TO.C,M3*%
X111250476Y2087620D02*
X111250476Y3087620D01*
X111583809Y2373334D01*
X111917142Y3087620D01*
X111917142Y2087620D01*
X112298095Y3087620D02*
X112917142Y3087620D01*
X112583809Y2706667D01*
X112726666Y2706667D01*
X112821904Y2659048D01*
X112869523Y2611429D01*
X112917142Y2516191D01*
X112917142Y2278096D01*
X112869523Y2182858D01*
X112821904Y2135239D01*
X112726666Y2087620D01*
X112440952Y2087620D01*
X112345714Y2135239D01*
X112298095Y2182858D01*
%TO.C,M2*%
X111250476Y50347620D02*
X111250476Y51347620D01*
X111583809Y50633334D01*
X111917142Y51347620D01*
X111917142Y50347620D01*
X112345714Y51252381D02*
X112393333Y51300000D01*
X112488571Y51347620D01*
X112726666Y51347620D01*
X112821904Y51300000D01*
X112869523Y51252381D01*
X112917142Y51157143D01*
X112917142Y51061905D01*
X112869523Y50919048D01*
X112298095Y50347620D01*
X112917142Y50347620D01*
%TO.C,M1*%
X2030476Y50347620D02*
X2030476Y51347620D01*
X2363809Y50633334D01*
X2697142Y51347620D01*
X2697142Y50347620D01*
X3697142Y50347620D02*
X3125714Y50347620D01*
X3411428Y50347620D02*
X3411428Y51347620D01*
X3316190Y51204762D01*
X3220952Y51109524D01*
X3125714Y51061905D01*
%TO.C,SW1*%
X11020952Y41107620D02*
X11020952Y41774286D01*
X11020952Y41583810D02*
X11068571Y41679048D01*
X11116190Y41726667D01*
X11211428Y41774286D01*
X11306666Y41774286D01*
X12020952Y41155239D02*
X11925714Y41107620D01*
X11735238Y41107620D01*
X11640000Y41155239D01*
X11592380Y41250477D01*
X11592380Y41631429D01*
X11640000Y41726667D01*
X11735238Y41774286D01*
X11925714Y41774286D01*
X12020952Y41726667D01*
X12068571Y41631429D01*
X12068571Y41536191D01*
X11592380Y41440953D01*
X12449523Y41155239D02*
X12544761Y41107620D01*
X12735238Y41107620D01*
X12830476Y41155239D01*
X12878095Y41250477D01*
X12878095Y41298096D01*
X12830476Y41393334D01*
X12735238Y41440953D01*
X12592380Y41440953D01*
X12497142Y41488572D01*
X12449523Y41583810D01*
X12449523Y41631429D01*
X12497142Y41726667D01*
X12592380Y41774286D01*
X12735238Y41774286D01*
X12830476Y41726667D01*
X13687619Y41155239D02*
X13592380Y41107620D01*
X13401904Y41107620D01*
X13306666Y41155239D01*
X13259047Y41250477D01*
X13259047Y41631429D01*
X13306666Y41726667D01*
X13401904Y41774286D01*
X13592380Y41774286D01*
X13687619Y41726667D01*
X13735238Y41631429D01*
X13735238Y41536191D01*
X13259047Y41440953D01*
X14020952Y41774286D02*
X14401904Y41774286D01*
X14163809Y42107620D02*
X14163809Y41250477D01*
X14211428Y41155239D01*
X14306666Y41107620D01*
X14401904Y41107620D01*
X10806666Y45605239D02*
X10949523Y45557620D01*
X11187619Y45557620D01*
X11282857Y45605239D01*
X11330476Y45652858D01*
X11378095Y45748096D01*
X11378095Y45843334D01*
X11330476Y45938572D01*
X11282857Y45986191D01*
X11187619Y46033810D01*
X10997142Y46081429D01*
X10901904Y46129048D01*
X10854285Y46176667D01*
X10806666Y46271905D01*
X10806666Y46367143D01*
X10854285Y46462381D01*
X10901904Y46510000D01*
X10997142Y46557620D01*
X11235238Y46557620D01*
X11378095Y46510000D01*
X11711428Y46557620D02*
X11949523Y45557620D01*
X12140000Y46271905D01*
X12330476Y45557620D01*
X12568571Y46557620D01*
X13473333Y45557620D02*
X12901904Y45557620D01*
X13187619Y45557620D02*
X13187619Y46557620D01*
X13092380Y46414762D01*
X12997142Y46319524D01*
X12901904Y46271905D01*
%TO.C,D1*%
X18427380Y34115715D02*
X18427380Y33544286D01*
X18427380Y33830000D02*
X17427380Y33830000D01*
X17570238Y33734762D01*
X17665476Y33639524D01*
X17713095Y33544286D01*
X18427380Y34544286D02*
X17427380Y34544286D01*
X18427380Y35115715D01*
X17427380Y35115715D01*
X17760714Y36020477D02*
X18427380Y36020477D01*
X17379761Y35782381D02*
X18094047Y35544286D01*
X18094047Y36163334D01*
X18427380Y37068096D02*
X18427380Y36496667D01*
X18427380Y36782381D02*
X17427380Y36782381D01*
X17570238Y36687143D01*
X17665476Y36591905D01*
X17713095Y36496667D01*
X17760714Y37925239D02*
X18427380Y37925239D01*
X17379761Y37687143D02*
X18094047Y37449048D01*
X18094047Y38068096D01*
X17855952Y38591905D02*
X17808333Y38496667D01*
X17760714Y38449048D01*
X17665476Y38401429D01*
X17617857Y38401429D01*
X17522619Y38449048D01*
X17475000Y38496667D01*
X17427380Y38591905D01*
X17427380Y38782381D01*
X17475000Y38877620D01*
X17522619Y38925239D01*
X17617857Y38972858D01*
X17665476Y38972858D01*
X17760714Y38925239D01*
X17808333Y38877620D01*
X17855952Y38782381D01*
X17855952Y38591905D01*
X17903571Y38496667D01*
X17951190Y38449048D01*
X18046428Y38401429D01*
X18236904Y38401429D01*
X18332142Y38449048D01*
X18379761Y38496667D01*
X18427380Y38591905D01*
X18427380Y38782381D01*
X18379761Y38877620D01*
X18332142Y38925239D01*
X18236904Y38972858D01*
X18046428Y38972858D01*
X17951190Y38925239D01*
X17903571Y38877620D01*
X17855952Y38782381D01*
X17427380Y39306191D02*
X18427380Y39544286D01*
X17713095Y39734762D01*
X18427380Y39925239D01*
X17427380Y40163334D01*
X14327380Y36091905D02*
X13327380Y36091905D01*
X13327380Y36330000D01*
X13375000Y36472858D01*
X13470238Y36568096D01*
X13565476Y36615715D01*
X13755952Y36663334D01*
X13898809Y36663334D01*
X14089285Y36615715D01*
X14184523Y36568096D01*
X14279761Y36472858D01*
X14327380Y36330000D01*
X14327380Y36091905D01*
X14327380Y37615715D02*
X14327380Y37044286D01*
X14327380Y37330000D02*
X13327380Y37330000D01*
X13470238Y37234762D01*
X13565476Y37139524D01*
X13613095Y37044286D01*
%TO.C,C9*%
X43557380Y45077143D02*
X43557380Y44505715D01*
X43557380Y44791429D02*
X42557380Y44791429D01*
X42700238Y44696191D01*
X42795476Y44600953D01*
X42843095Y44505715D01*
X42557380Y45696191D02*
X42557380Y45791429D01*
X42605000Y45886667D01*
X42652619Y45934286D01*
X42747857Y45981905D01*
X42938333Y46029524D01*
X43176428Y46029524D01*
X43366904Y45981905D01*
X43462142Y45934286D01*
X43509761Y45886667D01*
X43557380Y45791429D01*
X43557380Y45696191D01*
X43509761Y45600953D01*
X43462142Y45553334D01*
X43366904Y45505715D01*
X43176428Y45458096D01*
X42938333Y45458096D01*
X42747857Y45505715D01*
X42652619Y45553334D01*
X42605000Y45600953D01*
X42557380Y45696191D01*
X42890714Y46886667D02*
X43557380Y46886667D01*
X42890714Y46458096D02*
X43414523Y46458096D01*
X43509761Y46505715D01*
X43557380Y46600953D01*
X43557380Y46743810D01*
X43509761Y46839048D01*
X43462142Y46886667D01*
X40362142Y45553334D02*
X40409761Y45505715D01*
X40457380Y45362858D01*
X40457380Y45267620D01*
X40409761Y45124762D01*
X40314523Y45029524D01*
X40219285Y44981905D01*
X40028809Y44934286D01*
X39885952Y44934286D01*
X39695476Y44981905D01*
X39600238Y45029524D01*
X39505000Y45124762D01*
X39457380Y45267620D01*
X39457380Y45362858D01*
X39505000Y45505715D01*
X39552619Y45553334D01*
X40457380Y46029524D02*
X40457380Y46220000D01*
X40409761Y46315239D01*
X40362142Y46362858D01*
X40219285Y46458096D01*
X40028809Y46505715D01*
X39647857Y46505715D01*
X39552619Y46458096D01*
X39505000Y46410477D01*
X39457380Y46315239D01*
X39457380Y46124762D01*
X39505000Y46029524D01*
X39552619Y45981905D01*
X39647857Y45934286D01*
X39885952Y45934286D01*
X39981190Y45981905D01*
X40028809Y46029524D01*
X40076428Y46124762D01*
X40076428Y46315239D01*
X40028809Y46410477D01*
X39981190Y46458096D01*
X39885952Y46505715D01*
%TO.C,C8*%
X63242380Y45077143D02*
X63242380Y44505715D01*
X63242380Y44791429D02*
X62242380Y44791429D01*
X62385238Y44696191D01*
X62480476Y44600953D01*
X62528095Y44505715D01*
X62242380Y45696191D02*
X62242380Y45791429D01*
X62290000Y45886667D01*
X62337619Y45934286D01*
X62432857Y45981905D01*
X62623333Y46029524D01*
X62861428Y46029524D01*
X63051904Y45981905D01*
X63147142Y45934286D01*
X63194761Y45886667D01*
X63242380Y45791429D01*
X63242380Y45696191D01*
X63194761Y45600953D01*
X63147142Y45553334D01*
X63051904Y45505715D01*
X62861428Y45458096D01*
X62623333Y45458096D01*
X62432857Y45505715D01*
X62337619Y45553334D01*
X62290000Y45600953D01*
X62242380Y45696191D01*
X62575714Y46886667D02*
X63242380Y46886667D01*
X62575714Y46458096D02*
X63099523Y46458096D01*
X63194761Y46505715D01*
X63242380Y46600953D01*
X63242380Y46743810D01*
X63194761Y46839048D01*
X63147142Y46886667D01*
X60047142Y45553334D02*
X60094761Y45505715D01*
X60142380Y45362858D01*
X60142380Y45267620D01*
X60094761Y45124762D01*
X59999523Y45029524D01*
X59904285Y44981905D01*
X59713809Y44934286D01*
X59570952Y44934286D01*
X59380476Y44981905D01*
X59285238Y45029524D01*
X59190000Y45124762D01*
X59142380Y45267620D01*
X59142380Y45362858D01*
X59190000Y45505715D01*
X59237619Y45553334D01*
X59570952Y46124762D02*
X59523333Y46029524D01*
X59475714Y45981905D01*
X59380476Y45934286D01*
X59332857Y45934286D01*
X59237619Y45981905D01*
X59190000Y46029524D01*
X59142380Y46124762D01*
X59142380Y46315239D01*
X59190000Y46410477D01*
X59237619Y46458096D01*
X59332857Y46505715D01*
X59380476Y46505715D01*
X59475714Y46458096D01*
X59523333Y46410477D01*
X59570952Y46315239D01*
X59570952Y46124762D01*
X59618571Y46029524D01*
X59666190Y45981905D01*
X59761428Y45934286D01*
X59951904Y45934286D01*
X60047142Y45981905D01*
X60094761Y46029524D01*
X60142380Y46124762D01*
X60142380Y46315239D01*
X60094761Y46410477D01*
X60047142Y46458096D01*
X59951904Y46505715D01*
X59761428Y46505715D01*
X59666190Y46458096D01*
X59618571Y46410477D01*
X59570952Y46315239D01*
%TO.C,C6*%
X2432380Y32377143D02*
X2432380Y31805715D01*
X2432380Y32091429D02*
X1432380Y32091429D01*
X1575238Y31996191D01*
X1670476Y31900953D01*
X1718095Y31805715D01*
X1432380Y32996191D02*
X1432380Y33091429D01*
X1480000Y33186667D01*
X1527619Y33234286D01*
X1622857Y33281905D01*
X1813333Y33329524D01*
X2051428Y33329524D01*
X2241904Y33281905D01*
X2337142Y33234286D01*
X2384761Y33186667D01*
X2432380Y33091429D01*
X2432380Y32996191D01*
X2384761Y32900953D01*
X2337142Y32853334D01*
X2241904Y32805715D01*
X2051428Y32758096D01*
X1813333Y32758096D01*
X1622857Y32805715D01*
X1527619Y32853334D01*
X1480000Y32900953D01*
X1432380Y32996191D01*
X1765714Y34186667D02*
X2432380Y34186667D01*
X1765714Y33758096D02*
X2289523Y33758096D01*
X2384761Y33805715D01*
X2432380Y33900953D01*
X2432380Y34043810D01*
X2384761Y34139048D01*
X2337142Y34186667D01*
X5437142Y32853334D02*
X5484761Y32805715D01*
X5532380Y32662858D01*
X5532380Y32567620D01*
X5484761Y32424762D01*
X5389523Y32329524D01*
X5294285Y32281905D01*
X5103809Y32234286D01*
X4960952Y32234286D01*
X4770476Y32281905D01*
X4675238Y32329524D01*
X4580000Y32424762D01*
X4532380Y32567620D01*
X4532380Y32662858D01*
X4580000Y32805715D01*
X4627619Y32853334D01*
X4532380Y33710477D02*
X4532380Y33520000D01*
X4580000Y33424762D01*
X4627619Y33377143D01*
X4770476Y33281905D01*
X4960952Y33234286D01*
X5341904Y33234286D01*
X5437142Y33281905D01*
X5484761Y33329524D01*
X5532380Y33424762D01*
X5532380Y33615239D01*
X5484761Y33710477D01*
X5437142Y33758096D01*
X5341904Y33805715D01*
X5103809Y33805715D01*
X5008571Y33758096D01*
X4960952Y33710477D01*
X4913333Y33615239D01*
X4913333Y33424762D01*
X4960952Y33329524D01*
X5008571Y33281905D01*
X5103809Y33234286D01*
%TO.C,J3*%
X98870000Y18629334D02*
X99346190Y18629334D01*
X98774761Y18343620D02*
X99108095Y19343620D01*
X99441428Y18343620D01*
X99631904Y19343620D02*
X99965238Y18343620D01*
X100298571Y19343620D01*
X101203333Y18343620D02*
X100870000Y18819810D01*
X100631904Y18343620D02*
X100631904Y19343620D01*
X101012857Y19343620D01*
X101108095Y19296000D01*
X101155714Y19248381D01*
X101203333Y19153143D01*
X101203333Y19010286D01*
X101155714Y18915048D01*
X101108095Y18867429D01*
X101012857Y18819810D01*
X100631904Y18819810D01*
X101631904Y18724572D02*
X102393809Y18724572D01*
X102727142Y19343620D02*
X103298571Y19343620D01*
X103012857Y18343620D02*
X103012857Y19343620D01*
X103631904Y18343620D02*
X103631904Y19343620D01*
X104012857Y19343620D01*
X104108095Y19296000D01*
X104155714Y19248381D01*
X104203333Y19153143D01*
X104203333Y19010286D01*
X104155714Y18915048D01*
X104108095Y18867429D01*
X104012857Y18819810D01*
X103631904Y18819810D01*
X104631904Y18343620D02*
X104631904Y19343620D01*
X105108095Y18724572D02*
X105870000Y18724572D01*
X106774761Y19343620D02*
X106584285Y19343620D01*
X106489047Y19296000D01*
X106441428Y19248381D01*
X106346190Y19105524D01*
X106298571Y18915048D01*
X106298571Y18534096D01*
X106346190Y18438858D01*
X106393809Y18391239D01*
X106489047Y18343620D01*
X106679523Y18343620D01*
X106774761Y18391239D01*
X106822380Y18438858D01*
X106870000Y18534096D01*
X106870000Y18772191D01*
X106822380Y18867429D01*
X106774761Y18915048D01*
X106679523Y18962667D01*
X106489047Y18962667D01*
X106393809Y18915048D01*
X106346190Y18867429D01*
X106298571Y18772191D01*
X102536666Y28487620D02*
X102536666Y27773334D01*
X102489047Y27630477D01*
X102393809Y27535239D01*
X102250952Y27487620D01*
X102155714Y27487620D01*
X102917619Y28487620D02*
X103536666Y28487620D01*
X103203333Y28106667D01*
X103346190Y28106667D01*
X103441428Y28059048D01*
X103489047Y28011429D01*
X103536666Y27916191D01*
X103536666Y27678096D01*
X103489047Y27582858D01*
X103441428Y27535239D01*
X103346190Y27487620D01*
X103060476Y27487620D01*
X102965238Y27535239D01*
X102917619Y27582858D01*
%TO.C,J2*%
X87955952Y18629334D02*
X88432142Y18629334D01*
X87860714Y18343620D02*
X88194047Y19343620D01*
X88527380Y18343620D01*
X88717857Y19343620D02*
X89051190Y18343620D01*
X89384523Y19343620D01*
X90289285Y18343620D02*
X89955952Y18819810D01*
X89717857Y18343620D02*
X89717857Y19343620D01*
X90098809Y19343620D01*
X90194047Y19296000D01*
X90241666Y19248381D01*
X90289285Y19153143D01*
X90289285Y19010286D01*
X90241666Y18915048D01*
X90194047Y18867429D01*
X90098809Y18819810D01*
X89717857Y18819810D01*
X90717857Y18724572D02*
X91479761Y18724572D01*
X91955952Y18343620D02*
X91955952Y19343620D01*
X92336904Y19343620D01*
X92432142Y19296000D01*
X92479761Y19248381D01*
X92527380Y19153143D01*
X92527380Y19010286D01*
X92479761Y18915048D01*
X92432142Y18867429D01*
X92336904Y18819810D01*
X91955952Y18819810D01*
X92955952Y18343620D02*
X92955952Y19343620D01*
X93194047Y19343620D01*
X93336904Y19296000D01*
X93432142Y19200762D01*
X93479761Y19105524D01*
X93527380Y18915048D01*
X93527380Y18772191D01*
X93479761Y18581715D01*
X93432142Y18486477D01*
X93336904Y18391239D01*
X93194047Y18343620D01*
X92955952Y18343620D01*
X93955952Y18343620D02*
X93955952Y19343620D01*
X94432142Y18724572D02*
X95194047Y18724572D01*
X96098809Y19343620D02*
X95908333Y19343620D01*
X95813095Y19296000D01*
X95765476Y19248381D01*
X95670238Y19105524D01*
X95622619Y18915048D01*
X95622619Y18534096D01*
X95670238Y18438858D01*
X95717857Y18391239D01*
X95813095Y18343620D01*
X96003571Y18343620D01*
X96098809Y18391239D01*
X96146428Y18438858D01*
X96194047Y18534096D01*
X96194047Y18772191D01*
X96146428Y18867429D01*
X96098809Y18915048D01*
X96003571Y18962667D01*
X95813095Y18962667D01*
X95717857Y18915048D01*
X95670238Y18867429D01*
X95622619Y18772191D01*
X91741666Y28487620D02*
X91741666Y27773334D01*
X91694047Y27630477D01*
X91598809Y27535239D01*
X91455952Y27487620D01*
X91360714Y27487620D01*
X92170238Y28392381D02*
X92217857Y28440000D01*
X92313095Y28487620D01*
X92551190Y28487620D01*
X92646428Y28440000D01*
X92694047Y28392381D01*
X92741666Y28297143D01*
X92741666Y28201905D01*
X92694047Y28059048D01*
X92122619Y27487620D01*
X92741666Y27487620D01*
%TO.C,C2*%
X14947380Y3183096D02*
X14947380Y3802143D01*
X15328333Y3468810D01*
X15328333Y3611667D01*
X15375952Y3706905D01*
X15423571Y3754524D01*
X15518809Y3802143D01*
X15756904Y3802143D01*
X15852142Y3754524D01*
X15899761Y3706905D01*
X15947380Y3611667D01*
X15947380Y3325953D01*
X15899761Y3230715D01*
X15852142Y3183096D01*
X14947380Y4135477D02*
X14947380Y4754524D01*
X15328333Y4421191D01*
X15328333Y4564048D01*
X15375952Y4659286D01*
X15423571Y4706905D01*
X15518809Y4754524D01*
X15756904Y4754524D01*
X15852142Y4706905D01*
X15899761Y4659286D01*
X15947380Y4564048D01*
X15947380Y4278334D01*
X15899761Y4183096D01*
X15852142Y4135477D01*
X15280714Y5183096D02*
X16280714Y5183096D01*
X15328333Y5183096D02*
X15280714Y5278334D01*
X15280714Y5468810D01*
X15328333Y5564048D01*
X15375952Y5611667D01*
X15471190Y5659286D01*
X15756904Y5659286D01*
X15852142Y5611667D01*
X15899761Y5564048D01*
X15947380Y5468810D01*
X15947380Y5278334D01*
X15899761Y5183096D01*
D12*
X17323571Y4361667D02*
X17347380Y4337858D01*
X17371190Y4266429D01*
X17371190Y4218810D01*
X17347380Y4147381D01*
X17299761Y4099762D01*
X17252142Y4075953D01*
X17156904Y4052143D01*
X17085476Y4052143D01*
X16990238Y4075953D01*
X16942619Y4099762D01*
X16895000Y4147381D01*
X16871190Y4218810D01*
X16871190Y4266429D01*
X16895000Y4337858D01*
X16918809Y4361667D01*
X16918809Y4552143D02*
X16895000Y4575953D01*
X16871190Y4623572D01*
X16871190Y4742620D01*
X16895000Y4790239D01*
X16918809Y4814048D01*
X16966428Y4837858D01*
X17014047Y4837858D01*
X17085476Y4814048D01*
X17371190Y4528334D01*
X17371190Y4837858D01*
%TO.C,C3*%
D11*
X23582380Y3428096D02*
X23582380Y4047143D01*
X23963333Y3713810D01*
X23963333Y3856667D01*
X24010952Y3951905D01*
X24058571Y3999524D01*
X24153809Y4047143D01*
X24391904Y4047143D01*
X24487142Y3999524D01*
X24534761Y3951905D01*
X24582380Y3856667D01*
X24582380Y3570953D01*
X24534761Y3475715D01*
X24487142Y3428096D01*
X23582380Y4380477D02*
X23582380Y4999524D01*
X23963333Y4666191D01*
X23963333Y4809048D01*
X24010952Y4904286D01*
X24058571Y4951905D01*
X24153809Y4999524D01*
X24391904Y4999524D01*
X24487142Y4951905D01*
X24534761Y4904286D01*
X24582380Y4809048D01*
X24582380Y4523334D01*
X24534761Y4428096D01*
X24487142Y4380477D01*
X23915714Y5428096D02*
X24915714Y5428096D01*
X23963333Y5428096D02*
X23915714Y5523334D01*
X23915714Y5713810D01*
X23963333Y5809048D01*
X24010952Y5856667D01*
X24106190Y5904286D01*
X24391904Y5904286D01*
X24487142Y5856667D01*
X24534761Y5809048D01*
X24582380Y5713810D01*
X24582380Y5523334D01*
X24534761Y5428096D01*
D12*
X22403571Y4361667D02*
X22427380Y4337858D01*
X22451190Y4266429D01*
X22451190Y4218810D01*
X22427380Y4147381D01*
X22379761Y4099762D01*
X22332142Y4075953D01*
X22236904Y4052143D01*
X22165476Y4052143D01*
X22070238Y4075953D01*
X22022619Y4099762D01*
X21975000Y4147381D01*
X21951190Y4218810D01*
X21951190Y4266429D01*
X21975000Y4337858D01*
X21998809Y4361667D01*
X21951190Y4528334D02*
X21951190Y4837858D01*
X22141666Y4671191D01*
X22141666Y4742620D01*
X22165476Y4790239D01*
X22189285Y4814048D01*
X22236904Y4837858D01*
X22355952Y4837858D01*
X22403571Y4814048D01*
X22427380Y4790239D01*
X22451190Y4742620D01*
X22451190Y4599762D01*
X22427380Y4552143D01*
X22403571Y4528334D01*
%TO.C,C4*%
D11*
X20788333Y36757620D02*
X20216904Y36757620D01*
X20502619Y36757620D02*
X20502619Y37757620D01*
X20407380Y37614762D01*
X20312142Y37519524D01*
X20216904Y37471905D01*
X21645476Y37424286D02*
X21645476Y36757620D01*
X21216904Y37424286D02*
X21216904Y36900477D01*
X21264523Y36805239D01*
X21359761Y36757620D01*
X21502619Y36757620D01*
X21597857Y36805239D01*
X21645476Y36852858D01*
D12*
X20871666Y35381429D02*
X20847857Y35357620D01*
X20776428Y35333810D01*
X20728809Y35333810D01*
X20657380Y35357620D01*
X20609761Y35405239D01*
X20585952Y35452858D01*
X20562142Y35548096D01*
X20562142Y35619524D01*
X20585952Y35714762D01*
X20609761Y35762381D01*
X20657380Y35810000D01*
X20728809Y35833810D01*
X20776428Y35833810D01*
X20847857Y35810000D01*
X20871666Y35786191D01*
X21300238Y35667143D02*
X21300238Y35333810D01*
X21181190Y35857620D02*
X21062142Y35500477D01*
X21371666Y35500477D01*
%TO.C,C5*%
D11*
X26185952Y37012620D02*
X25614523Y37012620D01*
X25900238Y37012620D02*
X25900238Y38012620D01*
X25805000Y37869762D01*
X25709761Y37774524D01*
X25614523Y37726905D01*
X26805000Y38012620D02*
X26900238Y38012620D01*
X26995476Y37965000D01*
X27043095Y37917381D01*
X27090714Y37822143D01*
X27138333Y37631667D01*
X27138333Y37393572D01*
X27090714Y37203096D01*
X27043095Y37107858D01*
X26995476Y37060239D01*
X26900238Y37012620D01*
X26805000Y37012620D01*
X26709761Y37060239D01*
X26662142Y37107858D01*
X26614523Y37203096D01*
X26566904Y37393572D01*
X26566904Y37631667D01*
X26614523Y37822143D01*
X26662142Y37917381D01*
X26709761Y37965000D01*
X26805000Y38012620D01*
X27757380Y38012620D02*
X27852619Y38012620D01*
X27947857Y37965000D01*
X27995476Y37917381D01*
X28043095Y37822143D01*
X28090714Y37631667D01*
X28090714Y37393572D01*
X28043095Y37203096D01*
X27995476Y37107858D01*
X27947857Y37060239D01*
X27852619Y37012620D01*
X27757380Y37012620D01*
X27662142Y37060239D01*
X27614523Y37107858D01*
X27566904Y37203096D01*
X27519285Y37393572D01*
X27519285Y37631667D01*
X27566904Y37822143D01*
X27614523Y37917381D01*
X27662142Y37965000D01*
X27757380Y38012620D01*
X28519285Y37679286D02*
X28519285Y37012620D01*
X28519285Y37584048D02*
X28566904Y37631667D01*
X28662142Y37679286D01*
X28805000Y37679286D01*
X28900238Y37631667D01*
X28947857Y37536429D01*
X28947857Y37012620D01*
D12*
X26976666Y35381429D02*
X26952857Y35357620D01*
X26881428Y35333810D01*
X26833809Y35333810D01*
X26762380Y35357620D01*
X26714761Y35405239D01*
X26690952Y35452858D01*
X26667142Y35548096D01*
X26667142Y35619524D01*
X26690952Y35714762D01*
X26714761Y35762381D01*
X26762380Y35810000D01*
X26833809Y35833810D01*
X26881428Y35833810D01*
X26952857Y35810000D01*
X26976666Y35786191D01*
X27429047Y35833810D02*
X27190952Y35833810D01*
X27167142Y35595715D01*
X27190952Y35619524D01*
X27238571Y35643334D01*
X27357619Y35643334D01*
X27405238Y35619524D01*
X27429047Y35595715D01*
X27452857Y35548096D01*
X27452857Y35429048D01*
X27429047Y35381429D01*
X27405238Y35357620D01*
X27357619Y35333810D01*
X27238571Y35333810D01*
X27190952Y35357620D01*
X27167142Y35381429D01*
%TO.C,C7*%
D11*
X55785952Y19867620D02*
X55214523Y19867620D01*
X55500238Y19867620D02*
X55500238Y20867620D01*
X55405000Y20724762D01*
X55309761Y20629524D01*
X55214523Y20581905D01*
X56405000Y20867620D02*
X56500238Y20867620D01*
X56595476Y20820000D01*
X56643095Y20772381D01*
X56690714Y20677143D01*
X56738333Y20486667D01*
X56738333Y20248572D01*
X56690714Y20058096D01*
X56643095Y19962858D01*
X56595476Y19915239D01*
X56500238Y19867620D01*
X56405000Y19867620D01*
X56309761Y19915239D01*
X56262142Y19962858D01*
X56214523Y20058096D01*
X56166904Y20248572D01*
X56166904Y20486667D01*
X56214523Y20677143D01*
X56262142Y20772381D01*
X56309761Y20820000D01*
X56405000Y20867620D01*
X57357380Y20867620D02*
X57452619Y20867620D01*
X57547857Y20820000D01*
X57595476Y20772381D01*
X57643095Y20677143D01*
X57690714Y20486667D01*
X57690714Y20248572D01*
X57643095Y20058096D01*
X57595476Y19962858D01*
X57547857Y19915239D01*
X57452619Y19867620D01*
X57357380Y19867620D01*
X57262142Y19915239D01*
X57214523Y19962858D01*
X57166904Y20058096D01*
X57119285Y20248572D01*
X57119285Y20486667D01*
X57166904Y20677143D01*
X57214523Y20772381D01*
X57262142Y20820000D01*
X57357380Y20867620D01*
X58119285Y20534286D02*
X58119285Y19867620D01*
X58119285Y20439048D02*
X58166904Y20486667D01*
X58262142Y20534286D01*
X58405000Y20534286D01*
X58500238Y20486667D01*
X58547857Y20391429D01*
X58547857Y19867620D01*
D12*
X60241666Y20141429D02*
X60217857Y20117620D01*
X60146428Y20093810D01*
X60098809Y20093810D01*
X60027380Y20117620D01*
X59979761Y20165239D01*
X59955952Y20212858D01*
X59932142Y20308096D01*
X59932142Y20379524D01*
X59955952Y20474762D01*
X59979761Y20522381D01*
X60027380Y20570000D01*
X60098809Y20593810D01*
X60146428Y20593810D01*
X60217857Y20570000D01*
X60241666Y20546191D01*
X60408333Y20593810D02*
X60741666Y20593810D01*
X60527380Y20093810D01*
%TO.C,C10*%
D11*
X55395952Y31932620D02*
X54824523Y31932620D01*
X55110238Y31932620D02*
X55110238Y32932620D01*
X55015000Y32789762D01*
X54919761Y32694524D01*
X54824523Y32646905D01*
X56015000Y32932620D02*
X56110238Y32932620D01*
X56205476Y32885000D01*
X56253095Y32837381D01*
X56300714Y32742143D01*
X56348333Y32551667D01*
X56348333Y32313572D01*
X56300714Y32123096D01*
X56253095Y32027858D01*
X56205476Y31980239D01*
X56110238Y31932620D01*
X56015000Y31932620D01*
X55919761Y31980239D01*
X55872142Y32027858D01*
X55824523Y32123096D01*
X55776904Y32313572D01*
X55776904Y32551667D01*
X55824523Y32742143D01*
X55872142Y32837381D01*
X55919761Y32885000D01*
X56015000Y32932620D01*
X56967380Y32932620D02*
X57062619Y32932620D01*
X57157857Y32885000D01*
X57205476Y32837381D01*
X57253095Y32742143D01*
X57300714Y32551667D01*
X57300714Y32313572D01*
X57253095Y32123096D01*
X57205476Y32027858D01*
X57157857Y31980239D01*
X57062619Y31932620D01*
X56967380Y31932620D01*
X56872142Y31980239D01*
X56824523Y32027858D01*
X56776904Y32123096D01*
X56729285Y32313572D01*
X56729285Y32551667D01*
X56776904Y32742143D01*
X56824523Y32837381D01*
X56872142Y32885000D01*
X56967380Y32932620D01*
X57729285Y32599286D02*
X57729285Y31932620D01*
X57729285Y32504048D02*
X57776904Y32551667D01*
X57872142Y32599286D01*
X58015000Y32599286D01*
X58110238Y32551667D01*
X58157857Y32456429D01*
X58157857Y31932620D01*
D12*
X60248571Y32206429D02*
X60224761Y32182620D01*
X60153333Y32158810D01*
X60105714Y32158810D01*
X60034285Y32182620D01*
X59986666Y32230239D01*
X59962857Y32277858D01*
X59939047Y32373096D01*
X59939047Y32444524D01*
X59962857Y32539762D01*
X59986666Y32587381D01*
X60034285Y32635000D01*
X60105714Y32658810D01*
X60153333Y32658810D01*
X60224761Y32635000D01*
X60248571Y32611191D01*
X60724761Y32158810D02*
X60439047Y32158810D01*
X60581904Y32158810D02*
X60581904Y32658810D01*
X60534285Y32587381D01*
X60486666Y32539762D01*
X60439047Y32515953D01*
X61034285Y32658810D02*
X61081904Y32658810D01*
X61129523Y32635000D01*
X61153333Y32611191D01*
X61177142Y32563572D01*
X61200952Y32468334D01*
X61200952Y32349286D01*
X61177142Y32254048D01*
X61153333Y32206429D01*
X61129523Y32182620D01*
X61081904Y32158810D01*
X61034285Y32158810D01*
X60986666Y32182620D01*
X60962857Y32206429D01*
X60939047Y32254048D01*
X60915238Y32349286D01*
X60915238Y32468334D01*
X60939047Y32563572D01*
X60962857Y32611191D01*
X60986666Y32635000D01*
X61034285Y32658810D01*
%TO.C,D2*%
D11*
X60896666Y2937620D02*
X60896666Y3937620D01*
X61277619Y3937620D01*
X61372857Y3890000D01*
X61420476Y3842381D01*
X61468095Y3747143D01*
X61468095Y3604286D01*
X61420476Y3509048D01*
X61372857Y3461429D01*
X61277619Y3413810D01*
X60896666Y3413810D01*
X61801428Y3937620D02*
X62039523Y2937620D01*
X62230000Y3651905D01*
X62420476Y2937620D01*
X62658571Y3937620D01*
X63610952Y2937620D02*
X63277619Y3413810D01*
X63039523Y2937620D02*
X63039523Y3937620D01*
X63420476Y3937620D01*
X63515714Y3890000D01*
X63563333Y3842381D01*
X63610952Y3747143D01*
X63610952Y3604286D01*
X63563333Y3509048D01*
X63515714Y3461429D01*
X63420476Y3413810D01*
X63039523Y3413810D01*
%TO.C,D3*%
X50808095Y2722620D02*
X50808095Y3722620D01*
X51189047Y3722620D01*
X51284285Y3675000D01*
X51331904Y3627381D01*
X51379523Y3532143D01*
X51379523Y3389286D01*
X51331904Y3294048D01*
X51284285Y3246429D01*
X51189047Y3198810D01*
X50808095Y3198810D01*
X52379523Y2722620D02*
X52046190Y3198810D01*
X51808095Y2722620D02*
X51808095Y3722620D01*
X52189047Y3722620D01*
X52284285Y3675000D01*
X52331904Y3627381D01*
X52379523Y3532143D01*
X52379523Y3389286D01*
X52331904Y3294048D01*
X52284285Y3246429D01*
X52189047Y3198810D01*
X51808095Y3198810D01*
X53331904Y3675000D02*
X53236666Y3722620D01*
X53093809Y3722620D01*
X52950952Y3675000D01*
X52855714Y3579762D01*
X52808095Y3484524D01*
X52760476Y3294048D01*
X52760476Y3151191D01*
X52808095Y2960715D01*
X52855714Y2865477D01*
X52950952Y2770239D01*
X53093809Y2722620D01*
X53189047Y2722620D01*
X53331904Y2770239D01*
X53379523Y2817858D01*
X53379523Y3151191D01*
X53189047Y3151191D01*
%TO.C,FB1*%
X29480000Y44912620D02*
X29575238Y44912620D01*
X29670476Y44865000D01*
X29718095Y44817381D01*
X29765714Y44722143D01*
X29813333Y44531667D01*
X29813333Y44293572D01*
X29765714Y44103096D01*
X29718095Y44007858D01*
X29670476Y43960239D01*
X29575238Y43912620D01*
X29480000Y43912620D01*
X29384761Y43960239D01*
X29337142Y44007858D01*
X29289523Y44103096D01*
X29241904Y44293572D01*
X29241904Y44531667D01*
X29289523Y44722143D01*
X29337142Y44817381D01*
X29384761Y44865000D01*
X29480000Y44912620D01*
X30718095Y44912620D02*
X30241904Y44912620D01*
X30194285Y44436429D01*
X30241904Y44484048D01*
X30337142Y44531667D01*
X30575238Y44531667D01*
X30670476Y44484048D01*
X30718095Y44436429D01*
X30765714Y44341191D01*
X30765714Y44103096D01*
X30718095Y44007858D01*
X30670476Y43960239D01*
X30575238Y43912620D01*
X30337142Y43912620D01*
X30241904Y43960239D01*
X30194285Y44007858D01*
X31384761Y44912620D02*
X31480000Y44912620D01*
X31575238Y44865000D01*
X31622857Y44817381D01*
X31670476Y44722143D01*
X31718095Y44531667D01*
X31718095Y44293572D01*
X31670476Y44103096D01*
X31622857Y44007858D01*
X31575238Y43960239D01*
X31480000Y43912620D01*
X31384761Y43912620D01*
X31289523Y43960239D01*
X31241904Y44007858D01*
X31194285Y44103096D01*
X31146666Y44293572D01*
X31146666Y44531667D01*
X31194285Y44722143D01*
X31241904Y44817381D01*
X31289523Y44865000D01*
X31384761Y44912620D01*
D13*
X29813333Y42602143D02*
X29546666Y42602143D01*
X29546666Y42183096D02*
X29546666Y42983096D01*
X29927619Y42983096D01*
X30499047Y42602143D02*
X30613333Y42564048D01*
X30651428Y42525953D01*
X30689523Y42449762D01*
X30689523Y42335477D01*
X30651428Y42259286D01*
X30613333Y42221191D01*
X30537142Y42183096D01*
X30232380Y42183096D01*
X30232380Y42983096D01*
X30499047Y42983096D01*
X30575238Y42945000D01*
X30613333Y42906905D01*
X30651428Y42830715D01*
X30651428Y42754524D01*
X30613333Y42678334D01*
X30575238Y42640239D01*
X30499047Y42602143D01*
X30232380Y42602143D01*
X31451428Y42183096D02*
X30994285Y42183096D01*
X31222857Y42183096D02*
X31222857Y42983096D01*
X31146666Y42868810D01*
X31070476Y42792620D01*
X30994285Y42754524D01*
%TO.C,J1*%
D11*
X-2274286Y14660953D02*
X-1607620Y14660953D01*
X-2274286Y14232381D02*
X-1750477Y14232381D01*
X-1655239Y14280000D01*
X-1607620Y14375239D01*
X-1607620Y14518096D01*
X-1655239Y14613334D01*
X-1702858Y14660953D01*
X-1655239Y15089524D02*
X-1607620Y15184762D01*
X-1607620Y15375239D01*
X-1655239Y15470477D01*
X-1750477Y15518096D01*
X-1798096Y15518096D01*
X-1893334Y15470477D01*
X-1940953Y15375239D01*
X-1940953Y15232381D01*
X-1988572Y15137143D01*
X-2083810Y15089524D01*
X-2131429Y15089524D01*
X-2226667Y15137143D01*
X-2274286Y15232381D01*
X-2274286Y15375239D01*
X-2226667Y15470477D01*
X-1607620Y15946667D02*
X-2607620Y15946667D01*
X-2226667Y15946667D02*
X-2274286Y16041905D01*
X-2274286Y16232381D01*
X-2226667Y16327620D01*
X-2179048Y16375239D01*
X-2083810Y16422858D01*
X-1798096Y16422858D01*
X-1702858Y16375239D01*
X-1655239Y16327620D01*
X-1607620Y16232381D01*
X-1607620Y16041905D01*
X-1655239Y15946667D01*
X-1607620Y17613334D02*
X-2274286Y17613334D01*
X-2179048Y17613334D02*
X-2226667Y17660953D01*
X-2274286Y17756191D01*
X-2274286Y17899048D01*
X-2226667Y17994286D01*
X-2131429Y18041905D01*
X-1607620Y18041905D01*
X-2131429Y18041905D02*
X-2226667Y18089524D01*
X-2274286Y18184762D01*
X-2274286Y18327620D01*
X-2226667Y18422858D01*
X-2131429Y18470477D01*
X-1607620Y18470477D01*
X-1607620Y18946667D02*
X-2274286Y18946667D01*
X-2607620Y18946667D02*
X-2560000Y18899048D01*
X-2512381Y18946667D01*
X-2560000Y18994286D01*
X-2607620Y18946667D01*
X-2512381Y18946667D01*
X-1655239Y19851429D02*
X-1607620Y19756191D01*
X-1607620Y19565715D01*
X-1655239Y19470477D01*
X-1702858Y19422858D01*
X-1798096Y19375239D01*
X-2083810Y19375239D01*
X-2179048Y19422858D01*
X-2226667Y19470477D01*
X-2274286Y19565715D01*
X-2274286Y19756191D01*
X-2226667Y19851429D01*
X-1607620Y20280000D02*
X-2274286Y20280000D01*
X-2083810Y20280000D02*
X-2179048Y20327620D01*
X-2226667Y20375239D01*
X-2274286Y20470477D01*
X-2274286Y20565715D01*
X-1607620Y21041905D02*
X-1655239Y20946667D01*
X-1702858Y20899048D01*
X-1798096Y20851429D01*
X-2083810Y20851429D01*
X-2179048Y20899048D01*
X-2226667Y20946667D01*
X-2274286Y21041905D01*
X-2274286Y21184762D01*
X-2226667Y21280000D01*
X-2179048Y21327620D01*
X-2083810Y21375239D01*
X-1798096Y21375239D01*
X-1702858Y21327620D01*
X-1655239Y21280000D01*
X-1607620Y21184762D01*
X-1607620Y21041905D01*
X792380Y17446667D02*
X1506666Y17446667D01*
X1649523Y17399048D01*
X1744761Y17303810D01*
X1792380Y17160953D01*
X1792380Y17065715D01*
X1792380Y18446667D02*
X1792380Y17875239D01*
X1792380Y18160953D02*
X792380Y18160953D01*
X935238Y18065715D01*
X1030476Y17970477D01*
X1078095Y17875239D01*
%TO.C,JP1*%
X70056666Y47962620D02*
X69580476Y47962620D01*
X69532857Y47486429D01*
X69580476Y47534048D01*
X69675714Y47581667D01*
X69913809Y47581667D01*
X70009047Y47534048D01*
X70056666Y47486429D01*
X70104285Y47391191D01*
X70104285Y47153096D01*
X70056666Y47057858D01*
X70009047Y47010239D01*
X69913809Y46962620D01*
X69675714Y46962620D01*
X69580476Y47010239D01*
X69532857Y47057858D01*
X70390000Y47962620D02*
X70723333Y46962620D01*
X71056666Y47962620D01*
X72104285Y48010239D02*
X71247142Y46724524D01*
X72342380Y47962620D02*
X72961428Y47962620D01*
X72628095Y47581667D01*
X72770952Y47581667D01*
X72866190Y47534048D01*
X72913809Y47486429D01*
X72961428Y47391191D01*
X72961428Y47153096D01*
X72913809Y47057858D01*
X72866190Y47010239D01*
X72770952Y46962620D01*
X72485238Y46962620D01*
X72390000Y47010239D01*
X72342380Y47057858D01*
X73390000Y47057858D02*
X73437619Y47010239D01*
X73390000Y46962620D01*
X73342380Y47010239D01*
X73390000Y47057858D01*
X73390000Y46962620D01*
X73770952Y47962620D02*
X74390000Y47962620D01*
X74056666Y47581667D01*
X74199523Y47581667D01*
X74294761Y47534048D01*
X74342380Y47486429D01*
X74390000Y47391191D01*
X74390000Y47153096D01*
X74342380Y47057858D01*
X74294761Y47010239D01*
X74199523Y46962620D01*
X73913809Y46962620D01*
X73818571Y47010239D01*
X73770952Y47057858D01*
X74675714Y47962620D02*
X75009047Y46962620D01*
X75342380Y47962620D01*
X71842380Y41711667D02*
X72556666Y41711667D01*
X72699523Y41664048D01*
X72794761Y41568810D01*
X72842380Y41425953D01*
X72842380Y41330715D01*
X72842380Y42187858D02*
X71842380Y42187858D01*
X71842380Y42568810D01*
X71890000Y42664048D01*
X71937619Y42711667D01*
X72032857Y42759286D01*
X72175714Y42759286D01*
X72270952Y42711667D01*
X72318571Y42664048D01*
X72366190Y42568810D01*
X72366190Y42187858D01*
X72842380Y43711667D02*
X72842380Y43140239D01*
X72842380Y43425953D02*
X71842380Y43425953D01*
X71985238Y43330715D01*
X72080476Y43235477D01*
X72128095Y43140239D01*
%TO.C,JP2*%
X97365714Y40068810D02*
X98365714Y40068810D01*
X97413333Y40068810D02*
X97365714Y40164048D01*
X97365714Y40354524D01*
X97413333Y40449762D01*
X97460952Y40497381D01*
X97556190Y40545000D01*
X97841904Y40545000D01*
X97937142Y40497381D01*
X97984761Y40449762D01*
X98032380Y40354524D01*
X98032380Y40164048D01*
X97984761Y40068810D01*
X98032380Y40973572D02*
X97365714Y40973572D01*
X97556190Y40973572D02*
X97460952Y41021191D01*
X97413333Y41068810D01*
X97365714Y41164048D01*
X97365714Y41259286D01*
X97365714Y42021191D02*
X98175238Y42021191D01*
X98270476Y41973572D01*
X98318095Y41925953D01*
X98365714Y41830715D01*
X98365714Y41687858D01*
X98318095Y41592620D01*
X97984761Y42021191D02*
X98032380Y41925953D01*
X98032380Y41735477D01*
X97984761Y41640239D01*
X97937142Y41592620D01*
X97841904Y41545000D01*
X97556190Y41545000D01*
X97460952Y41592620D01*
X97413333Y41640239D01*
X97365714Y41735477D01*
X97365714Y41925953D01*
X97413333Y42021191D01*
X96984761Y43211667D02*
X98270476Y42354524D01*
X97984761Y43973572D02*
X98032380Y43878334D01*
X98032380Y43687858D01*
X97984761Y43592620D01*
X97937142Y43545000D01*
X97841904Y43497381D01*
X97556190Y43497381D01*
X97460952Y43545000D01*
X97413333Y43592620D01*
X97365714Y43687858D01*
X97365714Y43878334D01*
X97413333Y43973572D01*
X98032380Y44402143D02*
X97365714Y44402143D01*
X97032380Y44402143D02*
X97080000Y44354524D01*
X97127619Y44402143D01*
X97080000Y44449762D01*
X97032380Y44402143D01*
X97127619Y44402143D01*
X98032380Y44878334D02*
X97365714Y44878334D01*
X97556190Y44878334D02*
X97460952Y44925953D01*
X97413333Y44973572D01*
X97365714Y45068810D01*
X97365714Y45164048D01*
X91876666Y43092620D02*
X91876666Y42378334D01*
X91829047Y42235477D01*
X91733809Y42140239D01*
X91590952Y42092620D01*
X91495714Y42092620D01*
X92352857Y42092620D02*
X92352857Y43092620D01*
X92733809Y43092620D01*
X92829047Y43045000D01*
X92876666Y42997381D01*
X92924285Y42902143D01*
X92924285Y42759286D01*
X92876666Y42664048D01*
X92829047Y42616429D01*
X92733809Y42568810D01*
X92352857Y42568810D01*
X93305238Y42997381D02*
X93352857Y43045000D01*
X93448095Y43092620D01*
X93686190Y43092620D01*
X93781428Y43045000D01*
X93829047Y42997381D01*
X93876666Y42902143D01*
X93876666Y42806905D01*
X93829047Y42664048D01*
X93257619Y42092620D01*
X93876666Y42092620D01*
%TO.C,R2*%
X48140952Y25582620D02*
X47569523Y25582620D01*
X47855238Y25582620D02*
X47855238Y26582620D01*
X47760000Y26439762D01*
X47664761Y26344524D01*
X47569523Y26296905D01*
X48569523Y25582620D02*
X48569523Y26582620D01*
X48664761Y25963572D02*
X48950476Y25582620D01*
X48950476Y26249286D02*
X48569523Y25868334D01*
D12*
X48176666Y23903810D02*
X48010000Y24141905D01*
X47890952Y23903810D02*
X47890952Y24403810D01*
X48081428Y24403810D01*
X48129047Y24380000D01*
X48152857Y24356191D01*
X48176666Y24308572D01*
X48176666Y24237143D01*
X48152857Y24189524D01*
X48129047Y24165715D01*
X48081428Y24141905D01*
X47890952Y24141905D01*
X48367142Y24356191D02*
X48390952Y24380000D01*
X48438571Y24403810D01*
X48557619Y24403810D01*
X48605238Y24380000D01*
X48629047Y24356191D01*
X48652857Y24308572D01*
X48652857Y24260953D01*
X48629047Y24189524D01*
X48343333Y23903810D01*
X48652857Y23903810D01*
%TO.C,R5*%
D11*
X46998095Y35774286D02*
X46998095Y35107620D01*
X46760000Y36155239D02*
X46521904Y35440953D01*
X47140952Y35440953D01*
X47426666Y36107620D02*
X48093333Y36107620D01*
X47664761Y35107620D01*
X48664761Y36107620D02*
X48760000Y36107620D01*
X48855238Y36060000D01*
X48902857Y36012381D01*
X48950476Y35917143D01*
X48998095Y35726667D01*
X48998095Y35488572D01*
X48950476Y35298096D01*
X48902857Y35202858D01*
X48855238Y35155239D01*
X48760000Y35107620D01*
X48664761Y35107620D01*
X48569523Y35155239D01*
X48521904Y35202858D01*
X48474285Y35298096D01*
X48426666Y35488572D01*
X48426666Y35726667D01*
X48474285Y35917143D01*
X48521904Y36012381D01*
X48569523Y36060000D01*
X48664761Y36107620D01*
X49998095Y35107620D02*
X49664761Y35583810D01*
X49426666Y35107620D02*
X49426666Y36107620D01*
X49807619Y36107620D01*
X49902857Y36060000D01*
X49950476Y36012381D01*
X49998095Y35917143D01*
X49998095Y35774286D01*
X49950476Y35679048D01*
X49902857Y35631429D01*
X49807619Y35583810D01*
X49426666Y35583810D01*
D12*
X48176666Y34063810D02*
X48010000Y34301905D01*
X47890952Y34063810D02*
X47890952Y34563810D01*
X48081428Y34563810D01*
X48129047Y34540000D01*
X48152857Y34516191D01*
X48176666Y34468572D01*
X48176666Y34397143D01*
X48152857Y34349524D01*
X48129047Y34325715D01*
X48081428Y34301905D01*
X47890952Y34301905D01*
X48629047Y34563810D02*
X48390952Y34563810D01*
X48367142Y34325715D01*
X48390952Y34349524D01*
X48438571Y34373334D01*
X48557619Y34373334D01*
X48605238Y34349524D01*
X48629047Y34325715D01*
X48652857Y34278096D01*
X48652857Y34159048D01*
X48629047Y34111429D01*
X48605238Y34087620D01*
X48557619Y34063810D01*
X48438571Y34063810D01*
X48390952Y34087620D01*
X48367142Y34111429D01*
%TO.C,R6*%
D11*
X46998095Y17739286D02*
X46998095Y17072620D01*
X46760000Y18120239D02*
X46521904Y17405953D01*
X47140952Y17405953D01*
X47426666Y18072620D02*
X48093333Y18072620D01*
X47664761Y17072620D01*
X48664761Y18072620D02*
X48760000Y18072620D01*
X48855238Y18025000D01*
X48902857Y17977381D01*
X48950476Y17882143D01*
X48998095Y17691667D01*
X48998095Y17453572D01*
X48950476Y17263096D01*
X48902857Y17167858D01*
X48855238Y17120239D01*
X48760000Y17072620D01*
X48664761Y17072620D01*
X48569523Y17120239D01*
X48521904Y17167858D01*
X48474285Y17263096D01*
X48426666Y17453572D01*
X48426666Y17691667D01*
X48474285Y17882143D01*
X48521904Y17977381D01*
X48569523Y18025000D01*
X48664761Y18072620D01*
X49998095Y17072620D02*
X49664761Y17548810D01*
X49426666Y17072620D02*
X49426666Y18072620D01*
X49807619Y18072620D01*
X49902857Y18025000D01*
X49950476Y17977381D01*
X49998095Y17882143D01*
X49998095Y17739286D01*
X49950476Y17644048D01*
X49902857Y17596429D01*
X49807619Y17548810D01*
X49426666Y17548810D01*
D12*
X48176666Y15648810D02*
X48010000Y15886905D01*
X47890952Y15648810D02*
X47890952Y16148810D01*
X48081428Y16148810D01*
X48129047Y16125000D01*
X48152857Y16101191D01*
X48176666Y16053572D01*
X48176666Y15982143D01*
X48152857Y15934524D01*
X48129047Y15910715D01*
X48081428Y15886905D01*
X47890952Y15886905D01*
X48605238Y16148810D02*
X48510000Y16148810D01*
X48462380Y16125000D01*
X48438571Y16101191D01*
X48390952Y16029762D01*
X48367142Y15934524D01*
X48367142Y15744048D01*
X48390952Y15696429D01*
X48414761Y15672620D01*
X48462380Y15648810D01*
X48557619Y15648810D01*
X48605238Y15672620D01*
X48629047Y15696429D01*
X48652857Y15744048D01*
X48652857Y15863096D01*
X48629047Y15910715D01*
X48605238Y15934524D01*
X48557619Y15958334D01*
X48462380Y15958334D01*
X48414761Y15934524D01*
X48390952Y15910715D01*
X48367142Y15863096D01*
%TO.C,R7*%
D11*
X46998095Y21549286D02*
X46998095Y20882620D01*
X46760000Y21930239D02*
X46521904Y21215953D01*
X47140952Y21215953D01*
X47426666Y21882620D02*
X48093333Y21882620D01*
X47664761Y20882620D01*
X48664761Y21882620D02*
X48760000Y21882620D01*
X48855238Y21835000D01*
X48902857Y21787381D01*
X48950476Y21692143D01*
X48998095Y21501667D01*
X48998095Y21263572D01*
X48950476Y21073096D01*
X48902857Y20977858D01*
X48855238Y20930239D01*
X48760000Y20882620D01*
X48664761Y20882620D01*
X48569523Y20930239D01*
X48521904Y20977858D01*
X48474285Y21073096D01*
X48426666Y21263572D01*
X48426666Y21501667D01*
X48474285Y21692143D01*
X48521904Y21787381D01*
X48569523Y21835000D01*
X48664761Y21882620D01*
X49998095Y20882620D02*
X49664761Y21358810D01*
X49426666Y20882620D02*
X49426666Y21882620D01*
X49807619Y21882620D01*
X49902857Y21835000D01*
X49950476Y21787381D01*
X49998095Y21692143D01*
X49998095Y21549286D01*
X49950476Y21454048D01*
X49902857Y21406429D01*
X49807619Y21358810D01*
X49426666Y21358810D01*
D12*
X48176666Y19458810D02*
X48010000Y19696905D01*
X47890952Y19458810D02*
X47890952Y19958810D01*
X48081428Y19958810D01*
X48129047Y19935000D01*
X48152857Y19911191D01*
X48176666Y19863572D01*
X48176666Y19792143D01*
X48152857Y19744524D01*
X48129047Y19720715D01*
X48081428Y19696905D01*
X47890952Y19696905D01*
X48343333Y19958810D02*
X48676666Y19958810D01*
X48462380Y19458810D01*
%TO.C,SW2*%
D11*
X39318095Y1737620D02*
X39318095Y2737620D01*
X39699047Y2737620D01*
X39794285Y2690000D01*
X39841904Y2642381D01*
X39889523Y2547143D01*
X39889523Y2404286D01*
X39841904Y2309048D01*
X39794285Y2261429D01*
X39699047Y2213810D01*
X39318095Y2213810D01*
X40889523Y1737620D02*
X40556190Y2213810D01*
X40318095Y1737620D02*
X40318095Y2737620D01*
X40699047Y2737620D01*
X40794285Y2690000D01*
X40841904Y2642381D01*
X40889523Y2547143D01*
X40889523Y2404286D01*
X40841904Y2309048D01*
X40794285Y2261429D01*
X40699047Y2213810D01*
X40318095Y2213810D01*
X41841904Y2690000D02*
X41746666Y2737620D01*
X41603809Y2737620D01*
X41460952Y2690000D01*
X41365714Y2594762D01*
X41318095Y2499524D01*
X41270476Y2309048D01*
X41270476Y2166191D01*
X41318095Y1975715D01*
X41365714Y1880477D01*
X41460952Y1785239D01*
X41603809Y1737620D01*
X41699047Y1737620D01*
X41841904Y1785239D01*
X41889523Y1832858D01*
X41889523Y2166191D01*
X41699047Y2166191D01*
X38746666Y6235239D02*
X38889523Y6187620D01*
X39127619Y6187620D01*
X39222857Y6235239D01*
X39270476Y6282858D01*
X39318095Y6378096D01*
X39318095Y6473334D01*
X39270476Y6568572D01*
X39222857Y6616191D01*
X39127619Y6663810D01*
X38937142Y6711429D01*
X38841904Y6759048D01*
X38794285Y6806667D01*
X38746666Y6901905D01*
X38746666Y6997143D01*
X38794285Y7092381D01*
X38841904Y7140000D01*
X38937142Y7187620D01*
X39175238Y7187620D01*
X39318095Y7140000D01*
X39651428Y7187620D02*
X39889523Y6187620D01*
X40080000Y6901905D01*
X40270476Y6187620D01*
X40508571Y7187620D01*
X40841904Y7092381D02*
X40889523Y7140000D01*
X40984761Y7187620D01*
X41222857Y7187620D01*
X41318095Y7140000D01*
X41365714Y7092381D01*
X41413333Y6997143D01*
X41413333Y6901905D01*
X41365714Y6759048D01*
X40794285Y6187620D01*
X41413333Y6187620D01*
%TO.C,U1*%
X27369263Y15402570D02*
X27705981Y15739288D01*
X27503950Y15133196D02*
X27032546Y16076005D01*
X27975355Y15604601D01*
X27402935Y16446394D02*
X27806996Y16850455D01*
X28312072Y15941318D02*
X27604966Y16648425D01*
X28783477Y16412723D02*
X28918164Y16547410D01*
X28951836Y16648425D01*
X28951836Y16715768D01*
X28918164Y16884127D01*
X28817149Y17052486D01*
X28547775Y17321860D01*
X28446759Y17355532D01*
X28379416Y17355532D01*
X28278401Y17321860D01*
X28143714Y17187173D01*
X28110042Y17086158D01*
X28110042Y17018814D01*
X28143714Y16917799D01*
X28312072Y16749440D01*
X28413088Y16715768D01*
X28480431Y16715768D01*
X28581446Y16749440D01*
X28716133Y16884127D01*
X28749805Y16985142D01*
X28749805Y17052486D01*
X28716133Y17153501D01*
X28850820Y17894280D02*
X28918164Y17961623D01*
X29019179Y17995295D01*
X29086523Y17995295D01*
X29187538Y17961623D01*
X29355897Y17860608D01*
X29524255Y17692249D01*
X29625271Y17523890D01*
X29658942Y17422875D01*
X29658942Y17355532D01*
X29625271Y17254516D01*
X29557927Y17187173D01*
X29456912Y17153501D01*
X29389568Y17153501D01*
X29288553Y17187173D01*
X29120194Y17288188D01*
X28951836Y17456547D01*
X28850820Y17624906D01*
X28817149Y17725921D01*
X28817149Y17793264D01*
X28850820Y17894280D01*
X29389568Y18433028D02*
X29961988Y17860608D01*
X30063003Y17826936D01*
X30130347Y17826936D01*
X30231362Y17860608D01*
X30366049Y17995295D01*
X30399721Y18096310D01*
X30399721Y18163654D01*
X30366049Y18264669D01*
X29793629Y18837089D01*
X30770110Y18466699D02*
X30904797Y18534043D01*
X31073156Y18702402D01*
X31106828Y18803417D01*
X31106828Y18870760D01*
X31073156Y18971776D01*
X31005812Y19039119D01*
X30904797Y19072791D01*
X30837454Y19072791D01*
X30736438Y19039119D01*
X30568080Y18938104D01*
X30467064Y18904432D01*
X30399721Y18904432D01*
X30298706Y18938104D01*
X30231362Y19005447D01*
X30197690Y19106463D01*
X30197690Y19173806D01*
X30231362Y19274821D01*
X30399721Y19443180D01*
X30534408Y19510524D01*
X31376202Y19746226D02*
X31510889Y19813569D01*
X31578232Y19813569D01*
X31679247Y19779898D01*
X31780263Y19678882D01*
X31813934Y19577867D01*
X31813934Y19510524D01*
X31780263Y19409508D01*
X31510889Y19140134D01*
X30803782Y19847241D01*
X31039484Y20082943D01*
X31140499Y20116615D01*
X31207843Y20116615D01*
X31308858Y20082943D01*
X31376202Y20015600D01*
X31409873Y19914585D01*
X31409873Y19847241D01*
X31376202Y19746226D01*
X31140499Y19510524D01*
X32588385Y20217630D02*
X32184324Y19813569D01*
X32386354Y20015600D02*
X31679247Y20722707D01*
X31712919Y20554348D01*
X31712919Y20419661D01*
X31679247Y20318646D01*
X32487370Y21530829D02*
X32352683Y21396142D01*
X32319011Y21295127D01*
X32319011Y21227783D01*
X32352683Y21059424D01*
X32453698Y20891066D01*
X32723072Y20621692D01*
X32824087Y20588020D01*
X32891431Y20588020D01*
X32992446Y20621692D01*
X33127133Y20756379D01*
X33160805Y20857394D01*
X33160805Y20924737D01*
X33127133Y21025753D01*
X32958774Y21194111D01*
X32857759Y21227783D01*
X32790415Y21227783D01*
X32689400Y21194111D01*
X32554713Y21059424D01*
X32521041Y20958409D01*
X32521041Y20891066D01*
X32554713Y20790050D01*
X32891431Y21800203D02*
X32891431Y21867546D01*
X32925102Y21968562D01*
X33093461Y22136920D01*
X33194476Y22170592D01*
X33261820Y22170592D01*
X33362835Y22136920D01*
X33430179Y22069577D01*
X33497522Y21934890D01*
X33497522Y21126768D01*
X33935255Y21564501D01*
X33968927Y22136920D02*
X34507675Y22675668D01*
X35484155Y23113401D02*
X35080094Y22709340D01*
X35282125Y22911371D02*
X34575018Y23618477D01*
X34608690Y23450119D01*
X34608690Y23315432D01*
X34575018Y23214416D01*
X35383140Y24426599D02*
X35248453Y24291912D01*
X35214781Y24190897D01*
X35214781Y24123554D01*
X35248453Y23955195D01*
X35349468Y23786836D01*
X35618842Y23517462D01*
X35719858Y23483790D01*
X35787201Y23483790D01*
X35888216Y23517462D01*
X36022903Y23652149D01*
X36056575Y23753164D01*
X36056575Y23820508D01*
X36022903Y23921523D01*
X35854545Y24089882D01*
X35753529Y24123554D01*
X35686186Y24123554D01*
X35585171Y24089882D01*
X35450484Y23955195D01*
X35416812Y23854180D01*
X35416812Y23786836D01*
X35450484Y23685821D01*
X36224934Y24258241D02*
X36561651Y24594958D01*
X36359621Y23988867D02*
X35888216Y24931676D01*
X36831025Y24460271D01*
X36359621Y25403080D02*
X36932041Y24830660D01*
X37033056Y24796989D01*
X37100399Y24796989D01*
X37201415Y24830660D01*
X37336102Y24965347D01*
X37369773Y25066363D01*
X37369773Y25133706D01*
X37336102Y25234721D01*
X36763682Y25807141D01*
X27014026Y24613478D02*
X27586446Y24041058D01*
X27687461Y24007386D01*
X27754805Y24007386D01*
X27855820Y24041058D01*
X27990507Y24175745D01*
X28024179Y24276760D01*
X28024179Y24344104D01*
X27990507Y24445119D01*
X27418087Y25017539D01*
X28832301Y25017539D02*
X28428240Y24613478D01*
X28630270Y24815508D02*
X27923164Y25522615D01*
X27956835Y25354256D01*
X27956835Y25219569D01*
X27923164Y25118554D01*
%TO.C,U2*%
X46061809Y37465620D02*
X45585619Y37465620D01*
X45585619Y38465620D01*
X46395142Y37465620D02*
X46395142Y38465620D01*
X46728476Y37751334D01*
X47061809Y38465620D01*
X47061809Y37465620D01*
X48061809Y37465620D02*
X47490380Y37465620D01*
X47776095Y37465620D02*
X47776095Y38465620D01*
X47680857Y38322762D01*
X47585619Y38227524D01*
X47490380Y38179905D01*
X49014190Y37465620D02*
X48442761Y37465620D01*
X48728476Y37465620D02*
X48728476Y38465620D01*
X48633238Y38322762D01*
X48538000Y38227524D01*
X48442761Y38179905D01*
X49966571Y37465620D02*
X49395142Y37465620D01*
X49680857Y37465620D02*
X49680857Y38465620D01*
X49585619Y38322762D01*
X49490380Y38227524D01*
X49395142Y38179905D01*
X50299904Y38465620D02*
X50966571Y38465620D01*
X50538000Y37465620D01*
X51347523Y37846572D02*
X52109428Y37846572D01*
X52490380Y38465620D02*
X53109428Y38465620D01*
X52776095Y38084667D01*
X52918952Y38084667D01*
X53014190Y38037048D01*
X53061809Y37989429D01*
X53109428Y37894191D01*
X53109428Y37656096D01*
X53061809Y37560858D01*
X53014190Y37513239D01*
X52918952Y37465620D01*
X52633238Y37465620D01*
X52538000Y37513239D01*
X52490380Y37560858D01*
X53538000Y37560858D02*
X53585619Y37513239D01*
X53538000Y37465620D01*
X53490380Y37513239D01*
X53538000Y37560858D01*
X53538000Y37465620D01*
X53918952Y38465620D02*
X54538000Y38465620D01*
X54204666Y38084667D01*
X54347523Y38084667D01*
X54442761Y38037048D01*
X54490380Y37989429D01*
X54538000Y37894191D01*
X54538000Y37656096D01*
X54490380Y37560858D01*
X54442761Y37513239D01*
X54347523Y37465620D01*
X54061809Y37465620D01*
X53966571Y37513239D01*
X53918952Y37560858D01*
D13*
X49599904Y41808477D02*
X50247523Y41808477D01*
X50323714Y41846572D01*
X50361809Y41884667D01*
X50399904Y41960858D01*
X50399904Y42113239D01*
X50361809Y42189429D01*
X50323714Y42227524D01*
X50247523Y42265620D01*
X49599904Y42265620D01*
X49676095Y42608477D02*
X49638000Y42646572D01*
X49599904Y42722762D01*
X49599904Y42913239D01*
X49638000Y42989429D01*
X49676095Y43027524D01*
X49752285Y43065620D01*
X49828476Y43065620D01*
X49942761Y43027524D01*
X50399904Y42570381D01*
X50399904Y43065620D01*
%TO.C,U3*%
D11*
X55705952Y29882620D02*
X55705952Y30882620D01*
X56039285Y30168334D01*
X56372619Y30882620D01*
X56372619Y29882620D01*
X56801190Y30168334D02*
X57277380Y30168334D01*
X56705952Y29882620D02*
X57039285Y30882620D01*
X57372619Y29882620D01*
X57610714Y30882620D02*
X58277380Y29882620D01*
X58277380Y30882620D02*
X57610714Y29882620D01*
X58563095Y30882620D02*
X59182142Y30882620D01*
X58848809Y30501667D01*
X58991666Y30501667D01*
X59086904Y30454048D01*
X59134523Y30406429D01*
X59182142Y30311191D01*
X59182142Y30073096D01*
X59134523Y29977858D01*
X59086904Y29930239D01*
X58991666Y29882620D01*
X58705952Y29882620D01*
X58610714Y29930239D01*
X58563095Y29977858D01*
X59801190Y30882620D02*
X59896428Y30882620D01*
X59991666Y30835000D01*
X60039285Y30787381D01*
X60086904Y30692143D01*
X60134523Y30501667D01*
X60134523Y30263572D01*
X60086904Y30073096D01*
X60039285Y29977858D01*
X59991666Y29930239D01*
X59896428Y29882620D01*
X59801190Y29882620D01*
X59705952Y29930239D01*
X59658333Y29977858D01*
X59610714Y30073096D01*
X59563095Y30263572D01*
X59563095Y30501667D01*
X59610714Y30692143D01*
X59658333Y30787381D01*
X59705952Y30835000D01*
X59801190Y30882620D01*
X60753571Y30882620D02*
X60848809Y30882620D01*
X60944047Y30835000D01*
X60991666Y30787381D01*
X61039285Y30692143D01*
X61086904Y30501667D01*
X61086904Y30263572D01*
X61039285Y30073096D01*
X60991666Y29977858D01*
X60944047Y29930239D01*
X60848809Y29882620D01*
X60753571Y29882620D01*
X60658333Y29930239D01*
X60610714Y29977858D01*
X60563095Y30073096D01*
X60515476Y30263572D01*
X60515476Y30501667D01*
X60563095Y30692143D01*
X60610714Y30787381D01*
X60658333Y30835000D01*
X60753571Y30882620D01*
X61467857Y30787381D02*
X61515476Y30835000D01*
X61610714Y30882620D01*
X61848809Y30882620D01*
X61944047Y30835000D01*
X61991666Y30787381D01*
X62039285Y30692143D01*
X62039285Y30596905D01*
X61991666Y30454048D01*
X61420238Y29882620D01*
X62039285Y29882620D01*
X62467857Y30406429D02*
X62801190Y30406429D01*
X62944047Y29882620D02*
X62467857Y29882620D01*
X62467857Y30882620D01*
X62944047Y30882620D01*
X63372619Y30882620D02*
X63372619Y30073096D01*
X63420238Y29977858D01*
X63467857Y29930239D01*
X63563095Y29882620D01*
X63753571Y29882620D01*
X63848809Y29930239D01*
X63896428Y29977858D01*
X63944047Y30073096D01*
X63944047Y30882620D01*
X64420238Y29882620D02*
X64420238Y30882620D01*
X64801190Y30882620D01*
X64896428Y30835000D01*
X64944047Y30787381D01*
X64991666Y30692143D01*
X64991666Y30549286D01*
X64944047Y30454048D01*
X64896428Y30406429D01*
X64801190Y30358810D01*
X64420238Y30358810D01*
X59715476Y26473096D02*
X59715476Y25825477D01*
X59753571Y25749286D01*
X59791666Y25711191D01*
X59867857Y25673096D01*
X60020238Y25673096D01*
X60096428Y25711191D01*
X60134523Y25749286D01*
X60172619Y25825477D01*
X60172619Y26473096D01*
X60477380Y26473096D02*
X60972619Y26473096D01*
X60705952Y26168334D01*
X60820238Y26168334D01*
X60896428Y26130239D01*
X60934523Y26092143D01*
X60972619Y26015953D01*
X60972619Y25825477D01*
X60934523Y25749286D01*
X60896428Y25711191D01*
X60820238Y25673096D01*
X60591666Y25673096D01*
X60515476Y25711191D01*
X60477380Y25749286D01*
%TO.C,U4*%
X77327619Y13549334D02*
X77803809Y13549334D01*
X77232380Y13263620D02*
X77565714Y14263620D01*
X77899047Y13263620D01*
X78089523Y14263620D02*
X78422857Y13263620D01*
X78756190Y14263620D01*
X79660952Y13263620D02*
X79327619Y13739810D01*
X79089523Y13263620D02*
X79089523Y14263620D01*
X79470476Y14263620D01*
X79565714Y14216000D01*
X79613333Y14168381D01*
X79660952Y14073143D01*
X79660952Y13930286D01*
X79613333Y13835048D01*
X79565714Y13787429D01*
X79470476Y13739810D01*
X79089523Y13739810D01*
X80089523Y13644572D02*
X80851428Y13644572D01*
X81327619Y13263620D02*
X81327619Y14263620D01*
X81756190Y13311239D02*
X81899047Y13263620D01*
X82137142Y13263620D01*
X82232380Y13311239D01*
X82280000Y13358858D01*
X82327619Y13454096D01*
X82327619Y13549334D01*
X82280000Y13644572D01*
X82232380Y13692191D01*
X82137142Y13739810D01*
X81946666Y13787429D01*
X81851428Y13835048D01*
X81803809Y13882667D01*
X81756190Y13977905D01*
X81756190Y14073143D01*
X81803809Y14168381D01*
X81851428Y14216000D01*
X81946666Y14263620D01*
X82184761Y14263620D01*
X82327619Y14216000D01*
X82756190Y13263620D02*
X82756190Y14263620D01*
X83137142Y14263620D01*
X83232380Y14216000D01*
X83280000Y14168381D01*
X83327619Y14073143D01*
X83327619Y13930286D01*
X83280000Y13835048D01*
X83232380Y13787429D01*
X83137142Y13739810D01*
X82756190Y13739810D01*
X84280000Y13263620D02*
X83708571Y13263620D01*
X83994285Y13263620D02*
X83994285Y14263620D01*
X83899047Y14120762D01*
X83803809Y14025524D01*
X83708571Y13977905D01*
X84899047Y14263620D02*
X84994285Y14263620D01*
X85089523Y14216000D01*
X85137142Y14168381D01*
X85184761Y14073143D01*
X85232380Y13882667D01*
X85232380Y13644572D01*
X85184761Y13454096D01*
X85137142Y13358858D01*
X85089523Y13311239D01*
X84994285Y13263620D01*
X84899047Y13263620D01*
X84803809Y13311239D01*
X84756190Y13358858D01*
X84708571Y13454096D01*
X84660952Y13644572D01*
X84660952Y13882667D01*
X84708571Y14073143D01*
X84756190Y14168381D01*
X84803809Y14216000D01*
X84899047Y14263620D01*
X80518095Y25947620D02*
X80518095Y25138096D01*
X80565714Y25042858D01*
X80613333Y24995239D01*
X80708571Y24947620D01*
X80899047Y24947620D01*
X80994285Y24995239D01*
X81041904Y25042858D01*
X81089523Y25138096D01*
X81089523Y25947620D01*
X81994285Y25614286D02*
X81994285Y24947620D01*
X81756190Y25995239D02*
X81518095Y25280953D01*
X82137142Y25280953D01*
%TO.C,Y1*%
X17613571Y6792620D02*
X17042142Y6792620D01*
X17327857Y6792620D02*
X17327857Y7792620D01*
X17232619Y7649762D01*
X17137380Y7554524D01*
X17042142Y7506905D01*
X18470714Y7792620D02*
X18280238Y7792620D01*
X18185000Y7745000D01*
X18137380Y7697381D01*
X18042142Y7554524D01*
X17994523Y7364048D01*
X17994523Y6983096D01*
X18042142Y6887858D01*
X18089761Y6840239D01*
X18185000Y6792620D01*
X18375476Y6792620D01*
X18470714Y6840239D01*
X18518333Y6887858D01*
X18565952Y6983096D01*
X18565952Y7221191D01*
X18518333Y7316429D01*
X18470714Y7364048D01*
X18375476Y7411667D01*
X18185000Y7411667D01*
X18089761Y7364048D01*
X18042142Y7316429D01*
X17994523Y7221191D01*
X19756428Y6792620D02*
X19756428Y7792620D01*
X20089761Y7078334D01*
X20423095Y7792620D01*
X20423095Y6792620D01*
X20899285Y6792620D02*
X20899285Y7792620D01*
X20899285Y7316429D02*
X21470714Y7316429D01*
X21470714Y6792620D02*
X21470714Y7792620D01*
X21851666Y7459286D02*
X22375476Y7459286D01*
X21851666Y6792620D01*
X22375476Y6792620D01*
X19208809Y10818810D02*
X19208809Y10342620D01*
X18875476Y11342620D02*
X19208809Y10818810D01*
X19542142Y11342620D01*
X20399285Y10342620D02*
X19827857Y10342620D01*
X20113571Y10342620D02*
X20113571Y11342620D01*
X20018333Y11199762D01*
X19923095Y11104524D01*
X19827857Y11056905D01*
%TD*%
M02*
