%TF.GenerationSoftware,KiCad,Pcbnew,5.1.5-1.fc31*%
%TF.CreationDate,2020-04-02T16:35:23+02:00*%
%TF.ProjectId,avrisp-mkII-clone,61767269-7370-42d6-9d6b-49492d636c6f,1.0*%
%TF.SameCoordinates,PX54c81a0PY82ce540*%
%TF.FileFunction,Soldermask,Top*%
%TF.FilePolarity,Negative*%
%FSLAX46Y46*%
G04 Gerber Fmt 4.6, Leading zero omitted, Abs format (unit mm)*
G04 Created by KiCad (PCBNEW 5.1.5-1.fc31) date 2020-04-02 16:35:23*
%MOMM*%
%LPD*%
G04 APERTURE LIST*
%ADD10C,0.150000*%
G04 APERTURE END LIST*
D10*
G36*
X111984549Y3668884D02*
G01*
X112095734Y3646768D01*
X112243850Y3585416D01*
X112272293Y3573635D01*
X112305203Y3560003D01*
X112493720Y3434040D01*
X112654040Y3273720D01*
X112780003Y3085203D01*
X112780004Y3085201D01*
X112805416Y3023850D01*
X112866768Y2875734D01*
X112911000Y2653364D01*
X112911000Y2426636D01*
X112866768Y2204266D01*
X112780003Y1994797D01*
X112654040Y1806280D01*
X112493720Y1645960D01*
X112305203Y1519997D01*
X112095734Y1433232D01*
X111984549Y1411116D01*
X111873365Y1389000D01*
X111646635Y1389000D01*
X111535451Y1411116D01*
X111424266Y1433232D01*
X111214797Y1519997D01*
X111026280Y1645960D01*
X110865960Y1806280D01*
X110739997Y1994797D01*
X110653232Y2204266D01*
X110609000Y2426636D01*
X110609000Y2653364D01*
X110653232Y2875734D01*
X110714584Y3023850D01*
X110739996Y3085201D01*
X110739997Y3085203D01*
X110865960Y3273720D01*
X111026280Y3434040D01*
X111214797Y3560003D01*
X111247708Y3573635D01*
X111276150Y3585416D01*
X111424266Y3646768D01*
X111535451Y3668884D01*
X111646635Y3691000D01*
X111873365Y3691000D01*
X111984549Y3668884D01*
G37*
G36*
X2764549Y3668884D02*
G01*
X2875734Y3646768D01*
X3023850Y3585416D01*
X3052293Y3573635D01*
X3085203Y3560003D01*
X3273720Y3434040D01*
X3434040Y3273720D01*
X3560003Y3085203D01*
X3560004Y3085201D01*
X3585416Y3023850D01*
X3646768Y2875734D01*
X3691000Y2653364D01*
X3691000Y2426636D01*
X3646768Y2204266D01*
X3560003Y1994797D01*
X3434040Y1806280D01*
X3273720Y1645960D01*
X3085203Y1519997D01*
X2875734Y1433232D01*
X2764549Y1411116D01*
X2653365Y1389000D01*
X2426635Y1389000D01*
X2315451Y1411116D01*
X2204266Y1433232D01*
X1994797Y1519997D01*
X1806280Y1645960D01*
X1645960Y1806280D01*
X1519997Y1994797D01*
X1433232Y2204266D01*
X1389000Y2426636D01*
X1389000Y2653364D01*
X1433232Y2875734D01*
X1494584Y3023850D01*
X1519996Y3085201D01*
X1519997Y3085203D01*
X1645960Y3273720D01*
X1806280Y3434040D01*
X1994797Y3560003D01*
X2027708Y3573635D01*
X2056150Y3585416D01*
X2204266Y3646768D01*
X2315451Y3668884D01*
X2426635Y3691000D01*
X2653365Y3691000D01*
X2764549Y3668884D01*
G37*
G36*
X17733674Y4041535D02*
G01*
X17771367Y4030101D01*
X17806103Y4011534D01*
X17836548Y3986548D01*
X17861534Y3956103D01*
X17880101Y3921367D01*
X17891535Y3883674D01*
X17896000Y3838339D01*
X17896000Y3001661D01*
X17891535Y2956326D01*
X17880101Y2918633D01*
X17861534Y2883897D01*
X17836548Y2853452D01*
X17806103Y2828466D01*
X17771367Y2809899D01*
X17733674Y2798465D01*
X17688339Y2794000D01*
X16601661Y2794000D01*
X16556326Y2798465D01*
X16518633Y2809899D01*
X16483897Y2828466D01*
X16453452Y2853452D01*
X16428466Y2883897D01*
X16409899Y2918633D01*
X16398465Y2956326D01*
X16394000Y3001661D01*
X16394000Y3838339D01*
X16398465Y3883674D01*
X16409899Y3921367D01*
X16428466Y3956103D01*
X16453452Y3986548D01*
X16483897Y4011534D01*
X16518633Y4030101D01*
X16556326Y4041535D01*
X16601661Y4046000D01*
X17688339Y4046000D01*
X17733674Y4041535D01*
G37*
G36*
X22813674Y4041535D02*
G01*
X22851367Y4030101D01*
X22886103Y4011534D01*
X22916548Y3986548D01*
X22941534Y3956103D01*
X22960101Y3921367D01*
X22971535Y3883674D01*
X22976000Y3838339D01*
X22976000Y3001661D01*
X22971535Y2956326D01*
X22960101Y2918633D01*
X22941534Y2883897D01*
X22916548Y2853452D01*
X22886103Y2828466D01*
X22851367Y2809899D01*
X22813674Y2798465D01*
X22768339Y2794000D01*
X21681661Y2794000D01*
X21636326Y2798465D01*
X21598633Y2809899D01*
X21563897Y2828466D01*
X21533452Y2853452D01*
X21508466Y2883897D01*
X21489899Y2918633D01*
X21478465Y2956326D01*
X21474000Y3001661D01*
X21474000Y3838339D01*
X21478465Y3883674D01*
X21489899Y3921367D01*
X21508466Y3956103D01*
X21533452Y3986548D01*
X21563897Y4011534D01*
X21598633Y4030101D01*
X21636326Y4041535D01*
X21681661Y4046000D01*
X22768339Y4046000D01*
X22813674Y4041535D01*
G37*
G36*
X37136564Y5400611D02*
G01*
X37327833Y5321385D01*
X37327835Y5321384D01*
X37499973Y5206365D01*
X37646365Y5059973D01*
X37737408Y4923718D01*
X37761385Y4887833D01*
X37840611Y4696564D01*
X37881000Y4493516D01*
X37881000Y4286484D01*
X37840611Y4083436D01*
X37773480Y3921367D01*
X37761384Y3892165D01*
X37646365Y3720027D01*
X37499973Y3573635D01*
X37327835Y3458616D01*
X37327834Y3458615D01*
X37327833Y3458615D01*
X37136564Y3379389D01*
X36933516Y3339000D01*
X36726484Y3339000D01*
X36523436Y3379389D01*
X36332167Y3458615D01*
X36332166Y3458615D01*
X36332165Y3458616D01*
X36160027Y3573635D01*
X36013635Y3720027D01*
X35898616Y3892165D01*
X35886520Y3921367D01*
X35819389Y4083436D01*
X35779000Y4286484D01*
X35779000Y4493516D01*
X35819389Y4696564D01*
X35898615Y4887833D01*
X35922593Y4923718D01*
X36013635Y5059973D01*
X36160027Y5206365D01*
X36332165Y5321384D01*
X36332167Y5321385D01*
X36523436Y5400611D01*
X36726484Y5441000D01*
X36933516Y5441000D01*
X37136564Y5400611D01*
G37*
G36*
X43636564Y5400611D02*
G01*
X43827833Y5321385D01*
X43827835Y5321384D01*
X43999973Y5206365D01*
X44146365Y5059973D01*
X44237408Y4923718D01*
X44261385Y4887833D01*
X44340611Y4696564D01*
X44381000Y4493516D01*
X44381000Y4286484D01*
X44340611Y4083436D01*
X44273480Y3921367D01*
X44261384Y3892165D01*
X44146365Y3720027D01*
X43999973Y3573635D01*
X43827835Y3458616D01*
X43827834Y3458615D01*
X43827833Y3458615D01*
X43636564Y3379389D01*
X43433516Y3339000D01*
X43226484Y3339000D01*
X43023436Y3379389D01*
X42832167Y3458615D01*
X42832166Y3458615D01*
X42832165Y3458616D01*
X42660027Y3573635D01*
X42513635Y3720027D01*
X42398616Y3892165D01*
X42386520Y3921367D01*
X42319389Y4083436D01*
X42279000Y4286484D01*
X42279000Y4493516D01*
X42319389Y4696564D01*
X42398615Y4887833D01*
X42422593Y4923718D01*
X42513635Y5059973D01*
X42660027Y5206365D01*
X42832165Y5321384D01*
X42832167Y5321385D01*
X43023436Y5400611D01*
X43226484Y5441000D01*
X43433516Y5441000D01*
X43636564Y5400611D01*
G37*
G36*
X17733674Y6091535D02*
G01*
X17771367Y6080101D01*
X17806103Y6061534D01*
X17836548Y6036548D01*
X17861534Y6006103D01*
X17880101Y5971367D01*
X17891535Y5933674D01*
X17896000Y5888339D01*
X17896000Y5051661D01*
X17891535Y5006326D01*
X17880101Y4968633D01*
X17861534Y4933897D01*
X17836548Y4903452D01*
X17806103Y4878466D01*
X17771367Y4859899D01*
X17733674Y4848465D01*
X17688339Y4844000D01*
X16601661Y4844000D01*
X16556326Y4848465D01*
X16518633Y4859899D01*
X16483897Y4878466D01*
X16453452Y4903452D01*
X16428466Y4933897D01*
X16409899Y4968633D01*
X16398465Y5006326D01*
X16394000Y5051661D01*
X16394000Y5888339D01*
X16398465Y5933674D01*
X16409899Y5971367D01*
X16428466Y6006103D01*
X16453452Y6036548D01*
X16483897Y6061534D01*
X16518633Y6080101D01*
X16556326Y6091535D01*
X16601661Y6096000D01*
X17688339Y6096000D01*
X17733674Y6091535D01*
G37*
G36*
X22813674Y6091535D02*
G01*
X22851367Y6080101D01*
X22886103Y6061534D01*
X22916548Y6036548D01*
X22941534Y6006103D01*
X22960101Y5971367D01*
X22971535Y5933674D01*
X22976000Y5888339D01*
X22976000Y5051661D01*
X22971535Y5006326D01*
X22960101Y4968633D01*
X22941534Y4933897D01*
X22916548Y4903452D01*
X22886103Y4878466D01*
X22851367Y4859899D01*
X22813674Y4848465D01*
X22768339Y4844000D01*
X21681661Y4844000D01*
X21636326Y4848465D01*
X21598633Y4859899D01*
X21563897Y4878466D01*
X21533452Y4903452D01*
X21508466Y4933897D01*
X21489899Y4968633D01*
X21478465Y5006326D01*
X21474000Y5051661D01*
X21474000Y5888339D01*
X21478465Y5933674D01*
X21489899Y5971367D01*
X21508466Y6006103D01*
X21533452Y6036548D01*
X21563897Y6061534D01*
X21598633Y6080101D01*
X21636326Y6091535D01*
X21681661Y6096000D01*
X22768339Y6096000D01*
X22813674Y6091535D01*
G37*
G36*
X63777395Y7264454D02*
G01*
X63950466Y7192766D01*
X63950467Y7192765D01*
X64106227Y7088690D01*
X64238690Y6956227D01*
X64238691Y6956225D01*
X64342766Y6800466D01*
X64414454Y6627395D01*
X64451000Y6443667D01*
X64451000Y6256333D01*
X64414454Y6072605D01*
X64342766Y5899534D01*
X64327659Y5876925D01*
X64238690Y5743773D01*
X64106227Y5611310D01*
X64027818Y5558919D01*
X63950466Y5507234D01*
X63777395Y5435546D01*
X63593667Y5399000D01*
X63406333Y5399000D01*
X63222605Y5435546D01*
X63049534Y5507234D01*
X62972182Y5558919D01*
X62893773Y5611310D01*
X62761310Y5743773D01*
X62672341Y5876925D01*
X62657234Y5899534D01*
X62585546Y6072605D01*
X62549000Y6256333D01*
X62549000Y6443667D01*
X62585546Y6627395D01*
X62657234Y6800466D01*
X62761309Y6956225D01*
X62761310Y6956227D01*
X62893773Y7088690D01*
X63049533Y7192765D01*
X63049534Y7192766D01*
X63222605Y7264454D01*
X63406333Y7301000D01*
X63593667Y7301000D01*
X63777395Y7264454D01*
G37*
G36*
X51077395Y7264454D02*
G01*
X51250466Y7192766D01*
X51250467Y7192765D01*
X51406227Y7088690D01*
X51538690Y6956227D01*
X51538691Y6956225D01*
X51642766Y6800466D01*
X51714454Y6627395D01*
X51751000Y6443667D01*
X51751000Y6256333D01*
X51714454Y6072605D01*
X51642766Y5899534D01*
X51627659Y5876925D01*
X51538690Y5743773D01*
X51406227Y5611310D01*
X51327818Y5558919D01*
X51250466Y5507234D01*
X51077395Y5435546D01*
X50893667Y5399000D01*
X50706333Y5399000D01*
X50522605Y5435546D01*
X50349534Y5507234D01*
X50272182Y5558919D01*
X50193773Y5611310D01*
X50061310Y5743773D01*
X49972341Y5876925D01*
X49957234Y5899534D01*
X49885546Y6072605D01*
X49849000Y6256333D01*
X49849000Y6443667D01*
X49885546Y6627395D01*
X49957234Y6800466D01*
X50061309Y6956225D01*
X50061310Y6956227D01*
X50193773Y7088690D01*
X50349533Y7192765D01*
X50349534Y7192766D01*
X50522605Y7264454D01*
X50706333Y7301000D01*
X50893667Y7301000D01*
X51077395Y7264454D01*
G37*
G36*
X54291000Y5399000D02*
G01*
X52389000Y5399000D01*
X52389000Y7301000D01*
X54291000Y7301000D01*
X54291000Y5399000D01*
G37*
G36*
X61911000Y5399000D02*
G01*
X60009000Y5399000D01*
X60009000Y7301000D01*
X61911000Y7301000D01*
X61911000Y5399000D01*
G37*
G36*
X37136564Y9900611D02*
G01*
X37327833Y9821385D01*
X37327835Y9821384D01*
X37443648Y9744000D01*
X37499973Y9706365D01*
X37646365Y9559973D01*
X37761385Y9387833D01*
X37840611Y9196564D01*
X37881000Y8993516D01*
X37881000Y8786484D01*
X37840611Y8583436D01*
X37761385Y8392167D01*
X37761384Y8392165D01*
X37646365Y8220027D01*
X37499973Y8073635D01*
X37327835Y7958616D01*
X37327834Y7958615D01*
X37327833Y7958615D01*
X37136564Y7879389D01*
X36933516Y7839000D01*
X36726484Y7839000D01*
X36523436Y7879389D01*
X36332167Y7958615D01*
X36332166Y7958615D01*
X36332165Y7958616D01*
X36160027Y8073635D01*
X36013635Y8220027D01*
X35898616Y8392165D01*
X35898615Y8392167D01*
X35819389Y8583436D01*
X35779000Y8786484D01*
X35779000Y8993516D01*
X35819389Y9196564D01*
X35898615Y9387833D01*
X36013635Y9559973D01*
X36160027Y9706365D01*
X36216352Y9744000D01*
X36332165Y9821384D01*
X36332167Y9821385D01*
X36523436Y9900611D01*
X36726484Y9941000D01*
X36933516Y9941000D01*
X37136564Y9900611D01*
G37*
G36*
X43636564Y9900611D02*
G01*
X43827833Y9821385D01*
X43827835Y9821384D01*
X43943648Y9744000D01*
X43999973Y9706365D01*
X44146365Y9559973D01*
X44261385Y9387833D01*
X44340611Y9196564D01*
X44381000Y8993516D01*
X44381000Y8786484D01*
X44340611Y8583436D01*
X44261385Y8392167D01*
X44261384Y8392165D01*
X44146365Y8220027D01*
X43999973Y8073635D01*
X43827835Y7958616D01*
X43827834Y7958615D01*
X43827833Y7958615D01*
X43636564Y7879389D01*
X43433516Y7839000D01*
X43226484Y7839000D01*
X43023436Y7879389D01*
X42832167Y7958615D01*
X42832166Y7958615D01*
X42832165Y7958616D01*
X42660027Y8073635D01*
X42513635Y8220027D01*
X42398616Y8392165D01*
X42398615Y8392167D01*
X42319389Y8583436D01*
X42279000Y8786484D01*
X42279000Y8993516D01*
X42319389Y9196564D01*
X42398615Y9387833D01*
X42513635Y9559973D01*
X42660027Y9706365D01*
X42716352Y9744000D01*
X42832165Y9821384D01*
X42832167Y9821385D01*
X43023436Y9900611D01*
X43226484Y9941000D01*
X43433516Y9941000D01*
X43636564Y9900611D01*
G37*
G36*
X17736000Y9744000D02*
G01*
X9759000Y9744000D01*
X9759000Y11846000D01*
X17736000Y11846000D01*
X17736000Y9744000D01*
G37*
G36*
X29611000Y9744000D02*
G01*
X21634000Y9744000D01*
X21634000Y11846000D01*
X29611000Y11846000D01*
X29611000Y9744000D01*
G37*
G36*
X2041000Y13529000D02*
G01*
X639000Y13529000D01*
X639000Y15281000D01*
X2041000Y15281000D01*
X2041000Y13529000D01*
G37*
G36*
X4741000Y14529000D02*
G01*
X3089000Y14529000D01*
X3089000Y16056000D01*
X3134001Y16056000D01*
X3158387Y16058402D01*
X3181836Y16065515D01*
X3203447Y16077066D01*
X3222389Y16092611D01*
X3237934Y16111553D01*
X3249485Y16133164D01*
X3256598Y16156613D01*
X3259000Y16180999D01*
X3259000Y19379001D01*
X3256598Y19403387D01*
X3249485Y19426836D01*
X3237934Y19448447D01*
X3222389Y19467389D01*
X3203447Y19482934D01*
X3181836Y19494485D01*
X3158387Y19501598D01*
X3134001Y19504000D01*
X3089000Y19504000D01*
X3089000Y21031000D01*
X4741000Y21031000D01*
X4741000Y14529000D01*
G37*
G36*
X49748674Y16621535D02*
G01*
X49786367Y16610101D01*
X49821103Y16591534D01*
X49851548Y16566548D01*
X49876534Y16536103D01*
X49895101Y16501367D01*
X49906535Y16463674D01*
X49911000Y16418339D01*
X49911000Y15331661D01*
X49906535Y15286326D01*
X49895101Y15248633D01*
X49876534Y15213897D01*
X49851548Y15183452D01*
X49821103Y15158466D01*
X49786367Y15139899D01*
X49748674Y15128465D01*
X49703339Y15124000D01*
X48866661Y15124000D01*
X48821326Y15128465D01*
X48783633Y15139899D01*
X48748897Y15158466D01*
X48718452Y15183452D01*
X48693466Y15213897D01*
X48674899Y15248633D01*
X48663465Y15286326D01*
X48659000Y15331661D01*
X48659000Y16418339D01*
X48663465Y16463674D01*
X48674899Y16501367D01*
X48693466Y16536103D01*
X48718452Y16566548D01*
X48748897Y16591534D01*
X48783633Y16610101D01*
X48821326Y16621535D01*
X48866661Y16626000D01*
X49703339Y16626000D01*
X49748674Y16621535D01*
G37*
G36*
X47698674Y16621535D02*
G01*
X47736367Y16610101D01*
X47771103Y16591534D01*
X47801548Y16566548D01*
X47826534Y16536103D01*
X47845101Y16501367D01*
X47856535Y16463674D01*
X47861000Y16418339D01*
X47861000Y15331661D01*
X47856535Y15286326D01*
X47845101Y15248633D01*
X47826534Y15213897D01*
X47801548Y15183452D01*
X47771103Y15158466D01*
X47736367Y15139899D01*
X47698674Y15128465D01*
X47653339Y15124000D01*
X46816661Y15124000D01*
X46771326Y15128465D01*
X46733633Y15139899D01*
X46698897Y15158466D01*
X46668452Y15183452D01*
X46643466Y15213897D01*
X46624899Y15248633D01*
X46613465Y15286326D01*
X46609000Y15331661D01*
X46609000Y16418339D01*
X46613465Y16463674D01*
X46624899Y16501367D01*
X46643466Y16536103D01*
X46668452Y16566548D01*
X46698897Y16591534D01*
X46733633Y16610101D01*
X46771326Y16621535D01*
X46816661Y16626000D01*
X47653339Y16626000D01*
X47698674Y16621535D01*
G37*
G36*
X2341000Y15679000D02*
G01*
X339000Y15679000D01*
X339000Y16781000D01*
X2341000Y16781000D01*
X2341000Y15679000D01*
G37*
G36*
X2341000Y17979000D02*
G01*
X339000Y17979000D01*
X339000Y19881000D01*
X2341000Y19881000D01*
X2341000Y17979000D01*
G37*
G36*
X49748674Y20431535D02*
G01*
X49786367Y20420101D01*
X49821103Y20401534D01*
X49851548Y20376548D01*
X49876534Y20346103D01*
X49895101Y20311367D01*
X49906535Y20273674D01*
X49911000Y20228339D01*
X49911000Y19141661D01*
X49906535Y19096326D01*
X49895101Y19058633D01*
X49876534Y19023897D01*
X49851548Y18993452D01*
X49821103Y18968466D01*
X49786367Y18949899D01*
X49748674Y18938465D01*
X49703339Y18934000D01*
X48866661Y18934000D01*
X48821326Y18938465D01*
X48783633Y18949899D01*
X48748897Y18968466D01*
X48718452Y18993452D01*
X48693466Y19023897D01*
X48674899Y19058633D01*
X48663465Y19096326D01*
X48659000Y19141661D01*
X48659000Y20228339D01*
X48663465Y20273674D01*
X48674899Y20311367D01*
X48693466Y20346103D01*
X48718452Y20376548D01*
X48748897Y20401534D01*
X48783633Y20420101D01*
X48821326Y20431535D01*
X48866661Y20436000D01*
X49703339Y20436000D01*
X49748674Y20431535D01*
G37*
G36*
X47698674Y20431535D02*
G01*
X47736367Y20420101D01*
X47771103Y20401534D01*
X47801548Y20376548D01*
X47826534Y20346103D01*
X47845101Y20311367D01*
X47856535Y20273674D01*
X47861000Y20228339D01*
X47861000Y19141661D01*
X47856535Y19096326D01*
X47845101Y19058633D01*
X47826534Y19023897D01*
X47801548Y18993452D01*
X47771103Y18968466D01*
X47736367Y18949899D01*
X47698674Y18938465D01*
X47653339Y18934000D01*
X46816661Y18934000D01*
X46771326Y18938465D01*
X46733633Y18949899D01*
X46698897Y18968466D01*
X46668452Y18993452D01*
X46643466Y19023897D01*
X46624899Y19058633D01*
X46613465Y19096326D01*
X46609000Y19141661D01*
X46609000Y20228339D01*
X46613465Y20273674D01*
X46624899Y20311367D01*
X46643466Y20346103D01*
X46668452Y20376548D01*
X46698897Y20401534D01*
X46733633Y20420101D01*
X46771326Y20431535D01*
X46816661Y20436000D01*
X47653339Y20436000D01*
X47698674Y20431535D01*
G37*
G36*
X23787162Y24110926D02*
G01*
X23787162Y24110925D01*
X23803426Y24094661D01*
X23803432Y24094656D01*
X23891814Y24006274D01*
X23891814Y24006275D01*
X24352848Y23545241D01*
X24352848Y23545240D01*
X24441230Y23456858D01*
X24441235Y23456852D01*
X24457499Y23440588D01*
X24457499Y23440589D01*
X24918533Y22979555D01*
X24918533Y22979554D01*
X25023184Y22874903D01*
X25023184Y22874904D01*
X25484218Y22413870D01*
X25484218Y22413869D01*
X25588870Y22309217D01*
X25588870Y22309218D01*
X26049904Y21848184D01*
X26049904Y21848183D01*
X26154555Y21743532D01*
X26154555Y21743533D01*
X26615589Y21282499D01*
X26615589Y21282498D01*
X26631853Y21266234D01*
X26631859Y21266229D01*
X26720241Y21177847D01*
X26720241Y21177848D01*
X27181275Y20716814D01*
X27181275Y20716813D01*
X27269657Y20628431D01*
X27269662Y20628425D01*
X27285926Y20612161D01*
X27285926Y20612162D01*
X27746960Y20151128D01*
X26543464Y18947632D01*
X26082430Y19408666D01*
X26082431Y19408666D01*
X25994049Y19497048D01*
X25994044Y19497054D01*
X25977780Y19513318D01*
X25977779Y19513318D01*
X25516745Y19974352D01*
X25516746Y19974352D01*
X25500482Y19990616D01*
X25500476Y19990621D01*
X25412094Y20079003D01*
X25412093Y20079003D01*
X24951059Y20540037D01*
X24951060Y20540037D01*
X24846409Y20644688D01*
X24846408Y20644688D01*
X24385374Y21105722D01*
X24385375Y21105722D01*
X24280723Y21210374D01*
X24280722Y21210374D01*
X23819688Y21671408D01*
X23819689Y21671408D01*
X23715038Y21776059D01*
X23715037Y21776059D01*
X23254003Y22237093D01*
X23254004Y22237093D01*
X23165622Y22325475D01*
X23165617Y22325481D01*
X23149353Y22341745D01*
X23149352Y22341745D01*
X22688318Y22802779D01*
X22688319Y22802779D01*
X22672055Y22819043D01*
X22672049Y22819048D01*
X22583667Y22907430D01*
X22583666Y22907430D01*
X22122632Y23368464D01*
X23326128Y24571960D01*
X23787162Y24110926D01*
G37*
G36*
X33757368Y23368464D02*
G01*
X33296334Y22907430D01*
X33191682Y22802779D01*
X32730648Y22341745D01*
X32625997Y22237093D01*
X30467907Y20079003D01*
X30363255Y19974352D01*
X29902221Y19513318D01*
X29797570Y19408666D01*
X29336536Y18947632D01*
X28133040Y20151128D01*
X28594074Y20612162D01*
X28594075Y20612161D01*
X28610339Y20628425D01*
X28610348Y20628436D01*
X28698726Y20716813D01*
X28698725Y20716814D01*
X29159759Y21177848D01*
X29159760Y21177847D01*
X29248137Y21266225D01*
X29248148Y21266234D01*
X29264412Y21282498D01*
X29264411Y21282499D01*
X29725445Y21743533D01*
X29725446Y21743532D01*
X29813833Y21831920D01*
X29830097Y21848183D01*
X29830096Y21848184D01*
X30291130Y22309218D01*
X30291131Y22309217D01*
X30395783Y22413869D01*
X30395782Y22413870D01*
X30856816Y22874904D01*
X30856817Y22874903D01*
X30945204Y22963291D01*
X30961468Y22979554D01*
X30961467Y22979555D01*
X31422501Y23440589D01*
X31422502Y23440588D01*
X31438766Y23456852D01*
X31438775Y23456863D01*
X31527153Y23545240D01*
X31527152Y23545241D01*
X31988186Y24006275D01*
X31988187Y24006274D01*
X32076564Y24094652D01*
X32076575Y24094661D01*
X32092839Y24110925D01*
X32092838Y24110926D01*
X32553872Y24571960D01*
X33757368Y23368464D01*
G37*
G36*
X82816778Y21199453D02*
G01*
X82983224Y21130509D01*
X83133022Y21030417D01*
X83260417Y20903022D01*
X83360509Y20753224D01*
X83429453Y20586778D01*
X83464600Y20410082D01*
X83464600Y20229918D01*
X83429453Y20053222D01*
X83360509Y19886776D01*
X83260417Y19736978D01*
X83133022Y19609583D01*
X82983224Y19509491D01*
X82816778Y19440547D01*
X82640082Y19405400D01*
X82459918Y19405400D01*
X82283222Y19440547D01*
X82116776Y19509491D01*
X81966978Y19609583D01*
X81839583Y19736978D01*
X81739491Y19886776D01*
X81670547Y20053222D01*
X81635400Y20229918D01*
X81635400Y20410082D01*
X81670547Y20586778D01*
X81739491Y20753224D01*
X81839583Y20903022D01*
X81966978Y21030417D01*
X82116776Y21130509D01*
X82283222Y21199453D01*
X82459918Y21234600D01*
X82640082Y21234600D01*
X82816778Y21199453D01*
G37*
G36*
X80276778Y21199453D02*
G01*
X80443224Y21130509D01*
X80593022Y21030417D01*
X80720417Y20903022D01*
X80820509Y20753224D01*
X80889453Y20586778D01*
X80924600Y20410082D01*
X80924600Y20229918D01*
X80889453Y20053222D01*
X80820509Y19886776D01*
X80720417Y19736978D01*
X80593022Y19609583D01*
X80443224Y19509491D01*
X80276778Y19440547D01*
X80100082Y19405400D01*
X79919918Y19405400D01*
X79743222Y19440547D01*
X79576776Y19509491D01*
X79426978Y19609583D01*
X79299583Y19736978D01*
X79199491Y19886776D01*
X79130547Y20053222D01*
X79095400Y20229918D01*
X79095400Y20410082D01*
X79130547Y20586778D01*
X79199491Y20753224D01*
X79299583Y20903022D01*
X79426978Y21030417D01*
X79576776Y21130509D01*
X79743222Y21199453D01*
X79919918Y21234600D01*
X80100082Y21234600D01*
X80276778Y21199453D01*
G37*
G36*
X61813674Y21066535D02*
G01*
X61851367Y21055101D01*
X61886103Y21036534D01*
X61916548Y21011548D01*
X61941534Y20981103D01*
X61960101Y20946367D01*
X61971535Y20908674D01*
X61976000Y20863339D01*
X61976000Y19776661D01*
X61971535Y19731326D01*
X61960101Y19693633D01*
X61941534Y19658897D01*
X61916548Y19628452D01*
X61886103Y19603466D01*
X61851367Y19584899D01*
X61813674Y19573465D01*
X61768339Y19569000D01*
X60931661Y19569000D01*
X60886326Y19573465D01*
X60848633Y19584899D01*
X60813897Y19603466D01*
X60783452Y19628452D01*
X60758466Y19658897D01*
X60739899Y19693633D01*
X60728465Y19731326D01*
X60724000Y19776661D01*
X60724000Y20863339D01*
X60728465Y20908674D01*
X60739899Y20946367D01*
X60758466Y20981103D01*
X60783452Y21011548D01*
X60813897Y21036534D01*
X60848633Y21055101D01*
X60886326Y21066535D01*
X60931661Y21071000D01*
X61768339Y21071000D01*
X61813674Y21066535D01*
G37*
G36*
X59763674Y21066535D02*
G01*
X59801367Y21055101D01*
X59836103Y21036534D01*
X59866548Y21011548D01*
X59891534Y20981103D01*
X59910101Y20946367D01*
X59921535Y20908674D01*
X59926000Y20863339D01*
X59926000Y19776661D01*
X59921535Y19731326D01*
X59910101Y19693633D01*
X59891534Y19658897D01*
X59866548Y19628452D01*
X59836103Y19603466D01*
X59801367Y19584899D01*
X59763674Y19573465D01*
X59718339Y19569000D01*
X58881661Y19569000D01*
X58836326Y19573465D01*
X58798633Y19584899D01*
X58763897Y19603466D01*
X58733452Y19628452D01*
X58708466Y19658897D01*
X58689899Y19693633D01*
X58678465Y19731326D01*
X58674000Y19776661D01*
X58674000Y20863339D01*
X58678465Y20908674D01*
X58689899Y20946367D01*
X58708466Y20981103D01*
X58733452Y21011548D01*
X58763897Y21036534D01*
X58798633Y21055101D01*
X58836326Y21066535D01*
X58881661Y21071000D01*
X59718339Y21071000D01*
X59763674Y21066535D01*
G37*
G36*
X2041000Y20279000D02*
G01*
X639000Y20279000D01*
X639000Y22031000D01*
X2041000Y22031000D01*
X2041000Y20279000D01*
G37*
G36*
X82816778Y23739453D02*
G01*
X82983224Y23670509D01*
X83133022Y23570417D01*
X83260417Y23443022D01*
X83360509Y23293224D01*
X83429453Y23126778D01*
X83464600Y22950082D01*
X83464600Y22769918D01*
X83429453Y22593222D01*
X83360509Y22426776D01*
X83260417Y22276978D01*
X83133022Y22149583D01*
X82983224Y22049491D01*
X82816778Y21980547D01*
X82640082Y21945400D01*
X82459918Y21945400D01*
X82283222Y21980547D01*
X82116776Y22049491D01*
X81966978Y22149583D01*
X81839583Y22276978D01*
X81739491Y22426776D01*
X81670547Y22593222D01*
X81635400Y22769918D01*
X81635400Y22950082D01*
X81670547Y23126778D01*
X81739491Y23293224D01*
X81839583Y23443022D01*
X81966978Y23570417D01*
X82116776Y23670509D01*
X82283222Y23739453D01*
X82459918Y23774600D01*
X82640082Y23774600D01*
X82816778Y23739453D01*
G37*
G36*
X80276778Y23739453D02*
G01*
X80443224Y23670509D01*
X80593022Y23570417D01*
X80720417Y23443022D01*
X80820509Y23293224D01*
X80889453Y23126778D01*
X80924600Y22950082D01*
X80924600Y22769918D01*
X80889453Y22593222D01*
X80820509Y22426776D01*
X80720417Y22276978D01*
X80593022Y22149583D01*
X80443224Y22049491D01*
X80276778Y21980547D01*
X80100082Y21945400D01*
X79919918Y21945400D01*
X79743222Y21980547D01*
X79576776Y22049491D01*
X79426978Y22149583D01*
X79299583Y22276978D01*
X79199491Y22426776D01*
X79130547Y22593222D01*
X79095400Y22769918D01*
X79095400Y22950082D01*
X79130547Y23126778D01*
X79199491Y23293224D01*
X79299583Y23443022D01*
X79426978Y23570417D01*
X79576776Y23670509D01*
X79743222Y23739453D01*
X79919918Y23774600D01*
X80100082Y23774600D01*
X80276778Y23739453D01*
G37*
G36*
X58151000Y22834000D02*
G01*
X56599000Y22834000D01*
X56599000Y29236000D01*
X58151000Y29236000D01*
X58151000Y22834000D01*
G37*
G36*
X64051000Y22834000D02*
G01*
X62499000Y22834000D01*
X62499000Y29236000D01*
X64051000Y29236000D01*
X64051000Y22834000D01*
G37*
G36*
X49748674Y24876535D02*
G01*
X49786367Y24865101D01*
X49821103Y24846534D01*
X49851548Y24821548D01*
X49876534Y24791103D01*
X49895101Y24756367D01*
X49906535Y24718674D01*
X49911000Y24673339D01*
X49911000Y23586661D01*
X49906535Y23541326D01*
X49895101Y23503633D01*
X49876534Y23468897D01*
X49851548Y23438452D01*
X49821103Y23413466D01*
X49786367Y23394899D01*
X49748674Y23383465D01*
X49703339Y23379000D01*
X48866661Y23379000D01*
X48821326Y23383465D01*
X48783633Y23394899D01*
X48748897Y23413466D01*
X48718452Y23438452D01*
X48693466Y23468897D01*
X48674899Y23503633D01*
X48663465Y23541326D01*
X48659000Y23586661D01*
X48659000Y24673339D01*
X48663465Y24718674D01*
X48674899Y24756367D01*
X48693466Y24791103D01*
X48718452Y24821548D01*
X48748897Y24846534D01*
X48783633Y24865101D01*
X48821326Y24876535D01*
X48866661Y24881000D01*
X49703339Y24881000D01*
X49748674Y24876535D01*
G37*
G36*
X47698674Y24876535D02*
G01*
X47736367Y24865101D01*
X47771103Y24846534D01*
X47801548Y24821548D01*
X47826534Y24791103D01*
X47845101Y24756367D01*
X47856535Y24718674D01*
X47861000Y24673339D01*
X47861000Y23586661D01*
X47856535Y23541326D01*
X47845101Y23503633D01*
X47826534Y23468897D01*
X47801548Y23438452D01*
X47771103Y23413466D01*
X47736367Y23394899D01*
X47698674Y23383465D01*
X47653339Y23379000D01*
X46816661Y23379000D01*
X46771326Y23383465D01*
X46733633Y23394899D01*
X46698897Y23413466D01*
X46668452Y23438452D01*
X46643466Y23468897D01*
X46624899Y23503633D01*
X46613465Y23541326D01*
X46609000Y23586661D01*
X46609000Y24673339D01*
X46613465Y24718674D01*
X46624899Y24756367D01*
X46643466Y24791103D01*
X46668452Y24821548D01*
X46698897Y24846534D01*
X46733633Y24865101D01*
X46771326Y24876535D01*
X46816661Y24881000D01*
X47653339Y24881000D01*
X47698674Y24876535D01*
G37*
G36*
X91071778Y26279453D02*
G01*
X91238224Y26210509D01*
X91388022Y26110417D01*
X91515417Y25983022D01*
X91615509Y25833224D01*
X91684453Y25666778D01*
X91719600Y25490082D01*
X91719600Y25309918D01*
X91684453Y25133222D01*
X91615509Y24966776D01*
X91515417Y24816978D01*
X91388022Y24689583D01*
X91238224Y24589491D01*
X91071778Y24520547D01*
X90895082Y24485400D01*
X90714918Y24485400D01*
X90538222Y24520547D01*
X90371776Y24589491D01*
X90221978Y24689583D01*
X90094583Y24816978D01*
X89994491Y24966776D01*
X89925547Y25133222D01*
X89890400Y25309918D01*
X89890400Y25490082D01*
X89925547Y25666778D01*
X89994491Y25833224D01*
X90094583Y25983022D01*
X90221978Y26110417D01*
X90371776Y26210509D01*
X90538222Y26279453D01*
X90714918Y26314600D01*
X90895082Y26314600D01*
X91071778Y26279453D01*
G37*
G36*
X80276778Y26279453D02*
G01*
X80443224Y26210509D01*
X80593022Y26110417D01*
X80720417Y25983022D01*
X80820509Y25833224D01*
X80889453Y25666778D01*
X80924600Y25490082D01*
X80924600Y25309918D01*
X80889453Y25133222D01*
X80820509Y24966776D01*
X80720417Y24816978D01*
X80593022Y24689583D01*
X80443224Y24589491D01*
X80276778Y24520547D01*
X80100082Y24485400D01*
X79919918Y24485400D01*
X79743222Y24520547D01*
X79576776Y24589491D01*
X79426978Y24689583D01*
X79299583Y24816978D01*
X79199491Y24966776D01*
X79130547Y25133222D01*
X79095400Y25309918D01*
X79095400Y25490082D01*
X79130547Y25666778D01*
X79199491Y25833224D01*
X79299583Y25983022D01*
X79426978Y26110417D01*
X79576776Y26210509D01*
X79743222Y26279453D01*
X79919918Y26314600D01*
X80100082Y26314600D01*
X80276778Y26279453D01*
G37*
G36*
X104406778Y26279453D02*
G01*
X104573224Y26210509D01*
X104723022Y26110417D01*
X104850417Y25983022D01*
X104950509Y25833224D01*
X105019453Y25666778D01*
X105054600Y25490082D01*
X105054600Y25309918D01*
X105019453Y25133222D01*
X104950509Y24966776D01*
X104850417Y24816978D01*
X104723022Y24689583D01*
X104573224Y24589491D01*
X104406778Y24520547D01*
X104230082Y24485400D01*
X104049918Y24485400D01*
X103873222Y24520547D01*
X103706776Y24589491D01*
X103556978Y24689583D01*
X103429583Y24816978D01*
X103329491Y24966776D01*
X103260547Y25133222D01*
X103225400Y25309918D01*
X103225400Y25490082D01*
X103260547Y25666778D01*
X103329491Y25833224D01*
X103429583Y25983022D01*
X103556978Y26110417D01*
X103706776Y26210509D01*
X103873222Y26279453D01*
X104049918Y26314600D01*
X104230082Y26314600D01*
X104406778Y26279453D01*
G37*
G36*
X101866778Y26279453D02*
G01*
X102033224Y26210509D01*
X102183022Y26110417D01*
X102310417Y25983022D01*
X102410509Y25833224D01*
X102479453Y25666778D01*
X102514600Y25490082D01*
X102514600Y25309918D01*
X102479453Y25133222D01*
X102410509Y24966776D01*
X102310417Y24816978D01*
X102183022Y24689583D01*
X102033224Y24589491D01*
X101866778Y24520547D01*
X101690082Y24485400D01*
X101509918Y24485400D01*
X101333222Y24520547D01*
X101166776Y24589491D01*
X101016978Y24689583D01*
X100889583Y24816978D01*
X100789491Y24966776D01*
X100720547Y25133222D01*
X100685400Y25309918D01*
X100685400Y25490082D01*
X100720547Y25666778D01*
X100789491Y25833224D01*
X100889583Y25983022D01*
X101016978Y26110417D01*
X101166776Y26210509D01*
X101333222Y26279453D01*
X101509918Y26314600D01*
X101690082Y26314600D01*
X101866778Y26279453D01*
G37*
G36*
X82816778Y26279453D02*
G01*
X82983224Y26210509D01*
X83133022Y26110417D01*
X83260417Y25983022D01*
X83360509Y25833224D01*
X83429453Y25666778D01*
X83464600Y25490082D01*
X83464600Y25309918D01*
X83429453Y25133222D01*
X83360509Y24966776D01*
X83260417Y24816978D01*
X83133022Y24689583D01*
X82983224Y24589491D01*
X82816778Y24520547D01*
X82640082Y24485400D01*
X82459918Y24485400D01*
X82283222Y24520547D01*
X82116776Y24589491D01*
X81966978Y24689583D01*
X81839583Y24816978D01*
X81739491Y24966776D01*
X81670547Y25133222D01*
X81635400Y25309918D01*
X81635400Y25490082D01*
X81670547Y25666778D01*
X81739491Y25833224D01*
X81839583Y25983022D01*
X81966978Y26110417D01*
X82116776Y26210509D01*
X82283222Y26279453D01*
X82459918Y26314600D01*
X82640082Y26314600D01*
X82816778Y26279453D01*
G37*
G36*
X93611778Y26279453D02*
G01*
X93778224Y26210509D01*
X93928022Y26110417D01*
X94055417Y25983022D01*
X94155509Y25833224D01*
X94224453Y25666778D01*
X94259600Y25490082D01*
X94259600Y25309918D01*
X94224453Y25133222D01*
X94155509Y24966776D01*
X94055417Y24816978D01*
X93928022Y24689583D01*
X93778224Y24589491D01*
X93611778Y24520547D01*
X93435082Y24485400D01*
X93254918Y24485400D01*
X93078222Y24520547D01*
X92911776Y24589491D01*
X92761978Y24689583D01*
X92634583Y24816978D01*
X92534491Y24966776D01*
X92465547Y25133222D01*
X92430400Y25309918D01*
X92430400Y25490082D01*
X92465547Y25666778D01*
X92534491Y25833224D01*
X92634583Y25983022D01*
X92761978Y26110417D01*
X92911776Y26210509D01*
X93078222Y26279453D01*
X93254918Y26314600D01*
X93435082Y26314600D01*
X93611778Y26279453D01*
G37*
G36*
X27746960Y29378872D02*
G01*
X27269662Y28901574D01*
X27181275Y28813186D01*
X26720241Y28352152D01*
X26631853Y28263765D01*
X26154555Y27786467D01*
X26066167Y27698080D01*
X26049904Y27681816D01*
X25023184Y26655096D01*
X24934796Y26566709D01*
X24918533Y26550445D01*
X24441235Y26073147D01*
X24352848Y25984759D01*
X23891814Y25523725D01*
X23803426Y25435338D01*
X23326128Y24958040D01*
X22122632Y26161536D01*
X22583666Y26622570D01*
X22583667Y26622569D01*
X22672044Y26710947D01*
X22672055Y26710956D01*
X22688319Y26727220D01*
X22688318Y26727221D01*
X23149352Y27188255D01*
X23149353Y27188254D01*
X23165617Y27204518D01*
X23165626Y27204529D01*
X23254004Y27292906D01*
X23254003Y27292907D01*
X23715037Y27753941D01*
X23715038Y27753940D01*
X23819689Y27858591D01*
X23819688Y27858592D01*
X24280722Y28319626D01*
X24280723Y28319625D01*
X24385375Y28424277D01*
X24385374Y28424278D01*
X24846408Y28885312D01*
X24846409Y28885311D01*
X24951060Y28989962D01*
X24951059Y28989963D01*
X25412093Y29450997D01*
X25412094Y29450996D01*
X25500471Y29539374D01*
X25500482Y29539383D01*
X25516746Y29555647D01*
X25516745Y29555648D01*
X25977779Y30016682D01*
X25977780Y30016681D01*
X25994044Y30032945D01*
X25994053Y30032956D01*
X26082431Y30121333D01*
X26082430Y30121334D01*
X26543464Y30582368D01*
X27746960Y29378872D01*
G37*
G36*
X29797570Y30121334D02*
G01*
X29797570Y30121333D01*
X29885952Y30032951D01*
X29885957Y30032945D01*
X29902221Y30016681D01*
X29902221Y30016682D01*
X30363255Y29555648D01*
X30363255Y29555647D01*
X30379519Y29539383D01*
X30379525Y29539378D01*
X30467907Y29450996D01*
X30467907Y29450997D01*
X30928941Y28989963D01*
X30928941Y28989962D01*
X31033592Y28885311D01*
X31033592Y28885312D01*
X31494626Y28424278D01*
X31494626Y28424277D01*
X31599278Y28319625D01*
X31599278Y28319626D01*
X32060312Y27858592D01*
X32060312Y27858591D01*
X32164963Y27753940D01*
X32164963Y27753941D01*
X32625997Y27292907D01*
X32625997Y27292906D01*
X32714379Y27204524D01*
X32714384Y27204518D01*
X32730648Y27188254D01*
X32730648Y27188255D01*
X33191682Y26727221D01*
X33191682Y26727220D01*
X33207946Y26710956D01*
X33207952Y26710951D01*
X33296334Y26622569D01*
X33296334Y26622570D01*
X33757368Y26161536D01*
X32553872Y24958040D01*
X32092838Y25419074D01*
X32092839Y25419074D01*
X32076575Y25435338D01*
X32076569Y25435343D01*
X31988187Y25523725D01*
X31988186Y25523725D01*
X31527152Y25984759D01*
X31527153Y25984759D01*
X31438771Y26073141D01*
X31438766Y26073147D01*
X31422502Y26089411D01*
X31422501Y26089411D01*
X30961467Y26550445D01*
X30961468Y26550445D01*
X30856817Y26655096D01*
X30856816Y26655096D01*
X30395782Y27116130D01*
X30395783Y27116130D01*
X30291131Y27220782D01*
X30291130Y27220782D01*
X29830096Y27681816D01*
X29830097Y27681816D01*
X29725446Y27786467D01*
X29725445Y27786467D01*
X29264411Y28247501D01*
X29264412Y28247501D01*
X29248148Y28263765D01*
X29248142Y28263770D01*
X29159760Y28352152D01*
X29159759Y28352152D01*
X28698725Y28813186D01*
X28698726Y28813186D01*
X28610344Y28901568D01*
X28610339Y28901574D01*
X28594075Y28917838D01*
X28594074Y28917838D01*
X28133040Y29378872D01*
X29336536Y30582368D01*
X29797570Y30121334D01*
G37*
G36*
X80276778Y28819453D02*
G01*
X80443224Y28750509D01*
X80593022Y28650417D01*
X80720417Y28523022D01*
X80820509Y28373224D01*
X80889453Y28206778D01*
X80924600Y28030082D01*
X80924600Y27849918D01*
X80889453Y27673222D01*
X80820509Y27506776D01*
X80720417Y27356978D01*
X80593022Y27229583D01*
X80443224Y27129491D01*
X80276778Y27060547D01*
X80100082Y27025400D01*
X79919918Y27025400D01*
X79743222Y27060547D01*
X79576776Y27129491D01*
X79426978Y27229583D01*
X79299583Y27356978D01*
X79199491Y27506776D01*
X79130547Y27673222D01*
X79095400Y27849918D01*
X79095400Y28030082D01*
X79130547Y28206778D01*
X79199491Y28373224D01*
X79299583Y28523022D01*
X79426978Y28650417D01*
X79576776Y28750509D01*
X79743222Y28819453D01*
X79919918Y28854600D01*
X80100082Y28854600D01*
X80276778Y28819453D01*
G37*
G36*
X82816778Y28819453D02*
G01*
X82983224Y28750509D01*
X83133022Y28650417D01*
X83260417Y28523022D01*
X83360509Y28373224D01*
X83429453Y28206778D01*
X83464600Y28030082D01*
X83464600Y27849918D01*
X83429453Y27673222D01*
X83360509Y27506776D01*
X83260417Y27356978D01*
X83133022Y27229583D01*
X82983224Y27129491D01*
X82816778Y27060547D01*
X82640082Y27025400D01*
X82459918Y27025400D01*
X82283222Y27060547D01*
X82116776Y27129491D01*
X81966978Y27229583D01*
X81839583Y27356978D01*
X81739491Y27506776D01*
X81670547Y27673222D01*
X81635400Y27849918D01*
X81635400Y28030082D01*
X81670547Y28206778D01*
X81739491Y28373224D01*
X81839583Y28523022D01*
X81966978Y28650417D01*
X82116776Y28750509D01*
X82283222Y28819453D01*
X82459918Y28854600D01*
X82640082Y28854600D01*
X82816778Y28819453D01*
G37*
G36*
X93611778Y28819453D02*
G01*
X93778224Y28750509D01*
X93928022Y28650417D01*
X94055417Y28523022D01*
X94155509Y28373224D01*
X94224453Y28206778D01*
X94259600Y28030082D01*
X94259600Y27849918D01*
X94224453Y27673222D01*
X94155509Y27506776D01*
X94055417Y27356978D01*
X93928022Y27229583D01*
X93778224Y27129491D01*
X93611778Y27060547D01*
X93435082Y27025400D01*
X93254918Y27025400D01*
X93078222Y27060547D01*
X92911776Y27129491D01*
X92761978Y27229583D01*
X92634583Y27356978D01*
X92534491Y27506776D01*
X92465547Y27673222D01*
X92430400Y27849918D01*
X92430400Y28030082D01*
X92465547Y28206778D01*
X92534491Y28373224D01*
X92634583Y28523022D01*
X92761978Y28650417D01*
X92911776Y28750509D01*
X93078222Y28819453D01*
X93254918Y28854600D01*
X93435082Y28854600D01*
X93611778Y28819453D01*
G37*
G36*
X104406778Y28819453D02*
G01*
X104573224Y28750509D01*
X104723022Y28650417D01*
X104850417Y28523022D01*
X104950509Y28373224D01*
X105019453Y28206778D01*
X105054600Y28030082D01*
X105054600Y27849918D01*
X105019453Y27673222D01*
X104950509Y27506776D01*
X104850417Y27356978D01*
X104723022Y27229583D01*
X104573224Y27129491D01*
X104406778Y27060547D01*
X104230082Y27025400D01*
X104049918Y27025400D01*
X103873222Y27060547D01*
X103706776Y27129491D01*
X103556978Y27229583D01*
X103429583Y27356978D01*
X103329491Y27506776D01*
X103260547Y27673222D01*
X103225400Y27849918D01*
X103225400Y28030082D01*
X103260547Y28206778D01*
X103329491Y28373224D01*
X103429583Y28523022D01*
X103556978Y28650417D01*
X103706776Y28750509D01*
X103873222Y28819453D01*
X104049918Y28854600D01*
X104230082Y28854600D01*
X104406778Y28819453D01*
G37*
G36*
X101866778Y28819453D02*
G01*
X102033224Y28750509D01*
X102183022Y28650417D01*
X102310417Y28523022D01*
X102410509Y28373224D01*
X102479453Y28206778D01*
X102514600Y28030082D01*
X102514600Y27849918D01*
X102479453Y27673222D01*
X102410509Y27506776D01*
X102310417Y27356978D01*
X102183022Y27229583D01*
X102033224Y27129491D01*
X101866778Y27060547D01*
X101690082Y27025400D01*
X101509918Y27025400D01*
X101333222Y27060547D01*
X101166776Y27129491D01*
X101016978Y27229583D01*
X100889583Y27356978D01*
X100789491Y27506776D01*
X100720547Y27673222D01*
X100685400Y27849918D01*
X100685400Y28030082D01*
X100720547Y28206778D01*
X100789491Y28373224D01*
X100889583Y28523022D01*
X101016978Y28650417D01*
X101166776Y28750509D01*
X101333222Y28819453D01*
X101509918Y28854600D01*
X101690082Y28854600D01*
X101866778Y28819453D01*
G37*
G36*
X91071778Y28819453D02*
G01*
X91238224Y28750509D01*
X91388022Y28650417D01*
X91515417Y28523022D01*
X91615509Y28373224D01*
X91684453Y28206778D01*
X91719600Y28030082D01*
X91719600Y27849918D01*
X91684453Y27673222D01*
X91615509Y27506776D01*
X91515417Y27356978D01*
X91388022Y27229583D01*
X91238224Y27129491D01*
X91071778Y27060547D01*
X90895082Y27025400D01*
X90714918Y27025400D01*
X90538222Y27060547D01*
X90371776Y27129491D01*
X90221978Y27229583D01*
X90094583Y27356978D01*
X89994491Y27506776D01*
X89925547Y27673222D01*
X89890400Y27849918D01*
X89890400Y28030082D01*
X89925547Y28206778D01*
X89994491Y28373224D01*
X90094583Y28523022D01*
X90221978Y28650417D01*
X90371776Y28750509D01*
X90538222Y28819453D01*
X90714918Y28854600D01*
X90895082Y28854600D01*
X91071778Y28819453D01*
G37*
G36*
X6273786Y30992254D02*
G01*
X6304461Y30982949D01*
X6332729Y30967839D01*
X6357506Y30947506D01*
X6377839Y30922729D01*
X6392949Y30894461D01*
X6402254Y30863786D01*
X6406000Y30825749D01*
X6406000Y28814251D01*
X6402254Y28776214D01*
X6392949Y28745539D01*
X6377839Y28717271D01*
X6357506Y28692494D01*
X6332729Y28672161D01*
X6304461Y28657051D01*
X6273786Y28647746D01*
X6235749Y28644000D01*
X3924251Y28644000D01*
X3886214Y28647746D01*
X3855539Y28657051D01*
X3827271Y28672161D01*
X3802494Y28692494D01*
X3782161Y28717271D01*
X3767051Y28745539D01*
X3757746Y28776214D01*
X3754000Y28814251D01*
X3754000Y30825749D01*
X3757746Y30863786D01*
X3767051Y30894461D01*
X3782161Y30922729D01*
X3802494Y30947506D01*
X3827271Y30967839D01*
X3855539Y30982949D01*
X3886214Y30992254D01*
X3924251Y30996000D01*
X6235749Y30996000D01*
X6273786Y30992254D01*
G37*
G36*
X91719600Y29565400D02*
G01*
X89890400Y29565400D01*
X89890400Y31394600D01*
X91719600Y31394600D01*
X91719600Y29565400D01*
G37*
G36*
X104406778Y31359453D02*
G01*
X104573224Y31290509D01*
X104723022Y31190417D01*
X104850417Y31063022D01*
X104950509Y30913224D01*
X105019453Y30746778D01*
X105054600Y30570082D01*
X105054600Y30389918D01*
X105019453Y30213222D01*
X104950509Y30046776D01*
X104850417Y29896978D01*
X104723022Y29769583D01*
X104573224Y29669491D01*
X104406778Y29600547D01*
X104230082Y29565400D01*
X104049918Y29565400D01*
X103873222Y29600547D01*
X103706776Y29669491D01*
X103556978Y29769583D01*
X103429583Y29896978D01*
X103329491Y30046776D01*
X103260547Y30213222D01*
X103225400Y30389918D01*
X103225400Y30570082D01*
X103260547Y30746778D01*
X103329491Y30913224D01*
X103429583Y31063022D01*
X103556978Y31190417D01*
X103706776Y31290509D01*
X103873222Y31359453D01*
X104049918Y31394600D01*
X104230082Y31394600D01*
X104406778Y31359453D01*
G37*
G36*
X102514600Y29565400D02*
G01*
X100685400Y29565400D01*
X100685400Y31394600D01*
X102514600Y31394600D01*
X102514600Y29565400D01*
G37*
G36*
X93611778Y31359453D02*
G01*
X93778224Y31290509D01*
X93928022Y31190417D01*
X94055417Y31063022D01*
X94155509Y30913224D01*
X94224453Y30746778D01*
X94259600Y30570082D01*
X94259600Y30389918D01*
X94224453Y30213222D01*
X94155509Y30046776D01*
X94055417Y29896978D01*
X93928022Y29769583D01*
X93778224Y29669491D01*
X93611778Y29600547D01*
X93435082Y29565400D01*
X93254918Y29565400D01*
X93078222Y29600547D01*
X92911776Y29669491D01*
X92761978Y29769583D01*
X92634583Y29896978D01*
X92534491Y30046776D01*
X92465547Y30213222D01*
X92430400Y30389918D01*
X92430400Y30570082D01*
X92465547Y30746778D01*
X92534491Y30913224D01*
X92634583Y31063022D01*
X92761978Y31190417D01*
X92911776Y31290509D01*
X93078222Y31359453D01*
X93254918Y31394600D01*
X93435082Y31394600D01*
X93611778Y31359453D01*
G37*
G36*
X82816778Y31359453D02*
G01*
X82983224Y31290509D01*
X83133022Y31190417D01*
X83260417Y31063022D01*
X83360509Y30913224D01*
X83429453Y30746778D01*
X83464600Y30570082D01*
X83464600Y30389918D01*
X83429453Y30213222D01*
X83360509Y30046776D01*
X83260417Y29896978D01*
X83133022Y29769583D01*
X82983224Y29669491D01*
X82816778Y29600547D01*
X82640082Y29565400D01*
X82459918Y29565400D01*
X82283222Y29600547D01*
X82116776Y29669491D01*
X81966978Y29769583D01*
X81839583Y29896978D01*
X81739491Y30046776D01*
X81670547Y30213222D01*
X81635400Y30389918D01*
X81635400Y30570082D01*
X81670547Y30746778D01*
X81739491Y30913224D01*
X81839583Y31063022D01*
X81966978Y31190417D01*
X82116776Y31290509D01*
X82283222Y31359453D01*
X82459918Y31394600D01*
X82640082Y31394600D01*
X82816778Y31359453D01*
G37*
G36*
X80924600Y29565400D02*
G01*
X79095400Y29565400D01*
X79095400Y31394600D01*
X80924600Y31394600D01*
X80924600Y29565400D01*
G37*
G36*
X60008674Y33131535D02*
G01*
X60046367Y33120101D01*
X60081103Y33101534D01*
X60111548Y33076548D01*
X60136534Y33046103D01*
X60155101Y33011367D01*
X60166535Y32973674D01*
X60171000Y32928339D01*
X60171000Y31841661D01*
X60166535Y31796326D01*
X60155101Y31758633D01*
X60136534Y31723897D01*
X60111548Y31693452D01*
X60081103Y31668466D01*
X60046367Y31649899D01*
X60008674Y31638465D01*
X59963339Y31634000D01*
X59126661Y31634000D01*
X59081326Y31638465D01*
X59043633Y31649899D01*
X59008897Y31668466D01*
X58978452Y31693452D01*
X58953466Y31723897D01*
X58934899Y31758633D01*
X58923465Y31796326D01*
X58919000Y31841661D01*
X58919000Y32928339D01*
X58923465Y32973674D01*
X58934899Y33011367D01*
X58953466Y33046103D01*
X58978452Y33076548D01*
X59008897Y33101534D01*
X59043633Y33120101D01*
X59081326Y33131535D01*
X59126661Y33136000D01*
X59963339Y33136000D01*
X60008674Y33131535D01*
G37*
G36*
X62058674Y33131535D02*
G01*
X62096367Y33120101D01*
X62131103Y33101534D01*
X62161548Y33076548D01*
X62186534Y33046103D01*
X62205101Y33011367D01*
X62216535Y32973674D01*
X62221000Y32928339D01*
X62221000Y31841661D01*
X62216535Y31796326D01*
X62205101Y31758633D01*
X62186534Y31723897D01*
X62161548Y31693452D01*
X62131103Y31668466D01*
X62096367Y31649899D01*
X62058674Y31638465D01*
X62013339Y31634000D01*
X61176661Y31634000D01*
X61131326Y31638465D01*
X61093633Y31649899D01*
X61058897Y31668466D01*
X61028452Y31693452D01*
X61003466Y31723897D01*
X60984899Y31758633D01*
X60973465Y31796326D01*
X60969000Y31841661D01*
X60969000Y32928339D01*
X60973465Y32973674D01*
X60984899Y33011367D01*
X61003466Y33046103D01*
X61028452Y33076548D01*
X61058897Y33101534D01*
X61093633Y33120101D01*
X61131326Y33131535D01*
X61176661Y33136000D01*
X62013339Y33136000D01*
X62058674Y33131535D01*
G37*
G36*
X49748674Y35036535D02*
G01*
X49786367Y35025101D01*
X49821103Y35006534D01*
X49851548Y34981548D01*
X49876534Y34951103D01*
X49895101Y34916367D01*
X49906535Y34878674D01*
X49911000Y34833339D01*
X49911000Y33746661D01*
X49906535Y33701326D01*
X49895101Y33663633D01*
X49876534Y33628897D01*
X49851548Y33598452D01*
X49821103Y33573466D01*
X49786367Y33554899D01*
X49748674Y33543465D01*
X49703339Y33539000D01*
X48866661Y33539000D01*
X48821326Y33543465D01*
X48783633Y33554899D01*
X48748897Y33573466D01*
X48718452Y33598452D01*
X48693466Y33628897D01*
X48674899Y33663633D01*
X48663465Y33701326D01*
X48659000Y33746661D01*
X48659000Y34833339D01*
X48663465Y34878674D01*
X48674899Y34916367D01*
X48693466Y34951103D01*
X48718452Y34981548D01*
X48748897Y35006534D01*
X48783633Y35025101D01*
X48821326Y35036535D01*
X48866661Y35041000D01*
X49703339Y35041000D01*
X49748674Y35036535D01*
G37*
G36*
X47698674Y35036535D02*
G01*
X47736367Y35025101D01*
X47771103Y35006534D01*
X47801548Y34981548D01*
X47826534Y34951103D01*
X47845101Y34916367D01*
X47856535Y34878674D01*
X47861000Y34833339D01*
X47861000Y33746661D01*
X47856535Y33701326D01*
X47845101Y33663633D01*
X47826534Y33628897D01*
X47801548Y33598452D01*
X47771103Y33573466D01*
X47736367Y33554899D01*
X47698674Y33543465D01*
X47653339Y33539000D01*
X46816661Y33539000D01*
X46771326Y33543465D01*
X46733633Y33554899D01*
X46698897Y33573466D01*
X46668452Y33598452D01*
X46643466Y33628897D01*
X46624899Y33663633D01*
X46613465Y33701326D01*
X46609000Y33746661D01*
X46609000Y34833339D01*
X46613465Y34878674D01*
X46624899Y34916367D01*
X46643466Y34951103D01*
X46668452Y34981548D01*
X46698897Y35006534D01*
X46733633Y35025101D01*
X46771326Y35036535D01*
X46816661Y35041000D01*
X47653339Y35041000D01*
X47698674Y35036535D01*
G37*
G36*
X16526000Y34679000D02*
G01*
X15224000Y34679000D01*
X15224000Y35681000D01*
X16526000Y35681000D01*
X16526000Y34679000D01*
G37*
G36*
X28548674Y36306535D02*
G01*
X28586367Y36295101D01*
X28621103Y36276534D01*
X28651548Y36251548D01*
X28676534Y36221103D01*
X28695101Y36186367D01*
X28706535Y36148674D01*
X28711000Y36103339D01*
X28711000Y35016661D01*
X28706535Y34971326D01*
X28695101Y34933633D01*
X28676534Y34898897D01*
X28651548Y34868452D01*
X28621103Y34843466D01*
X28586367Y34824899D01*
X28548674Y34813465D01*
X28503339Y34809000D01*
X27666661Y34809000D01*
X27621326Y34813465D01*
X27583633Y34824899D01*
X27548897Y34843466D01*
X27518452Y34868452D01*
X27493466Y34898897D01*
X27474899Y34933633D01*
X27463465Y34971326D01*
X27459000Y35016661D01*
X27459000Y36103339D01*
X27463465Y36148674D01*
X27474899Y36186367D01*
X27493466Y36221103D01*
X27518452Y36251548D01*
X27548897Y36276534D01*
X27583633Y36295101D01*
X27621326Y36306535D01*
X27666661Y36311000D01*
X28503339Y36311000D01*
X28548674Y36306535D01*
G37*
G36*
X26498674Y36306535D02*
G01*
X26536367Y36295101D01*
X26571103Y36276534D01*
X26601548Y36251548D01*
X26626534Y36221103D01*
X26645101Y36186367D01*
X26656535Y36148674D01*
X26661000Y36103339D01*
X26661000Y35016661D01*
X26656535Y34971326D01*
X26645101Y34933633D01*
X26626534Y34898897D01*
X26601548Y34868452D01*
X26571103Y34843466D01*
X26536367Y34824899D01*
X26498674Y34813465D01*
X26453339Y34809000D01*
X25616661Y34809000D01*
X25571326Y34813465D01*
X25533633Y34824899D01*
X25498897Y34843466D01*
X25468452Y34868452D01*
X25443466Y34898897D01*
X25424899Y34933633D01*
X25413465Y34971326D01*
X25409000Y35016661D01*
X25409000Y36103339D01*
X25413465Y36148674D01*
X25424899Y36186367D01*
X25443466Y36221103D01*
X25468452Y36251548D01*
X25498897Y36276534D01*
X25533633Y36295101D01*
X25571326Y36306535D01*
X25616661Y36311000D01*
X26453339Y36311000D01*
X26498674Y36306535D01*
G37*
G36*
X20393674Y36306535D02*
G01*
X20431367Y36295101D01*
X20466103Y36276534D01*
X20496548Y36251548D01*
X20521534Y36221103D01*
X20540101Y36186367D01*
X20551535Y36148674D01*
X20556000Y36103339D01*
X20556000Y35016661D01*
X20551535Y34971326D01*
X20540101Y34933633D01*
X20521534Y34898897D01*
X20496548Y34868452D01*
X20466103Y34843466D01*
X20431367Y34824899D01*
X20393674Y34813465D01*
X20348339Y34809000D01*
X19511661Y34809000D01*
X19466326Y34813465D01*
X19428633Y34824899D01*
X19393897Y34843466D01*
X19363452Y34868452D01*
X19338466Y34898897D01*
X19319899Y34933633D01*
X19308465Y34971326D01*
X19304000Y35016661D01*
X19304000Y36103339D01*
X19308465Y36148674D01*
X19319899Y36186367D01*
X19338466Y36221103D01*
X19363452Y36251548D01*
X19393897Y36276534D01*
X19428633Y36295101D01*
X19466326Y36306535D01*
X19511661Y36311000D01*
X20348339Y36311000D01*
X20393674Y36306535D01*
G37*
G36*
X22443674Y36306535D02*
G01*
X22481367Y36295101D01*
X22516103Y36276534D01*
X22546548Y36251548D01*
X22571534Y36221103D01*
X22590101Y36186367D01*
X22601535Y36148674D01*
X22606000Y36103339D01*
X22606000Y35016661D01*
X22601535Y34971326D01*
X22590101Y34933633D01*
X22571534Y34898897D01*
X22546548Y34868452D01*
X22516103Y34843466D01*
X22481367Y34824899D01*
X22443674Y34813465D01*
X22398339Y34809000D01*
X21561661Y34809000D01*
X21516326Y34813465D01*
X21478633Y34824899D01*
X21443897Y34843466D01*
X21413452Y34868452D01*
X21388466Y34898897D01*
X21369899Y34933633D01*
X21358465Y34971326D01*
X21354000Y35016661D01*
X21354000Y36103339D01*
X21358465Y36148674D01*
X21369899Y36186367D01*
X21388466Y36221103D01*
X21413452Y36251548D01*
X21443897Y36276534D01*
X21478633Y36295101D01*
X21516326Y36306535D01*
X21561661Y36311000D01*
X22398339Y36311000D01*
X22443674Y36306535D01*
G37*
G36*
X6273786Y37392254D02*
G01*
X6304461Y37382949D01*
X6332729Y37367839D01*
X6357506Y37347506D01*
X6377839Y37322729D01*
X6392949Y37294461D01*
X6402254Y37263786D01*
X6406000Y37225749D01*
X6406000Y35214251D01*
X6402254Y35176214D01*
X6392949Y35145539D01*
X6377839Y35117271D01*
X6357506Y35092494D01*
X6332729Y35072161D01*
X6304461Y35057051D01*
X6273786Y35047746D01*
X6235749Y35044000D01*
X3924251Y35044000D01*
X3886214Y35047746D01*
X3855539Y35057051D01*
X3827271Y35072161D01*
X3802494Y35092494D01*
X3782161Y35117271D01*
X3767051Y35145539D01*
X3757746Y35176214D01*
X3754000Y35214251D01*
X3754000Y37225749D01*
X3757746Y37263786D01*
X3767051Y37294461D01*
X3782161Y37322729D01*
X3802494Y37347506D01*
X3827271Y37367839D01*
X3855539Y37382949D01*
X3886214Y37392254D01*
X3924251Y37396000D01*
X6235749Y37396000D01*
X6273786Y37392254D01*
G37*
G36*
X16526000Y37979000D02*
G01*
X15224000Y37979000D01*
X15224000Y38981000D01*
X16526000Y38981000D01*
X16526000Y37979000D01*
G37*
G36*
X73291000Y39104000D02*
G01*
X71489000Y39104000D01*
X71489000Y40906000D01*
X73291000Y40906000D01*
X73291000Y39104000D01*
G37*
G36*
X47939000Y39317000D02*
G01*
X45837000Y39317000D01*
X45837000Y40919000D01*
X47939000Y40919000D01*
X47939000Y39317000D01*
G37*
G36*
X54239000Y40467000D02*
G01*
X52137000Y40467000D01*
X52137000Y44369000D01*
X54239000Y44369000D01*
X54239000Y40467000D01*
G37*
G36*
X41198786Y43692254D02*
G01*
X41229461Y43682949D01*
X41257729Y43667839D01*
X41282506Y43647506D01*
X41302839Y43622729D01*
X41317949Y43594461D01*
X41327254Y43563786D01*
X41331000Y43525749D01*
X41331000Y41514251D01*
X41327254Y41476214D01*
X41317949Y41445539D01*
X41302839Y41417271D01*
X41282506Y41392494D01*
X41257729Y41372161D01*
X41229461Y41357051D01*
X41198786Y41347746D01*
X41160749Y41344000D01*
X38849251Y41344000D01*
X38811214Y41347746D01*
X38780539Y41357051D01*
X38752271Y41372161D01*
X38727494Y41392494D01*
X38707161Y41417271D01*
X38692051Y41445539D01*
X38682746Y41476214D01*
X38679000Y41514251D01*
X38679000Y43525749D01*
X38682746Y43563786D01*
X38692051Y43594461D01*
X38707161Y43622729D01*
X38727494Y43647506D01*
X38752271Y43667839D01*
X38780539Y43682949D01*
X38811214Y43692254D01*
X38849251Y43696000D01*
X41160749Y43696000D01*
X41198786Y43692254D01*
G37*
G36*
X60883786Y43692254D02*
G01*
X60914461Y43682949D01*
X60942729Y43667839D01*
X60967506Y43647506D01*
X60987839Y43622729D01*
X61002949Y43594461D01*
X61012254Y43563786D01*
X61016000Y43525749D01*
X61016000Y41514251D01*
X61012254Y41476214D01*
X61002949Y41445539D01*
X60987839Y41417271D01*
X60967506Y41392494D01*
X60942729Y41372161D01*
X60914461Y41357051D01*
X60883786Y41347746D01*
X60845749Y41344000D01*
X58534251Y41344000D01*
X58496214Y41347746D01*
X58465539Y41357051D01*
X58437271Y41372161D01*
X58412494Y41392494D01*
X58392161Y41417271D01*
X58377051Y41445539D01*
X58367746Y41476214D01*
X58364000Y41514251D01*
X58364000Y43525749D01*
X58367746Y43563786D01*
X58377051Y43594461D01*
X58392161Y43622729D01*
X58412494Y43647506D01*
X58437271Y43667839D01*
X58465539Y43682949D01*
X58496214Y43692254D01*
X58534251Y43696000D01*
X60845749Y43696000D01*
X60883786Y43692254D01*
G37*
G36*
X47939000Y41617000D02*
G01*
X45837000Y41617000D01*
X45837000Y43219000D01*
X47939000Y43219000D01*
X47939000Y41617000D01*
G37*
G36*
X29605562Y43466819D02*
G01*
X29640481Y43456226D01*
X29672663Y43439024D01*
X29700873Y43415873D01*
X29724024Y43387663D01*
X29741226Y43355481D01*
X29751819Y43320562D01*
X29756000Y43278105D01*
X29756000Y41811895D01*
X29751819Y41769438D01*
X29741226Y41734519D01*
X29724024Y41702337D01*
X29700873Y41674127D01*
X29672663Y41650976D01*
X29640481Y41633774D01*
X29605562Y41623181D01*
X29563105Y41619000D01*
X28421895Y41619000D01*
X28379438Y41623181D01*
X28344519Y41633774D01*
X28312337Y41650976D01*
X28284127Y41674127D01*
X28260976Y41702337D01*
X28243774Y41734519D01*
X28233181Y41769438D01*
X28229000Y41811895D01*
X28229000Y43278105D01*
X28233181Y43320562D01*
X28243774Y43355481D01*
X28260976Y43387663D01*
X28284127Y43415873D01*
X28312337Y43439024D01*
X28344519Y43456226D01*
X28379438Y43466819D01*
X28421895Y43471000D01*
X29563105Y43471000D01*
X29605562Y43466819D01*
G37*
G36*
X32580562Y43466819D02*
G01*
X32615481Y43456226D01*
X32647663Y43439024D01*
X32675873Y43415873D01*
X32699024Y43387663D01*
X32716226Y43355481D01*
X32726819Y43320562D01*
X32731000Y43278105D01*
X32731000Y41811895D01*
X32726819Y41769438D01*
X32716226Y41734519D01*
X32699024Y41702337D01*
X32675873Y41674127D01*
X32647663Y41650976D01*
X32615481Y41633774D01*
X32580562Y41623181D01*
X32538105Y41619000D01*
X31396895Y41619000D01*
X31354438Y41623181D01*
X31319519Y41633774D01*
X31287337Y41650976D01*
X31259127Y41674127D01*
X31235976Y41702337D01*
X31218774Y41734519D01*
X31208181Y41769438D01*
X31204000Y41811895D01*
X31204000Y43278105D01*
X31208181Y43320562D01*
X31218774Y43355481D01*
X31235976Y43387663D01*
X31259127Y43415873D01*
X31287337Y43439024D01*
X31319519Y43456226D01*
X31354438Y43466819D01*
X31396895Y43471000D01*
X32538105Y43471000D01*
X32580562Y43466819D01*
G37*
G36*
X91071000Y41644000D02*
G01*
X89269000Y41644000D01*
X89269000Y43446000D01*
X91071000Y43446000D01*
X91071000Y41644000D01*
G37*
G36*
X95363512Y43441073D02*
G01*
X95512812Y43411376D01*
X95676784Y43343456D01*
X95824354Y43244853D01*
X95949853Y43119354D01*
X96048456Y42971784D01*
X96116376Y42807812D01*
X96151000Y42633741D01*
X96151000Y42456259D01*
X96116376Y42282188D01*
X96048456Y42118216D01*
X95949853Y41970646D01*
X95824354Y41845147D01*
X95676784Y41746544D01*
X95512812Y41678624D01*
X95363512Y41648927D01*
X95338742Y41644000D01*
X95161258Y41644000D01*
X95136488Y41648927D01*
X94987188Y41678624D01*
X94823216Y41746544D01*
X94675646Y41845147D01*
X94550147Y41970646D01*
X94451544Y42118216D01*
X94383624Y42282188D01*
X94349000Y42456259D01*
X94349000Y42633741D01*
X94383624Y42807812D01*
X94451544Y42971784D01*
X94550147Y43119354D01*
X94675646Y43244853D01*
X94823216Y43343456D01*
X94987188Y43411376D01*
X95136488Y43441073D01*
X95161258Y43446000D01*
X95338742Y43446000D01*
X95363512Y43441073D01*
G37*
G36*
X92823512Y43441073D02*
G01*
X92972812Y43411376D01*
X93136784Y43343456D01*
X93284354Y43244853D01*
X93409853Y43119354D01*
X93508456Y42971784D01*
X93576376Y42807812D01*
X93611000Y42633741D01*
X93611000Y42456259D01*
X93576376Y42282188D01*
X93508456Y42118216D01*
X93409853Y41970646D01*
X93284354Y41845147D01*
X93136784Y41746544D01*
X92972812Y41678624D01*
X92823512Y41648927D01*
X92798742Y41644000D01*
X92621258Y41644000D01*
X92596488Y41648927D01*
X92447188Y41678624D01*
X92283216Y41746544D01*
X92135646Y41845147D01*
X92010147Y41970646D01*
X91911544Y42118216D01*
X91843624Y42282188D01*
X91809000Y42456259D01*
X91809000Y42633741D01*
X91843624Y42807812D01*
X91911544Y42971784D01*
X92010147Y43119354D01*
X92135646Y43244853D01*
X92283216Y43343456D01*
X92447188Y43411376D01*
X92596488Y43441073D01*
X92621258Y43446000D01*
X92798742Y43446000D01*
X92823512Y43441073D01*
G37*
G36*
X72503512Y43441073D02*
G01*
X72652812Y43411376D01*
X72816784Y43343456D01*
X72964354Y43244853D01*
X73089853Y43119354D01*
X73188456Y42971784D01*
X73256376Y42807812D01*
X73291000Y42633741D01*
X73291000Y42456259D01*
X73256376Y42282188D01*
X73188456Y42118216D01*
X73089853Y41970646D01*
X72964354Y41845147D01*
X72816784Y41746544D01*
X72652812Y41678624D01*
X72503512Y41648927D01*
X72478742Y41644000D01*
X72301258Y41644000D01*
X72276488Y41648927D01*
X72127188Y41678624D01*
X71963216Y41746544D01*
X71815646Y41845147D01*
X71690147Y41970646D01*
X71591544Y42118216D01*
X71523624Y42282188D01*
X71489000Y42456259D01*
X71489000Y42633741D01*
X71523624Y42807812D01*
X71591544Y42971784D01*
X71690147Y43119354D01*
X71815646Y43244853D01*
X71963216Y43343456D01*
X72127188Y43411376D01*
X72276488Y43441073D01*
X72301258Y43446000D01*
X72478742Y43446000D01*
X72503512Y43441073D01*
G37*
G36*
X9196564Y44770611D02*
G01*
X9387833Y44691385D01*
X9387835Y44691384D01*
X9437471Y44658218D01*
X9559973Y44576365D01*
X9706365Y44429973D01*
X9821385Y44257833D01*
X9900611Y44066564D01*
X9941000Y43863516D01*
X9941000Y43656484D01*
X9900611Y43453436D01*
X9855056Y43343456D01*
X9821384Y43262165D01*
X9706365Y43090027D01*
X9559973Y42943635D01*
X9387835Y42828616D01*
X9387834Y42828615D01*
X9387833Y42828615D01*
X9196564Y42749389D01*
X8993516Y42709000D01*
X8786484Y42709000D01*
X8583436Y42749389D01*
X8392167Y42828615D01*
X8392166Y42828615D01*
X8392165Y42828616D01*
X8220027Y42943635D01*
X8073635Y43090027D01*
X7958616Y43262165D01*
X7924944Y43343456D01*
X7879389Y43453436D01*
X7839000Y43656484D01*
X7839000Y43863516D01*
X7879389Y44066564D01*
X7958615Y44257833D01*
X8073635Y44429973D01*
X8220027Y44576365D01*
X8342529Y44658218D01*
X8392165Y44691384D01*
X8392167Y44691385D01*
X8583436Y44770611D01*
X8786484Y44811000D01*
X8993516Y44811000D01*
X9196564Y44770611D01*
G37*
G36*
X15696564Y44770611D02*
G01*
X15887833Y44691385D01*
X15887835Y44691384D01*
X15937471Y44658218D01*
X16059973Y44576365D01*
X16206365Y44429973D01*
X16321385Y44257833D01*
X16400611Y44066564D01*
X16441000Y43863516D01*
X16441000Y43656484D01*
X16400611Y43453436D01*
X16355056Y43343456D01*
X16321384Y43262165D01*
X16206365Y43090027D01*
X16059973Y42943635D01*
X15887835Y42828616D01*
X15887834Y42828615D01*
X15887833Y42828615D01*
X15696564Y42749389D01*
X15493516Y42709000D01*
X15286484Y42709000D01*
X15083436Y42749389D01*
X14892167Y42828615D01*
X14892166Y42828615D01*
X14892165Y42828616D01*
X14720027Y42943635D01*
X14573635Y43090027D01*
X14458616Y43262165D01*
X14424944Y43343456D01*
X14379389Y43453436D01*
X14339000Y43656484D01*
X14339000Y43863516D01*
X14379389Y44066564D01*
X14458615Y44257833D01*
X14573635Y44429973D01*
X14720027Y44576365D01*
X14842529Y44658218D01*
X14892165Y44691384D01*
X14892167Y44691385D01*
X15083436Y44770611D01*
X15286484Y44811000D01*
X15493516Y44811000D01*
X15696564Y44770611D01*
G37*
G36*
X47939000Y43917000D02*
G01*
X45837000Y43917000D01*
X45837000Y45519000D01*
X47939000Y45519000D01*
X47939000Y43917000D01*
G37*
G36*
X72503512Y45981073D02*
G01*
X72652812Y45951376D01*
X72816784Y45883456D01*
X72964354Y45784853D01*
X73089853Y45659354D01*
X73188456Y45511784D01*
X73256376Y45347812D01*
X73291000Y45173741D01*
X73291000Y44996259D01*
X73256376Y44822188D01*
X73188456Y44658216D01*
X73089853Y44510646D01*
X72964354Y44385147D01*
X72816784Y44286544D01*
X72652812Y44218624D01*
X72503512Y44188927D01*
X72478742Y44184000D01*
X72301258Y44184000D01*
X72276488Y44188927D01*
X72127188Y44218624D01*
X71963216Y44286544D01*
X71815646Y44385147D01*
X71690147Y44510646D01*
X71591544Y44658216D01*
X71523624Y44822188D01*
X71489000Y44996259D01*
X71489000Y45173741D01*
X71523624Y45347812D01*
X71591544Y45511784D01*
X71690147Y45659354D01*
X71815646Y45784853D01*
X71963216Y45883456D01*
X72127188Y45951376D01*
X72276488Y45981073D01*
X72301258Y45986000D01*
X72478742Y45986000D01*
X72503512Y45981073D01*
G37*
G36*
X9196564Y49270611D02*
G01*
X9387833Y49191385D01*
X9387835Y49191384D01*
X9559973Y49076365D01*
X9706365Y48929973D01*
X9821385Y48757833D01*
X9900611Y48566564D01*
X9941000Y48363516D01*
X9941000Y48156484D01*
X9900611Y47953436D01*
X9822100Y47763893D01*
X9821384Y47762165D01*
X9706365Y47590027D01*
X9559973Y47443635D01*
X9387835Y47328616D01*
X9387834Y47328615D01*
X9387833Y47328615D01*
X9196564Y47249389D01*
X8993516Y47209000D01*
X8786484Y47209000D01*
X8583436Y47249389D01*
X8392167Y47328615D01*
X8392166Y47328615D01*
X8392165Y47328616D01*
X8220027Y47443635D01*
X8073635Y47590027D01*
X7958616Y47762165D01*
X7957900Y47763893D01*
X7879389Y47953436D01*
X7839000Y48156484D01*
X7839000Y48363516D01*
X7879389Y48566564D01*
X7958615Y48757833D01*
X8073635Y48929973D01*
X8220027Y49076365D01*
X8392165Y49191384D01*
X8392167Y49191385D01*
X8583436Y49270611D01*
X8786484Y49311000D01*
X8993516Y49311000D01*
X9196564Y49270611D01*
G37*
G36*
X15696564Y49270611D02*
G01*
X15887833Y49191385D01*
X15887835Y49191384D01*
X16059973Y49076365D01*
X16206365Y48929973D01*
X16321385Y48757833D01*
X16400611Y48566564D01*
X16441000Y48363516D01*
X16441000Y48156484D01*
X16400611Y47953436D01*
X16322100Y47763893D01*
X16321384Y47762165D01*
X16206365Y47590027D01*
X16059973Y47443635D01*
X15887835Y47328616D01*
X15887834Y47328615D01*
X15887833Y47328615D01*
X15696564Y47249389D01*
X15493516Y47209000D01*
X15286484Y47209000D01*
X15083436Y47249389D01*
X14892167Y47328615D01*
X14892166Y47328615D01*
X14892165Y47328616D01*
X14720027Y47443635D01*
X14573635Y47590027D01*
X14458616Y47762165D01*
X14457900Y47763893D01*
X14379389Y47953436D01*
X14339000Y48156484D01*
X14339000Y48363516D01*
X14379389Y48566564D01*
X14458615Y48757833D01*
X14573635Y48929973D01*
X14720027Y49076365D01*
X14892165Y49191384D01*
X14892167Y49191385D01*
X15083436Y49270611D01*
X15286484Y49311000D01*
X15493516Y49311000D01*
X15696564Y49270611D01*
G37*
G36*
X60883786Y50092254D02*
G01*
X60914461Y50082949D01*
X60942729Y50067839D01*
X60967506Y50047506D01*
X60987839Y50022729D01*
X61002949Y49994461D01*
X61012254Y49963786D01*
X61016000Y49925749D01*
X61016000Y47914251D01*
X61012254Y47876214D01*
X61002949Y47845539D01*
X60987839Y47817271D01*
X60967506Y47792494D01*
X60942729Y47772161D01*
X60914461Y47757051D01*
X60883786Y47747746D01*
X60845749Y47744000D01*
X58534251Y47744000D01*
X58496214Y47747746D01*
X58465539Y47757051D01*
X58437271Y47772161D01*
X58412494Y47792494D01*
X58392161Y47817271D01*
X58377051Y47845539D01*
X58367746Y47876214D01*
X58364000Y47914251D01*
X58364000Y49925749D01*
X58367746Y49963786D01*
X58377051Y49994461D01*
X58392161Y50022729D01*
X58412494Y50047506D01*
X58437271Y50067839D01*
X58465539Y50082949D01*
X58496214Y50092254D01*
X58534251Y50096000D01*
X60845749Y50096000D01*
X60883786Y50092254D01*
G37*
G36*
X41198786Y50092254D02*
G01*
X41229461Y50082949D01*
X41257729Y50067839D01*
X41282506Y50047506D01*
X41302839Y50022729D01*
X41317949Y49994461D01*
X41327254Y49963786D01*
X41331000Y49925749D01*
X41331000Y47914251D01*
X41327254Y47876214D01*
X41317949Y47845539D01*
X41302839Y47817271D01*
X41282506Y47792494D01*
X41257729Y47772161D01*
X41229461Y47757051D01*
X41198786Y47747746D01*
X41160749Y47744000D01*
X38849251Y47744000D01*
X38811214Y47747746D01*
X38780539Y47757051D01*
X38752271Y47772161D01*
X38727494Y47792494D01*
X38707161Y47817271D01*
X38692051Y47845539D01*
X38682746Y47876214D01*
X38679000Y47914251D01*
X38679000Y49925749D01*
X38682746Y49963786D01*
X38692051Y49994461D01*
X38707161Y50022729D01*
X38727494Y50047506D01*
X38752271Y50067839D01*
X38780539Y50082949D01*
X38811214Y50092254D01*
X38849251Y50096000D01*
X41160749Y50096000D01*
X41198786Y50092254D01*
G37*
G36*
X111984549Y51928884D02*
G01*
X112095734Y51906768D01*
X112305203Y51820003D01*
X112493720Y51694040D01*
X112654040Y51533720D01*
X112780003Y51345203D01*
X112866768Y51135734D01*
X112911000Y50913364D01*
X112911000Y50686636D01*
X112866768Y50464266D01*
X112780003Y50254797D01*
X112654040Y50066280D01*
X112493720Y49905960D01*
X112305203Y49779997D01*
X112095734Y49693232D01*
X111984549Y49671116D01*
X111873365Y49649000D01*
X111646635Y49649000D01*
X111535451Y49671116D01*
X111424266Y49693232D01*
X111214797Y49779997D01*
X111026280Y49905960D01*
X110865960Y50066280D01*
X110739997Y50254797D01*
X110653232Y50464266D01*
X110609000Y50686636D01*
X110609000Y50913364D01*
X110653232Y51135734D01*
X110739997Y51345203D01*
X110865960Y51533720D01*
X111026280Y51694040D01*
X111214797Y51820003D01*
X111424266Y51906768D01*
X111535451Y51928884D01*
X111646635Y51951000D01*
X111873365Y51951000D01*
X111984549Y51928884D01*
G37*
G36*
X2764549Y51928884D02*
G01*
X2875734Y51906768D01*
X3085203Y51820003D01*
X3273720Y51694040D01*
X3434040Y51533720D01*
X3560003Y51345203D01*
X3646768Y51135734D01*
X3691000Y50913364D01*
X3691000Y50686636D01*
X3646768Y50464266D01*
X3560003Y50254797D01*
X3434040Y50066280D01*
X3273720Y49905960D01*
X3085203Y49779997D01*
X2875734Y49693232D01*
X2764549Y49671116D01*
X2653365Y49649000D01*
X2426635Y49649000D01*
X2315451Y49671116D01*
X2204266Y49693232D01*
X1994797Y49779997D01*
X1806280Y49905960D01*
X1645960Y50066280D01*
X1519997Y50254797D01*
X1433232Y50464266D01*
X1389000Y50686636D01*
X1389000Y50913364D01*
X1433232Y51135734D01*
X1519997Y51345203D01*
X1645960Y51533720D01*
X1806280Y51694040D01*
X1994797Y51820003D01*
X2204266Y51906768D01*
X2315451Y51928884D01*
X2426635Y51951000D01*
X2653365Y51951000D01*
X2764549Y51928884D01*
G37*
M02*
